<?xml version="1.0" encoding="utf-8"?>
<!-- Generator: Adobe Illustrator 28.2.0, SVG Export Plug-In . SVG Version: 6.00 Build 0)  -->
<svg version="1.1" id="address-book-new" xmlns="http://www.w3.org/2000/svg" xmlns:xlink="http://www.w3.org/1999/xlink" x="0px"
	 y="0px" viewBox="0 0 120 120" style="enable-background:new 0 0 120 120;" xml:space="preserve">
<style type="text/css">
	.st0{fill:none;}
</style>
<rect class="st0" width="120" height="120"/>
<g>
	<path d="M60,65c6.8,0,12.3-6,12.3-13.3c0-7.4-5.5-13.3-12.3-13.3c-6.8,0-12.3,6-12.3,13.3C47.7,59,53.2,65,60,65z"/>
	<path d="M60,17.9c-21.8,0-39.8,16.8-41.8,38.1c2.5-1,5.1-1.6,7.9-1.9c2.8-16.3,17.1-28.6,34-28.6c18.9,0,34.5,15.6,34.5,34.5
		c0,8.5-3,16.1-8,22.1c-5.5-8-15.4-13.3-26.4-13.3c-1.7,0-3.4,0.1-5.1,0.4c2.4,4.3,3.8,9.3,3.8,14.6c0,6.6-2.2,12.7-5.8,17.7
		c2.3,0.4,4.7,0.6,7.1,0.6c23.1,0,42-18.9,42-42C102,36.8,83.1,17.9,60,17.9z"/>
	<path d="M29,60.8c-12.8,0-23,10.3-23,23s10.3,23,23,23s23-10.3,23-23S41.6,60.8,29,60.8z M40,86.4h-8.3v8.3c0,1.4-1.1,2.5-2.5,2.5
		s-2.5-1.1-2.5-2.5v-8.3h-8.9c-1.4,0-2.5-1.1-2.5-2.5c0-1.4,1.1-2.5,2.5-2.5h8.3v-8.3c0-1.4,1.1-2.5,2.5-2.5c1.4,0,2.5,1.1,2.5,2.5
		v8.3h8.3c1.4,0,2.5,1.1,2.5,2.5C42,85.3,41.5,86.4,40,86.4z"/>
</g>
</svg>
