<?xml version="1.0" encoding="utf-8"?>
<!-- Generator: Adobe Illustrator 26.5.0, SVG Export Plug-In . SVG Version: 6.00 Build 0)  -->
<svg version="1.1" id="Layer_1" xmlns="http://www.w3.org/2000/svg" xmlns:xlink="http://www.w3.org/1999/xlink" x="0px" y="0px"
	 viewBox="0 0 48 48" style="enable-background:new 0 0 48 48;" xml:space="preserve">
<g>
	<path d="M24,7.3C14.8,7.3,7.3,14.8,7.3,24c0,9.2,7.5,16.7,16.7,16.7c9.2,0,16.7-7.5,16.7-16.7C40.7,14.8,33.2,7.3,24,7.3z
		 M34.5,32.8c-2.2-3.2-6.1-5.3-10.5-5.3s-8.3,2.1-10.5,5.3c-2-2.4-3.2-5.5-3.2-8.8c0-7.6,6.2-13.7,13.7-13.7
		c7.6,0,13.7,6.2,13.7,13.7C37.7,27.4,36.5,30.4,34.5,32.8z"/>
	<ellipse cx="24" cy="20.7" rx="4.9" ry="5.3"/>
</g>
</svg>
