<?xml version="1.0" encoding="utf-8"?>
<!-- Generator: Adobe Illustrator 28.2.0, SVG Export Plug-In . SVG Version: 6.00 Build 0)  -->
<svg version="1.1" xmlns="http://www.w3.org/2000/svg" xmlns:xlink="http://www.w3.org/1999/xlink" x="0px" y="0px"
	 viewBox="0 0 40 40" style="enable-background:new 0 0 40 40;" xml:space="preserve">
<g id="BG">
</g>
<g id="address-book-new">
	<g>
		<ellipse cx="22.9" cy="17" rx="4.4" ry="4.7"/>
		<g>
			<path d="M22.9,4.9c-7.7,0-14.1,5.9-14.9,13.4c0.6-0.1,1.3-0.2,2-0.2c0.3,0,0.5,0,0.8,0c0.8-6,6-10.5,12.2-10.5
				c6.8,0,12.2,5.5,12.2,12.2c0,3-1.1,5.7-2.9,7.9c-2-2.9-5.5-4.7-9.4-4.7c-1.5,0-3,0.3-4.4,0.8c0.4,1.1,0.7,2.3,0.7,3.7
				c0,2.3-0.9,4.5-2.3,6.2c1.8,0.8,3.8,1.3,5.9,1.3c8.2,0,14.9-6.7,14.9-14.9C37.9,11.7,31.1,4.9,22.9,4.9z"/>
		</g>
		<g>
			<g>
				<path d="M9.9,19.9c-4.2,0-7.6,3.4-7.6,7.6s3.4,7.6,7.6,7.6s7.6-3.4,7.6-7.6S14.1,19.9,9.9,19.9z M13.6,28.4h-2.8v2.8
					c0,0.4-0.4,0.8-0.8,0.8s-0.8-0.4-0.8-0.8v-2.8H6.2c-0.4,0-0.8-0.4-0.8-0.8c0-0.4,0.4-0.8,0.8-0.8H9V24c0-0.4,0.4-0.8,0.8-0.8
					s0.8,0.4,0.8,0.8v2.8h2.8c0.4,0,0.8,0.4,0.8,0.8C14.2,28,14,28.4,13.6,28.4z"/>
			</g>
		</g>
	</g>
</g>
</svg>
