<?xml version="1.0" encoding="utf-8"?>
<!-- Generator: Adobe Illustrator 28.2.0, SVG Export Plug-In . SVG Version: 6.00 Build 0)  -->
<svg version="1.1" id="address-book" xmlns="http://www.w3.org/2000/svg" xmlns:xlink="http://www.w3.org/1999/xlink" x="0px"
	 y="0px" viewBox="0 0 120 120" style="enable-background:new 0 0 120 120;" xml:space="preserve">
<style type="text/css">
	.st0{fill:none;}
</style>
<rect id="BG" class="st0" width="120" height="120"/>
<g>
	<path d="M60,17.9c-23.1,0-42,18.9-42,42c0,23.1,18.9,42,42,42s42-18.9,42-42C102,36.8,83.1,17.9,60,17.9z M86.4,82.1
		c-5.5-8-15.4-13.3-26.4-13.3s-20.9,5.3-26.4,13.3c-5-6.1-8-13.8-8-22.1c0-19.1,15.6-34.5,34.5-34.5S94.5,41.1,94.5,60
		C94.5,68.5,91.4,76.1,86.4,82.1z"/>
	<path d="M60,65c6.8,0,12.3-6,12.3-13.3S66.8,38.3,60,38.3s-12.3,6-12.3,13.3S53.2,65,60,65z"/>
</g>
</svg>
