<?xml version="1.0" encoding="utf-8"?>
<!-- Generator: Adobe Illustrator 26.5.0, SVG Export Plug-In . SVG Version: 6.00 Build 0)  -->
<svg version="1.1" id="Layer_3" xmlns="http://www.w3.org/2000/svg" xmlns:xlink="http://www.w3.org/1999/xlink" x="0px" y="0px"
	 viewBox="0 0 48 48" style="enable-background:new 0 0 48 48;" xml:space="preserve">
<g>
	<ellipse cx="27.1" cy="20.6" rx="4.9" ry="5.3"/>
	<g>
		<path d="M27.1,7.1c-8.6,0-15.8,6.6-16.7,15c0.7-0.1,1.4-0.2,2.2-0.2c0.3,0,0.6,0,0.9,0c0.9-6.7,6.7-11.8,13.6-11.8
			c7.6,0,13.7,6.2,13.7,13.7c0,3.4-1.2,6.4-3.2,8.8c-2.2-3.2-6.1-5.3-10.5-5.3c-1.7,0-3.4,0.3-4.9,0.9c0.5,1.2,0.8,2.6,0.8,4.1
			c0,2.6-1,5-2.6,6.9c2,0.9,4.3,1.4,6.6,1.4c9.2,0,16.7-7.5,16.7-16.7C43.9,14.7,36.3,7.1,27.1,7.1z"/>
	</g>
	<g>
		<path d="M12.6,23.9c-4.7,0-8.5,3.8-8.5,8.5s3.8,8.5,8.5,8.5s8.5-3.8,8.5-8.5S17.3,23.9,12.6,23.9z M16.7,33.4h-3.1v3.1
			c0,0.5-0.4,0.9-0.9,0.9s-0.9-0.4-0.9-0.9v-3.1H8.5c-0.5,0-0.9-0.4-0.9-0.9s0.4-0.9,0.9-0.9h3.1v-3.1c0-0.5,0.4-0.9,0.9-0.9
			s0.9,0.4,0.9,0.9v3.1h3.1c0.5,0,0.9,0.4,0.9,0.9S17.2,33.4,16.7,33.4z"/>
	</g>
</g>
</svg>
