<?xml version="1.0" encoding="utf-8"?>
<!-- Generator: Adobe Illustrator 28.2.0, SVG Export Plug-In . SVG Version: 6.00 Build 0)  -->
<svg version="1.1" xmlns="http://www.w3.org/2000/svg" xmlns:xlink="http://www.w3.org/1999/xlink" x="0px" y="0px"
	 viewBox="0 0 40 40" style="enable-background:new 0 0 40 40;" xml:space="preserve">
<g id="BG">
</g>
<g id="address-book">
	<g>
		<path d="M20,5C11.7,5,5,11.7,5,20s6.7,15,15,15s15-6.7,15-15S28.3,5,20,5z M29.4,27.9c-2-2.9-5.5-4.8-9.4-4.8s-7.5,1.9-9.4,4.8
			C8.8,25.7,7.7,23,7.7,20c0-6.8,5.6-12.3,12.3-12.3c6.8,0,12.3,5.6,12.3,12.3C32.3,23,31.2,25.7,29.4,27.9z"/>
		<ellipse cx="20" cy="17" rx="4.4" ry="4.8"/>
	</g>
</g>
</svg>
