<?xml version="1.0" encoding="utf-8"?>
<!-- Generator: Adobe Illustrator 28.2.0, SVG Export Plug-In . SVG Version: 6.00 Build 0)  -->
<svg version="1.1" xmlns="http://www.w3.org/2000/svg" xmlns:xlink="http://www.w3.org/1999/xlink" x="0px" y="0px"
	 viewBox="0 0 40 40" style="enable-background:new 0 0 40 40;" xml:space="preserve">
<g id="Bg">
</g>
<g id="appointment">
	<g>
		<path d="M14,17.7c-0.1,0-0.3-0.1-0.4-0.2s-0.2-0.2-0.2-0.4c0-0.1,0-0.3,0.1-0.4c0.1-0.1,0.2-0.2,0.4-0.2h5.7
			c0.1,0,0.3,0.1,0.4,0.2s0.1,0.2,0.1,0.4c0,0.3-0.1,0.6-0.4,0.9l-3.3,3.2v0c0,0,0,0,0,0H17c1.1,0,1.9,0.3,2.5,0.8s0.9,1.3,0.9,2.3
			c0,1.2-0.3,2.1-1,2.7c-0.7,0.6-1.7,0.9-3,0.9c-0.8,0-1.5-0.1-2.2-0.4c-0.4-0.1-0.6-0.4-0.6-0.8c0-0.1,0.1-0.2,0.2-0.3
			c0.1-0.1,0.2-0.1,0.4,0c0.7,0.3,1.5,0.5,2.3,0.5c0.9,0,1.6-0.2,2.1-0.7c0.5-0.4,0.7-1.1,0.7-1.9c0-0.7-0.2-1.3-0.7-1.6
			c-0.5-0.4-1.3-0.5-2.3-0.5h-0.6c-0.1,0-0.2,0-0.3-0.1c-0.1-0.1-0.1-0.2-0.1-0.3c0-0.3,0.1-0.6,0.3-0.8l3.3-3.2v0c0,0,0,0,0,0H14z"
			/>
		<path d="M22.7,20.1c-0.1,0.1-0.2,0.1-0.3,0c-0.1-0.1-0.2-0.2-0.2-0.3c0-0.4,0.2-0.8,0.5-1.1l2.2-1.7c0.3-0.3,0.7-0.4,1.1-0.4
			c0.2,0,0.3,0.1,0.4,0.2c0.1,0.1,0.2,0.3,0.2,0.4v10c0,0.2-0.1,0.3-0.2,0.4c-0.1,0.1-0.3,0.2-0.4,0.2s-0.3-0.1-0.4-0.2
			c-0.1-0.1-0.2-0.3-0.2-0.4V18c0,0,0,0,0,0l0,0L22.7,20.1z"/>
		<path d="M31.7,31.7H8.3V14.5H5.6v17.9c0,1.1,0.9,2,2,2h24.8c1.1,0,2-0.9,2-2V14.5h-2.7V31.7z"/>
		<path d="M34.4,11.8V7.6c0-1.1-0.9-2-2-2H7.6c-1.1,0-2,0.9-2,2v4.1H34.4z"/>
	</g>
</g>
</svg>
