<?xml version="1.0" encoding="utf-8"?>
<!-- Generator: Adobe Illustrator 28.2.0, SVG Export Plug-In . SVG Version: 6.00 Build 0)  -->
<svg version="1.1" xmlns="http://www.w3.org/2000/svg" xmlns:xlink="http://www.w3.org/1999/xlink" x="0px" y="0px"
	 viewBox="0 0 40 40" style="enable-background:new 0 0 40 40;" xml:space="preserve">
<g id="BG">
</g>
<g id="appointment-new">
	<g>
		<g>
			<g>
				<path d="M10.1,20.1c-4.2,0-7.7,3.4-7.7,7.7s3.4,7.7,7.7,7.7s7.7-3.4,7.7-7.7S14.3,20.1,10.1,20.1z M13.8,28.6H11v2.8
					c0,0.5-0.4,0.8-0.8,0.8c-0.5,0-0.8-0.4-0.8-0.8v-2.8h-3c-0.5,0-0.8-0.4-0.8-0.8s0.4-0.8,0.8-0.8h2.8v-2.8c0-0.5,0.4-0.8,0.8-0.8
					c0.5,0,0.8,0.4,0.8,0.8v2.8h2.8c0.5,0,0.8,0.4,0.8,0.8C14.4,28.2,14.3,28.6,13.8,28.6z"/>
			</g>
		</g>
		<g>
			<path d="M11.4,18.4v-3.9H8.7v3.9c0.5,0,0.9-0.1,1.4-0.1C10.5,18.3,11,18.3,11.4,18.4z"/>
			<path d="M34.8,31.7H18.6c-0.5,1-1.1,1.9-1.9,2.7h18.8c1.1,0,2-0.9,2-2v-18h-2.7L34.8,31.7L34.8,31.7z"/>
			<path d="M19.2,23c0.5,0,0.9,0.1,1.2,0.4c0.3,0.2,0.5,0.6,0.5,1.2c0,0.4-0.1,0.7-0.4,1c-0.3,0.2-0.6,0.4-1,0.4
				c0.1,0.6,0.1,1.1,0.1,1.7c0,0.1,0,0.3,0,0.4c1.2,0,2.1-0.4,2.8-0.9c0.8-0.6,1.2-1.5,1.2-2.5c0-0.7-0.2-1.2-0.6-1.7
				s-0.8-0.8-1.5-1c0.6-0.3,1.1-0.6,1.3-1.1c0.3-0.5,0.5-0.9,0.5-1.4c0-1.1-0.4-1.8-1.1-2.4c-0.7-0.6-1.8-0.9-3.1-0.9
				c-0.7,0-1.4,0.1-2,0.4c-0.6,0.3-1.1,0.6-1.4,1.2c-0.3,0.4-0.5,0.8-0.5,1.3c0,0.2,0.1,0.3,0.3,0.3h2.1c0.1,0,0.3-0.1,0.3-0.2
				c0-0.2,0.2-0.4,0.4-0.6c0.3-0.2,0.6-0.3,0.9-0.3c0.5,0,0.8,0.1,1,0.4c0.2,0.2,0.4,0.6,0.4,1c0,1-0.5,1.5-1.5,1.5h-1
				c-0.2,0-0.3,0.1-0.3,0.3v1c0.1,0.2,0.3,0.4,0.4,0.6H19.2z"/>
			<path d="M27.9,28h2.1c0.2,0,0.3-0.1,0.3-0.3V16.7c0-0.2-0.2-0.4-0.4-0.3L25.1,18c-0.1,0-0.2,0.2-0.2,0.3v1.4
				c0,0.2,0.2,0.4,0.4,0.3l1.8-0.6c0.2,0,0.4,0.1,0.4,0.3v7.9C27.5,27.8,27.7,28,27.9,28z"/>
			<path d="M35.5,5.6H10.7c-1.1,0-2,0.9-2,2v4.2h28.8V7.6C37.5,6.5,36.6,5.6,35.5,5.6z"/>
		</g>
	</g>
</g>
</svg>
