<?xml version="1.0" encoding="utf-8"?>
<!-- Generator: Adobe Illustrator 28.2.0, SVG Export Plug-In . SVG Version: 6.00 Build 0)  -->
<svg version="1.1" xmlns="http://www.w3.org/2000/svg" xmlns:xlink="http://www.w3.org/1999/xlink" x="0px" y="0px"
	 viewBox="0 0 40 40" style="enable-background:new 0 0 40 40;" xml:space="preserve">
<g id="BG">
</g>
<g id="appointment">
	<g>
		<g>
			<path d="M14.7,21.3c0-0.2,0.1-0.3,0.3-0.3H16c1,0,1.5-0.5,1.5-1.5c0-0.4-0.1-0.7-0.4-0.9c-0.2-0.2-0.6-0.4-1-0.4
				c-0.4,0-0.7,0.1-0.9,0.3c-0.2,0.1-0.3,0.4-0.4,0.5c0,0.1-0.2,0.2-0.3,0.2h-2.1c-0.2,0-0.4-0.2-0.3-0.4c0-0.5,0.2-0.9,0.5-1.3
				c0.4-0.5,0.8-0.9,1.4-1.1s1.3-0.4,2-0.4c1.3,0,2.3,0.3,3.1,0.9c0.8,0.6,1.1,1.4,1.1,2.5c0,0.5-0.1,1-0.5,1.4
				c-0.3,0.5-0.8,0.8-1.4,1.1c0.6,0.2,1.1,0.6,1.5,1s0.5,1,0.5,1.7c0,1-0.4,1.9-1.2,2.5c-0.8,0.6-1.8,0.9-3.2,0.9
				c-0.8,0-1.5-0.1-2.1-0.5c-0.7-0.3-1.2-0.7-1.5-1.2c-0.3-0.4-0.5-0.9-0.5-1.4c0-0.2,0.1-0.4,0.3-0.4h2.1c0.1,0,0.3,0.1,0.3,0.3
				c0,0.3,0.2,0.5,0.4,0.7c0.3,0.3,0.6,0.4,1.1,0.4c0.5,0,0.9-0.1,1.1-0.4s0.4-0.6,0.4-1c0-0.6-0.1-1-0.5-1.3
				C17,23.1,16.6,23,16.1,23h-1c-0.2,0-0.3-0.1-0.3-0.3V21.3z"/>
			<path d="M27.2,16.7v11c0,0.2-0.1,0.3-0.3,0.3h-2.1c-0.2,0-0.3-0.1-0.3-0.3v-7.9c0-0.2-0.2-0.4-0.4-0.3L22.2,20
				c-0.2,0-0.4-0.1-0.4-0.3v-1.4c0-0.1,0.1-0.3,0.2-0.3l4.7-1.6C26.9,16.3,27.2,16.4,27.2,16.7z"/>
		</g>
		<path d="M31.7,31.7H8.3V14.5H5.6v17.9c0,1.1,0.9,2,2,2h24.8c1.1,0,2-0.9,2-2V14.5h-2.7V31.7z"/>
		<path d="M34.4,11.8V7.6c0-1.1-0.9-2-2-2H7.6c-1.1,0-2,0.9-2,2v4.1H34.4z"/>
	</g>
</g>
</svg>
