<?xml version="1.0" encoding="utf-8"?>
<!-- Generator: Adobe Illustrator 28.2.0, SVG Export Plug-In . SVG Version: 6.00 Build 0)  -->
<svg version="1.1" xmlns="http://www.w3.org/2000/svg" xmlns:xlink="http://www.w3.org/1999/xlink" x="0px" y="0px"
	 viewBox="0 0 40 40" style="enable-background:new 0 0 40 40;" xml:space="preserve">
<g id="Bg">
</g>
<g id="appointment-new">
	<g>
		<path d="M11.4,18.4v-3.9H8.7v3.9c0.5,0,0.9-0.1,1.4-0.1C10.5,18.3,11,18.3,11.4,18.4z"/>
		<g>
			<path d="M34.8,31.7H18.6c-0.5,1-1.1,1.9-1.9,2.7h18.8c1.1,0,2-0.9,2-2v-18h-2.7L34.8,31.7L34.8,31.7z"/>
		</g>
		<g>
			<path d="M35.5,5.6H10.7c-1.1,0-2,0.9-2,2v4.2h28.8V7.6C37.5,6.5,36.6,5.6,35.5,5.6z"/>
		</g>
		<path d="M10.1,20.1c-4.2,0-7.7,3.4-7.7,7.7s3.4,7.7,7.7,7.7s7.7-3.4,7.7-7.7S14.3,20.1,10.1,20.1z M13.8,28.6H11v2.8
			c0,0.5-0.4,0.8-0.8,0.8c-0.5,0-0.8-0.4-0.8-0.8v-2.8h-3c-0.5,0-0.8-0.4-0.8-0.8s0.4-0.8,0.8-0.8h2.8v-2.8c0-0.5,0.4-0.8,0.8-0.8
			c0.5,0,0.8,0.4,0.8,0.8v2.8h2.8c0.5,0,0.8,0.4,0.8,0.8C14.4,28.2,14.3,28.6,13.8,28.6z"/>
		<path d="M20.1,21.3h-0.4c0,0,0,0,0,0v0l3.3-3.2c0.2-0.2,0.4-0.5,0.4-0.9c0-0.1,0-0.3-0.1-0.4s-0.2-0.2-0.4-0.2h-5.7
			c-0.1,0-0.3,0.1-0.4,0.2c-0.1,0.1-0.1,0.2-0.1,0.4c0,0.1,0.1,0.3,0.2,0.4s0.2,0.2,0.4,0.2h4.6c0,0,0,0,0,0v0l-3.3,3.2
			c-0.2,0.2-0.3,0.5-0.3,0.8c0,0.1,0,0.2,0.1,0.3c0.1,0.1,0.2,0.1,0.3,0.1h0.6c1.1,0,1.8,0.2,2.3,0.5c0.5,0.4,0.7,0.9,0.7,1.6
			c0,0.9-0.2,1.5-0.7,1.9C21,26.8,20.3,27,19.4,27c-0.2,0-0.5,0-0.7-0.1c0,0.3,0,0.5,0,0.8c0,0.1,0,0.2,0,0.2c0.2,0,0.5,0.1,0.7,0.1
			c1.3,0,2.3-0.3,3-0.9c0.7-0.6,1-1.5,1-2.7c0-1-0.3-1.7-0.9-2.3S21.2,21.3,20.1,21.3z"/>
		<path d="M29.4,16.8c-0.1-0.1-0.3-0.2-0.4-0.2c-0.4,0-0.8,0.1-1.1,0.4l-2.2,1.7c-0.3,0.3-0.5,0.7-0.5,1.1c0,0.1,0.1,0.2,0.2,0.3
			c0.1,0.1,0.2,0,0.3,0l2.6-2.1l0,0c0,0,0,0,0,0v9.2c0,0.2,0.1,0.3,0.2,0.4c0.1,0.1,0.3,0.2,0.4,0.2s0.3-0.1,0.4-0.2
			c0.1-0.1,0.2-0.3,0.2-0.4v-10C29.6,17.1,29.6,17,29.4,16.8z"/>
	</g>
</g>
</svg>
