<?xml version="1.0" encoding="utf-8"?>
<!-- Generator: Adobe Illustrator 26.4.1, SVG Export Plug-In . SVG Version: 6.00 Build 0)  -->
<svg version="1.1" id="Layer_3" xmlns="http://www.w3.org/2000/svg" xmlns:xlink="http://www.w3.org/1999/xlink" x="0px" y="0px"
	 viewBox="0 0 96 96" style="enable-background:new 0 0 96 96;" xml:space="preserve">
<g>
	<g>
		<path d="M74,74H22V35.7h-6v39.8c0,2.5,2,4.5,4.5,4.5h55c2.5,0,4.5-2,4.5-4.5V35.7h-6V74z"/>
	</g>
	<g>
		<path d="M36.3,50.8c0-0.4,0.3-0.7,0.7-0.7h2.1c2.3,0,3.4-1.1,3.4-3.3c0-0.9-0.3-1.6-0.8-2.1c-0.5-0.5-1.3-0.8-2.3-0.8
			c-0.8,0-1.5,0.2-2.1,0.7c-0.4,0.3-0.7,0.8-0.8,1.2c-0.1,0.3-0.4,0.5-0.7,0.5h-4.6c-0.4,0-0.8-0.4-0.7-0.8c0.1-1.1,0.5-2,1.1-2.9
			c0.8-1.1,1.8-1.9,3.2-2.5c1.4-0.6,2.8-0.9,4.5-0.9c2.9,0,5.2,0.7,6.8,2c1.7,1.3,2.5,3.1,2.5,5.5c0,1.1-0.3,2.2-1,3.2
			c-0.7,1-1.7,1.8-3,2.4c1.4,0.5,2.5,1.3,3.3,2.3c0.8,1,1.2,2.3,1.2,3.8c0,2.3-0.9,4.2-2.7,5.6c-1.8,1.4-4.1,2.1-7,2.1
			c-1.7,0-3.3-0.3-4.7-1c-1.5-0.6-2.6-1.6-3.3-2.7c-0.6-0.9-1-2-1.1-3.2c0-0.4,0.3-0.8,0.7-0.8h4.7c0.3,0,0.6,0.3,0.6,0.6
			c0.1,0.6,0.4,1.1,0.9,1.5c0.6,0.6,1.4,0.9,2.4,0.9c1.1,0,1.9-0.3,2.5-0.9c0.6-0.6,0.9-1.3,0.9-2.3c0-1.3-0.3-2.2-1-2.8
			c-0.7-0.5-1.6-0.8-2.7-0.8H37c-0.4,0-0.7-0.3-0.7-0.7V50.8z"/>
		<path d="M63.9,40.6V65c0,0.4-0.3,0.7-0.7,0.7h-4.6c-0.4,0-0.7-0.3-0.7-0.7V47.4c0-0.5-0.4-0.8-0.9-0.7l-4.1,1.2
			c-0.4,0.1-0.9-0.2-0.9-0.7v-3.1c0-0.3,0.2-0.6,0.5-0.7L63,39.9C63.4,39.8,63.9,40.1,63.9,40.6z"/>
	</g>
	<path d="M80,29.7v-9.2c0-2.5-2-4.5-4.5-4.5h-55C18,16,16,18,16,20.5v9.2H80z"/>
</g>
</svg>
