<?xml version="1.0" encoding="utf-8"?>
<!-- Generator: Adobe Illustrator 26.4.1, SVG Export Plug-In . SVG Version: 6.00 Build 0)  -->
<svg version="1.1" id="Layer_3" xmlns="http://www.w3.org/2000/svg" xmlns:xlink="http://www.w3.org/1999/xlink" x="0px" y="0px"
	 viewBox="0 0 96 96" style="enable-background:new 0 0 96 96;" xml:space="preserve">
<g>
	<g>
		<g>
			<path d="M26.6,47.1c-9.2,0-16.6,7.4-16.6,16.6s7.4,16.6,16.6,16.6s16.6-7.4,16.6-16.6S35.7,47.1,26.6,47.1z M34.6,65.6h-6v6
				c0,1-0.8,1.8-1.8,1.8c-1,0-1.8-0.8-1.8-1.8v-6h-6.4c-1,0-1.8-0.8-1.8-1.8s0.8-1.8,1.8-1.8h6v-6c0-1,0.8-1.8,1.8-1.8
				c1,0,1.8,0.8,1.8,1.8v6h6c1,0,1.8,0.8,1.8,1.8S35.6,65.6,34.6,65.6z"/>
		</g>
	</g>
	<g>
		<path d="M29.4,43.4V35h-5.9v8.5c1-0.1,2-0.3,3-0.3C27.5,43.2,28.5,43.3,29.4,43.4z"/>
		<path d="M80.1,72.4H45.1c-1,2.2-2.4,4.2-4.1,5.9h40.7c2.4,0,4.4-2,4.4-4.4V35h-5.9V72.4z"/>
		<path d="M46.3,53.4c1.1,0,2,0.3,2.7,0.8c0.6,0.5,1,1.4,1,2.7c0,0.9-0.3,1.6-0.9,2.2c-0.6,0.5-1.3,0.8-2.2,0.8
			c0.2,1.2,0.3,2.4,0.3,3.7c0,0.3,0,0.6,0,0.9c2.5-0.1,4.5-0.8,6.1-2c1.7-1.4,2.6-3.2,2.6-5.4c0-1.5-0.4-2.7-1.2-3.7
			c-0.8-1-1.8-1.7-3.2-2.2c1.3-0.6,2.3-1.4,2.9-2.4c0.7-1,1-2,1-3.1c0-2.3-0.8-4-2.4-5.3c-1.6-1.3-3.8-1.9-6.7-1.9
			c-1.6,0-3,0.3-4.4,0.9c-1.3,0.6-2.4,1.4-3.1,2.5c-0.6,0.9-1,1.8-1.1,2.8c0,0.4,0.3,0.7,0.7,0.7h4.5c0.3,0,0.6-0.2,0.7-0.5
			c0.1-0.5,0.4-0.9,0.8-1.2c0.6-0.5,1.3-0.7,2-0.7c1,0,1.7,0.3,2.2,0.8c0.5,0.5,0.8,1.2,0.8,2.1c0,2.2-1.1,3.2-3.3,3.2h-2.1
			c-0.4,0-0.7,0.3-0.7,0.7V52c0.3,0.5,0.6,0.9,0.9,1.4H46.3z"/>
		<path d="M65.1,64.2h4.5c0.4,0,0.7-0.3,0.7-0.7V39.8c0-0.5-0.5-0.8-0.9-0.6l-10.3,3.4c-0.3,0.1-0.5,0.4-0.5,0.6v3.1
			c0,0.5,0.4,0.8,0.9,0.7l4-1.2c0.4-0.1,0.9,0.2,0.9,0.7v17.2C64.4,63.9,64.7,64.2,65.1,64.2z"/>
		<path d="M81.6,15.8H27.9c-2.4,0-4.4,2-4.4,4.4v9H86v-9C86,17.7,84,15.8,81.6,15.8z"/>
	</g>
</g>
</svg>
