<?xml version="1.0" encoding="utf-8"?>
<!-- Generator: Adobe Illustrator 28.2.0, SVG Export Plug-In . SVG Version: 6.00 Build 0)  -->
<svg version="1.1" id="appointment-new" xmlns="http://www.w3.org/2000/svg" xmlns:xlink="http://www.w3.org/1999/xlink" x="0px"
	 y="0px" viewBox="0 0 120 120" style="enable-background:new 0 0 120 120;" xml:space="preserve">
<style type="text/css">
	.st0{fill:none;}
</style>
<rect id="BG" class="st0" width="120" height="120"/>
<g>
	<path d="M54.4,47.7h-3.2c-1.2,0-2.2,1-2.2,2.2v3.2c0,1.2,1,2.2,2.2,2.2h3.2c1.2,0,2.2-1,2.2-2.2v-3.2
		C56.6,48.7,55.6,47.7,54.4,47.7z"/>
	<path d="M65.6,47.7h3.2c1.2,0,2.2,1,2.2,2.2v3.2c0,1.2-1,2.2-2.2,2.2h-3.2c-1.2,0-2.2-1-2.2-2.2v-3.2
		C63.4,48.7,64.3,47.7,65.6,47.7z"/>
	<path d="M79.9,47.7H83c1.2,0,2.2,1,2.2,2.2v3.2c0,1.2-1,2.2-2.2,2.2h-3.2c-1.2,0-2.2-1-2.2-2.2v-3.2C77.7,48.7,78.7,47.7,79.9,47.7
		z"/>
	<path d="M68.7,61h-3.2c-1.2,0-2.2,1-2.2,2.2v3.2c0,1.2,1,2.2,2.2,2.2h3.2c1.2,0,2.2-1,2.2-2.2v-3.2C70.9,62,69.9,61,68.7,61z"/>
	<path d="M79.9,61H83c1.2,0,2.2,1,2.2,2.2v3.2c0,1.2-1,2.2-2.2,2.2h-3.2c-1.2,0-2.2-1-2.2-2.2v-3.2C77.7,62,78.7,61,79.9,61z"/>
	<path d="M68.7,74.5h-3.2c-1.2,0-2.2,1-2.2,2.2v3.2c0,1.2,1,2.2,2.2,2.2h3.2c1.2,0,2.2-1,2.2-2.2v-3.2
		C70.9,75.5,69.9,74.5,68.7,74.5z"/>
	<path d="M29,60.8c-12.8,0-23,10.3-23,23s10.3,23,23,23s23-10.3,23-23S41.6,60.8,29,60.8z M40,86.4h-8.3v8.3c0,1.4-1.1,2.5-2.5,2.5
		s-2.5-1.1-2.5-2.5v-8.3h-8.9c-1.4,0-2.5-1.1-2.5-2.5c0-1.4,1.1-2.5,2.5-2.5h8.3v-8.3c0-1.4,1.1-2.5,2.5-2.5c1.4,0,2.5,1.1,2.5,2.5
		v8.3h8.3c1.4,0,2.5,1.1,2.5,2.5C42,85.3,41.5,86.4,40,86.4z"/>
	<path d="M93.2,24.5H26.8c-6.5,0-11.9,5.3-11.9,11.9v21.2c2.4-1.3,5.1-2.3,7.9-2.9V41.4h74.3v42.3c0,2.2-1.8,4-4,4H58.4
		c-0.4,2.8-1.1,5.4-2.2,7.9h37c6.5,0,11.8-5.3,11.8-11.8V36.3C105.1,29.8,99.7,24.5,93.2,24.5z"/>
	<path d="M54.6,68.6c1.1-0.1,2.1-1,2.1-2.2v-3.2c0-1.2-1-2.2-2.2-2.2h-3.2c-0.8,0-1.5,0.4-1.9,1.1C51.4,64,53.1,66.2,54.6,68.6z"/>
</g>
</svg>
