<?xml version="1.0" encoding="utf-8"?>
<!-- Generator: Adobe Illustrator 28.2.0, SVG Export Plug-In . SVG Version: 6.00 Build 0)  -->
<svg version="1.1" xmlns="http://www.w3.org/2000/svg" xmlns:xlink="http://www.w3.org/1999/xlink" x="0px" y="0px"
	 viewBox="0 0 40 40" style="enable-background:new 0 0 40 40;" xml:space="preserve">
<g id="BG">
</g>
<g id="appointment-new_remake">
	<g>
		<path d="M31.1,8.4H8.9c-2.1,0-3.7,1.7-3.7,3.7v7.5c0.7-0.4,1.4-0.8,2.2-1v-5h25.2v14.3c0,0.8-0.7,1.5-1.5,1.5H19.4
			c-0.1,0.8-0.4,1.5-0.7,2.2h12.4c2.1,0,3.7-1.7,3.7-3.7V12.1C34.8,10,33.1,8.4,31.1,8.4z"/>
		<path d="M10.1,20.1c-4.2,0-7.7,3.4-7.7,7.7s3.4,7.7,7.7,7.7s7.7-3.4,7.7-7.7S14.3,20.1,10.1,20.1z M13.8,28.6H11v2.8
			c0,0.5-0.4,0.8-0.8,0.8c-0.5,0-0.8-0.4-0.8-0.8v-2.8h-3c-0.5,0-0.8-0.4-0.8-0.8s0.4-0.8,0.8-0.8h2.8v-2.8c0-0.5,0.4-0.8,0.8-0.8
			c0.5,0,0.8,0.4,0.8,0.8v2.8h2.8c0.5,0,0.8,0.4,0.8,0.8C14.4,28.2,14.3,28.6,13.8,28.6z"/>
		<g>
			<path d="M18.1,15.9h-1.1c-0.4,0-0.7,0.3-0.7,0.7v1.1c0,0.4,0.3,0.7,0.7,0.7h1.1c0.4,0,0.7-0.3,0.7-0.7v-1.1
				C18.9,16.2,18.5,15.9,18.1,15.9z"/>
			<path d="M22.9,18.4c0.4,0,0.7-0.3,0.7-0.7v-1.1c0-0.4-0.3-0.7-0.7-0.7h-1.1c-0.4,0-0.7,0.3-0.7,0.7v1.1c0,0.4,0.3,0.7,0.7,0.7
				H22.9z"/>
			<path d="M27.7,15.9h-1.1c-0.4,0-0.7,0.3-0.7,0.7v1.1c0,0.4,0.3,0.7,0.7,0.7h1.1c0.4,0,0.7-0.3,0.7-0.7v-1.1
				C28.4,16.2,28.1,15.9,27.7,15.9z"/>
			<path d="M22.9,22.9c0.4,0,0.7-0.3,0.7-0.7v-1.1c0-0.4-0.3-0.7-0.7-0.7h-1.1c-0.4,0-0.7,0.3-0.7,0.7v1.1c0,0.4,0.3,0.7,0.7,0.7
				H22.9z"/>
			<path d="M27.7,20.3h-1.1c-0.4,0-0.7,0.3-0.7,0.7v1.1c0,0.4,0.3,0.7,0.7,0.7h1.1c0.4,0,0.7-0.3,0.7-0.7v-1.1
				C28.4,20.7,28.1,20.3,27.7,20.3z"/>
			<path d="M22.9,27.4c0.4,0,0.7-0.3,0.7-0.7v-1.1c0-0.4-0.3-0.7-0.7-0.7h-1.1c-0.4,0-0.7,0.3-0.7,0.7v1.1c0,0.4,0.3,0.7,0.7,0.7
				H22.9z"/>
			<path d="M18.2,22.9c0.4,0,0.7-0.3,0.7-0.7v-1.1c0-0.4-0.3-0.7-0.7-0.7h-1.1c-0.3,0-0.5,0.2-0.6,0.4
				C17.1,21.4,17.7,22.1,18.2,22.9z"/>
		</g>
	</g>
</g>
</svg>
