<?xml version="1.0" encoding="utf-8"?>
<!-- Generator: Adobe Illustrator 28.2.0, SVG Export Plug-In . SVG Version: 6.00 Build 0)  -->
<svg version="1.1" xmlns="http://www.w3.org/2000/svg" xmlns:xlink="http://www.w3.org/1999/xlink" x="0px" y="0px"
	 viewBox="0 0 40 40" style="enable-background:new 0 0 40 40;" xml:space="preserve">
<g id="BG">
</g>
<g id="bookmark">
	<path d="M12.8,34.1c-0.3,0-0.5,0-0.8-0.1c-1-0.4-1.7-1.2-1.7-2.3V8.3c0-1.3,1.1-2.4,2.5-2.4h14.5c1.4,0,2.5,1.1,2.5,2.4v23.3
		c0,1.1-0.7,2-1.7,2.3c-1.1,0.4-2.2,0-2.9-0.9L20,26.1l-5.2,6.9C14.3,33.7,13.5,34.1,12.8,34.1z M20,23.3L20,23.3
		c0.8,0,1.6,0.4,2.1,1l5,6.6V8.6H12.9v22.3l5-6.6C18.4,23.6,19.2,23.3,20,23.3z"/>
</g>
</svg>
