<?xml version="1.0" encoding="utf-8"?>
<!-- Generator: Adobe Illustrator 28.2.0, SVG Export Plug-In . SVG Version: 6.00 Build 0)  -->
<svg version="1.1" id="bookmark-filled" xmlns="http://www.w3.org/2000/svg" xmlns:xlink="http://www.w3.org/1999/xlink" x="0px"
	 y="0px" viewBox="0 0 120 120" style="enable-background:new 0 0 120 120;" xml:space="preserve">
<style type="text/css">
	.st0{fill:none;}
</style>
<rect id="BG" y="0" class="st0" width="120" height="120"/>
<path d="M78.5,23.2h-37c-3.9,0-7.2,3.1-7.2,6.9v59.5c0,3,1.8,5.5,4.8,6.6c0,0,0,0,0,0c3.1,1,6.1,0,8.1-2.5l12.7-16.8l12.7,16.8
	c1.5,1.8,3.6,2.9,5.8,2.9c0.8,0,1.6-0.1,2.3-0.4c2.9-0.9,4.8-3.6,4.8-6.6V30.2C85.6,26.4,82.4,23.2,78.5,23.2z"/>
</svg>
