<?xml version="1.0" encoding="utf-8"?>
<!-- Generator: Adobe Illustrator 28.2.0, SVG Export Plug-In . SVG Version: 6.00 Build 0)  -->
<svg version="1.1" xmlns="http://www.w3.org/2000/svg" xmlns:xlink="http://www.w3.org/1999/xlink" x="0px" y="0px"
	 viewBox="0 0 40 40" style="enable-background:new 0 0 40 40;" xml:space="preserve">
<g id="BG">
</g>
<g id="bookmark-new_00000075129252849566045900000012439009845357382784_">
	<g>
		<path d="M12.8,19.6c-4.2,0-7.6,3.4-7.6,7.6s3.4,7.6,7.6,7.6s7.6-3.4,7.6-7.6S17,19.6,12.8,19.6z M16.5,28h-2.7v2.7
			c0,0.5-0.4,0.8-0.8,0.8c-0.5,0-0.8-0.4-0.8-0.8V28H9.2c-0.5,0-0.8-0.4-0.8-0.8c0-0.5,0.4-0.8,0.8-0.8h2.7v-2.7
			c0-0.5,0.4-0.8,0.8-0.8c0.5,0,0.8,0.4,0.8,0.8v2.7h2.7c0.5,0,0.8,0.4,0.8,0.8S16.9,28,16.5,28z"/>
		<path d="M32.1,5.9H17.7c-1.4,0-2.5,1.1-2.5,2.4V18c1,0.3,1.9,0.6,2.7,1.2V8.6h14v22.2l-5-6.6c-0.5-0.6-1.2-1-2-1l0,0
			c-0.8,0-1.6,0.4-2,1l-0.8,1.1c0.1,0.6,0.2,1.1,0.2,1.8c0,1.2-0.2,2.4-0.7,3.4l3.3-4.4l5.2,6.9c0.6,0.9,1.8,1.2,2.9,0.9
			c1-0.4,1.7-1.2,1.7-2.3V8.4C34.7,7,33.5,5.9,32.1,5.9z"/>
	</g>
</g>
</svg>
