<?xml version="1.0" encoding="utf-8"?>
<!-- Generator: Adobe Illustrator 26.4.1, SVG Export Plug-In . SVG Version: 6.00 Build 0)  -->
<svg version="1.1" id="Layer_3" xmlns="http://www.w3.org/2000/svg" xmlns:xlink="http://www.w3.org/1999/xlink" x="0px" y="0px"
	 viewBox="0 0 96 96" style="enable-background:new 0 0 96 96;" xml:space="preserve">
<path d="M32.2,78.8c-0.6,0-1.2-0.1-1.8-0.3c-2.2-0.8-3.7-2.7-3.7-5v-51c0-2.9,2.5-5.3,5.5-5.3h31.7c3,0,5.5,2.4,5.5,5.3v51
	c0,2.3-1.5,4.3-3.7,5c-2.3,0.8-4.8,0-6.3-1.9L48,61.5L36.6,76.6C35.5,78,33.9,78.8,32.2,78.8z M48,55.2C48,55.2,48,55.2,48,55.2
	c1.8,0,3.4,0.8,4.5,2.2l10.9,14.5V23.2H32.6v48.7l10.9-14.5C44.6,56,46.2,55.2,48,55.2z"/>
</svg>
