<?xml version="1.0" encoding="utf-8"?>
<!-- Generator: Adobe Illustrator 26.4.1, SVG Export Plug-In . SVG Version: 6.00 Build 0)  -->
<svg version="1.1" id="Layer_3" xmlns="http://www.w3.org/2000/svg" xmlns:xlink="http://www.w3.org/1999/xlink" x="0px" y="0px"
	 viewBox="0 0 96 96" style="enable-background:new 0 0 96 96;" xml:space="preserve">
<g>
	<path d="M32.4,46.4c-9.2,0-16.6,7.4-16.6,16.6s7.4,16.6,16.6,16.6S49,72.1,49,62.9S41.5,46.4,32.4,46.4z M40.4,64.9h-6v6
		c0,1-0.8,1.8-1.8,1.8c-1,0-1.8-0.8-1.8-1.8v-6h-6.4c-1,0-1.8-0.8-1.8-1.8s0.8-1.8,1.8-1.8h6v-6c0-1,0.8-1.8,1.8-1.8
		c1,0,1.8,0.8,1.8,1.8v6h6c1,0,1.8,0.8,1.8,1.8S41.3,64.9,40.4,64.9z"/>
	<path d="M74.7,16.5H43c-3,0-5.5,2.4-5.5,5.3V43c2.2,0.6,4.2,1.4,6,2.6V22.5h30.7v48.7L63.3,56.7c-1-1.4-2.7-2.2-4.4-2.2
		c0,0,0,0,0,0c-1.8,0-3.4,0.8-4.4,2.2l-1.8,2.4c0.2,1.3,0.4,2.5,0.4,3.9c0,2.7-0.5,5.2-1.5,7.5l7.3-9.7l11.4,15.2
		c1.4,1.9,3.9,2.7,6.3,1.9c2.2-0.8,3.7-2.7,3.7-5v-51C80.2,18.9,77.7,16.5,74.7,16.5z"/>
</g>
</svg>
