<?xml version="1.0" encoding="utf-8"?>
<!-- Generator: Adobe Illustrator 26.4.1, SVG Export Plug-In . SVG Version: 6.00 Build 0)  -->
<svg version="1.1" id="Layer_4" xmlns="http://www.w3.org/2000/svg" xmlns:xlink="http://www.w3.org/1999/xlink" x="0px" y="0px"
	 viewBox="0 0 96 96" style="enable-background:new 0 0 96 96;" xml:space="preserve">
<g>
	<g>
		<path d="M75.4,17.9H20.6c-4.1,0-7.5,3.3-7.5,7.5v45.3c0,4.1,3.3,7.5,7.5,7.5h54.8c4.1,0,7.5-3.3,7.5-7.5V25.4
			C82.9,21.2,79.5,17.9,75.4,17.9z M20.6,23.9h54.8c0.8,0,1.5,0.7,1.5,1.5v4.3H19.1v-4.3C19.1,24.5,19.8,23.9,20.6,23.9z M75.4,72.1
			H20.6c-0.8,0-1.5-0.7-1.5-1.5v-35h57.8v35C76.9,71.5,76.2,72.1,75.4,72.1z"/>
		<path d="M65.2,61H30.8c-1.7,0-3,1.3-3,3s1.3,3,3,3h34.4c1.7,0,3-1.3,3-3S66.9,61,65.2,61z"/>
	</g>
	<path d="M28,45h-2c-1.1,0-2-0.9-2-2v-2c0-1.1,0.9-2,2-2h2c1.1,0,2,0.9,2,2v2C30,44.1,29.1,45,28,45z"/>
	<path d="M28,53.5h-2c-1.1,0-2-0.9-2-2v-2c0-1.1,0.9-2,2-2h2c1.1,0,2,0.9,2,2v2C30,52.6,29.1,53.5,28,53.5z"/>
</g>
</svg>
