<?xml version="1.0" encoding="utf-8"?>
<!-- Generator: Adobe Illustrator 27.0.1, SVG Export Plug-In . SVG Version: 6.00 Build 0)  -->
<svg version="1.1" id="Layer_3" xmlns="http://www.w3.org/2000/svg" xmlns:xlink="http://www.w3.org/1999/xlink" x="0px" y="0px"
	 viewBox="0 0 96 96" style="enable-background:new 0 0 96 96;" xml:space="preserve">
<path d="M70.7,37.6L70.7,37.6L52.4,19.4l0,0l-0.6-0.6c-0.9-0.9-2.1-1.4-3.3-1.4v0h-0.1c0,0,0,0,0,0h-3.9H28.7
	c-2.7,0-4.8,2.2-4.8,4.8v51.5c0,2.7,2.2,4.8,4.8,4.8h38.5c2.7,0,4.8-2.2,4.8-4.8V45.9V45v-3v-0.8C72.1,39.7,71.5,38.5,70.7,37.6z
	 M56.7,38.6L56.7,38.6l-6,0v-7.9v-0.3v-4.7l12.9,12.9H56.7z M29.6,72.9V23.1h15.1H45v1.6v1.9v12.9c0,2.7,2.2,4.8,4.8,4.8h0.8h13.9
	h1.9v28.7H29.6z"/>
</svg>
