<?xml version="1.0" encoding="utf-8"?>
<!-- Generator: Adobe Illustrator 28.2.0, SVG Export Plug-In . SVG Version: 6.00 Build 0)  -->
<svg version="1.1" xmlns="http://www.w3.org/2000/svg" xmlns:xlink="http://www.w3.org/1999/xlink" x="0px" y="0px"
	 viewBox="0 0 40 40" style="enable-background:new 0 0 40 40;" xml:space="preserve">
<g id="BG">
</g>
<g id="document-save">
	<g>
		<g>
			<g>
				<path d="M27.9,11.6h-4v2.5h4c1.2,0,2.1,1,2.1,2.1v13.8c0,1.2-1,2.1-2.1,2.1H12.1c-1.2,0-2.1-1-2.1-2.1V16.3c0-1.2,1-2.1,2.1-2.1
					h4.1v-2.5h-4.1c-2.6,0-4.6,2.1-4.6,4.6v13.8c0,2.6,2.1,4.6,4.6,4.6h15.9c2.6,0,4.6-2.1,4.6-4.6V16.3
					C32.6,13.7,30.5,11.6,27.9,11.6z"/>
			</g>
		</g>
		<path d="M26.3,18.9c-0.4-0.4-0.9-0.4-1.2,0l-3.9,3.9V6.4c0-0.6-0.5-1.2-1.2-1.2c-0.6,0-1.2,0.5-1.2,1.2v16.4L15,19
			c-0.2-0.2-0.4-0.3-0.6-0.3c-0.2,0-0.5,0.1-0.6,0.3c-0.3,0.3-0.3,0.9,0,1.2l5.7,5.6c0.4,0.4,0.9,0.4,1.2,0l5.7-5.6
			c0.2-0.2,0.2-0.4,0.2-0.6C26.6,19.3,26.5,19.1,26.3,18.9z"/>
	</g>
</g>
</svg>
