<?xml version="1.0" encoding="utf-8"?>
<!-- Generator: Adobe Illustrator 28.2.0, SVG Export Plug-In . SVG Version: 6.00 Build 0)  -->
<svg version="1.1" id="document-save" xmlns="http://www.w3.org/2000/svg" xmlns:xlink="http://www.w3.org/1999/xlink" x="0px"
	 y="0px" viewBox="0 0 120 120" style="enable-background:new 0 0 120 120;" xml:space="preserve">
<style type="text/css">
	.st0{fill:none;}
</style>
<rect id="BG" y="0" class="st0" width="120" height="120"/>
<g>
	<path d="M80.8,37.3H70.2c-0.4,0-0.8,0.3-0.8,0.8v6.6c0,0.4,0.3,0.8,0.8,0.8h10.6c2.7,0,4.9,2.2,4.9,4.9v36.3c0,2.7-2.2,4.9-4.9,4.9
		H39.2c-2.7,0-4.9-2.2-4.9-4.9V50.3c0-2.7,2.2-4.9,4.9-4.9h10.6c0.4,0,0.8-0.3,0.8-0.8v-6.6c0-0.4-0.3-0.8-0.8-0.8H39.2
		c-7.1,0-12.9,5.8-12.9,12.9v36.3c0,7.1,5.8,12.9,12.9,12.9h41.7c7.1,0,12.9-5.8,12.9-12.9V50.3C93.8,43.1,88,37.3,80.8,37.3z"/>
	<path d="M43,56.8c-1.2,1.2-1.2,3.2,0,4.3l14.9,14.8c0.6,0.6,1.4,0.9,2.2,0.9s1.6-0.3,2.2-0.9l14.9-14.8c0.6-0.6,0.8-1.3,0.8-2.2
		c0-0.9-0.3-1.7-0.9-2.2c0,0-0.1-0.1-0.2-0.1c-1.2-1.1-3-1-4.2,0.1l-8.9,8.8V24.4c0-2.1-1.7-3.8-3.8-3.8s-3.8,1.7-3.8,3.8v41.3
		l-8.9-8.8C46.1,55.6,44.2,55.6,43,56.8z"/>
</g>
</svg>
