<?xml version="1.0" encoding="utf-8"?>
<!-- Generator: Adobe Illustrator 28.2.0, SVG Export Plug-In . SVG Version: 6.00 Build 0)  -->
<svg version="1.1" xmlns="http://www.w3.org/2000/svg" xmlns:xlink="http://www.w3.org/1999/xlink" x="0px" y="0px"
	 viewBox="0 0 40 40" style="enable-background:new 0 0 40 40;" xml:space="preserve">
<g id="BG">
</g>
<g id="document-print-preview">
	<g>
		<circle cx="26.3" cy="17.7" r="1.5"/>
		<path d="M31.4,26.7c-1.1,0-1.9,0.9-1.9,1.9c0,1.1,0.9,1.9,1.9,1.9c1.1,0,1.9-0.9,1.9-1.9C33.4,27.6,32.5,26.7,31.4,26.7z
			 M31.4,29.7c-0.6,0-1-0.4-1-1s0.4-1,1-1s1,0.4,1,1C32.5,29.3,32,29.7,31.4,29.7z"/>
		<path d="M31.4,21.4c-4,0-7.3,3.2-7.3,7.3s3.3,7.4,7.3,7.4s7.3-3.3,7.3-7.3S35.5,21.4,31.4,21.4z M36.3,29
			c-0.4,0.8-1.8,2.7-4.8,2.7s-4.4-1.9-4.8-2.7c-0.1-0.2-0.1-0.4,0-0.6c0.4-0.8,1.8-2.7,4.8-2.7s4.4,1.9,4.8,2.7
			C36.4,28.6,36.4,28.9,36.3,29z"/>
		<path d="M23.2,32.5c-0.1,0.2-0.3,0.3-0.6,0.3H10.9c-0.4,0-0.8-0.3-0.8-0.8V25c0-0.4,0.3-0.8,0.8-0.8h11.7c0.3,0,0.6,0.2,0.7,0.5
			c0.4-0.8,0.9-1.6,1.5-2.2c-0.6-0.5-1.4-0.9-2.2-0.9H10.9c-1.9,0-3.4,1.5-3.4,3.4v7.1c0,1.9,1.5,3.4,3.4,3.4h11.7
			c0.8,0,1.5-0.3,2.1-0.8C24.1,34.1,23.6,33.3,23.2,32.5z"/>
		<path d="M3.9,28.4V15.7c0-0.5,0.4-1,1-1h23.6c0.5,0,1,0.4,1,1v4.1c0.6-0.1,1.2-0.2,1.9-0.2c0.2,0,0.5,0,0.7,0v-3.9
			c0-2-1.6-3.6-3.6-3.6h-0.5V7.8c0-1.8-1.5-3.3-3.3-3.3H8.7C6.8,4.5,5.4,6,5.4,7.8v4.3H4.9c-2,0-3.7,1.6-3.7,3.7v12.6
			c0,2,1.6,3.7,3.7,3.7h1.2v-2.6H4.9C4.4,29.4,3.9,29,3.9,28.4z M8.1,7.8c0-0.3,0.3-0.6,0.6-0.6h16.2c0.3,0,0.6,0.3,0.6,0.6v4.3H8.1
			V7.8z"/>
	</g>
</g>
</svg>
