<?xml version="1.0" encoding="utf-8"?>
<!-- Generator: Adobe Illustrator 28.2.0, SVG Export Plug-In . SVG Version: 6.00 Build 0)  -->
<svg version="1.1" id="document-print" xmlns="http://www.w3.org/2000/svg" xmlns:xlink="http://www.w3.org/1999/xlink" x="0px"
	 y="0px" viewBox="0 0 120 120" style="enable-background:new 0 0 120 120;" xml:space="preserve">
<style type="text/css">
	.st0{fill:none;}
</style>
<rect id="BG" y="0" class="st0" width="120" height="120"/>
<g>
	<path d="M88.7,54.1c0-2.5-2-4.5-4.5-4.5c-2.5,0-4.5,2-4.5,4.5s2,4.5,4.5,4.5C86.7,58.6,88.7,56.6,88.7,54.1z"/>
	<path d="M74.8,63.5H45.3c-5,0-9.2,4.1-9.2,9.2v17.8c0,5,4.1,9.2,9.2,9.2h29.5c5,0,9.2-4.2,9.2-9.2V72.7
		C84,67.6,79.9,63.5,74.8,63.5z M76.1,72.6v17.8c0,0.7-0.6,1.3-1.3,1.3H45.3c-0.7,0-1.3-0.6-1.3-1.3V72.6c0-0.7,0.6-1.3,1.3-1.3
		h29.5C75.5,71.3,76.1,71.8,76.1,72.6z"/>
	<path d="M89.8,39.5h-0.6V29.2c0-4.9-4-8.8-8.8-8.8H39.7c-4.9,0-8.8,4-8.8,8.8v10.3h-0.6c-5.4,0-9.8,4.4-9.8,9.8v31.8
		c0,5.4,4.4,9.8,9.8,9.8H34V83h-3.6c-1.1,0-2-0.9-2-2V49.2c0-1.1,0.9-2,2-2h59.4c1.1,0,2,0.9,2,2v31.8c0,1.1-0.9,2-2,2h-3.7v7.9h3.6
		c5.4,0,9.8-4.4,9.8-9.8V49.2C99.5,43.9,95.1,39.5,89.8,39.5z M81.4,29.2v10.3H38.9V29.2c0-0.5,0.4-1,1-1h40.6
		C80.9,28.3,81.4,28.7,81.4,29.2z"/>
</g>
</svg>
