<?xml version="1.0" encoding="utf-8"?>
<!-- Generator: Adobe Illustrator 28.2.0, SVG Export Plug-In . SVG Version: 6.00 Build 0)  -->
<svg version="1.1" xmlns="http://www.w3.org/2000/svg" xmlns:xlink="http://www.w3.org/1999/xlink" x="0px" y="0px"
	 viewBox="0 0 40 40" style="enable-background:new 0 0 40 40;" xml:space="preserve">
<g id="BG">
</g>
<g id="document-new">
	<path d="M30.9,15L30.9,15l-8.8-8.7l0,0L21.8,6c-0.4-0.4-1-0.7-1.6-0.7l0,0h0l0,0h-1.9h-7.6c-1.3,0-2.3,1.1-2.3,2.3v24.7
		c0,1.3,1.1,2.3,2.3,2.3h18.5c1.3,0,2.3-1.1,2.3-2.3V19v-0.4v-1.4v-0.4C31.6,16,31.3,15.5,30.9,15z M24.2,15.5L24.2,15.5h-2.9v-3.8
		v-0.1V9.3l6.2,6.2H24.2z M11.2,32V8.1h7.3h0.1v0.8v0.9v6.2c0,1.3,1.1,2.3,2.3,2.3h0.4h6.7h0.9V32L11.2,32L11.2,32z"/>
</g>
</svg>
