<?xml version="1.0" encoding="utf-8"?>
<!-- Generator: Adobe Illustrator 26.4.1, SVG Export Plug-In . SVG Version: 6.00 Build 0)  -->
<svg version="1.1" id="Layer_2" xmlns="http://www.w3.org/2000/svg" xmlns:xlink="http://www.w3.org/1999/xlink" x="0px" y="0px"
	 viewBox="0 0 96 96" style="enable-background:new 0 0 96 96;" xml:space="preserve">
<g>
	<circle cx="69.8" cy="42.7" r="3.5"/>
	<g>
		<g>
			<path d="M61.3,83.1H34.7c-4.3,0-7.7-3.5-7.7-7.7v-16c0-4.3,3.5-7.7,7.7-7.7h26.6c4.3,0,7.7,3.5,7.7,7.7v16
				C69,79.6,65.5,83.1,61.3,83.1z M34.7,57.6c-1,0-1.7,0.8-1.7,1.7v16c0,1,0.8,1.7,1.7,1.7h26.6c1,0,1.7-0.8,1.7-1.7v-16
				c0-1-0.8-1.7-1.7-1.7H34.7z"/>
		</g>
	</g>
	<path d="M74.8,30.1h-1.1v-9.8c0-4.1-3.3-7.4-7.4-7.4H29.7c-4.1,0-7.4,3.3-7.4,7.4v9.8h-1.1c-4.6,0-8.3,3.7-8.3,8.3v28.6
		c0,4.6,3.7,8.3,8.3,8.3H24v-6h-2.7c-1.2,0-2.3-1-2.3-2.3V38.3c0-1.2,1-2.3,2.3-2.3h53.5c1.2,0,2.3,1,2.3,2.3v28.6
		c0,1.2-1,2.3-2.3,2.3H72v6h2.7c4.6,0,8.3-3.7,8.3-8.3V38.3C83,33.8,79.3,30.1,74.8,30.1z M28.4,20.3c0-0.7,0.6-1.4,1.4-1.4h36.6
		c0.7,0,1.4,0.6,1.4,1.4v9.8H28.4V20.3z"/>
</g>
</svg>
