<?xml version="1.0" encoding="utf-8"?>
<!-- Generator: Adobe Illustrator 28.2.0, SVG Export Plug-In . SVG Version: 6.00 Build 0)  -->
<svg version="1.1" id="document-new" xmlns="http://www.w3.org/2000/svg" xmlns:xlink="http://www.w3.org/1999/xlink" x="0px"
	 y="0px" viewBox="0 0 120 120" style="enable-background:new 0 0 120 120;" xml:space="preserve">
<style type="text/css">
	.st0{fill:none;}
</style>
<rect id="BG" class="st0" width="120" height="120"/>
<path d="M88.4,46.8L65.6,23.7l-0.8-0.8c-1-1.1-2.6-1.9-4.2-1.9h-4.9H36c-3.4,0-6,2.9-6,6.1v65.8c0,3.5,2.9,6.1,6,6.1h48
	c3.4,0,6-2.9,6-6.1V57.5v-1.1v-3.7v-1.1C90.2,49.5,89.4,48.2,88.4,46.8z M71,48.2h-7.5V38v-0.3v-6.1l16.1,16.5H71z M37.3,92.1V28.5
	h18.9h0.3v2.1V33v16.5c0,3.5,2.9,6.1,6,6.1h1h17.4h2.3v36.5H37.3z"/>
</svg>
