<?xml version="1.0" encoding="utf-8"?>
<!-- Generator: Adobe Illustrator 28.2.0, SVG Export Plug-In . SVG Version: 6.00 Build 0)  -->
<svg version="1.1" xmlns="http://www.w3.org/2000/svg" xmlns:xlink="http://www.w3.org/1999/xlink" x="0px" y="0px"
	 viewBox="0 0 40 40" style="enable-background:new 0 0 40 40;" xml:space="preserve">
<g id="BG">
</g>
<g id="document-print-preview">
	<g>
		<g>
			<circle cx="25.6" cy="17.7" r="1.5"/>
			<path d="M24.8,23.4c-0.6-1-1.7-1.7-3-1.7H10.2c-1.9,0-3.4,1.5-3.4,3.4v7.1c0,1.9,1.5,3.4,3.4,3.4h11.7c1.2,0,2.3-0.6,2.9-1.6
				c-1.1-1.5-1.7-3.3-1.7-5.3C23.1,26.7,23.8,24.9,24.8,23.4z M22.6,32c0,0.4-0.3,0.8-0.8,0.8H10.2c-0.4,0-0.8-0.3-0.8-0.8V25
				c0-0.4,0.3-0.8,0.8-0.8h11.7c0.4,0,0.8,0.3,0.8,0.8C22.6,25,22.6,32,22.6,32z"/>
			<path d="M31.5,15.7c0-2-1.6-3.6-3.6-3.6h-0.5V7.8c0-1.8-1.5-3.3-3.3-3.3H8C6.1,4.5,4.7,6,4.7,7.8v4.3H4.2c-2,0-3.7,1.6-3.7,3.7
				v12.6c0,2,1.6,3.7,3.7,3.7h1.2v-2.6H4.2c-0.5,0-1-0.4-1-1V15.7c0-0.5,0.4-1,1-1h23.6c0.5,0,1,0.4,1,1v4.5
				c0.8-0.3,1.7-0.5,2.6-0.6C31.5,19.7,31.5,15.7,31.5,15.7z M24.8,12.1H7.4V7.8c0-0.3,0.3-0.6,0.6-0.6h16.2c0.3,0,0.6,0.3,0.6,0.6
				V12.1z"/>
		</g>
		<path d="M32.1,21.4c-4,0-7.3,3.2-7.3,7.3s3.3,7.4,7.3,7.4s7.3-3.3,7.3-7.3S36.2,21.4,32.1,21.4z M37,29c-0.4,0.8-1.8,2.7-4.8,2.7
			s-4.4-1.9-4.8-2.7c-0.1-0.2-0.1-0.4,0-0.6c0.4-0.8,1.8-2.7,4.8-2.7s4.4,1.9,4.8,2.7C37.1,28.6,37.1,28.9,37,29z"/>
		<path d="M32.1,26.7c-1.1,0-1.9,0.9-1.9,1.9c0,1.1,0.9,1.9,1.9,1.9c1.1,0,1.9-0.9,1.9-1.9C34.1,27.6,33.2,26.7,32.1,26.7z
			 M32.1,29.7c-0.6,0-1-0.4-1-1s0.4-1,1-1c0.6,0,1,0.4,1,1C33.2,29.3,32.7,29.7,32.1,29.7z"/>
	</g>
</g>
</svg>
