<?xml version="1.0" encoding="utf-8"?>
<!-- Generator: Adobe Illustrator 28.2.0, SVG Export Plug-In . SVG Version: 6.00 Build 0)  -->
<svg version="1.1" id="document-print-preview" xmlns="http://www.w3.org/2000/svg" xmlns:xlink="http://www.w3.org/1999/xlink"
	 x="0px" y="0px" viewBox="0 0 120 120" style="enable-background:new 0 0 120 120;" xml:space="preserve">
<style type="text/css">
	.st0{fill:none;}
</style>
<rect id="BG" class="st0" width="120" height="120"/>
<g>
	<g>
		<path d="M92.8,80.2c-3.2,0-5.8,2.6-5.8,5.8s2.6,5.8,5.8,5.8s5.8-2.6,5.8-5.8S96.1,80.2,92.8,80.2z M92.8,89.1c-1.7,0-3-1.3-3-3
			s1.3-3,3-3s3,1.3,3,3C96,87.8,94.5,89.1,92.8,89.1z"/>
		<path d="M92.5,64.1c-12.1,0-22,9.7-22,21.8s9.8,22.1,22,22.1s22-9.8,22-22S104.7,64.1,92.5,64.1L92.5,64.1z M107.2,87.1
			c-1.3,2.2-5.4,8.1-14.3,8.1s-13.1-5.7-14.3-8.1c-0.3-0.5-0.3-1.3,0-1.9c1.3-2.2,5.4-8.1,14.3-8.1s13.1,5.7,14.3,8.1
			C107.5,85.8,107.5,86.6,107.2,87.1z"/>
	</g>
	<g>
		<path d="M28.4,81.1V49.2c0-1.1,0.9-2,2-2h59.4c1.1,0,2,0.9,2,2v7.4c0,0,0,0,0,0c0.3,0,0.5,0,0.8,0c2.4,0,4.7,0.3,6.9,0.8v-8.2
			c0-5.4-4.4-9.7-9.7-9.7h-0.6V29.2c0-4.9-4-8.8-8.8-8.8H39.7c-4.9,0-8.8,4-8.8,8.8v10.3h-0.6c-5.4,0-9.8,4.4-9.8,9.8v31.8
			c0,5.4,4.4,9.8,9.8,9.8h3.7V83h-3.6C29.3,83,28.4,82.1,28.4,81.1z M38.8,29.2c0-0.5,0.4-1,1-1h40.6c0.5,0,1,0.4,1,1v10.3H38.8
			V29.2z"/>
		<path d="M63.5,91.6H45.2c-0.7,0-1.3-0.6-1.3-1.3V72.6c0-0.7,0.6-1.3,1.3-1.3h21.7c1.7-3,3.9-5.6,6.5-7.8H45.2
			c-5,0-9.2,4.1-9.2,9.2v17.8c0,5,4.1,9.2,9.2,9.2h21.1C65,97.1,64.1,94.4,63.5,91.6z"/>
		<path d="M82.6,58.3c1.6-0.6,3.2-1,4.9-1.3c0.7-0.8,1.1-1.8,1.1-2.9c0-2.5-2-4.5-4.5-4.5c-2.5,0-4.5,2-4.5,4.5
			C79.7,56,80.9,57.7,82.6,58.3z"/>
	</g>
</g>
</svg>
