<?xml version="1.0" encoding="utf-8"?>
<!-- Generator: Adobe Illustrator 28.2.0, SVG Export Plug-In . SVG Version: 6.00 Build 0)  -->
<svg version="1.1" xmlns="http://www.w3.org/2000/svg" xmlns:xlink="http://www.w3.org/1999/xlink" x="0px" y="0px"
	 viewBox="0 0 40 40" style="enable-background:new 0 0 40 40;" xml:space="preserve">
<g id="BG">
</g>
<g id="document-print">
	<g>
		<circle cx="29.6" cy="17.7" r="1.5"/>
		<g>
			<g>
				<path d="M25.9,35.5H14.2c-1.9,0-3.4-1.5-3.4-3.4V25c0-1.9,1.5-3.4,3.4-3.4h11.7c1.9,0,3.4,1.5,3.4,3.4v7.1
					C29.3,33.9,27.7,35.5,25.9,35.5z M14.2,24.2c-0.4,0-0.8,0.4-0.8,0.8V32c0,0.4,0.4,0.8,0.8,0.8h11.7c0.4,0,0.8-0.4,0.8-0.8V25
					c0-0.4-0.4-0.8-0.8-0.8C25.9,24.2,14.2,24.2,14.2,24.2z"/>
			</g>
		</g>
		<path d="M31.9,12.1h-0.5V7.8c0-1.8-1.5-3.3-3.3-3.3H11.9c-1.8,0-3.3,1.5-3.3,3.3v4.3H8.2c-2,0-3.7,1.6-3.7,3.7v12.6
			c0,2,1.6,3.7,3.7,3.7h1.2v-2.6H8.2c-0.5,0-1-0.4-1-1V15.7c0-0.5,0.4-1,1-1h23.6c0.5,0,1,0.4,1,1v12.6c0,0.5-0.4,1-1,1h-1.2V32h1.2
			c2,0,3.7-1.6,3.7-3.7V15.7C35.5,13.7,33.8,12.1,31.9,12.1z M11.4,7.8c0-0.3,0.3-0.6,0.6-0.6h16.2c0.3,0,0.6,0.3,0.6,0.6v4.3H11.4
			V7.8z"/>
	</g>
</g>
</svg>
