<?xml version="1.0" encoding="utf-8"?>
<!-- Generator: Adobe Illustrator 27.0.1, SVG Export Plug-In . SVG Version: 6.00 Build 0)  -->
<svg version="1.1" id="Comp" xmlns="http://www.w3.org/2000/svg" xmlns:xlink="http://www.w3.org/1999/xlink" x="0px" y="0px"
	 viewBox="0 0 96 96" style="enable-background:new 0 0 96 96;" xml:space="preserve">
<g>
	<g>
		<circle cx="60.8" cy="42.1" r="3.5"/>
		<path d="M58.9,55c-1.3-2.3-3.8-3.9-6.7-3.9H25.7c-4.2,0-7.7,3.4-7.7,7.7v16c0,4.2,3.4,7.7,7.7,7.7h26.6c2.7,0,5.1-1.4,6.5-3.6
			C56.4,75.5,55,71.4,55,67C55,62.5,56.5,58.4,58.9,55z M54,74.7c0,0.9-0.7,1.7-1.7,1.7H25.7c-0.9,0-1.7-0.7-1.7-1.7v-16
			c0-0.9,0.7-1.7,1.7-1.7h26.6c0.9,0,1.7,0.7,1.7,1.7V74.7z"/>
		<path d="M74,37.7c0-4.5-3.7-8.2-8.2-8.2h-1.1v-9.8c0-4.1-3.3-7.4-7.4-7.4H20.7c-4.1,0-7.4,3.3-7.4,7.4v9.8h-1.1
			c-4.6,0-8.3,3.7-8.3,8.3v28.6c0,4.6,3.7,8.3,8.3,8.3H15v-6h-2.7c-1.2,0-2.3-1-2.3-2.3V37.7c0-1.2,1-2.3,2.3-2.3h53.5
			c1.2,0,2.3,1,2.3,2.3V48c1.9-0.7,3.8-1.2,5.9-1.3V37.7z M58.8,29.5H19.4v-9.8c0-0.7,0.6-1.4,1.4-1.4h36.6c0.7,0,1.4,0.6,1.4,1.4
			V29.5z"/>
	</g>
	<path d="M75.5,50.5c-9.1,0-16.6,7.3-16.6,16.5c0,9.2,7.4,16.7,16.6,16.7s16.6-7.4,16.6-16.6C92.1,57.9,84.7,50.5,75.5,50.5z
		 M86.6,67.9c-1,1.7-4.1,6.1-10.8,6.1s-9.9-4.3-10.8-6.1c-0.2-0.4-0.2-1,0-1.4c1-1.7,4.1-6.1,10.8-6.1s9.9,4.3,10.8,6.1
		C86.8,66.9,86.8,67.5,86.6,67.9z"/>
	<path d="M75.5,62.7c-2.4,0-4.4,2-4.4,4.4c0,2.4,2,4.4,4.4,4.4s4.4-2,4.4-4.4C79.9,64.7,78,62.7,75.5,62.7z M75.5,69.4
		c-1.3,0-2.3-1-2.3-2.3c0-1.3,1-2.3,2.3-2.3c1.3,0,2.3,1,2.3,2.3C77.9,68.4,76.8,69.4,75.5,69.4z"/>
</g>
</svg>
