<?xml version="1.0" encoding="utf-8"?>
<!-- Generator: Adobe Illustrator 28.2.0, SVG Export Plug-In . SVG Version: 6.00 Build 0)  -->
<svg version="1.1" id="edit-undo" xmlns="http://www.w3.org/2000/svg" xmlns:xlink="http://www.w3.org/1999/xlink" x="0px" y="0px"
	 viewBox="0 0 120 120" style="enable-background:new 0 0 120 120;" xml:space="preserve">
<style type="text/css">
	.st0{fill:none;}
</style>
<rect id="BG" y="0" class="st0" width="120" height="120"/>
<path d="M19.9,47.4l22.2-22.3c0.7-0.7,1.7-1.1,2.6-1.1c0.9,0,1.8,0.4,2.4,1.1c0.7,0.7,1.1,1.7,1.1,2.6c0,0.9-0.4,1.8-1.1,2.3
	l-16,16.2c47.3,0,47.6,0.1,47.6,0.1c12.9,1.2,22.6,11.9,22.6,24.8c0,13.7-11.2,24.9-24.9,24.9h-7.4c-1.9,0-3.6-1.6-3.6-3.6
	s1.7-3.7,3.7-3.7h7.2c9.7,0,17.6-7.9,17.6-17.6c0-9.7-7.6-17.2-17-17.4H31.2l16,16.2c0.7,0.7,1.1,1.7,1.1,2.6c0,0.9-0.4,1.8-1.1,2.4
	c-0.8,0.8-1.9,0.9-2.6,0.9c-0.8,0-1.9-0.2-2.6-0.9L19.8,52.5c-0.7-0.7-1.1-1.6-1.1-2.6C18.7,49.1,19.1,48.1,19.9,47.4L19.9,47.4z"/>
</svg>
