<?xml version="1.0" encoding="utf-8"?>
<!-- Generator: Adobe Illustrator 28.2.0, SVG Export Plug-In . SVG Version: 6.00 Build 0)  -->
<svg version="1.1" id="edit-find-replace" xmlns="http://www.w3.org/2000/svg" xmlns:xlink="http://www.w3.org/1999/xlink" x="0px"
	 y="0px" viewBox="0 0 120 120" style="enable-background:new 0 0 120 120;" xml:space="preserve">
<style type="text/css">
	.st0{fill:none;}
</style>
<rect id="BG" y="0" class="st0" width="120" height="120"/>
<g>
	<path d="M92.9,55.1c-0.7-0.7-1.7-1.1-2.8-1.1c-1,0-2,0.4-2.7,1.1l-2.3,2.3c-0.2,0.2-0.3,0.5-0.3,0.7c0,0.3,0.1,0.5,0.3,0.7l4,4
		c0.2,0.2,0.5,0.3,0.7,0.3s0.5-0.1,0.7-0.3l2.3-2.3c0.7-0.7,1.1-1.7,1.1-2.7S93.6,55.8,92.9,55.1z"/>
	<path d="M84.1,59.8c-0.4-0.4-1.1-0.4-1.5,0L52.2,90.2c-0.1,0.1-0.2,0.2-0.2,0.3l-2.5,5.4c-0.3,0.7-0.2,1.6,0.4,2.1
		c0.4,0.3,0.8,0.5,1.3,0.5c0.3,0,0.5-0.1,0.8-0.2l5.4-2.5c0.1-0.1,0.2-0.1,0.3-0.2l30.4-30.4c0.4-0.4,0.4-1.1,0-1.5L84.1,59.8z"/>
	<path d="M70.9,57.4c8.2-8.2,8.2-21.6,0-29.9c-4-4-9.3-6.2-14.9-6.2S45,23.6,41,27.6c-7.3,7.3-8.2,18.5-2.4,26.9L27.1,65.9
		c-0.7,0.7-1.2,1.7-1.2,2.7c0,1,0.4,2,1.1,2.7c0.7,0.7,1.6,1.1,2.6,1.1c0,0,0.1,0,0.1,0c1,0,2-0.4,2.7-1.2l11.5-11.5
		C52.3,65.7,63.6,64.7,70.9,57.4z M45.7,52.7c-5.6-5.6-5.6-14.8,0-20.4c2.8-2.8,6.5-4.2,10.2-4.2c3.7,0,7.4,1.4,10.2,4.2
		c5.6,5.6,5.6,14.8,0,20.4C60.5,58.3,51.3,58.3,45.7,52.7z"/>
</g>
</svg>
