<?xml version="1.0" encoding="utf-8"?>
<!-- Generator: Adobe Illustrator 28.2.0, SVG Export Plug-In . SVG Version: 6.00 Build 0)  -->
<svg version="1.1" xmlns="http://www.w3.org/2000/svg" xmlns:xlink="http://www.w3.org/1999/xlink" x="0px" y="0px"
	 viewBox="0 0 40 40" style="enable-background:new 0 0 40 40;" xml:space="preserve">
<g id="BG">
</g>
<g id="edit-delete_x5F_alt">
	<path d="M31.9,10h-5.2V7.5c0-1.5-1.2-2.7-2.7-2.7H16c-1.5,0-2.7,1.2-2.7,2.7V10H8.1c-0.8,0-1.4,0.6-1.4,1.4s0.6,1.4,1.4,1.4h1.2
		L10.1,31c0.1,2.3,1.9,4.1,4.2,4.2h11.3c2.3,0,4.1-1.9,4.2-4.2l0.8-18.4h1.2c0.8,0,1.4-0.6,1.4-1.4C33.2,10.5,32.7,10,31.9,10z
		 M15.9,7.4L15.9,7.4H24V10h-8.1V7.4z M18.4,29.8c0,0.7-0.6,1.3-1.4,1.3c-0.8,0-1.4-0.6-1.4-1.4V15.5c0-0.8,0.6-1.4,1.4-1.4
		s1.4,0.6,1.4,1.4V29.8z M24.3,29.8c0,0.7-0.6,1.3-1.4,1.3c-0.8,0-1.4-0.6-1.4-1.4V15.5c0-0.8,0.6-1.4,1.4-1.4s1.4,0.6,1.4,1.4V29.8
		z"/>
</g>
</svg>
