<?xml version="1.0" encoding="utf-8"?>
<!-- Generator: Adobe Illustrator 28.2.0, SVG Export Plug-In . SVG Version: 6.00 Build 0)  -->
<svg version="1.1" xmlns="http://www.w3.org/2000/svg" xmlns:xlink="http://www.w3.org/1999/xlink" x="0px" y="0px"
	 viewBox="0 0 40 40" style="enable-background:new 0 0 40 40;" xml:space="preserve">
<g id="BG">
</g>
<g id="edit-paste">
	<g>
		<path d="M28.7,7.7H26v2.7h2.3v2.2v0.1v2.3v0v16.9v0h-7.9h-0.7h-7.9v0V14.9v0v-2.3v-0.1v-2.2H14V7.7h-2.7C10,7.7,9,8.7,9,10v2.6
			v0.1v2.3v0v17.3c0,1.3,1.1,2.3,2.3,2.3h8.3h0.7h8.3c1.2,0,2.3-1,2.3-2.3V14.9v0v-2.3v-0.1V10C31,8.7,30,7.7,28.7,7.7z"/>
		<path d="M23.7,7.2h-1.3V5.7c0-0.2-0.2-0.4-0.4-0.4H18c-0.2,0-0.4,0.2-0.4,0.4v1.4h-1.3c-0.4,0-0.7,0.3-0.7,0.7v2.8
			c0,0.4,0.3,0.7,0.7,0.7h7.4c0.4,0,0.7-0.3,0.7-0.7V7.8C24.4,7.4,24.1,7.2,23.7,7.2z"/>
	</g>
</g>
</svg>
