<?xml version="1.0" encoding="utf-8"?>
<!-- Generator: Adobe Illustrator 28.2.0, SVG Export Plug-In . SVG Version: 6.00 Build 0)  -->
<svg version="1.1" xmlns="http://www.w3.org/2000/svg" xmlns:xlink="http://www.w3.org/1999/xlink" x="0px" y="0px"
	 viewBox="0 0 40 40" style="enable-background:new 0 0 40 40;" xml:space="preserve">
<g id="BG">
</g>
<g id="edit-find">
	<path d="M31.7,29.7l-6-6c0,0,0,0,0,0c2.9-3.9,2.7-9.4-0.9-13c-3.9-3.9-10.1-3.9-14,0c-3.9,3.9-3.9,10.1,0,14
		c3.5,3.5,9.1,3.8,13,0.9c0,0,0,0,0,0l6,6c0.6,0.6,1.4,0.6,2,0.1h0C32.2,31.2,32.2,30.3,31.7,29.7z M12.4,23.2c-3-3-3-7.8,0-10.8
		c3-3,7.8-3,10.8,0c3,3,3,7.8,0,10.8C20.2,26.2,15.4,26.2,12.4,23.2z"/>
</g>
</svg>
