<?xml version="1.0" encoding="utf-8"?>
<!-- Generator: Adobe Illustrator 28.2.0, SVG Export Plug-In . SVG Version: 6.00 Build 0)  -->
<svg version="1.1" id="edit-find" xmlns="http://www.w3.org/2000/svg" xmlns:xlink="http://www.w3.org/1999/xlink" x="0px" y="0px"
	 viewBox="0 0 120 120" style="enable-background:new 0 0 120 120;" xml:space="preserve">
<style type="text/css">
	.st0{fill:none;}
</style>
<rect id="BG" y="0" class="st0" width="120" height="120"/>
<path d="M94.9,89.2L77.1,71.4C85.9,59.7,85,43,74.4,32.4c-11.6-11.6-30.4-11.6-42,0s-11.6,30.4,0,42C43,85,59.7,85.9,71.4,77.1
	l17.9,17.9c1.7,1.7,4.3,1.7,5.9,0.2C96.7,93.5,96.6,90.9,94.9,89.2L94.9,89.2z M37.2,69.7c-9-9-9-23.5,0-32.5s23.5-9,32.5,0
	c9,9,9,23.5,0,32.5C60.7,78.6,46.2,78.6,37.2,69.7z"/>
</svg>
