<?xml version="1.0" encoding="utf-8"?>
<!-- Generator: Adobe Illustrator 26.4.1, SVG Export Plug-In . SVG Version: 6.00 Build 0)  -->
<svg version="1.1" id="Artboard" xmlns="http://www.w3.org/2000/svg" xmlns:xlink="http://www.w3.org/1999/xlink" x="0px" y="0px"
	 viewBox="0 0 96 96" style="enable-background:new 0 0 96 96;" xml:space="preserve">
<path d="M14,37.6l19.1-19.2c1-1,2.4-1,3.3,0c1,1,1,2.4,0,3.3L21.5,36.9c0,0,42.2,0,42.5,0.1c10.5,1,18.8,9.8,18.8,20.6
	c0,11.4-9.3,20.7-20.7,20.7v0h-6.4c-1.3,0-2.4-1.1-2.4-2.4s1.1-2.5,2.5-2.5H62c8.7,0,15.8-7.1,15.8-15.8C77.8,49,71,42,62.5,41.8
	H21.6l14.9,15.1c1,1,1,2.4,0,3.3c-0.5,0.5-1.1,0.6-1.7,0.6s-1.3-0.2-1.7-0.6L14,41C13,40,13,38.6,14,37.6z"/>
</svg>
