<?xml version="1.0" encoding="utf-8"?>
<!-- Generator: Adobe Illustrator 28.2.0, SVG Export Plug-In . SVG Version: 6.00 Build 0)  -->
<svg version="1.1" id="edit-clear" xmlns="http://www.w3.org/2000/svg" xmlns:xlink="http://www.w3.org/1999/xlink" x="0px" y="0px"
	 viewBox="0 0 120 120" style="enable-background:new 0 0 120 120;" xml:space="preserve">
<style type="text/css">
	.st0{fill:none;}
</style>
<rect id="BG" y="0" class="st0" width="120" height="120"/>
<path d="M96.1,44.6L75.3,23.8c-3.8-3.8-9.9-3.8-13.6,0L23.8,61.7c-3.8,3.8-3.8,9.8,0,13.6l20.8,20.8c1.9,1.9,4.3,2.8,6.8,2.8
	s4.9-0.9,6.8-2.8l37.9-37.9C99.8,54.5,99.8,48.4,96.1,44.6L96.1,44.6z M53.3,91.1c-1,1-2.6,1-3.6,0L28.9,70.2c-1-1-1-2.6,0-3.6
	l5.4-5.4l24.4,24.4L53.3,91.1L53.3,91.1z M91.1,53.2L63.6,80.7L39.2,56.3l27.5-27.5c0.5-0.5,1.2-0.7,1.8-0.7s1.3,0.2,1.8,0.7
	l20.8,20.8C92.1,50.6,92.1,52.2,91.1,53.2L91.1,53.2z"/>
</svg>
