<?xml version="1.0" encoding="utf-8"?>
<!-- Generator: Adobe Illustrator 28.2.0, SVG Export Plug-In . SVG Version: 6.00 Build 0)  -->
<svg version="1.1" id="edit-redo" xmlns="http://www.w3.org/2000/svg" xmlns:xlink="http://www.w3.org/1999/xlink" x="0px" y="0px"
	 viewBox="0 0 120 120" style="enable-background:new 0 0 120 120;" xml:space="preserve">
<style type="text/css">
	.st0{fill:none;}
</style>
<rect id="BG" y="0" class="st0" width="120" height="120"/>
<path d="M100.1,47.4L77.9,25.1c-0.7-0.7-1.7-1.1-2.6-1.1c-0.9,0-1.8,0.4-2.4,1.1c-0.7,0.7-1.1,1.7-1.1,2.6c0,0.9,0.4,1.8,1.1,2.3
	l16,16.2c-47.3,0-47.6,0.1-47.6,0.1c-12.9,1.2-22.6,11.9-22.6,24.8C18.7,84.8,29.9,96,43.6,96H51c1.9,0,3.6-1.6,3.6-3.6
	c0-1.9-1.7-3.7-3.7-3.7h-7.2c-9.7,0-17.6-7.9-17.6-17.6c0-9.7,7.6-17.2,17-17.4h45.6l-16,16.2c-0.7,0.7-1.1,1.7-1.1,2.6
	c0,0.9,0.4,1.8,1.1,2.4c0.8,0.8,1.9,0.9,2.6,0.9c0.8,0,1.9-0.2,2.6-0.9l22.2-22.3c0.7-0.7,1.1-1.6,1.1-2.6
	C101.3,49,100.9,48.1,100.1,47.4L100.1,47.4z"/>
</svg>
