<?xml version="1.0" encoding="utf-8"?>
<!-- Generator: Adobe Illustrator 28.2.0, SVG Export Plug-In . SVG Version: 6.00 Build 0)  -->
<svg version="1.1" xmlns="http://www.w3.org/2000/svg" xmlns:xlink="http://www.w3.org/1999/xlink" x="0px" y="0px"
	 viewBox="0 0 40 40" style="enable-background:new 0 0 40 40;" xml:space="preserve">
<g id="BG">
</g>
<g id="edit-cut">
	<g>
		<path d="M28.8,24.9c-1.6-1.3-3-1.4-4.2-1.1L13.9,6.4l-1.5,2.3c-0.5,0.8-0.6,1.8-0.1,2.6l5.8,10.4c0.3,0.5,0.7,0.8,1.2,1l0.9,0.3
			l1.7,2.4c-1,1.1-1.5,2.6-1.1,4.2c0.4,2,2,3.5,3.9,3.9c3.1,0.6,5.9-1.8,6-4.8C30.8,27.2,30,25.8,28.8,24.9z M20,20.8
			c-0.4,0-0.7-0.3-0.7-0.7c0-0.4,0.3-0.7,0.7-0.7c0.4,0,0.7,0.3,0.7,0.7C20.7,20.5,20.4,20.8,20,20.8z M28,29.2
			c-0.2,0.8-0.9,1.5-1.7,1.7c-1.7,0.4-3.2-1.1-2.8-2.8c0.2-0.8,0.9-1.5,1.7-1.7C26.9,26,28.4,27.5,28,29.2z"/>
		<path d="M27.7,11.3c0.5-0.8,0.4-1.8-0.1-2.6l-1.5-2.3l-5.5,8.9l2.6,4.1L27.7,11.3z"/>
		<path d="M19.2,23.7l-0.1,0c-0.8-0.2-1.4-0.7-1.8-1.5l-0.4-0.8l-1.4,2.3c-0.4-0.1-0.7-0.1-1.1-0.1c-2.8,0-5,2.2-5,5s2.2,5,5,5
			c2.8,0,5-2.2,5-5c0-1.3-0.5-2.4-1.2-3.3L19.2,23.7z M14.3,30.9c-1.3,0-2.3-1-2.3-2.3s1-2.3,2.3-2.3s2.3,1,2.3,2.3
			S15.5,30.9,14.3,30.9z"/>
	</g>
</g>
</svg>
