<?xml version="1.0" encoding="utf-8"?>
<!-- Generator: Adobe Illustrator 28.2.0, SVG Export Plug-In . SVG Version: 6.00 Build 0)  -->
<svg version="1.1" xmlns="http://www.w3.org/2000/svg" xmlns:xlink="http://www.w3.org/1999/xlink" x="0px" y="0px"
	 viewBox="0 0 40 40" style="enable-background:new 0 0 40 40;" xml:space="preserve">
<g id="BG">
</g>
<g id="edit-undo">
	<path d="M5.1,15.3l8.2-8.3c0.3-0.3,0.6-0.4,1-0.4c0.3,0,0.7,0.2,0.9,0.4c0.3,0.3,0.4,0.6,0.4,1c0,0.3-0.2,0.6-0.4,0.9l-5.9,6
		c17.5,0,17.6,0,17.6,0c4.8,0.5,8.4,4.4,8.4,9.2c0,5.1-4.1,9.2-9.2,9.2h-2.8c-0.7,0-1.3-0.6-1.3-1.3c0-0.7,0.6-1.4,1.4-1.4H26
		c3.6,0,6.5-2.9,6.5-6.5c0-3.5-2.8-6.4-6.3-6.5H9.3l5.9,6c0.3,0.3,0.4,0.6,0.4,1c0,0.3-0.2,0.6-0.4,0.9c-0.3,0.3-0.7,0.3-0.9,0.3
		c-0.3,0-0.7-0.1-0.9-0.3l-8.2-8.3c-0.3-0.3-0.4-0.6-0.4-0.9C4.7,15.9,4.9,15.6,5.1,15.3z"/>
</g>
</svg>
