<?xml version="1.0" encoding="utf-8"?>
<!-- Generator: Adobe Illustrator 28.2.0, SVG Export Plug-In . SVG Version: 6.00 Build 0)  -->
<svg version="1.1" xmlns="http://www.w3.org/2000/svg" xmlns:xlink="http://www.w3.org/1999/xlink" x="0px" y="0px"
	 viewBox="0 0 40 40" style="enable-background:new 0 0 40 40;" xml:space="preserve">
<g id="BG">
</g>
<g id="edit">
	<g>
		<path d="M30.1,11.9c0.5-0.5,0.5-1.4,0-2c-0.5-0.5-1.4-0.5-2,0L27,11l2,2L30.1,11.9z"/>
		<path d="M25.7,12.3l-1,1l-0.1,0.1L10.8,27.2c0,0,0,0,0,0l0,0l-1.2,2.7c-0.2,0.3,0.2,0.7,0.5,0.5l2.7-1.2l0,0c0,0,0,0,0,0
			l13.8-13.8l0.1-0.1l1-1L25.7,12.3z"/>
	</g>
</g>
</svg>
