<?xml version="1.0" encoding="utf-8"?>
<!-- Generator: Adobe Illustrator 28.2.0, SVG Export Plug-In . SVG Version: 6.00 Build 0)  -->
<svg version="1.1" id="edit-paste" xmlns="http://www.w3.org/2000/svg" xmlns:xlink="http://www.w3.org/1999/xlink" x="0px" y="0px"
	 viewBox="0 0 120 120" style="enable-background:new 0 0 120 120;" xml:space="preserve">
<style type="text/css">
	.st0{fill:none;}
</style>
<rect id="BG" y="0" class="st0" width="120" height="120"/>
<g>
	<path d="M83,27.2h-7.1v7.3h6v57.1H38.1V34.5h6v-7.3H37c-3.5,0-6.1,2.8-6.1,6.1v59.1c0,3.5,2.8,6.1,6.1,6.1h46
		c3.3,0,6.1-2.7,6.1-6.1V33.4C89.2,30,86.5,27.2,83,27.2L83,27.2z"/>
	<path d="M69.9,25.8h-3.4V22c0-0.6-0.5-1-1-1H54.6c-0.6,0-1,0.5-1,1v3.8h-3.4c-1,0-1.8,0.8-1.8,1.8v7.3c0,1,0.8,1.8,1.8,1.8h19.7
		c1,0,1.8-0.8,1.8-1.8v-7.3C71.6,26.6,70.8,25.8,69.9,25.8z"/>
</g>
</svg>
