<?xml version="1.0" encoding="utf-8"?>
<!-- Generator: Adobe Illustrator 26.4.1, SVG Export Plug-In . SVG Version: 6.00 Build 0)  -->
<svg version="1.1" id="Artboard" xmlns="http://www.w3.org/2000/svg" xmlns:xlink="http://www.w3.org/1999/xlink" x="0px" y="0px"
	 viewBox="0 0 96 96" style="enable-background:new 0 0 96 96;" xml:space="preserve">
<path d="M82,37.6L62.9,18.4c-1-1-2.4-1-3.3,0c-1,1-1,2.4,0,3.3l14.9,15.1c0,0-42.2,0-42.5,0.1c-10.5,1-18.8,9.8-18.8,20.6
	c0,11.4,9.3,20.7,20.7,20.7v0h6.4c1.3,0,2.4-1.1,2.4-2.4s-1.1-2.5-2.5-2.5H34c-8.7,0-15.8-7.1-15.8-15.8C18.2,49,25,42,33.5,41.8
	h40.9L59.5,56.9c-1,1-1,2.4,0,3.3c0.5,0.5,1.1,0.6,1.7,0.6s1.3-0.2,1.7-0.6L82,41C83,40,83,38.6,82,37.6z"/>
</svg>
