<?xml version="1.0" encoding="utf-8"?>
<!-- Generator: Adobe Illustrator 28.2.0, SVG Export Plug-In . SVG Version: 6.00 Build 0)  -->
<svg version="1.1" id="edit-delete-filled" xmlns="http://www.w3.org/2000/svg" xmlns:xlink="http://www.w3.org/1999/xlink" x="0px"
	 y="0px" viewBox="0 0 120 120" style="enable-background:new 0 0 120 120;" xml:space="preserve">
<style type="text/css">
	.st0{fill:none;}
</style>
<rect id="BG" y="0" class="st0" width="120" height="120"/>
<path d="M89.7,35.1H76.8v-6.3c0-3.7-3-6.7-6.7-6.7H50c-3.7,0-6.7,3-6.7,6.7v6.3h-13c-1.9,0-3.4,1.5-3.4,3.4c0,1.9,1.5,3.4,3.4,3.4
	h3.1l1.9,45.7c0.2,5.8,4.8,10.3,10.5,10.4h28.2c5.7-0.1,10.3-4.7,10.5-10.4l1.9-46h3.1c1.9,0,3.4-1.5,3.4-3.4
	C93,36.3,91.7,35.1,89.7,35.1L89.7,35.1z M49.8,28.7L49.8,28.7h20.3V35H49.8V28.7z M56,84.4c0,1.8-1.5,3.3-3.4,3.3s-3.4-1.5-3.4-3.4
	V48.7c0-1.9,1.5-3.4,3.4-3.4s3.4,1.5,3.4,3.4V84.4z M70.6,84.4c0,1.8-1.5,3.3-3.4,3.3c-1.8,0-3.4-1.5-3.4-3.4V48.7
	c0-1.9,1.5-3.4,3.4-3.4c1.9,0,3.4,1.5,3.4,3.4V84.4z"/>
</svg>
