<?xml version="1.0" encoding="utf-8"?>
<!-- Generator: Adobe Illustrator 28.2.0, SVG Export Plug-In . SVG Version: 6.00 Build 0)  -->
<svg version="1.1" id="edit-copy" xmlns="http://www.w3.org/2000/svg" xmlns:xlink="http://www.w3.org/1999/xlink" x="0px" y="0px"
	 viewBox="0 0 120 120" style="enable-background:new 0 0 120 120;" xml:space="preserve">
<style type="text/css">
	.st0{fill:none;}
</style>
<rect id="BG" y="0" class="st0" width="120" height="120"/>
<path d="M94.9,39.1L74.1,18.5l-0.7-0.7c-1-1-2.4-1.6-3.8-1.6H47.2c-3.1,0-5.5,2.5-5.5,5.5v12.7H29c-3.1,0-5.5,2.5-5.5,5.5v58.4
	c0,3.1,2.5,5.5,5.5,5.5h43.7c3.1,0,5.5-2.5,5.5-5.5V85.6h12.7c3.1,0,5.5-2.5,5.5-5.5V43.2C96.4,41.5,95.8,40.2,94.9,39.1L94.9,39.1z
	 M72.2,31.3v-5.7l14.6,14.6H72.2V31.3z M71.8,97.4H30.1V40.8h17.5v18.6c0,3.1,2.5,5.5,5.5,5.5h18.8V97.4L71.8,97.4z M54,58.4V43.7
	l14.6,14.6H54z M90,79.3H78.2V61.4c0.1-1.7-0.6-3.1-1.5-4.1L56,36.6l-0.7-0.7c-1-1-2.4-1.6-3.8-1.6h-3.3V22.7h17.5v18.6
	c0,3.1,2.5,5.5,5.5,5.5H90V79.3z"/>
</svg>
