<?xml version="1.0" encoding="utf-8"?>
<!-- Generator: Adobe Illustrator 28.2.0, SVG Export Plug-In . SVG Version: 6.00 Build 0)  -->
<svg version="1.1" xmlns="http://www.w3.org/2000/svg" xmlns:xlink="http://www.w3.org/1999/xlink" x="0px" y="0px"
	 viewBox="0 0 40 40" style="enable-background:new 0 0 40 40;" xml:space="preserve">
<g id="BG">
</g>
<g id="edit-delete">
	<g>
		<path d="M31.9,10h-5.2V7.5c0-1.5-1.2-2.7-2.7-2.7H16c-1.5,0-2.7,1.2-2.7,2.7V10H8.1c-0.8,0-1.4,0.6-1.4,1.4s0.6,1.4,1.4,1.4h1.2
			L10.1,31c0.1,2.3,1.9,4.1,4.2,4.2h11.3c2.3,0,4.1-1.9,4.2-4.2l0.8-18.4h1.2c0.8,0,1.4-0.6,1.4-1.4C33.2,10.5,32.7,10,31.9,10z
			 M15.9,10V7.4l0,0l8.1,0V10H15.9z M28,12.7l-0.8,18.3c0,0.9-0.7,1.6-1.6,1.6H14.4c-0.8,0-1.6-0.7-1.6-1.6L12,12.7H28z"/>
		<path d="M17,31.1c0.7,0,1.4-0.6,1.4-1.3V15.5c0-0.8-0.6-1.4-1.4-1.4s-1.4,0.6-1.4,1.4v14.3C15.7,30.5,16.3,31.1,17,31.1z"/>
		<path d="M22.9,31.1c0.7,0,1.4-0.6,1.4-1.3V15.5c0-0.8-0.6-1.4-1.4-1.4s-1.4,0.6-1.4,1.4v14.3C21.6,30.5,22.1,31.1,22.9,31.1z"/>
	</g>
</g>
</svg>
