<?xml version="1.0" encoding="utf-8"?>
<!-- Generator: Adobe Illustrator 28.2.0, SVG Export Plug-In . SVG Version: 6.00 Build 0)  -->
<svg version="1.1" id="edit-delete" xmlns="http://www.w3.org/2000/svg" xmlns:xlink="http://www.w3.org/1999/xlink" x="0px"
	 y="0px" viewBox="0 0 120 120" style="enable-background:new 0 0 120 120;" xml:space="preserve">
<style type="text/css">
	.st0{fill:none;}
</style>
<rect id="BG" y="0" class="st0" width="120" height="120"/>
<g>
	<path d="M89.7,35.1H76.8v-6.3c0-3.7-3-6.7-6.7-6.7H50c-3.7,0-6.7,3-6.7,6.7v6.3h-13c-1.9,0-3.4,1.5-3.4,3.4c0,1.9,1.5,3.4,3.4,3.4
		h3.1l1.9,45.7c0.2,5.8,4.8,10.3,10.5,10.4h28.2c5.7-0.1,10.3-4.7,10.5-10.4l1.9-46h3.1c1.9,0,3.4-1.5,3.4-3.4
		C93,36.3,91.7,35.1,89.7,35.1L89.7,35.1z M49.8,35v-6.3l0.1-0.1l20.2,0.1V35H49.8z M80,41.7L78,87.3c-0.1,2.2-1.8,4-4,4H45.9
		c-2.1,0-3.9-1.8-4-4L40,41.7H80L80,41.7z"/>
	<path d="M52.6,87.7c1.9,0,3.4-1.5,3.4-3.3V48.7c0-1.9-1.5-3.4-3.4-3.4c-1.9,0-3.4,1.5-3.4,3.4v35.6C49.2,86.2,50.7,87.7,52.6,87.7z
		"/>
	<path d="M67.3,87.7c1.9,0,3.4-1.5,3.4-3.3V48.7c0-1.9-1.5-3.4-3.4-3.4c-1.9,0-3.4,1.5-3.4,3.4v35.6C63.9,86.2,65.4,87.7,67.3,87.7z
		"/>
</g>
</svg>
