<?xml version="1.0" encoding="utf-8"?>
<!-- Generator: Adobe Illustrator 28.2.0, SVG Export Plug-In . SVG Version: 6.00 Build 0)  -->
<svg version="1.1" id="edit-copy" xmlns="http://www.w3.org/2000/svg" xmlns:xlink="http://www.w3.org/1999/xlink" x="0px" y="0px"
	 viewBox="0 0 40 40" style="enable-background:new 0 0 40 40;" xml:space="preserve">
<g id="BG">
</g>
<g id="document-new_copy">
	<path d="M31.6,13l-6.9-6.9l-0.2-0.2c-0.3-0.3-0.8-0.5-1.2-0.5l0,0h-1.5h-6c-1,0-1.8,0.8-1.8,1.8v4.2H9.7c-1,0-1.8,0.8-1.8,1.8v19.5
		c0,1,0.8,1.8,1.8,1.8h14.6c1,0,1.8-0.8,1.8-1.8v-4.2h4.2c1,0,1.8-0.8,1.8-1.8V16.2v-0.3v-1.1v-0.3C32.2,13.8,31.9,13.4,31.6,13z
		 M24.1,10.4v-0.1V8.5l4.9,4.9h-2.6h-2.3V10.4z M24,32.5H10l0,0V13.6h5.7h0.1v0.6v0.7v4.9c0,1,0.8,1.8,1.8,1.8H18h5.3H24V32.5z
		 M18,19.5v-3v-0.1v-1.8l4.9,4.9h-2.6H18z M30,26.4h-3.9v-4.2v-0.3v-1.1v-0.3c0-0.6-0.2-1-0.5-1.4l-6.9-6.9L18.4,12
		c-0.3-0.3-0.8-0.5-1.2-0.5l0,0h-1.1V7.6h5.7h0.1v0.6v0.7v4.9c0,1,0.8,1.8,1.8,1.8H24h5.3H30V26.4z"/>
</g>
</svg>
