<?xml version="1.0" encoding="utf-8"?>
<!-- Generator: Adobe Illustrator 28.2.0, SVG Export Plug-In . SVG Version: 6.00 Build 0)  -->
<svg version="1.1" xmlns="http://www.w3.org/2000/svg" xmlns:xlink="http://www.w3.org/1999/xlink" x="0px" y="0px"
	 viewBox="0 0 40 40" style="enable-background:new 0 0 40 40;" xml:space="preserve">
<g id="BG">
</g>
<g id="edit-find-replace">
	<g>
		<path d="M32.3,19.9c0.4-0.4,0.4-1.1,0-1.5c-0.4-0.4-1.1-0.4-1.5,0l-0.9,0.9l1.5,1.5L32.3,19.9z"/>
		<path d="M28.9,20.2L28.1,21L28,21.1L17.3,31.8c0,0,0,0,0,0l0,0l-1,2.1c-0.1,0.3,0.2,0.5,0.4,0.4l2.1-1l0,0c0,0,0,0,0,0l10.7-10.7
			l0.1-0.1l0.8-0.8L28.9,20.2z"/>
		<path d="M9.2,24l4.6-4.6c0,0,0,0,0,0c3,2.3,7.3,2.1,10.1-0.7c3-3,3-7.9,0-10.8c-3-3-7.9-3-10.8,0c-2.7,2.7-3,7-0.7,10.1
			c0,0,0,0,0,0l-4.6,4.6c-0.4,0.4-0.4,1.1,0,1.5v0C8.1,24.5,8.8,24.5,9.2,24z M14.2,9.1c2.3-2.3,6.1-2.3,8.4,0
			c2.3,2.3,2.3,6.1,0,8.4c-2.3,2.3-6.1,2.3-8.4,0C11.9,15.2,11.9,11.4,14.2,9.1z"/>
	</g>
</g>
</svg>
