<?xml version="1.0" encoding="utf-8"?>
<!-- Generator: Adobe Illustrator 28.2.0, SVG Export Plug-In . SVG Version: 6.00 Build 0)  -->
<svg version="1.1" xmlns="http://www.w3.org/2000/svg" xmlns:xlink="http://www.w3.org/1999/xlink" x="0px" y="0px"
	 viewBox="0 0 40 40" style="enable-background:new 0 0 40 40;" xml:space="preserve">
<g id="BG">
</g>
<g id="edit-clear_x5F_alt">
	<path d="M33.8,14.1l-7.9-7.9c-1.4-1.4-3.8-1.4-5.2,0L6.2,20.6c-1.4,1.4-1.4,3.8,0,5.2l7.9,7.9c0.7,0.7,1.7,1.1,2.6,1.1
		c0.9,0,1.9-0.4,2.6-1.1l14.4-14.4C35.2,17.9,35.2,15.6,33.8,14.1z M31.9,17.4L21.4,27.9l-9.3-9.3L22.6,8.1c0.2-0.2,0.4-0.3,0.7-0.3
		s0.5,0.1,0.7,0.3l7.9,7.9C32.2,16.4,32.2,17,31.9,17.4z"/>
</g>
</svg>
