<?xml version="1.0" encoding="utf-8"?>
<!-- Generator: Adobe Illustrator 28.2.0, SVG Export Plug-In . SVG Version: 6.00 Build 0)  -->
<svg version="1.1" id="Layer_5" xmlns="http://www.w3.org/2000/svg" xmlns:xlink="http://www.w3.org/1999/xlink" x="0px" y="0px"
	 viewBox="0 0 96 96" style="enable-background:new 0 0 96 96;" xml:space="preserve">
<path d="M73.8,26.6H62.2v-5.9c0-3-2.4-5.4-5.4-5.4H39.3c-3,0-5.4,2.4-5.4,5.4v5.9H22.2c-1.4,0-2.5,1.1-2.5,2.5s1.1,2.5,2.5,2.5h3.1
	L27,71.7c0.2,4.8,4,8.5,8.7,8.6c0,0,24.5,0,24.5,0c4.7-0.1,8.5-3.9,8.7-8.6l1.7-40.3h3.1c1.4,0,2.5-1.1,2.5-2.5S75.2,26.6,73.8,26.6
	z M38.7,20.6c0-0.3,0.2-0.5,0.5-0.5h17.5c0.3,0,0.5,0.2,0.5,0.5v5.9H38.7V20.6z M64.1,71.5c-0.1,2.2-1.8,3.9-3.9,3.9
	c-0.2,0-24.2,0-24.4,0c-2.1,0-3.8-1.8-3.9-3.9l-1.7-40h35.6L64.1,71.5z"/>
<g>
	<path d="M38.5,70.8c-1.4,0-2.5-1.1-2.5-2.5v-31c0-1.4,1.1-2.5,2.5-2.5s2.5,1.1,2.5,2.5v31C41,69.7,39.9,70.8,38.5,70.8z"/>
	<path d="M57.5,70.8c-1.4,0-2.5-1.1-2.5-2.5v-31c0-1.4,1.1-2.5,2.5-2.5s2.5,1.1,2.5,2.5v31C60,69.7,58.9,70.8,57.5,70.8z"/>
	<path d="M48,70.8c-1.4,0-2.5-1.1-2.5-2.5v-31c0-1.4,1.1-2.5,2.5-2.5s2.4,1.1,2.4,2.5v31C50.5,69.7,49.4,70.8,48,70.8z"/>
</g>
</svg>
