<?xml version="1.0" encoding="utf-8"?>
<!-- Generator: Adobe Illustrator 26.5.0, SVG Export Plug-In . SVG Version: 6.00 Build 0)  -->
<svg version="1.1" id="Layer_2" xmlns="http://www.w3.org/2000/svg" xmlns:xlink="http://www.w3.org/1999/xlink" x="0px" y="0px"
	 viewBox="0 0 96 96" style="enable-background:new 0 0 96 96;" xml:space="preserve">
<g>
	<path d="M88.7,28.7c0-2.5-2-4.5-4.5-4.5H54.1c-2.5,0-4.5-2-4.5-4.5l0,0V19c0-2.5-2-4.5-4.5-4.5H29.2c-2.5,0-4.5,2-4.5,4.5v5.2v0.7
		v5.2v1.7h64V28.7z"/>
	<path d="M23.9,48.3c-9.2,0-16.6,7.4-16.6,16.6s7.4,16.6,16.6,16.6S40.5,74,40.5,64.8S33,48.3,23.9,48.3z M31.9,66.8h-6v6
		c0,1-0.8,1.8-1.8,1.8s-1.8-0.8-1.8-1.8v-6h-6.4c-1,0-1.8-0.8-1.8-1.8c0-1,0.8-1.8,1.8-1.8h6v-6c0-1,0.8-1.8,1.8-1.8
		c1,0,1.8,0.8,1.8,1.8v6h6c1,0,1.8,0.8,1.8,1.8S32.8,66.8,31.9,66.8z"/>
	<path d="M24.7,34.7v9.6c11,0.4,19.9,9.4,19.9,20.5c0,1.4-0.1,2.7-0.4,4h40c2.5,0,4.5-2,4.5-4.5v-5.9V34.7H24.7z"/>
</g>
</svg>
