<?xml version="1.0" encoding="utf-8"?>
<!-- Generator: Adobe Illustrator 28.2.0, SVG Export Plug-In . SVG Version: 6.00 Build 0)  -->
<svg version="1.1" xmlns="http://www.w3.org/2000/svg" xmlns:xlink="http://www.w3.org/1999/xlink" x="0px" y="0px"
	 viewBox="0 0 40 40" style="enable-background:new 0 0 40 40;" xml:space="preserve">
<g id="BG">
</g>
<g id="folder-new_x5F_alt">
	<g>
		<path d="M5.7,21.4c1.3-0.6,2.7-1,4.2-1c5.2,0,9.3,4.2,9.3,9.3c0,1.5-0.3,2.9-1,4.1h16c1.9,0,3.4-1.5,3.4-3.4V18H5.7V21.4z"/>
		<path d="M34.3,10.7H20.5c-0.4,0-0.7-0.3-0.7-0.7V9.7c0-1.9-1.5-3.4-3.4-3.4H9.1c-1.9,0-3.4,1.5-3.4,3.4v5.6h32.1v-1.2
			C37.7,12.2,36.1,10.7,34.3,10.7z"/>
		<path d="M9.9,22.1c-4.2,0-7.6,3.4-7.6,7.6s3.4,7.6,7.6,7.6s7.6-3.4,7.6-7.6S14.1,22.1,9.9,22.1z M13.5,30.6h-2.8v2.8
			c0,0.4-0.4,0.8-0.8,0.8s-0.8-0.4-0.8-0.8v-2.8H6.2c-0.4,0-0.8-0.4-0.8-0.8c0-0.4,0.4-0.8,0.8-0.8H9v-2.8c0-0.4,0.4-0.8,0.8-0.8
			s0.8,0.4,0.8,0.8V29h2.8c0.4,0,0.8,0.4,0.8,0.8C14.2,30.2,14,30.6,13.5,30.6z"/>
	</g>
</g>
</svg>
