<?xml version="1.0" encoding="utf-8"?>
<!-- Generator: Adobe Illustrator 26.5.0, SVG Export Plug-In . SVG Version: 6.00 Build 0)  -->
<svg version="1.1" id="Layer_2_copy" xmlns="http://www.w3.org/2000/svg" xmlns:xlink="http://www.w3.org/1999/xlink" x="0px"
	 y="0px" viewBox="0 0 96 96" style="enable-background:new 0 0 96 96;" xml:space="preserve">
<g>
	<path d="M80,35.1c0-2.5-2-4.5-4.5-4.5H45.4c-2.5,0-4.5-2-4.5-4.5v0v-0.7c0-2.5-2-4.5-4.5-4.5H20.5c-2.5,0-4.5,2-4.5,4.5v5.2v0.7
		v5.2v1.7h64V35.1z"/>
	<path d="M16,59.7v5.1v0.8v5.1c0,2.5,2,4.5,4.5,4.5h55c2.5,0,4.5-2,4.5-4.5v-5.9V41.1H16V59.7z"/>
</g>
</svg>
