<?xml version="1.0" encoding="utf-8"?>
<!-- Generator: Adobe Illustrator 28.2.0, SVG Export Plug-In . SVG Version: 6.00 Build 0)  -->
<svg version="1.1" id="folder-new" xmlns="http://www.w3.org/2000/svg" xmlns:xlink="http://www.w3.org/1999/xlink" x="0px" y="0px"
	 viewBox="0 0 120 120" style="enable-background:new 0 0 120 120;" xml:space="preserve">
<style type="text/css">
	.st0{fill:none;}
</style>
<rect id="BG" class="st0" width="120" height="120"/>
<g>
	<path d="M29.7,60.8c-12.8,0-23,10.3-23,23s10.3,23,23,23s23-10.3,23-23S42.3,60.8,29.7,60.8z M40.8,86.4h-8.3v8.3
		c0,1.4-1.1,2.5-2.5,2.5s-2.5-1.1-2.5-2.5v-8.3h-8.9c-1.4,0-2.5-1.1-2.5-2.5c0-1.4,1.1-2.5,2.5-2.5H27v-8.3c0-1.4,1.1-2.5,2.5-2.5
		c1.4,0,2.5,1.1,2.5,2.5v8.3h8.3c1.4,0,2.5,1.1,2.5,2.5C42.8,85.3,42.2,86.4,40.8,86.4z"/>
	<path d="M95.3,33.8H56.6c-1,0-2-0.8-2-2V31c0-5.3-4.3-9.7-9.7-9.7H24.7c-5.3,0-9.7,4.3-9.7,9.7v26.9c2.4-1.4,5-2.4,7.7-3v-0.4h1.9
		c1.7-0.3,3.4-0.4,5.1-0.4c1.7,0,3.4,0.2,5.1,0.4h62.4v34.6c0,1-0.8,1.9-1.9,1.9H58.6c-0.7,2.8-1.8,5.4-3.2,7.9h39.9
		c5.3,0,9.7-4.3,9.7-9.7V43.5C105,38.1,100.6,33.8,95.3,33.8z M97.3,46.8H22.8V31.1c0-1.2,0.8-2,1.9-2H45c1,0,2,0.8,2,2v0.8
		c0,5.3,4.3,9.7,9.7,9.7h38.7c1,0,1.9,0.8,1.9,1.9V46.8z"/>
</g>
</svg>
