<?xml version="1.0" encoding="utf-8"?>
<!-- Generator: Adobe Illustrator 26.5.0, SVG Export Plug-In . SVG Version: 6.00 Build 0)  -->
<svg version="1.1" id="Layer_2" xmlns="http://www.w3.org/2000/svg" xmlns:xlink="http://www.w3.org/1999/xlink" x="0px" y="0px"
	 viewBox="0 0 96 96" style="enable-background:new 0 0 96 96;" xml:space="preserve">
<path d="M72.8,29.6H45.6c-0.7,0-1.4-0.6-1.4-1.4v-0.6c0-3.7-3-6.8-6.8-6.8H23.2c-3.7,0-6.8,3-6.8,6.8v40.8c0,3.7,3,6.8,6.8,6.8h49.6
	c3.7,0,6.8-3,6.8-6.8v-32C79.6,32.6,76.5,29.6,72.8,29.6z M23.2,26.3h14.3c0.7,0,1.4,0.6,1.4,1.4v0.6c0,3.7,3,6.8,6.8,6.8h27.2
	c0.7,0,1.3,0.6,1.3,1.3v2.3H21.9v-11C21.9,26.9,22.5,26.3,23.2,26.3z M72.8,69.7H23.2c-0.7,0-1.4-0.6-1.4-1.4V44.1h52.3v24.3
	C74.1,69.1,73.5,69.7,72.8,69.7z"/>
</svg>
