<?xml version="1.0" encoding="utf-8"?>
<!-- Generator: Adobe Illustrator 28.2.0, SVG Export Plug-In . SVG Version: 6.00 Build 0)  -->
<svg version="1.1" id="folder-new.filled" xmlns="http://www.w3.org/2000/svg" xmlns:xlink="http://www.w3.org/1999/xlink" x="0px"
	 y="0px" viewBox="0 0 120 120" style="enable-background:new 0 0 120 120;" xml:space="preserve">
<style type="text/css">
	.st0{fill:none;}
</style>
<rect id="BG" class="st0" width="120" height="120"/>
<g>
	<path d="M105.3,43.4c0-5.5-4.4-9.7-9.7-9.7h-39c-1,0-2-0.8-2-2v-0.8c0-5.3-4.3-9.7-9.7-9.7H24.4c-5.3,0-9.7,4.3-9.7,9.7v15.9h90.6
		V43.4z"/>
	<path d="M29.7,60.8c-12.8,0-23,10.3-23,23s10.3,23,23,23s23-10.3,23-23S42.3,60.8,29.7,60.8z M40.8,86.4h-8.3v8.3
		c0,1.4-1.1,2.5-2.5,2.5s-2.5-1.1-2.5-2.5v-8.3h-8.9c-1.4,0-2.5-1.1-2.5-2.5c0-1.4,1.1-2.5,2.5-2.5H27v-8.3c0-1.4,1.1-2.5,2.5-2.5
		c1.4,0,2.5,1.1,2.5,2.5v8.3h8.3c1.4,0,2.5,1.1,2.5,2.5C42.8,85.3,42.2,86.4,40.8,86.4z"/>
	<g>
		<path d="M24.8,54.4H14.7v3.7C17.8,56.3,21.2,55,24.8,54.4z"/>
		<path d="M34.6,54.4c14,2.3,24.9,14.5,24.9,29.3c0,5.6-1.5,10.8-4.2,15.3h40.3c5.3,0,9.7-4.3,9.7-9.7V54.4H34.6z"/>
	</g>
</g>
</svg>
