<?xml version="1.0" encoding="utf-8"?>
<!-- Generator: Adobe Illustrator 28.2.0, SVG Export Plug-In . SVG Version: 6.00 Build 0)  -->
<svg version="1.1" xmlns="http://www.w3.org/2000/svg" xmlns:xlink="http://www.w3.org/1999/xlink" x="0px" y="0px"
	 viewBox="0 0 40 40" style="enable-background:new 0 0 40 40;" xml:space="preserve">
<g id="BG">
</g>
<g id="folder-action">
	<path d="M32.6,10.7H18.8c-0.4,0-0.7-0.3-0.7-0.7V9.7c0-1.9-1.5-3.4-3.4-3.4H7.4C5.5,6.2,4,7.7,4,9.7v20.7c0,1.9,1.5,3.4,3.4,3.4
		h25.2c1.9,0,3.4-1.5,3.4-3.4V14.1C36,12.2,34.5,10.7,32.6,10.7z M7.4,9h7.3c0.4,0,0.7,0.3,0.7,0.7V10c0,1.9,1.5,3.4,3.4,3.4h13.8
		c0.4,0,0.7,0.3,0.7,0.7v1.2H6.8V9.7C6.8,9.3,7.1,9,7.4,9z M32.6,31H7.4c-0.4,0-0.7-0.3-0.7-0.7V18h26.5v12.3
		C33.2,30.7,32.9,31,32.6,31z"/>
</g>
</svg>
