<?xml version="1.0" encoding="utf-8"?>
<!-- Generator: Adobe Illustrator 28.2.0, SVG Export Plug-In . SVG Version: 6.00 Build 0)  -->
<svg version="1.1" xmlns="http://www.w3.org/2000/svg" xmlns:xlink="http://www.w3.org/1999/xlink" x="0px" y="0px"
	 viewBox="0 0 40 40" style="enable-background:new 0 0 40 40;" xml:space="preserve">
<g id="BG">
</g>
<g id="go-bottom">
	<g>
		<path d="M29.3,21.6c0.2-0.2,0.4-0.6,0.4-1s-0.1-0.7-0.4-1c-0.5-0.5-1.3-0.5-1.8,0l-6.1,6V8.3C21.4,7.6,20.7,7,20,7
			c-0.7,0-1.4,0.6-1.4,1.4v17.5l-6.1-6c-0.3-0.3-0.6-0.4-0.9-0.4c-0.3,0-0.7,0.1-0.9,0.4c-0.5,0.5-0.5,1.3,0,1.8l8.3,8.3
			c0.3,0.3,0.6,0.4,0.9,0.4s0.7-0.1,0.9-0.4L29.3,21.6z"/>
		<path d="M12,31.6c0,0.7,0.6,1.3,1.3,1.3h13.3c0.7,0,1.3-0.6,1.3-1.3c0-0.7-0.6-1.3-1.3-1.3H20h-6.6C12.6,30.3,12,30.9,12,31.6z"/>
	</g>
</g>
</svg>
