<?xml version="1.0" encoding="utf-8"?>
<!-- Generator: Adobe Illustrator 28.2.0, SVG Export Plug-In . SVG Version: 6.00 Build 0)  -->
<svg version="1.1" id="go-bottom" xmlns="http://www.w3.org/2000/svg" xmlns:xlink="http://www.w3.org/1999/xlink" x="0px" y="0px"
	 viewBox="0 0 120 120" style="enable-background:new 0 0 120 120;" xml:space="preserve">
<style type="text/css">
	.st0{fill:none;}
</style>
<rect id="BG" y="0" class="st0" width="120" height="120"/>
<g>
	<path d="M87.8,59.2c-1.6-1.6-3.9-1.6-5.5,0L64,77.2V24.8c0-2.1-1.8-3.9-3.9-3.9c-2.2,0-4.1,1.9-4.1,4.1v52.4L37.7,59.4
		C37,58.6,36,58.2,35,58.2c-1,0-2,0.4-2.8,1.2c-1.5,1.5-1.5,4,0,5.5l25,24.8c0.8,0.8,1.8,1.2,2.8,1.2s2-0.4,2.8-1.2l25-24.8h0
		c0.7-0.7,1.1-1.7,1.1-2.8C88.9,60.9,88.5,59.9,87.8,59.2z"/>
	<path d="M79.9,90.9H40.1c-2.2,0-4,1.8-4,4c0,2.2,1.8,4,4,4h39.8c2.2,0,4-1.8,4-4C83.9,92.7,82.1,90.9,79.9,90.9z"/>
</g>
</svg>
