<?xml version="1.0" encoding="utf-8"?>
<!-- Generator: Adobe Illustrator 28.2.0, SVG Export Plug-In . SVG Version: 6.00 Build 0)  -->
<svg version="1.1" xmlns="http://www.w3.org/2000/svg" xmlns:xlink="http://www.w3.org/1999/xlink" x="0px" y="0px"
	 viewBox="0 0 40 40" style="enable-background:new 0 0 40 40;" xml:space="preserve">
<g id="BG">
</g>
<g id="go-down">
	<path d="M19.1,31.3L10.8,23c-0.5-0.5-0.5-1.3,0-1.8c0.3-0.3,0.6-0.4,0.9-0.4c0.3,0,0.7,0.1,0.9,0.4l6.1,6V9.7
		c0-0.7,0.6-1.4,1.4-1.4c0.7,0,1.3,0.6,1.3,1.3v17.5l6.1-6c0.5-0.5,1.3-0.5,1.8,0c0.2,0.2,0.4,0.6,0.4,1s-0.1,0.7-0.4,1l-8.3,8.3
		C20.4,31.8,19.6,31.8,19.1,31.3z"/>
</g>
</svg>
