<?xml version="1.0" encoding="utf-8"?>
<!-- Generator: Adobe Illustrator 28.2.0, SVG Export Plug-In . SVG Version: 6.00 Build 0)  -->
<svg version="1.1" id="go-down_x5F_alt" xmlns="http://www.w3.org/2000/svg" xmlns:xlink="http://www.w3.org/1999/xlink" x="0px"
	 y="0px" viewBox="0 0 120 120" style="enable-background:new 0 0 120 120;" xml:space="preserve">
<style type="text/css">
	.st0{fill:none;}
</style>
<rect id="BG" y="0" class="st0" width="120" height="120"/>
<path d="M57.3,75.2l-25-25c-0.8-0.8-1.2-1.7-1.2-2.8s0.4-2,1.2-2.8s1.7-1.2,2.8-1.2c1,0,2,0.4,2.8,1.2L60,66.7l22.1-21.9
	c1.6-1.6,3.9-1.6,5.4-0.1c0.9,0.7,1.3,1.7,1.3,2.9s-0.4,2.1-1.1,2.8l-25,24.7C62,76,61,76.4,60,76.4S58,76,57.3,75.2L57.3,75.2z"/>
</svg>
