<?xml version="1.0" encoding="utf-8"?>
<!-- Generator: Adobe Illustrator 28.2.0, SVG Export Plug-In . SVG Version: 6.00 Build 0)  -->
<svg version="1.1" xmlns="http://www.w3.org/2000/svg" xmlns:xlink="http://www.w3.org/1999/xlink" x="0px" y="0px"
	 viewBox="0 0 40 40" style="enable-background:new 0 0 40 40;" xml:space="preserve">
<g id="BG">
</g>
<g id="go-first">
	<g>
		<path d="M18.3,29.2c0.2,0.2,0.6,0.4,1,0.4s0.7-0.1,1-0.4c0.5-0.5,0.5-1.3,0-1.8l-6-6.1h17.5c0.7,0,1.3-0.6,1.3-1.3
			c0-0.7-0.6-1.4-1.4-1.4H14.2l6-6.1c0.3-0.3,0.4-0.6,0.4-0.9c0-0.3-0.1-0.7-0.4-0.9c-0.5-0.5-1.3-0.5-1.8,0l-8.3,8.3
			c-0.3,0.3-0.4,0.6-0.4,0.9s0.1,0.7,0.4,0.9L18.3,29.2z"/>
		<path d="M8.3,12C7.6,12,7,12.6,7,13.4v13.3C7,27.4,7.6,28,8.3,28s1.3-0.6,1.3-1.3V20v-6.6C9.7,12.6,9.1,12,8.3,12z"/>
	</g>
</g>
</svg>
