<?xml version="1.0" encoding="utf-8"?>
<!-- Generator: Adobe Illustrator 26.5.0, SVG Export Plug-In . SVG Version: 6.00 Build 0)  -->
<svg version="1.1" id="Artboard" xmlns="http://www.w3.org/2000/svg" xmlns:xlink="http://www.w3.org/1999/xlink" x="0px" y="0px"
	 viewBox="0 0 48 48" style="enable-background:new 0 0 48 48;" xml:space="preserve">
<path d="M21.5,10.8l-12,12.1c-0.3,0.3-0.4,0.6-0.4,0.9v-9.6c0-0.8-0.7-1.5-1.5-1.5S6,13.4,6,14.3v19.5c0,0.8,0.7,1.5,1.5,1.5
	S9,34.6,9,33.7v-9.6c0,0.3,0.2,0.6,0.4,0.9l12,12.1c0.6,0.6,1.5,0.6,2.1,0s0.6-1.5,0-2.1l-9.4-9.5h26.2c0.9,0.1,1.6-0.8,1.6-1.6
	s-0.7-1.5-1.5-1.5H14.3l9.4-9.5c0.6-0.6,0.6-1.5,0-2.1c-0.3-0.3-0.7-0.4-1.1-0.4S21.8,10.5,21.5,10.8z"/>
</svg>
