<?xml version="1.0" encoding="utf-8"?>
<!-- Generator: Adobe Illustrator 28.2.0, SVG Export Plug-In . SVG Version: 6.00 Build 0)  -->
<svg version="1.1" id="go-first" xmlns="http://www.w3.org/2000/svg" xmlns:xlink="http://www.w3.org/1999/xlink" x="0px" y="0px"
	 viewBox="0 0 120 120" style="enable-background:new 0 0 120 120;" xml:space="preserve">
<style type="text/css">
	.st0{fill:none;}
</style>
<rect id="BG" y="0" class="st0" width="120" height="120"/>
<g>
	<path d="M55,87.7c0.7,0.7,1.7,1.1,2.8,1.1c1.2,0,2.2-0.4,2.9-1.1c1.6-1.6,1.6-3.9,0-5.5L42.7,64h52.4c2.1,0,3.9-1.8,3.9-3.9
		c0-2.2-1.9-4.1-4.1-4.1H42.5l18.1-18.2c0.8-0.8,1.2-1.7,1.2-2.8c0-1-0.4-2-1.2-2.8c-1.5-1.5-4-1.5-5.5,0l-24.8,25
		C29.4,58,29,58.9,29,59.9c0,1,0.4,2,1.2,2.8L55,87.7L55,87.7z"/>
	<path d="M25,36c-2.2,0-4,1.8-4,4v39.8c0,2.2,1.8,4,4,4s4-1.8,4-4V40C29,37.8,27.2,36,25,36z"/>
</g>
</svg>
