<?xml version="1.0" encoding="utf-8"?>
<!-- Generator: Adobe Illustrator 26.5.0, SVG Export Plug-In . SVG Version: 6.00 Build 0)  -->
<svg version="1.1" id="Layer_1" xmlns="http://www.w3.org/2000/svg" xmlns:xlink="http://www.w3.org/1999/xlink" x="0px" y="0px"
	 viewBox="0 0 48 48" style="enable-background:new 0 0 48 48;" xml:space="preserve">
<g id="Layer_2_00000034072721633512919660000013024467191858999205_">
	<path d="M39.5,22l-1.4-1.4V14c0-0.9-0.8-1.8-1.8-1.8s-1.8,0.8-1.8,1.9v3.1L25.3,8c-0.7-0.7-1.8-0.7-2.5,0L8.6,22.1
		c-0.7,0.7-0.7,1.8,0,2.5c0.4,0.4,0.8,0.6,1.3,0.5v13.7c0,0.9,0.8,1.8,1.8,1.8H24h12.3c0.9,0,1.8-0.8,1.8-1.8V24.9
		c0.5,0,0.9-0.1,1.3-0.5c0.4-0.4,0.6-0.8,0.6-1.2C39.9,22.8,39.8,22.3,39.5,22z M28.3,37v-9.5c0-0.7-0.6-1.3-1.3-1.3h-6
		c-0.7,0-1.3,0.6-1.3,1.3V37h-6.3V22.2L24,11.8l10.6,10.5V37H28.3z"/>
</g>
</svg>
