<?xml version="1.0" encoding="utf-8"?>
<!-- Generator: Adobe Illustrator 28.2.0, SVG Export Plug-In . SVG Version: 6.00 Build 0)  -->
<svg version="1.1" xmlns="http://www.w3.org/2000/svg" xmlns:xlink="http://www.w3.org/1999/xlink" x="0px" y="0px"
	 viewBox="0 0 40 40" style="enable-background:new 0 0 40 40;" xml:space="preserve">
<g id="BG">
</g>
<g id="go-home">
	<path d="M8.8,34.7h22.3c0.7,0,1.4-0.6,1.4-1.4V20.5l0.3,0.1c0,0,0.1,0,0.1,0c0.1,0,0.1,0,0.1,0c0.7,0,1.3-0.6,1.3-1.3
		c0-0.4-0.2-0.7-0.5-1l-0.1-0.1L32.5,17v-6.1c0-0.7-0.6-1.4-1.4-1.4c-0.8,0-1.4,0.6-1.4,1.5v3.4L21,5.6c-0.5-0.5-1.4-0.5-1.9,0
		L6.2,18.4c-0.5,0.5-0.5,1.4,0,1.9c0.3,0.3,0.6,0.5,1,0.4l0.3-0.1v12.7C7.4,34,8,34.7,8.8,34.7z M10.1,18.2L20,8.5l9.9,9.8V32h-6.2
		v-8.9c0-0.5-0.4-0.9-0.9-0.9h-5.4c-0.5,0-0.9,0.4-0.9,0.9V32h-6.2V18.2z"/>
</g>
</svg>
