<?xml version="1.0" encoding="utf-8"?>
<!-- Generator: Adobe Illustrator 26.5.0, SVG Export Plug-In . SVG Version: 6.00 Build 0)  -->
<svg version="1.1" xmlns="http://www.w3.org/2000/svg" xmlns:xlink="http://www.w3.org/1999/xlink" x="0px" y="0px"
	 viewBox="0 0 48 48" style="enable-background:new 0 0 48 48;" xml:space="preserve">
<style type="text/css">
	.st0{display:none;}
</style>
<g id="Artboard">
	<path class="st0" d="M24.1,40.5c0.8,0,1.5-0.7,1.5-1.5V12.8l9.5,9.4c0.6,0.6,1.5,0.6,2.1,0c0.3-0.3,0.4-0.7,0.4-1.1
		s-0.1-0.8-0.4-1.1L25.1,8c-0.6-0.6-1.5-0.6-2.1,0L10.9,20c-0.6,0.6-0.6,1.5,0,2.1s1.5,0.6,2.1,0l9.5-9.4v26.2
		C22.4,39.8,23.3,40.5,24.1,40.5z"/>
</g>
<g id="Layer_2">
	<path d="M37.2,22.3L36,21.1v-5.6c0-0.8-0.7-1.5-1.5-1.5S33,14.7,33,15.6v2.6l-7.9-7.8c-0.6-0.6-1.5-0.6-2.1,0l-12.1,12
		c-0.6,0.6-0.6,1.5,0,2.1c0.3,0.3,0.7,0.5,1.1,0.4v11.7c0,0.8,0.7,1.5,1.5,1.5H24h10.5c0.8,0,1.5-0.7,1.5-1.5V24.8
		c0.4,0,0.8-0.1,1.1-0.4c0.3-0.3,0.5-0.7,0.5-1C37.6,23,37.5,22.6,37.2,22.3z M27.7,35.1V27c0-0.6-0.5-1.1-1.1-1.1h-5.1
		c-0.6,0-1.1,0.5-1.1,1.1v8.1h-5.4V22.5l9-8.9l9,8.9v12.6H27.7z"/>
</g>
<g id="Layer_3">
</g>
</svg>
