<?xml version="1.0" encoding="utf-8"?>
<!-- Generator: Adobe Illustrator 28.2.0, SVG Export Plug-In . SVG Version: 6.00 Build 0)  -->
<svg version="1.1" xmlns="http://www.w3.org/2000/svg" xmlns:xlink="http://www.w3.org/1999/xlink" x="0px" y="0px"
	 viewBox="0 0 40 40" style="enable-background:new 0 0 40 40;" xml:space="preserve">
<g id="BG">
</g>
<g id="go-home">
	<path d="M31.4,18.5C31.4,18.5,31.4,18.5,31.4,18.5l-1.1-1.1v-4.9c0-0.7-0.6-1.3-1.3-1.3s-1.3,0.6-1.3,1.4V15l-6.8-6.8
		c-0.5-0.5-1.3-0.5-1.8,0L8.6,18.6c-0.5,0.5-0.5,1.3,0,1.8c0.3,0.3,0.6,0.4,1,0.4v10.1c0,0.7,0.6,1.3,1.3,1.3h9h9
		c0.7,0,1.3-0.6,1.3-1.3V20.7c0.1,0,0.2,0,0.2,0c0.7,0,1.3-0.6,1.3-1.3C31.8,19.1,31.7,18.7,31.4,18.5z M27.8,29.5h-4.6v-7
		c0-0.5-0.4-1-1-1h-4.4c-0.5,0-1,0.4-1,1v7h-4.6V18.6L20,11l7.8,7.7V29.5z"/>
</g>
</svg>
