<?xml version="1.0" encoding="utf-8"?>
<!-- Generator: Adobe Illustrator 28.2.0, SVG Export Plug-In . SVG Version: 6.00 Build 0)  -->
<svg version="1.1" id="go-home" xmlns="http://www.w3.org/2000/svg" xmlns:xlink="http://www.w3.org/1999/xlink" x="0px" y="0px"
	 viewBox="0 0 120 120" style="enable-background:new 0 0 120 120;" xml:space="preserve">
<style type="text/css">
	.st0{fill:none;}
</style>
<rect y="0" class="st0" width="120" height="120"/>
<path d="M97.5,53.3c0,0,0-0.1-0.1-0.1L94,49.7v-16c0-2.2-1.9-4.3-4.3-4.3s-4.3,1.9-4.3,4.6v7.5L63,19.3c-1.7-1.7-4.3-1.7-6.1,0
	L22.6,53.4c-1.7,1.7-1.7,4.3,0,6.1c1,1,1.9,1.4,3.2,1.2v33.2c0,2.2,1.9,4.3,4.3,4.3h59.6c2.2,0,4.3-1.9,4.3-4.3V60.4
	c0.3,0.1,0.5,0.2,0.8,0.2c2.3,0,4.1-1.8,4.1-4.1C99,55.2,98.4,54.1,97.5,53.3L97.5,53.3z M85.6,89.5H70.3v-23c0-1.7-1.4-3.2-3.2-3.2
	H52.6c-1.7,0-3.2,1.4-3.2,3.2v23H34.2V53.6l25.7-25.2l25.7,25.4L85.6,89.5L85.6,89.5z"/>
</svg>
