<?xml version="1.0" encoding="utf-8"?>
<!-- Generator: Adobe Illustrator 26.5.0, SVG Export Plug-In . SVG Version: 6.00 Build 0)  -->
<svg version="1.1" id="Layer_1" xmlns="http://www.w3.org/2000/svg" xmlns:xlink="http://www.w3.org/1999/xlink" x="0px" y="0px"
	 viewBox="0 0 48 48" style="enable-background:new 0 0 48 48;" xml:space="preserve">
<g id="Layer_2_00000034072721633512919660000013024467191858999205_">
	<path d="M37.2,22.3L36,21.1v-5.6c0-0.8-0.7-1.5-1.5-1.5S33,14.7,33,15.6v2.6l-7.9-7.8c-0.6-0.6-1.5-0.6-2.1,0l-12.1,12
		c-0.6,0.6-0.6,1.5,0,2.1c0.3,0.3,0.7,0.5,1.1,0.4v11.7c0,0.8,0.7,1.5,1.5,1.5H24h10.5c0.8,0,1.5-0.7,1.5-1.5V24.8
		c0.4,0,0.8-0.1,1.1-0.4s0.5-0.7,0.5-1C37.6,23,37.5,22.6,37.2,22.3z M27.7,35.1V27c0-0.6-0.5-1.1-1.1-1.1h-5.1
		c-0.6,0-1.1,0.5-1.1,1.1v8.1H15V22.5l9-8.9l9,8.9v12.6H27.7z"/>
</g>
</svg>
