<?xml version="1.0" encoding="utf-8"?>
<!-- Generator: Adobe Illustrator 28.2.0, SVG Export Plug-In . SVG Version: 6.00 Build 0)  -->
<svg version="1.1" xmlns="http://www.w3.org/2000/svg" xmlns:xlink="http://www.w3.org/1999/xlink" x="0px" y="0px"
	 viewBox="0 0 40 40" style="enable-background:new 0 0 40 40;" xml:space="preserve">
<g id="BG">
</g>
<g id="go-jump_x5F_alt">
	<path d="M19.3,31.7c0.4,0.5,1.2,0.4,1.5,0l10.4-10.3c0.1-0.1,0.3-0.3,0.3-0.8v-0.1c0-0.7-0.7-1-0.9-1h-5.7l-0.2-1.2
		C24,15.1,21.4,7.5,11.1,7.9c-0.1,0-0.4,0.1-0.5,0.4c-0.1,0.2,0,0.4,0.2,0.6c1.4,1.1,4.6,4.3,5.2,8.9l0.2,1.7H9.4
		c-0.2,0-0.4,0.1-0.5,0.3c-0.3,0.3-0.3,0.6-0.3,0.8s0.1,0.5,0.3,0.8L19.3,31.7z"/>
</g>
</svg>
