<?xml version="1.0" encoding="utf-8"?>
<!-- Generator: Adobe Illustrator 28.2.0, SVG Export Plug-In . SVG Version: 6.00 Build 0)  -->
<svg version="1.1" id="go-jump-filled" xmlns="http://www.w3.org/2000/svg" xmlns:xlink="http://www.w3.org/1999/xlink" x="0px"
	 y="0px" viewBox="0 0 120 120" style="enable-background:new 0 0 120 120;" xml:space="preserve">
<style type="text/css">
	.st0{fill:none;}
</style>
<rect id="BG" y="0" class="st0" width="120" height="120"/>
<path d="M57.9,95.1c1.4,1.3,3.5,1.2,4.5,0.2l31.1-30.8c0.2-0.2,0.9-0.8,0.9-2.3v-0.4c0-2.1-2.1-3-2.6-3h-17L74,55.1
	c-2-9.8-9.9-32.5-40.9-31.3c-0.5,0-1.1,0.2-1.5,1.2c-0.2,0.5,0,1.3,0.5,1.8c4.1,3.4,13.9,13,15.5,26.8l0.6,5H28.2
	c-0.5,0.1-1,0.4-1.6,0.9c-0.8,0.8-1,1.7-1,2.3c0,0.6,0.2,1.5,1,2.3L57.9,95.1z"/>
</svg>
