<?xml version="1.0" encoding="utf-8"?>
<!-- Generator: Adobe Illustrator 26.5.0, SVG Export Plug-In . SVG Version: 6.00 Build 0)  -->
<svg version="1.1" id="Layer_4" xmlns="http://www.w3.org/2000/svg" xmlns:xlink="http://www.w3.org/1999/xlink" x="0px" y="0px"
	 viewBox="0 0 96 96" style="enable-background:new 0 0 96 96;" xml:space="preserve">
<path d="M76.3,51.7C76.3,51.7,76.3,51.7,76.3,51.7c0-1.8-1.8-2.8-2.5-2.8c-0.2,0-5.7,0-12.8,0c0,0,0-0.1,0-0.1
	c-0.2-1.6-3.1-28.1-32.5-26.9c-1.6,0.1-2.3,2.1-1.1,3.2c4.6,4,11.9,12.2,11.9,23.3c0,0.2,0,0.3,0,0.5c-6.7,0-12.2,0-13.9,0
	c-0.2,0-0.4,0-0.5,0c0,0,0,0,0,0l0,0c-0.7,0.1-1.3,0.3-1.8,0.9c-1.2,1.2-1.2,3,0,4.2l24.2,24c1.2,1.2,3,1.2,4.2,0l24.2-23.8
	c0.6-0.6,0.8-1.4,0.8-2.2C76.3,51.8,76.3,51.8,76.3,51.7z"/>
</svg>
