<?xml version="1.0" encoding="utf-8"?>
<!-- Generator: Adobe Illustrator 26.5.0, SVG Export Plug-In . SVG Version: 6.00 Build 0)  -->
<svg version="1.1" id="Layer_4" xmlns="http://www.w3.org/2000/svg" xmlns:xlink="http://www.w3.org/1999/xlink" x="0px" y="0px"
	 viewBox="0 0 96 96" style="enable-background:new 0 0 96 96;" xml:space="preserve">
<path d="M48.1,79.5c-1.5,0-3-0.6-4.2-1.8l-24.2-24c-2.4-2.4-2.4-6.1,0-8.5c1-1,2.2-1.6,3.5-1.7h0.3c0.3,0,0.5,0,0.8,0H35
	c-1-8.7-7-15.3-10.8-18.5c-1.5-1.3-2-3.4-1.4-5.2c0.7-1.9,2.3-3.1,4.3-3.2c27.1-1.1,33.7,19.5,35.2,27h10.3c2.3,0,5.5,2.2,5.5,5.8
	c0,0.1,0,0.2,0,0.3c0,2.2-0.9,3.6-1.7,4.3L52.3,77.8C51.2,78.9,49.6,79.5,48.1,79.5z M24,49.5l24.1,23.9l24.1-23.7c0,0,0,0,0-0.1
	v-0.2H57.3l-0.4-2.3c0-0.1,0-0.2,0-0.4c-0.2-2.4-2.9-23.4-26.5-24.1c4.8,4.8,10.8,12.9,10.8,23.5v0.4l0.1,3.1L24,49.5z M72.2,49.8
	L72.2,49.8L72.2,49.8z"/>
</svg>
