<?xml version="1.0" encoding="utf-8"?>
<!-- Generator: Adobe Illustrator 28.2.0, SVG Export Plug-In . SVG Version: 6.00 Build 0)  -->
<svg version="1.1" id="go-jump" xmlns="http://www.w3.org/2000/svg" xmlns:xlink="http://www.w3.org/1999/xlink" x="0px" y="0px"
	 viewBox="0 0 120 120" style="enable-background:new 0 0 120 120;" xml:space="preserve">
<style type="text/css">
	.st0{fill:none;}
</style>
<rect id="BG" y="0" class="st0" width="120" height="120"/>
<path d="M60.1,100.6c-1.9,0-3.9-0.8-5.4-2.3l-31.3-31c-3.1-3.1-3.1-7.9,0-11c1.3-1.3,2.9-2.1,4.5-2.2h15.2c-1.3-11.2-9-19.8-14-23.9
	c-2-1.7-2.6-4.4-1.8-6.7c0.9-2.5,3-4,5.5-4.1c35-1.4,43.5,25.2,45.5,34.9h13.3c3,0,7.1,2.8,7.1,7.5v0.4c0,2.8-1.2,4.6-2.2,5.5
	L65.6,98.4C64.2,99.8,62.1,100.6,60.1,100.6L60.1,100.6z M29,61.8l31.1,30.9l31.1-31H72l-0.5-3v-0.5c-0.3-3.1-3.8-30.2-34.2-31.1
	c6.2,6.2,14,16.7,14,30.4v0.5l0.1,4L29,61.8L29,61.8z"/>
</svg>
