<?xml version="1.0" encoding="utf-8"?>
<!-- Generator: Adobe Illustrator 28.2.0, SVG Export Plug-In . SVG Version: 6.00 Build 0)  -->
<svg version="1.1" xmlns="http://www.w3.org/2000/svg" xmlns:xlink="http://www.w3.org/1999/xlink" x="0px" y="0px"
	 viewBox="0 0 40 40" style="enable-background:new 0 0 40 40;" xml:space="preserve">
<g id="BG">
</g>
<g id="go-jump">
	<path d="M20,33.5c-0.6,0-1.3-0.3-1.8-0.8L7.8,22.4c-1-1-1-2.6,0-3.7c0.4-0.4,0.9-0.7,1.5-0.7h5.1c-0.4-3.7-3-6.6-4.7-8
		C9.1,9.5,8.9,8.6,9.1,7.8c0.3-0.8,1-1.3,1.9-1.4C22.7,6,25.5,14.8,26.2,18.1h4.4c1,0,2.4,0.9,2.4,2.5c0,0,0,0.1,0,0.1
		c0,0.9-0.4,1.6-0.7,1.9L21.8,32.8C21.4,33.3,20.7,33.5,20,33.5z M9.7,20.6L20,30.9l10.4-10.3H24l-0.2-1c0,0,0-0.1,0-0.2
		c-0.1-1-1.2-10.1-11.4-10.4c2.1,2.1,4.7,5.6,4.7,10.1v0.2l0,1.3L9.7,20.6z"/>
</g>
</svg>
