<?xml version="1.0" encoding="utf-8"?>
<!-- Generator: Adobe Illustrator 28.2.0, SVG Export Plug-In . SVG Version: 6.00 Build 0)  -->
<svg version="1.1" id="go-last" xmlns="http://www.w3.org/2000/svg" xmlns:xlink="http://www.w3.org/1999/xlink" x="0px" y="0px"
	 viewBox="0 0 120 120" style="enable-background:new 0 0 120 120;" xml:space="preserve">
<style type="text/css">
	.st0{fill:none;}
</style>
<rect id="BG" y="0" class="st0" width="120" height="120"/>
<g>
	<path d="M65,32.1c-0.7-0.7-1.7-1.1-2.9-1.1c-1.2,0-2.2,0.4-2.9,1.1c-1.6,1.6-1.6,3.9,0,5.5l18,18.2H24.9c-2.1,0-3.9,1.8-3.9,3.9
		c0,2.2,1.9,4.1,4.1,4.1h52.4L59.5,82.2c-0.8,0.8-1.2,1.7-1.2,2.8c0,1,0.4,2,1.2,2.8c1.5,1.5,4,1.5,5.5,0l24.8-25
		c0.8-0.8,1.2-1.8,1.2-2.8c0-1-0.4-2-1.2-2.8L65,32.1L65,32.1z"/>
	<path d="M95,83.8c2.2,0,4-1.8,4-4V40c0-2.2-1.8-4-4-4s-4,1.8-4,4v39.8C91,82,92.8,83.8,95,83.8z"/>
</g>
</svg>
