<?xml version="1.0" encoding="utf-8"?>
<!-- Generator: Adobe Illustrator 28.2.0, SVG Export Plug-In . SVG Version: 6.00 Build 0)  -->
<svg version="1.1" xmlns="http://www.w3.org/2000/svg" xmlns:xlink="http://www.w3.org/1999/xlink" x="0px" y="0px"
	 viewBox="0 0 40 40" style="enable-background:new 0 0 40 40;" xml:space="preserve">
<g id="BG">
</g>
<g id="go-last">
	<g>
		<path d="M21.7,10.7c-0.2-0.2-0.6-0.4-1-0.4s-0.7,0.1-1,0.4c-0.5,0.5-0.5,1.3,0,1.8l6,6.1H8.3c-0.7,0-1.3,0.6-1.3,1.3
			c0,0.7,0.6,1.4,1.4,1.4h17.5l-6,6.1c-0.3,0.3-0.4,0.6-0.4,0.9c0,0.3,0.1,0.7,0.4,0.9c0.5,0.5,1.3,0.5,1.8,0l8.3-8.3
			c0.3-0.3,0.4-0.6,0.4-0.9s-0.1-0.7-0.4-0.9L21.7,10.7z"/>
		<path d="M31.7,27.9c0.7,0,1.3-0.6,1.3-1.3V13.4c0-0.7-0.6-1.3-1.3-1.3s-1.3,0.6-1.3,1.3V20v6.6C30.3,27.3,30.9,27.9,31.7,27.9z"/>
	</g>
</g>
</svg>
