<?xml version="1.0" encoding="utf-8"?>
<!-- Generator: Adobe Illustrator 26.5.0, SVG Export Plug-In . SVG Version: 6.00 Build 0)  -->
<svg version="1.1" id="Artboard" xmlns="http://www.w3.org/2000/svg" xmlns:xlink="http://www.w3.org/1999/xlink" x="0px" y="0px"
	 viewBox="0 0 48 48" style="enable-background:new 0 0 48 48;" xml:space="preserve">
<path d="M26.5,10.8l12,12.1c0.3,0.3,0.4,0.6,0.4,0.9v-9.6c0-0.8,0.7-1.5,1.5-1.5s1.5,0.7,1.5,1.5v19.5c0,0.8-0.7,1.5-1.5,1.5
	S39,34.6,39,33.7v-9.6c0,0.3-0.2,0.6-0.4,0.9l-12,12.1c-0.6,0.6-1.5,0.6-2.1,0s-0.6-1.5,0-2.1l9.4-9.5H7.6C6.7,25.6,6,24.7,6,23.9
	s0.7-1.5,1.5-1.5h26.2l-9.4-9.5c-0.6-0.6-0.6-1.5,0-2.1c0.3-0.3,0.7-0.4,1.1-0.4C25.8,10.4,26.2,10.5,26.5,10.8z"/>
</svg>
