<?xml version="1.0" encoding="utf-8"?>
<!-- Generator: Adobe Illustrator 28.2.0, SVG Export Plug-In . SVG Version: 6.00 Build 0)  -->
<svg version="1.1" id="go-next_x5F_alt" xmlns="http://www.w3.org/2000/svg" xmlns:xlink="http://www.w3.org/1999/xlink" x="0px"
	 y="0px" viewBox="0 0 120 120" style="enable-background:new 0 0 120 120;" xml:space="preserve">
<style type="text/css">
	.st0{fill:none;}
</style>
<rect id="BG" y="0" class="st0" width="120" height="120"/>
<path d="M75.2,57.3l-25-25c-0.8-0.8-1.7-1.2-2.8-1.2s-2,0.4-2.8,1.2s-1.2,1.7-1.2,2.8c0,1,0.4,2,1.2,2.8L66.7,60L44.8,82.1
	c-1.6,1.6-1.6,3.9-0.1,5.4c0.7,0.9,1.7,1.3,2.9,1.3c1.2,0,2.1-0.4,2.8-1.1l24.8-25C76,62,76.4,61,76.4,60S76,58,75.2,57.3L75.2,57.3
	z"/>
</svg>
