<?xml version="1.0" encoding="utf-8"?>
<!-- Generator: Adobe Illustrator 28.2.0, SVG Export Plug-In . SVG Version: 6.00 Build 0)  -->
<svg version="1.1" xmlns="http://www.w3.org/2000/svg" xmlns:xlink="http://www.w3.org/1999/xlink" x="0px" y="0px"
	 viewBox="0 0 40 40" style="enable-background:new 0 0 40 40;" xml:space="preserve">
<g id="BG">
</g>
<g id="go-previous">
	<path d="M8.7,19.1l8.3-8.3c0.5-0.5,1.3-0.5,1.8,0c0.3,0.3,0.4,0.6,0.4,0.9c0,0.3-0.1,0.7-0.4,0.9l-6,6.1h17.5
		c0.7,0,1.4,0.6,1.4,1.4c0,0.7-0.6,1.3-1.3,1.3H12.9l6,6.1c0.5,0.5,0.5,1.3,0,1.8c-0.2,0.2-0.6,0.4-1,0.4s-0.7-0.1-1-0.4l-8.3-8.3
		C8.2,20.4,8.2,19.6,8.7,19.1z"/>
</g>
</svg>
