<?xml version="1.0" encoding="utf-8"?>
<!-- Generator: Adobe Illustrator 28.2.0, SVG Export Plug-In . SVG Version: 6.00 Build 0)  -->
<svg version="1.1" id="go-previous" xmlns="http://www.w3.org/2000/svg" xmlns:xlink="http://www.w3.org/1999/xlink" x="0px"
	 y="0px" viewBox="0 0 120 120" style="enable-background:new 0 0 120 120;" xml:space="preserve">
<style type="text/css">
	.st0{fill:none;}
</style>
<rect id="BG" y="0" class="st0" width="120" height="120"/>
<path d="M26.2,57.3l24.8-25c1.5-1.5,4-1.5,5.5,0c0.8,0.8,1.2,1.7,1.2,2.8s-0.4,2-1.2,2.8L38.4,56h52.4C93,56,95,58,95,60.2
	c0,2.1-1.8,3.9-3.9,3.9H38.7l18,18.2c1.6,1.6,1.6,3.9,0,5.5c-0.7,0.7-1.7,1.1-2.9,1.1c-1.2,0-2.2-0.4-2.8-1.1l-24.8-25
	C24.6,61.3,24.6,58.9,26.2,57.3L26.2,57.3z"/>
</svg>
