<?xml version="1.0" encoding="utf-8"?>
<!-- Generator: Adobe Illustrator 28.2.0, SVG Export Plug-In . SVG Version: 6.00 Build 0)  -->
<svg version="1.1" id="go-previous_x5F_alt" xmlns="http://www.w3.org/2000/svg" xmlns:xlink="http://www.w3.org/1999/xlink"
	 x="0px" y="0px" viewBox="0 0 120 120" style="enable-background:new 0 0 120 120;" xml:space="preserve">
<style type="text/css">
	.st0{fill:none;}
</style>
<rect id="BG" y="0" class="st0" width="120" height="120"/>
<path d="M75.2,82.1L53.3,60l21.9-22.1c0.8-0.8,1.2-1.7,1.2-2.8c0-1-0.4-2-1.2-2.8s-1.7-1.2-2.8-1.2c-1,0-2,0.4-2.8,1.2l-25,25
	C44,58,43.6,59,43.6,60.1s0.4,2,1.2,2.8l24.8,25c0.7,0.7,1.7,1.1,2.8,1.1c0,0,0.1,0,0.1,0c0,0,0,0,0.1,0c0.1,0,0.1,0,0.1,0
	c0.4,0,0.8-0.1,1.2-0.2c0.2-0.1,0.4-0.2,0.6-0.3c0.1-0.1,0.2-0.1,0.3-0.2c1-0.7,1.7-1.8,1.7-3.1v-0.1C76.4,83.9,76.1,82.9,75.2,82.1
	L75.2,82.1z"/>
</svg>
