<?xml version="1.0" encoding="utf-8"?>
<!-- Generator: Adobe Illustrator 28.2.0, SVG Export Plug-In . SVG Version: 6.00 Build 0)  -->
<svg version="1.1" xmlns="http://www.w3.org/2000/svg" xmlns:xlink="http://www.w3.org/1999/xlink" x="0px" y="0px"
	 viewBox="0 0 40 40" style="enable-background:new 0 0 40 40;" xml:space="preserve">
<g id="BG">
</g>
<g id="go-previous_x5F_alt">
	<path d="M25.1,27.4L17.8,20l7.3-7.4c0.3-0.3,0.4-0.6,0.4-0.9s-0.1-0.7-0.4-0.9c-0.3-0.3-0.6-0.4-0.9-0.4c0,0,0,0,0,0
		c-0.3,0-0.7,0.1-0.9,0.4l-8.3,8.3c-0.3,0.3-0.4,0.6-0.4,0.9s0.1,0.7,0.4,0.9l8.3,8.3c0.2,0.2,0.6,0.4,1,0.4c0,0,0,0,0,0
		c0,0,0,0,0,0c0,0,0,0,0,0c0.1,0,0.3,0,0.4-0.1c0.1,0,0.1-0.1,0.2-0.1c0,0,0.1,0,0.1-0.1c0.3-0.2,0.5-0.6,0.5-1c0,0,0,0,0,0
		C25.5,28,25.3,27.6,25.1,27.4z"/>
</g>
</svg>
