<?xml version="1.0" encoding="utf-8"?>
<!-- Generator: Adobe Illustrator 28.2.0, SVG Export Plug-In . SVG Version: 6.00 Build 0)  -->
<svg version="1.1" xmlns="http://www.w3.org/2000/svg" xmlns:xlink="http://www.w3.org/1999/xlink" x="0px" y="0px"
	 viewBox="0 0 40 40" style="enable-background:new 0 0 40 40;" xml:space="preserve">
<g id="BG">
</g>
<g id="go-top">
	<g>
		<path d="M10.7,18.3c-0.2,0.2-0.4,0.6-0.4,1s0.1,0.7,0.4,1c0.5,0.5,1.3,0.5,1.8,0l6.1-6v17.5c0,0.7,0.6,1.3,1.3,1.3
			c0.7,0,1.4-0.6,1.4-1.4V14.1l6.1,6c0.3,0.3,0.6,0.4,0.9,0.4c0.3,0,0.7-0.1,0.9-0.4c0.5-0.5,0.5-1.3,0-1.8L20.9,10
			c-0.3-0.3-0.6-0.4-0.9-0.4s-0.7,0.1-0.9,0.4L10.7,18.3z"/>
		<path d="M28,8.3C28,7.6,27.4,7,26.6,7H13.4C12.6,7,12,7.6,12,8.3s0.6,1.3,1.3,1.3H20h6.6C27.4,9.7,28,9.1,28,8.3z"/>
	</g>
</g>
</svg>
