<?xml version="1.0" encoding="utf-8"?>
<!-- Generator: Adobe Illustrator 26.5.0, SVG Export Plug-In . SVG Version: 6.00 Build 0)  -->
<svg version="1.1" id="Artboard" xmlns="http://www.w3.org/2000/svg" xmlns:xlink="http://www.w3.org/1999/xlink" x="0px" y="0px"
	 viewBox="0 0 48 48" style="enable-background:new 0 0 48 48;" xml:space="preserve">
<path d="M37.2,21.5l-12.1-12c-0.3-0.3-0.6-0.4-0.9-0.4h9.6c0.8,0,1.5-0.7,1.5-1.5S34.6,6,33.7,6H14.3c-0.8,0-1.5,0.7-1.5,1.5
	S13.4,9,14.3,9h9.6c-0.3,0-0.6,0.2-0.9,0.4l-12.1,12c-0.6,0.6-0.6,1.5,0,2.1s1.5,0.6,2.1,0l9.5-9.4v26.2c-0.1,0.9,0.8,1.6,1.6,1.6
	s1.5-0.7,1.5-1.5V14.3l9.5,9.4c0.6,0.6,1.5,0.6,2.1,0c0.3-0.3,0.4-0.7,0.4-1.1C37.6,22.2,37.5,21.8,37.2,21.5z"/>
</svg>
