<?xml version="1.0" encoding="utf-8"?>
<!-- Generator: Adobe Illustrator 28.2.0, SVG Export Plug-In . SVG Version: 6.00 Build 0)  -->
<svg version="1.1" id="go-top" xmlns="http://www.w3.org/2000/svg" xmlns:xlink="http://www.w3.org/1999/xlink" x="0px" y="0px"
	 viewBox="0 0 120 120" style="enable-background:new 0 0 120 120;" xml:space="preserve">
<style type="text/css">
	.st0{fill:none;}
</style>
<rect id="BG" y="0" class="st0" width="120" height="120"/>
<g>
	<path d="M32.2,55c-0.7,0.7-1.1,1.7-1.1,2.9c0,1.2,0.4,2.2,1.1,2.8c1.6,1.6,3.9,1.6,5.5,0l18.2-18V95c0,2.1,1.8,3.9,3.9,3.9
		c2.2,0,4.1-1.9,4.1-4.1V42.4l18.2,18.1c0.8,0.8,1.7,1.2,2.8,1.2c1,0,2-0.4,2.8-1.2c1.5-1.5,1.5-4,0-5.5l-25-24.8
		C62,29.4,61,29,60,29s-2,0.4-2.8,1.2L32.2,55L32.2,55z"/>
	<path d="M83.9,24.9c0-2.2-1.8-4-4-4H40.1c-2.2,0-4,1.8-4,4s1.8,4,4,4h39.8C82.1,28.9,83.9,27.1,83.9,24.9z"/>
</g>
</svg>
