<?xml version="1.0" encoding="utf-8"?>
<!-- Generator: Adobe Illustrator 28.2.0, SVG Export Plug-In . SVG Version: 6.00 Build 0)  -->
<svg version="1.1" id="go-up" xmlns="http://www.w3.org/2000/svg" xmlns:xlink="http://www.w3.org/1999/xlink" x="0px" y="0px"
	 viewBox="0 0 120 120" style="enable-background:new 0 0 120 120;" xml:space="preserve">
<style type="text/css">
	.st0{fill:none;}
</style>
<rect id="BG" y="0" class="st0" width="120" height="120"/>
<path d="M57.3,26.2L32.2,51c-1.5,1.5-1.5,4,0,5.5c0.8,0.8,1.7,1.2,2.8,1.2c1,0,2-0.4,2.8-1.2L56,38.5v52.4c0,2.2,1.9,4.1,4.1,4.1
	c2.2,0,3.9-1.8,3.9-3.9V38.7l18.2,18c1.6,1.6,3.9,1.6,5.5,0c0.7-0.7,1.1-1.7,1.1-2.8c0-1.2-0.4-2.2-1.1-2.9l-25-24.8
	C61.3,24.7,58.9,24.7,57.3,26.2L57.3,26.2z"/>
</svg>
