<?xml version="1.0" encoding="utf-8"?>
<!-- Generator: Adobe Illustrator 28.2.0, SVG Export Plug-In . SVG Version: 6.00 Build 0)  -->
<svg version="1.1" xmlns="http://www.w3.org/2000/svg" xmlns:xlink="http://www.w3.org/1999/xlink" x="0px" y="0px"
	 viewBox="0 0 40 40" style="enable-background:new 0 0 40 40;" xml:space="preserve">
<g id="BG">
</g>
<g id="go-up_x5F_alt">
	<path d="M19.1,14.9l-8.3,8.3c-0.3,0.3-0.4,0.6-0.4,0.9c0,0,0,0,0,0c0,0.3,0.1,0.7,0.4,0.9c0.3,0.3,0.6,0.4,0.9,0.4s0.7-0.1,0.9-0.4
		l7.4-7.3l7.4,7.3c0.5,0.5,1.3,0.5,1.8,0c0.3-0.2,0.5-0.5,0.5-1c0-0.4-0.1-0.7-0.4-1l-8.3-8.3c-0.3-0.3-0.6-0.4-0.9-0.4
		S19.4,14.7,19.1,14.9z"/>
</g>
</svg>
