<?xml version="1.0" encoding="utf-8"?>
<!-- Generator: Adobe Illustrator 26.4.1, SVG Export Plug-In . SVG Version: 6.00 Build 0)  -->
<svg version="1.1" id="Artboard" xmlns="http://www.w3.org/2000/svg" xmlns:xlink="http://www.w3.org/1999/xlink" x="0px" y="0px"
	 viewBox="0 0 96 96" style="enable-background:new 0 0 96 96;" xml:space="preserve">
<path d="M67.1,45H51V28.9c0-1.7-1.3-3-3-3c-1.7,0-3,1.3-3,3V45H28.9c-1.7,0-3,1.3-3,3c0,1.7,1.3,3,3,3H45v16.1c0,1.7,1.3,3,3,3
	c1.7,0,3-1.3,3-3V51h16.1c1.7,0,3-1.3,3-3C70.1,46.3,68.8,45,67.1,45z"/>
</svg>
