<?xml version="1.0" encoding="utf-8"?>
<!-- Generator: Adobe Illustrator 28.2.0, SVG Export Plug-In . SVG Version: 6.00 Build 0)  -->
<svg version="1.1" xmlns="http://www.w3.org/2000/svg" xmlns:xlink="http://www.w3.org/1999/xlink" x="0px" y="0px"
	 viewBox="0 0 40 40" style="enable-background:new 0 0 40 40;" xml:space="preserve">
<g id="BG">
</g>
<g id="list-add">
	<path d="M28.5,18.6h-7.1v-7.1c0-0.8-0.6-1.3-1.3-1.3c-0.8,0-1.3,0.6-1.3,1.3v7.1h-7.1c-0.8,0-1.3,0.6-1.3,1.3
		c0,0.8,0.6,1.3,1.3,1.3h7.1v7.1c0,0.8,0.6,1.3,1.3,1.3c0.8,0,1.3-0.6,1.3-1.3v-7.1h7.1c0.8,0,1.3-0.6,1.3-1.3
		C29.8,19.2,29.2,18.6,28.5,18.6z"/>
</g>
</svg>
