<?xml version="1.0" encoding="utf-8"?>
<!-- Generator: Adobe Illustrator 28.2.0, SVG Export Plug-In . SVG Version: 6.00 Build 0)  -->
<svg version="1.1" id="mail-inbox" xmlns="http://www.w3.org/2000/svg" xmlns:xlink="http://www.w3.org/1999/xlink" x="0px" y="0px"
	 viewBox="0 0 120 120" style="enable-background:new 0 0 120 120;" xml:space="preserve">
<style type="text/css">
	.st0{fill:none;}
</style>
<rect id="BG" y="0" class="st0" width="120" height="120"/>
<path d="M102,62.7L86.1,42.9c-2.2-2.8-5.5-4.4-9.1-4.4H43c-3.5,0-6.9,1.6-9.1,4.4L18.1,62.7c-1.7,2.1-2.7,4.8-2.7,7.6V93
	c0,6.6,5.3,12,11.8,12h65.8c6.5,0,11.8-5.4,11.8-12V70.3C104.7,67.5,103.7,64.8,102,62.7z M39.8,47.6c0.8-1,2-1.6,3.2-1.6h34
	c1.3,0,2.4,0.6,3.2,1.6l15.1,18.8H74.9c-2.9,0-5.3,1.9-6.1,4.7c-1,3.8-3.4,8.3-8.9,8.3S52,74.9,51,71.1c-0.8-2.8-3.2-4.7-6.1-4.7
	H24.6L39.8,47.6L39.8,47.6z M92.9,97.5H27.1c-2.3,0-4.3-2-4.3-4.5V73.9h21.2c2.5,8.2,8.4,13,15.9,13s13.4-4.9,15.9-13h21.2V93
	C97.1,95.5,95.2,97.5,92.9,97.5z"/>
</svg>
