<?xml version="1.0" encoding="utf-8"?>
<!-- Generator: Adobe Illustrator 28.2.0, SVG Export Plug-In . SVG Version: 6.00 Build 0)  -->
<svg version="1.1" xmlns="http://www.w3.org/2000/svg" xmlns:xlink="http://www.w3.org/1999/xlink" x="0px" y="0px"
	 viewBox="0 0 40 40" style="enable-background:new 0 0 40 40;" xml:space="preserve">
<g id="BG">
</g>
<g id="mail-reply-sender_copy">
	<path d="M24.6,14.5v-4c0-0.9-0.8-2.1-2.2-2.1c0,0-0.1,0-0.1,0c-0.8,0-1.4,0.3-1.7,0.7l-1.8,1.8v-0.3c0-0.9-0.8-2.1-2.2-2.1
		c0,0-0.1,0-0.1,0c-0.8,0-1.4,0.3-1.7,0.7l-9.2,9.3c-0.4,0.4-0.7,1-0.7,1.6s0.2,1.2,0.7,1.6l9.2,9.3c0.9,0.9,2.3,0.9,3.3,0
		c0.4-0.4,0.6-0.8,0.7-1.3V29l1.8,1.9c0.9,0.9,2.3,0.9,3.3,0c0.4-0.4,0.6-0.8,0.7-1.3V25c3.3,0.4,5.9,2.7,7.1,4.2
		c0.5,0.6,1.3,0.8,2,0.5c0.7-0.3,1.2-0.9,1.2-1.7C35.4,17.6,27.5,15.1,24.6,14.5z M7.4,19.9l9.2-9.3v2.4l-5.2,5.2
		c-0.4,0.4-0.7,1-0.7,1.6s0.2,1.2,0.7,1.6l5.1,5.1l0,2.5L7.4,19.9z M23.6,22.6h-0.2l-1.2,0l0,6.7l-9.2-9.3l9.2-9.3v5.7l0.9,0.2
		c0,0,0.1,0,0.2,0c0.9,0.1,9,1.1,9.3,10.2C30.8,24.9,27.7,22.6,23.6,22.6z"/>
</g>
</svg>
