<?xml version="1.0" encoding="utf-8"?>
<!-- Generator: Adobe Illustrator 28.2.0, SVG Export Plug-In . SVG Version: 6.00 Build 0)  -->
<svg version="1.1" id="mail-reply-all" xmlns="http://www.w3.org/2000/svg" xmlns:xlink="http://www.w3.org/1999/xlink" x="0px"
	 y="0px" viewBox="0 0 120 120" style="enable-background:new 0 0 120 120;" xml:space="preserve">
<style type="text/css">
	.st0{fill:none;}
</style>
<rect id="BG" y="0" class="st0" width="120" height="120"/>
<path d="M73.8,43.4V31.6c0-2.7-2.5-6.4-6.7-6.4h-0.4c-2.6,0-4.2,1-5,1.9l-5.3,5.3v-1c0-2.7-2.5-6.4-6.7-6.4h-0.4c-2.5,0-4.2,1-5,2
	L17,55c-1.3,1.3-2,3.1-2,4.9c0,1.7,0.7,3.5,2.1,4.9l27.7,27.9c2.8,2.8,7,2.8,9.8,0c1.1-1.1,1.9-2.6,2-4.1V87l5.5,5.6
	c2.8,2.8,7.1,2.8,9.8,0c1.1-1.1,1.9-2.6,2-4.1V74.9c10,1.1,17.7,8.1,21.4,12.5c1.5,1.7,3.9,2.3,6,1.6c2.2-0.8,3.6-2.7,3.7-5
	C106.1,52.7,82.3,45.1,73.8,43.4L73.8,43.4z M22,59.8L49.8,32v7.3L34.3,55c-1.3,1.3-1.9,3.1-1.9,4.9c0,1.7,0.7,3.5,2.1,4.9L49.6,80
	v7.6L22,59.8z M70.9,67.8h-0.4l-3.6-0.1l0.1,20L39.4,59.8L67.1,32v17.2l2.7,0.5h0.4C73,49.9,97.2,53,98,80.2
	C92.5,74.7,83.1,67.8,70.9,67.8L70.9,67.8z"/>
</svg>
