<?xml version="1.0" encoding="utf-8"?>
<!-- Generator: Adobe Illustrator 28.2.0, SVG Export Plug-In . SVG Version: 6.00 Build 0)  -->
<svg version="1.1" id="mail-forward" xmlns="http://www.w3.org/2000/svg" xmlns:xlink="http://www.w3.org/1999/xlink" x="0px"
	 y="0px" viewBox="0 0 120 120" style="enable-background:new 0 0 120 120;" xml:space="preserve">
<style type="text/css">
	.st0{fill:none;}
</style>
<rect id="BG" y="0" class="st0" width="120" height="120"/>
<path d="M100.7,59.8c0,2-0.8,3.9-2.3,5.4l-31,31.3c-3.1,3.1-7.9,3.1-11,0c-1.3-1.3-2.1-2.8-2.2-4.5V76.7c-11.2,1.3-19.8,9-23.9,14
	c-1.7,1.9-4.4,2.6-6.7,1.8c-2.5-0.9-4-3-4.1-5.5c-1.4-35,25.2-43.5,34.9-45.5V28.1c0-3,2.8-7.1,7.5-7.1h0.4c2.9,0,4.6,1.2,5.5,2.2
	l30.8,31.1C99.8,55.8,100.6,57.8,100.7,59.8L100.7,59.8z M61.9,90.9l30.9-31.1l-31-31.1v19.3l-3,0.5h-0.5
	c-3.1,0.3-30.2,3.8-31.1,34.2c6.2-6.2,16.7-14,30.4-14H58l4-0.1L61.9,90.9L61.9,90.9z"/>
</svg>
