<?xml version="1.0" encoding="utf-8"?>
<!-- Generator: Adobe Illustrator 28.2.0, SVG Export Plug-In . SVG Version: 6.00 Build 0)  -->
<svg version="1.1" xmlns="http://www.w3.org/2000/svg" xmlns:xlink="http://www.w3.org/1999/xlink" x="0px" y="0px"
	 viewBox="0 0 40 40" style="enable-background:new 0 0 40 40;" xml:space="preserve">
<g id="BG">
</g>
<g id="mail-foward">
	<path d="M33.6,19.9c0,0.6-0.3,1.3-0.8,1.8L22.4,32.2c-1,1-2.6,1-3.7,0c-0.4-0.4-0.7-0.9-0.7-1.5v-5.1c-3.7,0.4-6.6,3-8,4.7
		c-0.6,0.6-1.5,0.9-2.2,0.6c-0.8-0.3-1.3-1-1.4-1.9C6,17.3,14.9,14.5,18.1,13.8V9.4c0-1,0.9-2.4,2.5-2.4c0,0,0.1,0,0.1,0
		c0.9,0,1.6,0.4,1.9,0.7l10.2,10.4C33.3,18.6,33.6,19.3,33.6,19.9z M20.6,30.3l10.3-10.4L20.6,9.6V16l-1,0.2c0,0-0.1,0-0.2,0
		c-1,0.1-10.1,1.2-10.4,11.4c2.1-2.1,5.6-4.7,10.1-4.7h0.2l1.3,0L20.6,30.3z"/>
</g>
</svg>
