<?xml version="1.0" encoding="utf-8"?>
<!-- Generator: Adobe Illustrator 28.2.0, SVG Export Plug-In . SVG Version: 6.00 Build 0)  -->
<svg version="1.1" id="mail-reply-sender" xmlns="http://www.w3.org/2000/svg" xmlns:xlink="http://www.w3.org/1999/xlink" x="0px"
	 y="0px" viewBox="0 0 120 120" style="enable-background:new 0 0 120 120;" xml:space="preserve">
<style type="text/css">
	.st0{fill:none;}
</style>
<rect id="BG" y="0" class="st0" width="120" height="120"/>
<path d="M21.5,54.4l30.8-31.1c0.9-1,2.7-2.2,5.5-2.2h0.4c4.7,0,7.5,4.1,7.5,7.1v13.3C75.4,43.4,102,52,100.6,87
	c-0.1,2.6-1.7,4.7-4.1,5.5c-2.3,0.8-5,0.1-6.7-1.8c-4.1-4.9-12.7-12.7-23.9-14V92c-0.1,1.7-0.9,3.2-2.2,4.5c-3.1,3.1-7.9,3.1-11,0
	l-31-31.3c-1.6-1.6-2.3-3.5-2.3-5.4C19.3,57.9,20.1,55.9,21.5,54.4L21.5,54.4z M58,68.6l4,0.1h0.5c13.7,0,24.2,7.7,30.4,14
	c-0.9-30.5-28-34-31.1-34.2h-0.5l-3-0.5V28.6l-31,31.1l30.9,31.1L58,68.6L58,68.6z"/>
</svg>
