<?xml version="1.0" encoding="utf-8"?>
<!-- Generator: Adobe Illustrator 28.2.0, SVG Export Plug-In . SVG Version: 6.00 Build 0)  -->
<svg version="1.1" id="mail-message-new" xmlns="http://www.w3.org/2000/svg" xmlns:xlink="http://www.w3.org/1999/xlink" x="0px"
	 y="0px" viewBox="0 0 120 120" style="enable-background:new 0 0 120 120;" xml:space="preserve">
<style type="text/css">
	.st0{fill:none;}
</style>
<rect id="BG" y="0" class="st0" width="120" height="120"/>
<g>
	<path d="M93.2,24.5L93.2,24.5H26.8c-6.5,0-11.9,5.3-11.9,11.9v47.4c0,6.5,5.3,11.8,11.9,11.8h66.4c6.5,0,11.8-5.3,11.8-11.8V36.3
		C105.1,29.8,99.8,24.5,93.2,24.5z M97.2,83.8c0,2.2-1.8,4-4,4H26.8c-2.2,0-4-1.8-4-4V36.3c0-2.2,1.8-4,4-4h66.4c2.2,0,4,1.8,4,4
		V83.8z"/>
	<path d="M32.5,48.2h24.6c1.6,0,2.9-1.3,2.9-2.9v0c0-1.6-1.3-2.9-2.9-2.9H32.5c-1.6,0-2.9,1.3-2.9,2.9v0
		C29.6,46.9,30.9,48.2,32.5,48.2z"/>
	<path d="M32.5,58.3h20.2c1.6,0,2.9-1.3,2.9-2.9v0c0-1.6-1.3-2.9-2.9-2.9H32.5c-1.6,0-2.9,1.3-2.9,2.9v0
		C29.6,57.1,30.9,58.3,32.5,58.3z"/>
	<path d="M69.8,63.5H32.5c-1.6,0-2.9,1.3-2.9,2.9v0c0,1.6,1.3,2.9,2.9,2.9h37.4c1.6,0,2.9-1.3,2.9-2.9v0
		C72.7,64.7,71.4,63.5,69.8,63.5z"/>
	<ellipse transform="matrix(0.7071 -0.7071 0.7071 0.7071 -11.9207 71.1208)" cx="79.9" cy="49.9" rx="9.5" ry="9.5"/>
</g>
</svg>
