<?xml version="1.0" encoding="utf-8"?>
<!-- Generator: Adobe Illustrator 28.2.0, SVG Export Plug-In . SVG Version: 6.00 Build 0)  -->
<svg version="1.1" xmlns="http://www.w3.org/2000/svg" xmlns:xlink="http://www.w3.org/1999/xlink" x="0px" y="0px"
	 viewBox="0 0 40 40" style="enable-background:new 0 0 40 40;" xml:space="preserve">
<g id="BG">
</g>
<g id="mail-reply-sender">
	<path d="M7.2,18.1L17.4,7.7C17.7,7.4,18.3,7,19.3,7c0,0,0.1,0,0.1,0c1.6,0,2.5,1.4,2.5,2.4v4.4C25.1,14.5,34,17.3,33.5,29
		c0,0.9-0.6,1.6-1.4,1.9c-0.8,0.3-1.7,0-2.2-0.6c-1.4-1.6-4.2-4.2-8-4.7v5.1c0,0.6-0.3,1.1-0.7,1.5c-1,1-2.6,1-3.7,0L7.2,21.7
		c-0.5-0.5-0.8-1.2-0.8-1.8S6.7,18.6,7.2,18.1z M19.3,22.9l1.3,0h0.2c4.6,0,8.1,2.6,10.1,4.7c-0.3-10.2-9.3-11.3-10.4-11.4
		c-0.1,0-0.1,0-0.2,0l-1-0.2V9.6L9.1,19.9l10.3,10.4L19.3,22.9z"/>
</g>
</svg>
