<?xml version="1.0" encoding="utf-8"?>
<!-- Generator: Adobe Illustrator 28.2.0, SVG Export Plug-In . SVG Version: 6.00 Build 0)  -->
<svg version="1.1" xmlns="http://www.w3.org/2000/svg" xmlns:xlink="http://www.w3.org/1999/xlink" x="0px" y="0px"
	 viewBox="0 0 40 40" style="enable-background:new 0 0 40 40;" xml:space="preserve">
<g id="BG">
</g>
<g id="mail-inbox">
	<path d="M34,20.9l-5.3-6.6c-0.7-0.9-1.9-1.5-3-1.5H14.3c-1.2,0-2.3,0.5-3,1.5L6,20.9c-0.6,0.7-0.9,1.6-0.9,2.5V31
		c0,2.2,1.8,4,3.9,4H31c2.2,0,3.9-1.8,3.9-4v-7.6C34.9,22.5,34.6,21.6,34,20.9z M13.3,15.9c0.3-0.3,0.7-0.5,1.1-0.5h11.3
		c0.4,0,0.8,0.2,1.1,0.5l5,6.3H25c-0.9,0-1.8,0.6-2,1.6c-0.3,1.3-1.1,2.8-3,2.8c-1.8,0-2.6-1.5-3-2.8c-0.2-0.9-1.1-1.6-2-1.6H8.2
		L13.3,15.9z M31,32.5H9c-0.8,0-1.4-0.7-1.4-1.5v-6.4h7.1c0.8,2.7,2.8,4.3,5.3,4.3c2.5,0,4.5-1.6,5.3-4.3h7.1V31
		C32.4,31.8,31.7,32.5,31,32.5z"/>
</g>
</svg>
