<?xml version="1.0" encoding="utf-8"?>
<!-- Generator: Adobe Illustrator 26.5.0, SVG Export Plug-In . SVG Version: 6.00 Build 0)  -->
<svg version="1.1" id="Layer_4" xmlns="http://www.w3.org/2000/svg" xmlns:xlink="http://www.w3.org/1999/xlink" x="0px" y="0px"
	 viewBox="0 0 96 96" style="enable-background:new 0 0 96 96;" xml:space="preserve">
<path d="M18.2,43.7L42,19.6c0.7-0.8,2.1-1.7,4.3-1.7c0.1,0,0.2,0,0.3,0c3.6,0,5.8,3.2,5.8,5.5v10.3c7.5,1.5,28.1,8.1,27,35.2
	c-0.1,2-1.3,3.6-3.2,4.3c-1.8,0.6-3.9,0.1-5.2-1.4C67.8,68,61.2,62,52.5,61v10.7c0,0.3,0,0.5,0,0.8v0.3c-0.1,1.3-0.7,2.5-1.7,3.5
	c-2.4,2.4-6.1,2.4-8.5,0l-24-24.2c-1.2-1.2-1.8-2.7-1.8-4.2S17.1,44.8,18.2,43.7z M46.4,54.7l3.1,0.1h0.4c10.6,0,18.7,6,23.5,10.8
	C72.7,42,51.7,39.3,49.3,39.1c-0.2,0-0.3,0-0.4,0l-2.3-0.4V23.8h-0.2c-0.1,0-0.1,0-0.1,0L22.6,47.9L46.5,72L46.4,54.7z M46.2,23.8
	L46.2,23.8L46.2,23.8z"/>
</svg>
