<?xml version="1.0" encoding="utf-8"?>
<!-- Generator: Adobe Illustrator 26.5.0, SVG Export Plug-In . SVG Version: 6.00 Build 0)  -->
<svg version="1.1" id="Layer_4" xmlns="http://www.w3.org/2000/svg" xmlns:xlink="http://www.w3.org/1999/xlink" x="0px" y="0px"
	 viewBox="0 0 96 96" style="enable-background:new 0 0 96 96;" xml:space="preserve">
<path d="M79.5,47.9c0,1.5-0.6,3-1.8,4.2l-24,24.2c-2.4,2.4-6.1,2.4-8.5,0c-1-1-1.6-2.2-1.7-3.5v-0.3c0-0.3,0-0.5,0-0.8V61
	c-8.7,1-15.3,7-18.5,10.8c-1.3,1.5-3.4,2-5.2,1.4c-1.9-0.7-3.1-2.3-3.2-4.3c-1.1-27.1,19.5-33.7,27-35.2V23.4c0-2.3,2.2-5.5,5.8-5.5
	c0.1,0,0.2,0,0.3,0c2.2,0,3.6,0.9,4.3,1.7l23.8,24.1C78.9,44.8,79.5,46.4,79.5,47.9z M49.5,72l23.9-24.1L49.7,23.8c0,0,0,0-0.1,0
	h-0.2v14.9l-2.3,0.4c-0.1,0-0.2,0-0.4,0c-2.4,0.2-23.4,2.9-24.1,26.5c4.8-4.8,12.9-10.8,23.5-10.8h0.4l3.1-0.1L49.5,72z M49.8,23.8
	L49.8,23.8L49.8,23.8z"/>
</svg>
