<?xml version="1.0" encoding="utf-8"?>
<!-- Generator: Adobe Illustrator 28.2.0, SVG Export Plug-In . SVG Version: 6.00 Build 0)  -->
<svg version="1.1" xmlns="http://www.w3.org/2000/svg" xmlns:xlink="http://www.w3.org/1999/xlink" x="0px" y="0px"
	 viewBox="0 0 40 40" style="enable-background:new 0 0 40 40;" xml:space="preserve">
<g id="BG">
</g>
<g id="mail-message-new">
	<g>
		<path d="M31.1,10.6c0.8,0,1.5,0.7,1.5,1.5v15.8c0,0.8-0.7,1.5-1.5,1.5H8.9c-0.8,0-1.5-0.7-1.5-1.5V12.1c0-0.8,0.7-1.5,1.5-1.5
			H31.1 M31.1,8.4H8.9c-2.1,0-3.7,1.7-3.7,3.7v15.8c0,2.1,1.7,3.7,3.7,3.7h22.1c2.1,0,3.7-1.7,3.7-3.7V12.1
			C34.8,10,33.1,8.4,31.1,8.4L31.1,8.4z"/>
		<path d="M19,16.1h-8.2c-0.5,0-1-0.4-1-1v0c0-0.5,0.4-1,1-1H19c0.5,0,1,0.4,1,1v0C20,15.6,19.6,16.1,19,16.1z"/>
		<path d="M17.5,19.5h-6.7c-0.5,0-1-0.4-1-1v0c0-0.5,0.4-1,1-1h6.7c0.5,0,1,0.4,1,1v0C18.5,19,18.1,19.5,17.5,19.5z"/>
		<path d="M23.3,23.1H10.8c-0.5,0-1-0.4-1-1v0c0-0.5,0.4-1,1-1h12.4c0.5,0,1,0.4,1,1v0C24.2,22.6,23.8,23.1,23.3,23.1z"/>
		<circle cx="26.6" cy="16.7" r="3.2"/>
	</g>
</g>
</svg>
