<?xml version="1.0" encoding="utf-8"?>
<!-- Generator: Adobe Illustrator 28.2.0, SVG Export Plug-In . SVG Version: 6.00 Build 0)  -->
<svg version="1.1" id="mail-send-receive" xmlns="http://www.w3.org/2000/svg" xmlns:xlink="http://www.w3.org/1999/xlink" x="0px"
	 y="0px" viewBox="0 0 120 120" style="enable-background:new 0 0 120 120;" xml:space="preserve">
<style type="text/css">
	.st0{fill:none;}
</style>
<rect id="BG" y="0" class="st0" width="120" height="120"/>
<g>
	<g>
		<path d="M97.3,30.4L80.7,14l-0.2-0.2h0c-1.3-1.1-3.1-1-4.3,0.2L59.7,30.4c-0.6,0.6-0.9,1.4-0.9,2.3c0,0.9,0.3,1.7,0.9,2.3
			c0.6,0.6,1.4,1,2.2,1c0.8,0,1.6-0.3,2.3-1l11-10.9v33.2c0,1.7,1.5,3.2,3.2,3.2c1.8,0,3.3-1.6,3.3-3.3V24l11,10.9
			c0.6,0.6,1.4,1,2.3,1s1.6-0.3,2.3-1c0.6-0.6,0.9-1.4,0.9-2.2C98.2,31.8,97.9,31,97.3,30.4z"/>
		<path d="M59.6,37.8c-0.8,0-1.6,0.3-2.3,1l-11,10.9V16.4c0-1.8-1.6-3.3-3.3-3.3c-1.7,0-3.2,1.5-3.2,3.2v33.2l-11-10.9
			c-0.6-0.6-1.4-1-2.2-1c0,0,0,0,0,0c-0.8,0-1.6,0.3-2.2,1c-0.6,0.6-0.9,1.4-0.9,2.3c0,0.9,0.3,1.7,0.9,2.3l16.5,16.4
			c0.6,0.6,1.4,1,2.3,1c0.6,0,1.2-0.2,1.8-0.6l0.1,0.1l17-16.8c0.6-0.6,0.9-1.4,0.9-2.2c0-0.9-0.3-1.6-0.9-2.2
			C61.2,38.1,60.5,37.8,59.6,37.8z"/>
	</g>
	<path d="M101.9,62.7l-8.4-10.4l-5.3,5.3l7.1,8.8H75c-2.8,0-5.3,2-6.1,4.7c-1,3.8-3.4,8.3-8.9,8.3s-7.9-4.5-8.9-8.3
		c-0.8-2.8-3.2-4.7-6.1-4.7H24.7l7.1-8.8l-5.3-5.3l-8.4,10.4c-1.7,2.1-2.7,4.8-2.7,7.6V93c0,6.6,5.3,12,11.8,12H60H60h32.8
		c6.5,0,11.8-5.4,11.8-12V70.3C104.6,67.5,103.7,64.8,101.9,62.7z M97.1,93c0,2.5-1.9,4.5-4.3,4.5H60h0h0H27.1c-2.3,0-4.3-2-4.3-4.5
		v-19h21.2c2.5,8.2,8.4,13,15.9,13c7.5,0,13.4-4.9,15.9-13h21.2V93z"/>
</g>
</svg>
