<?xml version="1.0" encoding="utf-8"?>
<!-- Generator: Adobe Illustrator 28.2.0, SVG Export Plug-In . SVG Version: 6.00 Build 0)  -->
<svg version="1.1" xmlns="http://www.w3.org/2000/svg" xmlns:xlink="http://www.w3.org/1999/xlink" x="0px" y="0px"
	 viewBox="0 0 40 40" style="enable-background:new 0 0 40 40;" xml:space="preserve">
<g id="BG">
</g>
<g id="mail-send-receive">
	<g>
		<path d="M26,4.8l5.5,5.5c0.3,0.3,0.3,0.9,0,1.2c-0.2,0.2-0.4,0.3-0.6,0.3c-0.2,0-0.4-0.1-0.6-0.3l-4-4v11.5c0,0.5-0.4,0.9-0.9,0.9
			c-0.5,0-0.9-0.4-0.9-0.9V7.6l-4,4c-0.3,0.3-0.9,0.3-1.2,0c-0.2-0.2-0.2-0.4-0.2-0.6c0-0.3,0.1-0.5,0.2-0.6l5.5-5.5
			C25.2,4.5,25.7,4.5,26,4.8z"/>
		<path d="M15.2,19.7l5.5-5.5c0.3-0.3,0.3-0.9,0-1.2c-0.2-0.2-0.4-0.3-0.6-0.3c-0.2,0-0.4,0.1-0.6,0.3l-4,4V5.5
			c0-0.5-0.4-0.9-0.9-0.9c-0.5,0-0.9,0.4-0.9,0.9V17l-4-4c-0.3-0.3-0.9-0.3-1.2,0c-0.2,0.2-0.2,0.4-0.2,0.6c0,0.3,0.1,0.5,0.2,0.6
			l5.5,5.5C14.3,20.1,14.8,20.1,15.2,19.7z"/>
		<path d="M34,20.9l-2.8-3.5l-1.8,1.8l2.4,3H25c-1,0-1.8,0.6-2,1.6c-0.3,1.3-1.1,2.8-3,2.8c-1.8,0-2.6-1.5-3-2.8
			c-0.2-0.9-1.1-1.6-2-1.6H8.2l2.4-3l-1.8-1.8L6,20.9c-0.6,0.7-0.9,1.6-0.9,2.5V31c0,2.2,1.8,4,3.9,4h11h0h11c2.2,0,3.9-1.8,3.9-4
			v-7.6C34.9,22.5,34.6,21.6,34,20.9z M32.4,31c0,0.8-0.6,1.5-1.4,1.5H20h0H9c-0.8,0-1.4-0.7-1.4-1.5v-6.4h7.1
			c0.8,2.7,2.8,4.3,5.3,4.3v0c0,0,0,0,0,0s0,0,0,0v0c2.5,0,4.5-1.6,5.3-4.3h7.1V31z"/>
	</g>
</g>
</svg>
