<?xml version="1.0" encoding="utf-8"?>
<!-- Generator: Adobe Illustrator 28.2.0, SVG Export Plug-In . SVG Version: 6.00 Build 0)  -->
<svg version="1.1" id="media-eject.filled" xmlns="http://www.w3.org/2000/svg" xmlns:xlink="http://www.w3.org/1999/xlink" x="0px"
	 y="0px" viewBox="0 0 120 120" style="enable-background:new 0 0 120 120;" xml:space="preserve">
<style type="text/css">
	.st0{fill:none;}
</style>
<rect id="BG" class="st0" width="120" height="120"/>
<g>
	<path d="M83.3,71.9H39.9c-4,0-7.2,3.2-7.2,7.2v2.7c0,4,3.2,7.2,7.2,7.2h43.4c4,0,7.2-3.2,7.2-7.2v-2.7
		C90.4,75.1,87.2,71.9,83.3,71.9z"/>
	<path d="M41,67.7h41.4c3.4,0,6.4-2,7.6-5.1c1.3-3.1,0.5-6.6-1.8-8.9L67.5,33.3c-1.6-1.5-3.6-2.4-5.8-2.4c-2.2,0-4.2,0.8-5.8,2.4
		L35.2,53.7c-2.4,2.3-3.1,5.9-1.8,8.9C34.6,65.7,37.6,67.7,41,67.7z"/>
</g>
</svg>
