<?xml version="1.0" encoding="utf-8"?>
<!-- Generator: Adobe Illustrator 28.2.0, SVG Export Plug-In . SVG Version: 6.00 Build 0)  -->
<svg version="1.1" id="media-eject" xmlns="http://www.w3.org/2000/svg" xmlns:xlink="http://www.w3.org/1999/xlink" x="0px"
	 y="0px" viewBox="0 0 120 120" style="enable-background:new 0 0 120 120;" xml:space="preserve">
<style type="text/css">
	.st0{fill:none;}
</style>
<rect id="BG" class="st0" width="120" height="120"/>
<g>
	<path d="M83.3,77.1c1.1,0,2,0.9,2,2v2.7c0,1.1-0.9,2-2,2H39.9c-1.1,0-2-0.9-2-2v-2.7c0-1.1,0.9-2,2-2H83.3 M83.3,71.9H39.9
		c-4,0-7.2,3.2-7.2,7.2v2.7c0,4,3.2,7.2,7.2,7.2h43.4c4,0,7.2-3.2,7.2-7.2v-2.7C90.4,75.1,87.2,71.9,83.3,71.9L83.3,71.9z"/>
	<path d="M61.7,37.1c0.5,0,1,0.2,1.4,0.6l20.7,20.4c1.3,1.2,0.4,3.4-1.4,3.4H41c-1.8,0-2.7-2.1-1.4-3.4l20.7-20.4
		C60.7,37.3,61.2,37.1,61.7,37.1 M61.7,30.9c-2.2,0-4.2,0.8-5.8,2.4L35.2,53.7c-2.4,2.3-3.1,5.9-1.8,8.9c1.3,3.1,4.3,5.1,7.6,5.1
		h41.4c3.4,0,6.4-2,7.6-5.1c1.3-3.1,0.5-6.6-1.8-8.9L67.5,33.3C65.9,31.7,63.9,30.9,61.7,30.9L61.7,30.9z"/>
</g>
</svg>
