<?xml version="1.0" encoding="utf-8"?>
<!-- Generator: Adobe Illustrator 28.2.0, SVG Export Plug-In . SVG Version: 6.00 Build 0)  -->
<svg version="1.1" xmlns="http://www.w3.org/2000/svg" xmlns:xlink="http://www.w3.org/1999/xlink" x="0px" y="0px"
	 viewBox="0 0 40 40" style="enable-background:new 0 0 40 40;" xml:space="preserve">
<g id="BG">
</g>
<g id="process-stop">
	<path d="M21.9,20l9.1-9.1c0.5-0.5,0.5-1.4,0-1.9c-0.5-0.5-1.4-0.5-1.9,0L20,18L10.9,9C10.4,8.4,9.5,8.4,9,9c-0.5,0.5-0.5,1.4,0,1.9
		l9.1,9.1L9,29c-0.5,0.5-0.5,1.4,0,1.9c0.3,0.3,0.6,0.4,1,0.4s0.7-0.1,1-0.4l9.1-9.1l9.1,9.1c0.3,0.3,0.6,0.4,1,0.4s0.7-0.1,1-0.4
		c0.5-0.5,0.5-1.4,0-1.9L21.9,20z"/>
</g>
</svg>
