<?xml version="1.0" encoding="utf-8"?>
<!-- Generator: Adobe Illustrator 28.2.0, SVG Export Plug-In . SVG Version: 6.00 Build 0)  -->
<svg version="1.1" id="system-lock-screen" xmlns="http://www.w3.org/2000/svg" xmlns:xlink="http://www.w3.org/1999/xlink" x="0px"
	 y="0px" viewBox="0 0 120 120" style="enable-background:new 0 0 120 120;" xml:space="preserve">
<style type="text/css">
	.st0{fill:none;}
</style>
<rect id="BG" y="0" class="st0" width="120" height="120"/>
<path d="M83.7,57.5v-13c0-13.1-10.6-23.7-23.7-23.7S36.2,31.3,36.2,44.5v13c-3.5,1.2-6,4.4-6,8.3v24.6c0,4.9,4,8.8,8.8,8.8h41.7
	c4.9,0,8.8-4,8.8-8.8V65.8C89.7,61.9,87.2,58.7,83.7,57.5L83.7,57.5z M44.5,44.4c0-8.5,7-15.5,15.5-15.5s15.5,7,15.5,15.5v12.5h-31
	L44.5,44.4L44.5,44.4z M82.9,90.4c0,1.1-0.9,2.1-2.1,2.1H39.1c-1.1,0-2.1-0.9-2.1-2.1V65.8c0-1.1,0.9-2.1,2.1-2.1h41.7
	c1.1,0,2.1,0.9,2.1,2.1V90.4z"/>
</svg>
