<?xml version="1.0" encoding="utf-8"?>
<!-- Generator: Adobe Illustrator 28.2.0, SVG Export Plug-In . SVG Version: 6.00 Build 0)  -->
<svg version="1.1" id="system-shutdown" xmlns="http://www.w3.org/2000/svg" xmlns:xlink="http://www.w3.org/1999/xlink" x="0px"
	 y="0px" viewBox="0 0 120 120" style="enable-background:new 0 0 120 120;" xml:space="preserve">
<style type="text/css">
	.st0{fill:none;}
</style>
<rect id="BG" y="0" class="st0" width="120" height="120"/>
<g>
	<path d="M60,60.4c2.2,0,4-1.8,4-4V23.9c0-2.2-1.8-4-4-4c-2.2,0-4,1.8-4,4v32.6C56,58.7,57.8,60.4,60,60.4z"/>
	<path d="M85.8,32L85.8,32C85.7,32,85.7,32,85.8,32c-0.1-0.1-0.1-0.1-0.1-0.1c0,0-0.1-0.1-0.1-0.1c-0.1-0.1-0.3-0.2-0.5-0.2
		c-0.5-0.2-1.1-0.3-1.8-0.3c-0.9,0-1.6,0.4-2,0.6c-1.2,0.7-1.9,2-1.9,3.3c0,0.4,0.1,0.8,0.3,1.2c0.1,0.3,0.4,0.7,0.6,1
		c0.2,0.3,0.4,0.6,0.6,0.8c0.1,0.1,0.1,0.2,0.2,0.3c0,0,0,0.1,0.1,0.1c0,0,0,0,0,0c0,0,0,0,0,0c7.1,6.7,10.6,16.2,9.5,26
		c-1.6,14.1-13,25.4-27.1,27c-8.9,1-17.4-1.7-24-7.7C33,78,29.2,69.6,29.2,60.9c0-8.5,3.4-16.5,9.7-22.4c0,0,0,0,0,0c0,0,0,0,0,0
		c0,0,0.1-0.1,0.1-0.1c0-0.1,0.1-0.1,0.2-0.2c0.2-0.2,0.4-0.4,0.6-0.8c0.3-0.4,0.5-0.7,0.6-1c0.2-0.4,0.3-0.8,0.3-1.2
		c0-1.3-0.7-2.6-1.9-3.3c-0.7-0.4-1.3-0.6-2-0.6c-0.7,0-1.3,0.1-1.8,0.3c-0.2,0.1-0.4,0.2-0.5,0.2c-0.1,0-0.1,0.1-0.1,0.1
		c0,0-0.1,0-0.1,0c-9.8,8.7-14.5,21.6-12.6,34.7c2.5,17,16.6,30.7,33.7,32.7c1.6,0.2,3.1,0.3,4.7,0.3c9.5,0,18.5-3.4,25.6-9.8
		c8.3-7.4,13-17.9,13-28.9C98.7,49.9,94,39.3,85.8,32z"/>
</g>
</svg>
