<?xml version="1.0" encoding="utf-8"?>
<!-- Generator: Adobe Illustrator 28.2.0, SVG Export Plug-In . SVG Version: 6.00 Build 0)  -->
<svg version="1.1" xmlns="http://www.w3.org/2000/svg" xmlns:xlink="http://www.w3.org/1999/xlink" x="0px" y="0px"
	 viewBox="0 0 40 40" style="enable-background:new 0 0 40 40;" xml:space="preserve">
<g id="BG">
</g>
<g id="system-lock-screen">
	<path d="M27.9,19.2v-4.3c0-4.4-3.5-7.9-7.9-7.9s-7.9,3.5-7.9,7.9v4.3c-1.2,0.4-2,1.5-2,2.8v8.2c0,1.6,1.3,2.9,2.9,2.9h13.9
		c1.6,0,2.9-1.3,2.9-2.9v-8.2C29.9,20.6,29,19.6,27.9,19.2z M20,9.6c2.8,0,5.2,2.3,5.2,5.2V19H14.8v-4.2C14.8,12,17.1,9.6,20,9.6z"
		/>
</g>
</svg>
