<?xml version="1.0" encoding="utf-8"?>
<!-- Generator: Adobe Illustrator 28.2.0, SVG Export Plug-In . SVG Version: 6.00 Build 0)  -->
<svg version="1.1" xmlns="http://www.w3.org/2000/svg" xmlns:xlink="http://www.w3.org/1999/xlink" x="0px" y="0px"
	 viewBox="0 0 40 40" style="enable-background:new 0 0 40 40;" xml:space="preserve">
<g id="BG">
</g>
<g id="system-shutdown">
	<g>
		<path d="M20,20c-0.7,0-1.2-0.6-1.2-1.2V6.6c0-0.7,0.6-1.2,1.2-1.2s1.2,0.6,1.2,1.2v12.1C21.2,19.4,20.7,20,20,20z"/>
		<path d="M29.4,9.8c0,0-0.2-0.2-0.7-0.2c-0.2,0-0.5,0.1-0.6,0.2h0v0c-0.3,0.2-0.6,0.6-0.6,1s0.6,1.1,0.6,1.1c2.6,2.4,4,6,3.6,9.8
			C31,27,26.6,31.3,21.3,31.9c-7,0.8-13-4.7-13-11.6c0-3.3,1.4-6.3,3.7-8.5c0,0,0.6-0.6,0.6-1.1s-0.2-0.8-0.6-1v0h0
			c-0.2-0.1-0.4-0.2-0.6-0.2c-0.5,0-0.7,0.2-0.7,0.2c-3.4,3-5.3,7.6-4.6,12.7c0.9,6.3,6,11.2,12.3,12c8.6,1,15.8-5.7,15.8-14.1
			C34.2,16.1,32.3,12.3,29.4,9.8z"/>
	</g>
</g>
</svg>
