<?xml version="1.0" encoding="utf-8"?>
<!-- Generator: Adobe Illustrator 28.2.0, SVG Export Plug-In . SVG Version: 6.00 Build 0)  -->
<svg version="1.1" xmlns="http://www.w3.org/2000/svg" xmlns:xlink="http://www.w3.org/1999/xlink" x="0px" y="0px"
	 viewBox="0 0 40 40" style="enable-background:new 0 0 40 40;" xml:space="preserve">
<g id="BG">
</g>
<g id="view-refresh">
	<path d="M31.5,25.5c0-0.7-0.6-1.3-1.3-1.3c-0.5,0-0.9,0.3-1.1,0.7h0l0,0c0,0,0,0.1,0,0.1l0,0c-1.7,4.8-7.1,7.3-11.9,5.5
		c-4.8-1.7-7.3-7.1-5.5-11.9s7.1-7.3,11.9-5.5l0.6,0.2l-2.8,1.3c-0.3,0.1-0.5,0.4-0.7,0.8c-0.1,0.3-0.1,0.7,0,1
		c0.1,0.2,0.3,0.6,0.8,0.8c0.4,0.1,0.7,0.1,1,0l5.6-2.7c0.3-0.1,0.6-0.4,0.7-0.8c0.1-0.3,0.1-0.7-0.1-1L26.2,7
		c-0.1-0.3-0.4-0.6-0.8-0.7c-0.3-0.1-0.7-0.1-1.1,0.1c-0.4,0.2-0.6,0.4-0.7,0.8c-0.1,0.3-0.1,0.7,0.1,1.1L25,11l-0.6-0.3
		c-2.9-1.1-6.1-0.9-9,0.4c-2.9,1.3-5.1,3.7-6.1,6.6c-1.1,3-0.9,6.2,0.4,9c1.3,2.9,3.7,5.1,6.6,6.1c1.3,0.5,2.7,0.7,4.1,0.7
		c4.8,0,9.3-2.9,11.1-7.6l0.1-0.3C31.5,25.7,31.5,25.6,31.5,25.5C31.5,25.5,31.5,25.5,31.5,25.5C31.5,25.5,31.5,25.5,31.5,25.5z"/>
</g>
</svg>
