<?xml version="1.0" encoding="utf-8"?>
<!-- Generator: Adobe Illustrator 26.4.1, SVG Export Plug-In . SVG Version: 6.00 Build 0)  -->
<svg version="1.1" id="Layer_3" xmlns="http://www.w3.org/2000/svg" xmlns:xlink="http://www.w3.org/1999/xlink" x="0px" y="0px"
	 viewBox="0 0 96 96" style="enable-background:new 0 0 96 96;" xml:space="preserve">
<path d="M84.1,54.2c0-0.1,0-0.1,0-0.2h0c0-0.1,0-0.2,0-0.4c0-0.2-0.1-0.4-0.2-0.6c-0.1-0.2-0.2-0.4-0.3-0.5
	c-0.1-0.2-0.2-0.3-0.4-0.5c-0.1-0.1-0.3-0.3-0.5-0.4c-0.2-0.1-0.3-0.2-0.5-0.3c-0.2-0.1-0.4-0.1-0.6-0.2c-1-0.2-2,0.1-2.7,0.8
	c-0.1,0.1-0.3,0.3-0.4,0.5c-0.1,0.2-0.2,0.3-0.3,0.5c-0.1,0.2-0.1,0.4-0.2,0.6c0,0.1,0,0.2,0,0.4h0c0,16.6-13.5,30.1-30.1,30.1
	S17.9,70.6,17.9,54c0-16.6,13.5-30.1,30.1-30.1h4.4L44,32.5c-0.6,0.6-0.9,1.4-0.9,2.3c0,0.8,0.3,1.6,0.9,2.2
	c0.4,0.5,1.2,1.1,2.4,1.1c0.9,0,1.7-0.3,2.3-0.9l13.7-13.9c1.3-1.3,1.3-3.3,0-4.5L48.5,4.8c-0.6-0.6-1.4-1-2.3-1
	c-0.8,0-1.6,0.3-2.3,1s-1,1.4-1,2.3c0,0.8,0.3,1.6,1,2.3l8.5,8.6h-4.6v0C28,18,11.9,34.2,11.9,54c0,19.9,16.2,36.1,36.1,36.1
	c19.8,0,35.9-16,36.1-35.7C84.1,54.3,84.1,54.3,84.1,54.2C84.1,54.2,84.1,54.2,84.1,54.2z"/>
</svg>
