<?xml version="1.0" encoding="utf-8"?>
<!-- Generator: Adobe Illustrator 28.2.0, SVG Export Plug-In . SVG Version: 6.00 Build 0)  -->
<svg version="1.1" id="view-fullscreen" xmlns="http://www.w3.org/2000/svg" xmlns:xlink="http://www.w3.org/1999/xlink" x="0px"
	 y="0px" viewBox="0 0 120 120" style="enable-background:new 0 0 120 120;" xml:space="preserve">
<style type="text/css">
	.st0{fill:none;}
</style>
<rect id="BG" y="0" class="st0" width="120" height="120"/>
<g>
	<path d="M27.7,54.5c-2.1,0-3.8-1.7-3.8-3.8V32.2c0-4.4,3.6-8.1,8.1-8.1h18.6c2.1,0,3.8,1.7,3.8,3.8s-1.7,3.8-3.8,3.8H32
		c-0.3,0-0.6,0.2-0.6,0.6v18.6C31.4,52.8,29.7,54.5,27.7,54.5z"/>
	<path d="M92.3,54.5c-2.1,0-3.8-1.7-3.8-3.8V32.2c0-0.3-0.2-0.6-0.6-0.6H69.4c-2.1,0-3.8-1.7-3.8-3.8s1.7-3.8,3.8-3.8H88
		c4.4,0,8.1,3.6,8.1,8.1v18.6C96.1,52.8,94.4,54.5,92.3,54.5z"/>
	<path d="M50.5,96.1H32c-4.4,0-8.1-3.6-8.1-8.1V69.4c0-2.1,1.7-3.8,3.8-3.8s3.8,1.7,3.8,3.8V88c0,0.3,0.2,0.6,0.6,0.6h18.6
		c2.1,0,3.8,1.7,3.8,3.8S52.6,96.1,50.5,96.1z"/>
	<path d="M88,96.1H69.4c-2.1,0-3.8-1.7-3.8-3.8s1.7-3.8,3.8-3.8H88c0.3,0,0.6-0.2,0.6-0.6V69.4c0-2.1,1.7-3.8,3.8-3.8
		c2.1,0,3.7,1.7,3.7,3.8V88C96.1,92.4,92.5,96.1,88,96.1z"/>
</g>
</svg>
