<?xml version="1.0" encoding="utf-8"?>
<!-- Generator: Adobe Illustrator 26.5.0, SVG Export Plug-In . SVG Version: 6.00 Build 0)  -->
<svg version="1.1" id="Layer_3" xmlns="http://www.w3.org/2000/svg" xmlns:xlink="http://www.w3.org/1999/xlink" x="0px" y="0px"
	 viewBox="0 0 96 96" style="enable-background:new 0 0 96 96;" xml:space="preserve">
<path d="M79.7,63.2c0-0.2,0-0.4-0.1-0.6c0-0.3-0.1-0.5-0.2-0.7c-0.1-0.2-0.2-0.5-0.4-0.7c0,0-0.1-0.1-0.1-0.1
	c-0.1-0.1-0.1-0.2-0.2-0.3c-0.1-0.1-0.3-0.2-0.4-0.3c0,0-0.1,0-0.1,0l-0.2-0.1c-1-0.6-2.2-0.7-3.3-0.2c-0.2,0.1-0.5,0.2-0.7,0.4
	c0,0-0.1,0.1-0.1,0.1c-0.1,0.1-0.2,0.1-0.3,0.2c-0.1,0.1-0.2,0.3-0.3,0.4c0,0,0,0.1,0,0.1L73,61.4l-0.2,0.5
	C68,75.1,53.3,81.9,40,77.1c-13.2-4.8-20-19.5-15.1-32.7c4.9-13.2,19.6-20,32.8-15.2l1.7,0.6l-7.6,3.6c-0.9,0.4-1.5,1.1-1.9,2.1
	c-0.3,0.9-0.3,1.9,0.1,2.7c0.2,0.5,0.7,1.6,2.2,2.1c1,0.4,2,0.3,2.8-0.1l15.5-7.3c0.9-0.4,1.6-1.2,2-2.2c0.3-0.9,0.2-1.9-0.2-2.7
	L65,12.4c-0.4-0.9-1.2-1.6-2.1-2c-0.9-0.3-1.9-0.3-2.9,0.2c-1,0.5-1.6,1.1-2,2.1c-0.3,0.9-0.3,1.9,0.2,2.9l3.5,7.8L60,22.6
	c-8.1-3-16.9-2.6-24.8,1.1c-7.9,3.7-13.9,10.1-16.8,18.3c-3,8.2-2.6,17,1,24.9s10.2,13.9,18.3,16.9c3.7,1.4,7.5,2,11.2,2
	c13.2,0,25.6-8,30.5-21l0.2-0.7C79.7,63.8,79.7,63.4,79.7,63.2z"/>
</svg>
