<?xml version="1.0" encoding="utf-8"?>
<!-- Generator: Adobe Illustrator 28.2.0, SVG Export Plug-In . SVG Version: 6.00 Build 0)  -->
<svg version="1.1" id="view-refresh" xmlns="http://www.w3.org/2000/svg" xmlns:xlink="http://www.w3.org/1999/xlink" x="0px"
	 y="0px" viewBox="0 0 120 120" style="enable-background:new 0 0 120 120;" xml:space="preserve">
<style type="text/css">
	.st0{fill:none;}
</style>
<rect id="BG" y="0" class="st0" width="120" height="120"/>
<path d="M94.5,72.5c0-2.2-1.7-3.9-3.9-3.9c-1.5,0-2.7,0.9-3.4,2.1h0l-0.1,0.2c0,0-0.1,0.2-0.2,0.4c-5.2,14.4-21.3,21.8-35.8,16.6
	c-14.4-5.2-21.8-21.3-16.5-35.6s21.4-21.8,35.8-16.6l1.9,0.7l-8.3,3.9c-1,0.5-1.7,1.2-2.1,2.3c-0.3,1-0.3,2.1,0.1,2.9
	c0.2,0.5,0.8,1.7,2.4,2.3c1.1,0.5,2.2,0.3,3.1-0.1l16.9-8c1-0.5,1.7-1.3,2.2-2.4c0.3-1,0.2-2.1-0.2-2.9l-7.9-17
	c-0.5-1-1.3-1.7-2.3-2.2c-1-0.3-2.1-0.3-3.2,0.2s-1.7,1.2-2.2,2.3c-0.3,1-0.3,2.1,0.2,3.1l3.8,8.5l-1.9-0.9
	c-8.8-3.3-18.4-2.8-27,1.2s-15.1,11-18.3,19.9c-3.3,8.9-2.8,18.5,1.1,27.1c3.9,8.6,11.1,15.2,20,18.4c4,1.5,8.2,2.2,12.2,2.2
	c14.4,0,27.9-8.7,33.2-22.9l0.2-0.8c0.1-0.3,0.1-0.8,0.1-1C94.5,72.7,94.5,72.6,94.5,72.5C94.5,72.6,94.5,72.5,94.5,72.5L94.5,72.5z
	"/>
</svg>
