<?xml version="1.0" encoding="utf-8"?>
<!-- Generator: Adobe Illustrator 28.2.0, SVG Export Plug-In . SVG Version: 6.00 Build 0)  -->
<svg version="1.1" xmlns="http://www.w3.org/2000/svg" xmlns:xlink="http://www.w3.org/1999/xlink" x="0px" y="0px"
	 viewBox="0 0 40 40" style="enable-background:new 0 0 40 40;" xml:space="preserve">
<g id="BG">
</g>
<g id="view-fullscreen">
	<g>
		<path d="M9.2,18.1c-0.7,0-1.2-0.6-1.2-1.2v-6.2C8,9.2,9.2,8,10.7,8h6.2c0.7,0,1.2,0.6,1.2,1.2s-0.6,1.2-1.2,1.2h-6.2
			c-0.1,0-0.2,0.1-0.2,0.2v6.2C10.5,17.6,9.9,18.1,9.2,18.1z"/>
		<path d="M30.8,18.1c-0.7,0-1.2-0.6-1.2-1.2v-6.2c0-0.1-0.1-0.2-0.2-0.2h-6.2c-0.7,0-1.2-0.6-1.2-1.2S22.5,8,23.1,8h6.2
			c1.5,0,2.7,1.2,2.7,2.7v6.2C32,17.6,31.5,18.1,30.8,18.1z"/>
		<path d="M16.9,32h-6.2C9.2,32,8,30.8,8,29.3v-6.2c0-0.7,0.6-1.2,1.2-1.2s1.2,0.6,1.2,1.2v6.2c0,0.1,0.1,0.2,0.2,0.2h6.2
			c0.7,0,1.2,0.6,1.2,1.2S17.5,32,16.9,32z"/>
		<path d="M29.3,32h-6.2c-0.7,0-1.2-0.6-1.2-1.2s0.6-1.2,1.2-1.2h6.2c0.1,0,0.2-0.1,0.2-0.2v-6.2c0-0.7,0.6-1.2,1.2-1.2
			s1.2,0.6,1.2,1.2v6.2C32,30.8,30.8,32,29.3,32z"/>
	</g>
</g>
</svg>
