<?xml version="1.0" encoding="utf-8"?>
<!-- Generator: Adobe Illustrator 28.2.0, SVG Export Plug-In . SVG Version: 6.00 Build 0)  -->
<svg version="1.1" xmlns="http://www.w3.org/2000/svg" xmlns:xlink="http://www.w3.org/1999/xlink" x="0px" y="0px"
	 viewBox="0 0 40 40" style="enable-background:new 0 0 40 40;" xml:space="preserve">
<g id="BG">
</g>
<g id="face-angel">
	<g>
		<path d="M24.5,24.6c0,0-0.1,0-0.1,0l0,0c0,0,0,0,0,0c0,0,0,0,0,0c-1.4,0.5-2.9,0.7-4.4,0.7c-1.5,0-2.9-0.2-4.4-0.7c0,0,0,0,0,0
			c0,0,0,0,0,0l0,0c0,0-0.1,0-0.1,0c-0.2,0-0.4,0.2-0.4,0.4c0,0.1,0.2,0.3,0.2,0.3c1.1,1.3,2.9,2,4.7,2c1.8,0,3.6-0.6,4.7-2
			c0,0,0.2-0.2,0.2-0.3C24.9,24.7,24.7,24.6,24.5,24.6z"/>
		<path d="M16.1,15.2c-2,0-2.8,1.6-3,2.5c-0.1,0.5,0.3,1.1,0.8,1.1c0.1,0,0.1,0,0.2,0c0.5,0,0.9-0.4,1-0.8c0-0.1,0.2-0.8,1-0.8
			c0.8,0,1,0.6,1,0.8c0.1,0.5,0.5,0.8,1,0.8c0.1,0,0.1,0,0.2,0c0.5-0.1,0.9-0.6,0.8-1.1C19,16.9,18.2,15.2,16.1,15.2z"/>
		<path d="M23.9,15.2c-2,0-2.8,1.6-3,2.5c-0.1,0.5,0.3,1.1,0.8,1.1c0.1,0,0.1,0,0.2,0c0.5,0,0.9-0.4,1-0.8c0-0.1,0.2-0.8,1-0.8
			c0.8,0,1,0.6,1,0.8c0.1,0.5,0.5,0.8,1,0.8c0.1,0,0.1,0,0.2,0c0.5-0.1,0.9-0.6,0.8-1.1C26.7,16.9,25.9,15.2,23.9,15.2z"/>
		<g>
			<path d="M20.2,4.5c-4,0-13.4,0.3-13.4,3.4c0,0.1,0,0.2,0.1,0.3C7,9.1,8,9.7,9.3,10.1c0.8-0.9,1.5-1.5,2-1.8
				C10.6,8.2,10,8,9.6,7.9c0.4-0.2,1-0.3,1.8-0.5c0.1,0,0.1,0,0.2,0c-0.1,0-0.1,0-0.2,0c0.5-0.1,1.1-0.2,1.7-0.3
				c0.3,0,0.7-0.1,1-0.1c0.1,0,0.2,0,0.3,0c0.5,0,0.9-0.1,1.5-0.1c0,0,0,0,0,0c1.3-0.1,2.7-0.1,4.3-0.1c1.5,0,2.8,0,4,0.1
				c0,0-0.1,0-0.1,0c0.1,0,0.1,0,0.1,0c0,0,0,0,0,0c0.2,0,0.3,0,0.5,0c3,0.2,5,0.6,6.1,1c-0.5,0.2-1.1,0.3-2,0.5
				c0.5,0.3,1.3,0.8,2.1,1.8c1.3-0.4,2.3-1,2.6-1.8c0,0,0-0.1,0-0.1c0-0.1,0.1-0.2,0.1-0.4C33.6,4.8,24.2,4.5,20.2,4.5z"/>
			<path d="M30.4,11.1c-0.2-0.2-0.4-0.4-0.6-0.6c-0.3-0.3-0.7-0.7-1-1c0,0,0,0,0,0c-0.4-0.3-0.8-0.6-1.2-0.9l0,0
				c-0.4-0.3-0.9-0.5-1.3-0.8c-0.6-0.1-1.2-0.1-1.9-0.2v0l-0.1,0l0,0c-0.1,0-0.2,0-0.3,0l0,0h0v0c-1.2-0.1-2.6-0.1-3.9-0.1
				c-1.4,0-2.8,0-4.2,0.1c0,0,0,0,0,0c-0.2,0-0.5,0-0.7,0.1l-0.4,0l-0.1,0l-0.2,0l-0.3,0l-0.2,0c-0.1,0-0.3,0-0.4,0.1
				c-0.4,0.2-0.8,0.4-1.2,0.7c-0.8,0.5-1.5,1.2-2.2,1.9l0,0c-2.4,2.5-3.9,5.8-3.9,9.5c0,7.6,6.1,13.7,13.7,13.7s13.7-6.1,13.7-13.7
				C33.7,16.6,32.5,13.5,30.4,11.1L30,11.2C30.2,11.2,30.3,11.1,30.4,11.1z M31.2,19.9c0,6.2-5,11.2-11.2,11.2s-11.2-5-11.2-11.2
				c0-6.2,5-11.2,11.2-11.2S31.2,13.8,31.2,19.9z"/>
		</g>
	</g>
</g>
</svg>
