<?xml version="1.0" encoding="utf-8"?>
<!-- Generator: Adobe Illustrator 28.2.0, SVG Export Plug-In . SVG Version: 6.00 Build 0)  -->
<svg version="1.1" xmlns="http://www.w3.org/2000/svg" xmlns:xlink="http://www.w3.org/1999/xlink" x="0px" y="0px"
	 viewBox="0 0 40 40" style="enable-background:new 0 0 40 40;" xml:space="preserve">
<g id="Layer_1">
</g>
<g id="face-plain">
	<g>
		<path d="M20,8.7c6.2,0,11.2,5,11.2,11.2s-5,11.2-11.2,11.2s-11.2-5-11.2-11.2S13.8,8.7,20,8.7 M20,6.2c-7.6,0-13.7,6.1-13.7,13.7
			S12.4,33.6,20,33.6s13.7-6.1,13.7-13.7S27.6,6.2,20,6.2L20,6.2z"/>
		<ellipse cx="16.1" cy="17.2" rx="1.3" ry="2.4"/>
		<ellipse cx="23.9" cy="17.2" rx="1.3" ry="2.4"/>
		<path d="M24.5,25.5h-8.9c-0.5,0-1-0.4-1-1v0c0-0.5,0.4-1,1-1h8.9c0.5,0,1,0.4,1,1v0C25.5,25.1,25,25.5,24.5,25.5z"/>
	</g>
</g>
</svg>
