<?xml version="1.0" encoding="utf-8"?>
<!-- Generator: Adobe Illustrator 28.2.0, SVG Export Plug-In . SVG Version: 6.00 Build 0)  -->
<svg version="1.1" xmlns="http://www.w3.org/2000/svg" xmlns:xlink="http://www.w3.org/1999/xlink" x="0px" y="0px"
	 viewBox="0 0 40 40" style="enable-background:new 0 0 40 40;" xml:space="preserve">
<g id="BG">
</g>
<g id="face-kiss">
	<g>
		<ellipse cx="15.7" cy="17.8" rx="1.3" ry="2.4"/>
		<path d="M11.5,15.8C11.5,15.7,11.5,15.7,11.5,15.8L11.5,15.8C11.5,15.7,11.5,15.7,11.5,15.8C11.5,15.7,11.5,15.7,11.5,15.8
			c0.6-0.9,1.3-1.6,2-2.2c0.7-0.7,1.5-1.2,2.3-1.7c0,0,0,0,0,0c0,0,0,0,0,0l0,0c0,0,0,0,0.1,0c0.1-0.1,0.1-0.2,0.1-0.3
			c0,0-0.2,0-0.2,0c-0.9,0.1-1.9,0.7-2.8,1.5c-0.9,0.8-1.6,1.8-1.8,2.7c0,0,0,0.1,0,0.2C11.2,15.9,11.3,15.9,11.5,15.8z"/>
		<path d="M27.1,19.1c-0.1-0.2-0.3-0.4-0.4-0.6c0,0,0,0,0.1,0c0,0,0,0,0,0c0,0,0,0,0,0l0,0c0,0,0,0,0.1,0c0.1,0,0.2-0.2,0.2-0.3
			c0-0.1-0.1-0.2-0.1-0.2c-0.8-0.9-1.9-1.2-3-1.1c-1,0.1-1.9,0.6-2.5,1.5c0,0,0,0,0,0c0,0-0.1,0.1-0.1,0.2c0,0,0,0.1-0.1,0.1
			c0,0-0.1,0.2-0.1,0.3c0,0.2,0.1,0.3,0.3,0.3c0,0,0,0,0.1,0l0,0c0,0,0,0,0,0c0,0,0,0,0,0c0.3-0.1,0.5-0.3,0.8-0.4
			c0.6-0.1,1.3-0.1,1.9,0c0.9,0.1,1.7,0.4,2.5,0.8c0,0,0,0,0,0c0,0,0,0,0,0l0,0c0,0,0,0,0.1,0c0.1,0,0.3-0.1,0.3-0.3
			C27.2,19.2,27.1,19.1,27.1,19.1z"/>
		<path d="M21.5,24.9c0.4-0.1,0.7-0.3,1-0.5c0.4-0.3,0.4-0.7,0.3-0.8c-0.2-0.6-1.3-1.1-3.3-1.4c-0.3,0-0.5,0.2-0.6,0.4
			c0,0.3,0.2,0.5,0.4,0.6c0.9,0.1,1.9,0.4,2.3,0.6c-0.7,0.5-2,0.6-2.4,0.7c-0.2,0-0.4,0.2-0.4,0.4c0,0,0,0,0,0.1c0,0,0,0,0,0.1
			c0,0,0,0,0,0c0,0,0,0,0,0c0,0.2,0.2,0.4,0.4,0.5c0.9,0.1,1.9,0.4,2.3,0.6c-0.7,0.5-2,0.6-2.4,0.7c-0.3,0-0.5,0.3-0.5,0.5
			c0,0.3,0.2,0.5,0.5,0.5c0,0,0,0,0,0c0.1,0,2.1-0.1,3.2-1c0.4-0.3,0.4-0.7,0.3-0.8C22.5,25.5,22.1,25.2,21.5,24.9z"/>
		<path d="M36.3,25.8c0-1.6-1.3-2.9-2.9-2.9c-1.2,0-2.2,0.7-2.7,1.7c-0.2-1.4-1.4-2.5-2.9-2.5c-1.6,0-2.9,1.3-2.9,2.9
			c0,0-0.2,3.1,4,8.4c0.2,0.2,0.6,0.3,0.8,0.1C36.6,29.3,36.3,25.8,36.3,25.8z"/>
		<path d="M20,31.1c-6.2,0-11.2-5-11.2-11.2c0-6.2,5-11.2,11.2-11.2s11.2,5,11.2,11.2c0,0.5,0,0.9-0.1,1.4c0,0,0.1,0.1,0.1,0.1
			c0.7-0.3,1.4-0.5,2.2-0.5c0.1,0,0.1,0,0.2,0c0-0.3,0-0.6,0-1c0-7.6-6.1-13.7-13.7-13.7S6.3,12.4,6.3,19.9
			c0,7.6,6.1,13.7,13.7,13.7c2.1,0,4-0.5,5.8-1.3c-0.5-0.8-0.9-1.5-1.3-2.2C23.1,30.7,21.6,31.1,20,31.1z"/>
	</g>
</g>
</svg>
