<?xml version="1.0" encoding="utf-8"?>
<!-- Generator: Adobe Illustrator 28.2.0, SVG Export Plug-In . SVG Version: 6.00 Build 0)  -->
<svg version="1.1" xmlns="http://www.w3.org/2000/svg" xmlns:xlink="http://www.w3.org/1999/xlink" x="0px" y="0px"
	 viewBox="0 0 40 40" style="enable-background:new 0 0 40 40;" xml:space="preserve">
<g id="BG">
</g>
<g id="face-monkey">
	<g>
		<ellipse cx="16.9" cy="17.6" rx="1.3" ry="2"/>
		<ellipse cx="23.1" cy="17.6" rx="1.3" ry="2"/>
		<path d="M25.9,21.6c-0.1,0-0.1,0-0.2,0l0,0c0,0,0,0,0,0c0,0,0,0,0,0c-1.9,0.5-3.8,0.7-5.7,0.7c-1.9,0-3.8-0.2-5.7-0.7c0,0,0,0,0,0
			c0,0,0,0,0,0l0,0c0,0-0.1,0-0.2,0c-0.3,0-0.5,0.2-0.5,0.4c0,0.1,0.2,0.3,0.2,0.3c1.5,1.3,3.8,2,6.2,2c2.4,0,4.7-0.6,6.2-2
			c0,0,0.2-0.2,0.2-0.3C26.4,21.8,26.2,21.6,25.9,21.6z"/>
		<path d="M36.1,17.8c0-2.5-1.7-4.5-3.7-4.5c-0.6,0-1.1,0.2-1.6,0.4C29.9,9,25.4,5.5,20,5.5S10.1,9,9.2,13.8c-0.5-0.3-1-0.4-1.6-0.4
			c-2.1,0-3.7,2-3.7,4.5s1.7,4.5,3.7,4.5c0,0,0,0,0.1,0c-0.3,0.8-0.5,1.7-0.5,2.6c0,5.4,5.7,9.7,12.8,9.7s12.8-4.4,12.8-9.7
			c0-0.9-0.2-1.8-0.5-2.6c0,0,0,0,0.1,0C34.5,22.3,36.1,20.3,36.1,17.8z M20,32.1c-5.7,0-10.3-3.2-10.3-7.2c0-2.1,1.2-3.6,2.3-4.5
			l0.7-0.6l-0.4-0.9c-0.5-1-0.8-2.1-0.8-3.2c0-1.3,0.3-2.4,0.9-3.5c3.5-4.3,7.6,1,7.6,1s4.1-5.2,7.6-1c0.6,1,0.9,2.2,0.9,3.5
			c0,1.1-0.3,2.2-0.8,3.2l-0.4,0.9l0.7,0.6c1,0.9,2.3,2.4,2.3,4.5C30.3,28.9,25.7,32.1,20,32.1z"/>
	</g>
</g>
</svg>
