<?xml version="1.0" encoding="utf-8"?>
<!-- Generator: Adobe Illustrator 28.2.0, SVG Export Plug-In . SVG Version: 6.00 Build 0)  -->
<svg version="1.1" xmlns="http://www.w3.org/2000/svg" xmlns:xlink="http://www.w3.org/1999/xlink" x="0px" y="0px"
	 viewBox="0 0 40 40" style="enable-background:new 0 0 40 40;" xml:space="preserve">
<g id="BG">
</g>
<g id="face-glasses">
	<g>
		<path d="M20,8.7c6.2,0,11.2,5,11.2,11.2s-5,11.2-11.2,11.2s-11.2-5-11.2-11.2S13.8,8.7,20,8.7 M20,6.2c-7.6,0-13.7,6.1-13.7,13.7
			S12.4,33.6,20,33.6s13.7-6.1,13.7-13.7S27.6,6.2,20,6.2L20,6.2z"/>
		<ellipse cx="15.4" cy="17.2" rx="1.3" ry="2.4"/>
		<ellipse cx="24.6" cy="17.2" rx="1.3" ry="2.4"/>
		<path d="M24.5,24.6c0,0-0.1,0-0.1,0l0,0c0,0,0,0,0,0c0,0,0,0,0,0c-1.4,0.5-2.9,0.7-4.4,0.7c-1.5,0-2.9-0.2-4.4-0.7c0,0,0,0,0,0
			c0,0,0,0,0,0l0,0c0,0-0.1,0-0.1,0c-0.2,0-0.4,0.2-0.4,0.4c0,0.1,0.2,0.3,0.2,0.3c1.1,1.3,2.9,2,4.7,2c1.8,0,3.6-0.6,4.7-2
			c0,0,0.2-0.2,0.2-0.3C24.9,24.7,24.7,24.6,24.5,24.6z"/>
		<path d="M29.2,13.6c-1-0.1-4.6-0.1-5.7,0c-1.1,0.1-1.9,0.6-2.6,1.1c-0.2,0-0.6,0-1,0c-0.4,0-0.8,0-1,0c-0.7-0.5-1.5-1-2.6-1.1
			c-1.1-0.1-4.7-0.1-5.7,0c-1,0.1-2.6,0.6-2.6,0.6v1.3c0,0,1,0.3,1.1,1c0.1,0.7,0.7,3.3,0.7,3.3s0.3,0.9,1.1,1.1s1.6,0.5,4,0.5
			c2.4,0,2.9-1.1,2.9-1.1s1.4-2.6,1.2-3.8c0,0,0.1,0,0.1-0.1l0,0c0,0,0,0,0,0c0.3-0.1,0.5-0.2,0.7-0.2c0.2,0,0.4,0.1,0.7,0.2
			c0,0,0,0,0,0l0,0c0,0,0.1,0,0.1,0.1c-0.2,1.2,1.2,3.8,1.2,3.8s0.5,1.1,2.9,1.1c2.4,0,3.2-0.2,4-0.5s1.1-1.1,1.1-1.1
			s0.5-2.6,0.7-3.3c0.1-0.7,1.1-1,1.1-1v-1.3C31.8,14.2,30.2,13.7,29.2,13.6z M16.8,19.9c-0.8,0.4-1.3,0.7-3,0.6s-2.8-0.6-3-1.5
			c-0.2-0.9-0.5-2.7-0.4-3.1s0-1.2,0.9-1.4c0,0,3.4-0.8,5.8,0.2C18.4,15.1,17.7,19.5,16.8,19.9z M29.2,19c-0.2,0.9-1.3,1.4-3,1.5
			s-2.2-0.1-3-0.6c-0.8-0.4-1.6-4.8-0.3-5.2c2.4-1,5.8-0.2,5.8-0.2c0.9,0.2,0.9,1,0.9,1.4S29.4,18.1,29.2,19z"/>
	</g>
</g>
</svg>
