<?xml version="1.0" encoding="utf-8"?>
<!-- Generator: Adobe Illustrator 28.2.0, SVG Export Plug-In . SVG Version: 6.00 Build 0)  -->
<svg version="1.1" xmlns="http://www.w3.org/2000/svg" xmlns:xlink="http://www.w3.org/1999/xlink" x="0px" y="0px"
	 viewBox="0 0 40 40" style="enable-background:new 0 0 40 40;" xml:space="preserve">
<g id="BG">
</g>
<g id="face-smile-big">
	<g>
		<path d="M20,8.7c6.2,0,11.2,5,11.2,11.2s-5,11.2-11.2,11.2s-11.2-5-11.2-11.2S13.8,8.7,20,8.7 M20,6.2c-7.6,0-13.7,6.1-13.7,13.7
			S12.4,33.6,20,33.6s13.7-6.1,13.7-13.7S27.6,6.2,20,6.2L20,6.2z"/>
		<path d="M16.1,15.2c-2,0-2.8,1.6-3,2.5c-0.1,0.5,0.3,1.1,0.8,1.1c0.1,0,0.1,0,0.2,0c0.5,0,0.9-0.4,1-0.8c0-0.1,0.2-0.8,1-0.8
			c0.8,0,1,0.6,1,0.8c0.1,0.5,0.5,0.8,1,0.8c0.1,0,0.1,0,0.2,0c0.5-0.1,0.9-0.6,0.8-1.1C19,16.9,18.2,15.2,16.1,15.2z"/>
		<path d="M23.9,15.2c-2,0-2.8,1.6-3,2.5c-0.1,0.5,0.3,1.1,0.8,1.1c0.1,0,0.1,0,0.2,0c0.5,0,0.9-0.4,1-0.8c0-0.1,0.2-0.8,1-0.8
			c0.8,0,1,0.6,1,0.8c0.1,0.5,0.5,0.8,1,0.8c0.1,0,0.1,0,0.2,0c0.5-0.1,0.9-0.6,0.8-1.1C26.7,16.9,25.9,15.2,23.9,15.2z"/>
		<path d="M28.1,21.5c-1.3,0.4-3.9,0.9-8.1,0.9c-4.2,0-6.8-0.6-8.1-0.9c-0.5-0.1-0.9,0.3-0.9,0.8c0.7,7.1,8.1,7.6,9,7.6H20
			c0.8,0,8.3-0.5,9-7.6C29,21.8,28.6,21.4,28.1,21.5z M28.1,23l-0.3,1.2c-0.1,0.3-0.3,0.5-0.6,0.6c-0.9,0.3-3,0.9-7.1,0.9v0
			c0,0,0,0,0,0s0,0,0,0v0c-4.1,0-6.3-0.6-7.1-0.9c-0.3-0.1-0.5-0.3-0.6-0.7L12,23c-0.1-0.2,0.1-0.4,0.3-0.4c4.6,1,7.5,1,7.7,1v0
			c0,0,0,0,0,0c0,0,0,0,0,0v0c0.2,0,3.1,0,7.7-1C27.9,22.6,28.1,22.8,28.1,23z"/>
	</g>
</g>
</svg>
