<?xml version="1.0" encoding="utf-8"?>
<!-- Generator: Adobe Illustrator 28.2.0, SVG Export Plug-In . SVG Version: 6.00 Build 0)  -->
<svg version="1.1" xmlns="http://www.w3.org/2000/svg" xmlns:xlink="http://www.w3.org/1999/xlink" x="0px" y="0px"
	 viewBox="0 0 40 40" style="enable-background:new 0 0 40 40;" xml:space="preserve">
<g id="BG">
</g>
<g id="face-crying">
	<g>
		<path d="M24.7,26.5c-1.1-1.3-2.9-2-4.7-2c-0.8,0-1.5,0.1-2.3,0.4c0.2,0.7,0.3,1.3,0.3,1.8c0.6-0.1,1.3-0.1,1.9-0.1
			c1.5,0,2.9,0.2,4.4,0.7c0,0,0,0,0,0c0,0,0,0,0,0l0,0c0,0,0.1,0,0.1,0c0.2,0,0.4-0.2,0.4-0.4C24.9,26.7,24.7,26.5,24.7,26.5z"/>
		<path d="M14.3,19.8c-3.5,5.6-3,8.2-3,8.2c0,1.6,1.3,2.9,2.9,2.9s2.9-1.3,2.9-2.9C17.1,27.9,17.6,25,14.3,19.8z"/>
		<ellipse cx="23.9" cy="17.2" rx="1.3" ry="2.4"/>
		<ellipse cx="16.1" cy="17.2" rx="1.3" ry="2.4"/>
		<path d="M20,6.2c-7.6,0-13.7,6.1-13.7,13.7c0,4.2,1.9,8,4.9,10.5c-0.5-0.7-0.9-1.5-0.9-2.4c0-0.3-0.1-1,0.2-2.2
			c-1.1-1.7-1.7-3.7-1.7-5.9c0-6.2,5-11.2,11.2-11.2s11.2,5,11.2,11.2c0,6.2-5,11.2-11.2,11.2c-1.1,0-2.1-0.2-3-0.4
			c-0.7,0.7-1.7,1.2-2.8,1.2c-0.5,0-0.9-0.1-1.3-0.3c2.1,1.3,4.5,2,7.1,2c7.6,0,13.7-6.1,13.7-13.7C33.7,12.4,27.6,6.2,20,6.2z"/>
	</g>
</g>
</svg>
