<?xml version="1.0" encoding="utf-8"?>
<!-- Generator: Adobe Illustrator 28.2.0, SVG Export Plug-In . SVG Version: 6.00 Build 0)  -->
<svg version="1.1" xmlns="http://www.w3.org/2000/svg" xmlns:xlink="http://www.w3.org/1999/xlink" x="0px" y="0px"
	 viewBox="0 0 40 40" style="enable-background:new 0 0 40 40;" xml:space="preserve">
<g id="BG">
</g>
<g id="face-wink">
	<path d="M20,8.7c6.2,0,11.2,5,11.2,11.2s-5,11.2-11.2,11.2s-11.2-5-11.2-11.2S13.8,8.7,20,8.7 M20,6.2c-7.6,0-13.7,6.1-13.7,13.7
		S12.4,33.6,20,33.6s13.7-6.1,13.7-13.7S27.6,6.2,20,6.2L20,6.2z"/>
	<ellipse cx="15.7" cy="17.8" rx="1.3" ry="2.4"/>
	<path d="M24.5,24.1c0,0-0.1,0-0.1,0l0,0c0,0,0,0,0,0c0,0,0,0,0,0c-1.4,0.5-2.9,0.7-4.4,0.7c-1.5,0-2.9-0.2-4.4-0.7c0,0,0,0,0,0
		c0,0,0,0,0,0l0,0c0,0-0.1,0-0.1,0c-0.2,0-0.4,0.2-0.4,0.4c0,0.1,0.2,0.3,0.2,0.3c1.1,1.3,2.9,2,4.7,2c1.8,0,3.6-0.6,4.7-2
		c0,0,0.2-0.2,0.2-0.3C24.9,24.3,24.7,24.1,24.5,24.1z"/>
	<path d="M11.5,15.8C11.5,15.7,11.5,15.7,11.5,15.8L11.5,15.8C11.5,15.7,11.5,15.7,11.5,15.8C11.5,15.7,11.5,15.7,11.5,15.8
		c0.6-0.9,1.3-1.6,2-2.2c0.7-0.7,1.5-1.2,2.3-1.7c0,0,0,0,0,0c0,0,0,0,0,0l0,0c0,0,0,0,0.1,0c0.1-0.1,0.1-0.2,0.1-0.3
		c0,0-0.2,0-0.2,0c-0.9,0.1-1.9,0.7-2.8,1.5c-0.9,0.8-1.6,1.8-1.8,2.7c0,0,0,0.1,0,0.2C11.2,15.9,11.3,15.9,11.5,15.8z"/>
	<path d="M27.1,19.1c-0.1-0.2-0.3-0.4-0.4-0.6c0,0,0,0,0.1,0c0,0,0,0,0,0c0,0,0,0,0,0l0,0c0,0,0,0,0.1,0c0.1,0,0.2-0.2,0.2-0.3
		c0-0.1-0.1-0.2-0.1-0.2c-0.8-0.9-1.9-1.2-3-1.1c-1,0.1-1.9,0.6-2.5,1.5c0,0,0,0,0,0c0,0-0.1,0.1-0.1,0.2c0,0,0,0.1-0.1,0.1
		c0,0-0.1,0.2-0.1,0.3c0,0.2,0.1,0.3,0.3,0.3c0,0,0,0,0.1,0l0,0c0,0,0,0,0,0c0,0,0,0,0,0c0.3-0.1,0.5-0.3,0.8-0.4
		c0.6-0.1,1.3-0.1,1.9,0c0.9,0.1,1.7,0.4,2.5,0.8c0,0,0,0,0,0c0,0,0,0,0,0l0,0c0,0,0,0,0.1,0c0.1,0,0.3-0.1,0.3-0.3
		C27.2,19.2,27.1,19.1,27.1,19.1z"/>
</g>
</svg>
