<?xml version="1.0" encoding="utf-8"?>
<!-- Generator: Adobe Illustrator 28.2.0, SVG Export Plug-In . SVG Version: 6.00 Build 0)  -->
<svg version="1.1" id="help-browser.filled" xmlns="http://www.w3.org/2000/svg" xmlns:xlink="http://www.w3.org/1999/xlink"
	 x="0px" y="0px" viewBox="0 0 120 120" style="enable-background:new 0 0 120 120;" xml:space="preserve">
<style type="text/css">
	.st0{fill:none;}
</style>
<rect id="BG" class="st0" width="120" height="120"/>
<path d="M60.3,18C36.9,18,18,36.9,18,60.3s18.9,42.3,42.3,42.3s42.3-18.9,42.3-42.3S83.7,18,60.3,18z M64.5,80.1
	c0,0.6-0.6,1.2-0.9,1.5c-0.3,0.3-1.5,0.6-3,0.6c-1.8,0-2.7-0.3-3.3-0.9c-0.6-0.6-0.9-1.8-0.9-3.3c0-0.6,0-1.2,0.3-1.8
	c0-0.6,0.3-1.2,0.9-1.5c0.6-0.3,1.5-0.6,3-0.6c1.8,0,3,0.3,3.3,0.9c0.6,0.6,0.9,1.8,0.9,3.3C64.5,78.9,64.5,79.5,64.5,80.1z
	 M72.6,54.9c-0.3,1.2-0.9,2.1-1.8,3c-0.6,0.9-1.5,1.8-2.4,2.4c-0.9,0.6-1.8,1.2-2.7,1.5c-0.6,0.3-1.5,0.6-2.1,0.9v3.6
	c0,0.6,0,1.2-0.3,1.5C63,68.1,63,68.7,62.4,69c0,0-0.9,0.3-2.1,0.3s-1.8,0-2.4-0.3c-0.6-0.3-0.9-0.6-0.9-1.2c0-0.6-0.3-1.2-0.3-1.8
	v-3.9c0-0.9,0.3-1.8,0.6-2.4c0.6-0.6,0.9-1.2,1.8-1.5c0.9-0.3,1.5-0.9,2.4-1.2s1.5-0.9,2.4-1.2c0.6-0.6,1.2-1.2,1.8-1.8
	c0.3-0.9,0.6-1.8,0.6-3c0-1.8-0.6-3.3-1.5-4.5C63.9,45.3,62.1,45,60,45c-0.9,0-1.8,0.3-2.7,0.6c-0.9,0.3-1.5,0.6-1.8,1.2
	c-0.6,0.6-0.9,1.2-1.2,1.8c-0.3,0.6-0.6,1.2-0.9,1.8c-0.3,0.3-0.9,0.6-1.2,0.9c-0.6,0-1.2,0-2.1-0.3c-0.9-0.3-1.5-0.6-2.1-0.9
	c-0.3-0.3-0.6-0.9-0.6-1.2c0-0.6,0-1.2,0.3-1.8c0-0.6,0.3-1.2,0.9-1.8c0.3-0.6,0.9-1.5,1.5-2.1c0.6-0.6,1.5-1.5,2.4-2.1
	c0.9-0.6,2.1-1.2,3.3-1.5c1.2-0.3,2.7-0.6,4.5-0.6c2.7,0,4.8,0.6,6.9,1.5c2.1,1.2,3.6,2.4,4.5,4.5c1.2,1.8,1.5,3.9,1.5,6.3
	C73.2,52.2,72.9,53.7,72.6,54.9z"/>
</svg>
