<?xml version="1.0" encoding="utf-8"?>
<!-- Generator: Adobe Illustrator 28.2.0, SVG Export Plug-In . SVG Version: 6.00 Build 0)  -->
<svg version="1.1" xmlns="http://www.w3.org/2000/svg" xmlns:xlink="http://www.w3.org/1999/xlink" x="0px" y="0px"
	 viewBox="0 0 40 40" style="enable-background:new 0 0 40 40;" xml:space="preserve">
<g id="BG">
</g>
<g id="help-browser">
	<path d="M20,5.9C12.2,5.9,5.9,12.2,5.9,20S12.2,34.1,20,34.1c7.8,0,14.1-6.3,14.1-14.1S27.8,5.9,20,5.9z M21.4,26.6
		c0,0.2-0.2,0.4-0.3,0.5s-0.5,0.2-1,0.2c-0.6,0-0.9-0.1-1.1-0.3c-0.2-0.2-0.3-0.6-0.3-1.1c0-0.2,0-0.4,0.1-0.6
		c0-0.2,0.1-0.4,0.3-0.5s0.5-0.2,1-0.2c0.6,0,1,0.1,1.1,0.3c0.2,0.2,0.3,0.6,0.3,1.1C21.4,26.2,21.4,26.4,21.4,26.6z M24.1,18.2
		c-0.1,0.4-0.3,0.7-0.6,1c-0.2,0.3-0.5,0.6-0.8,0.8c-0.3,0.2-0.6,0.4-0.9,0.5c-0.2,0.1-0.5,0.2-0.7,0.3V22c0,0.2,0,0.4-0.1,0.5
		s-0.1,0.3-0.3,0.4C20.7,22.9,20.4,23,20,23c-0.4,0-0.6,0-0.8-0.1c-0.2-0.1-0.3-0.2-0.3-0.4s-0.1-0.4-0.1-0.6v-1.3
		c0-0.3,0.1-0.6,0.2-0.8c0.2-0.2,0.3-0.4,0.6-0.5s0.5-0.3,0.8-0.4s0.5-0.3,0.8-0.4c0.2-0.2,0.4-0.4,0.6-0.6c0.1-0.3,0.2-0.6,0.2-1
		c0-0.6-0.2-1.1-0.5-1.5s-0.9-0.5-1.6-0.5c-0.3,0-0.6,0.1-0.9,0.2c-0.3,0.1-0.5,0.2-0.6,0.4c-0.2,0.2-0.3,0.4-0.4,0.6
		c-0.1,0.2-0.2,0.4-0.3,0.6c-0.1,0.1-0.3,0.2-0.4,0.3c-0.2,0-0.4,0-0.7-0.1c-0.3-0.1-0.5-0.2-0.7-0.3c-0.1-0.1-0.2-0.3-0.2-0.4
		c0-0.2,0-0.4,0.1-0.6c0-0.2,0.1-0.4,0.3-0.6c0.1-0.2,0.3-0.5,0.5-0.7c0.2-0.2,0.5-0.5,0.8-0.7c0.3-0.2,0.7-0.4,1.1-0.5
		c0.4-0.1,0.9-0.2,1.5-0.2c0.9,0,1.6,0.2,2.3,0.5c0.7,0.4,1.2,0.8,1.5,1.5c0.4,0.6,0.5,1.3,0.5,2.1C24.3,17.3,24.2,17.8,24.1,18.2z"
		/>
</g>
</svg>
