<?xml version="1.0" encoding="utf-8"?>
<!-- Generator: Adobe Illustrator 28.2.0, SVG Export Plug-In . SVG Version: 6.00 Build 0)  -->
<svg version="1.1" id="help-browser" xmlns="http://www.w3.org/2000/svg" xmlns:xlink="http://www.w3.org/1999/xlink" x="0px"
	 y="0px" viewBox="0 0 120 120" style="enable-background:new 0 0 120 120;" xml:space="preserve">
<style type="text/css">
	.st0{fill:none;}
</style>
<rect id="BG" y="0" class="st0" width="120" height="120"/>
<g>
	<path d="M60,25.1c19.3,0,34.9,15.6,34.9,34.9S79.3,94.9,60,94.9S25.1,79.3,25.1,60S40.7,25.1,60,25.1z M60,17.6
		c-23.4,0-42.4,19-42.4,42.4s19,42.4,42.4,42.4s42.4-19,42.4-42.4S83.4,17.6,60,17.6z"/>
	<path d="M60,73.7c-1.3,0-2.3,0.2-2.9,0.6c-0.6,0.4-0.9,1-1,1.6c-0.1,0.6-0.2,1.3-0.2,1.9c0,1.5,0.3,2.5,0.8,3.2
		c0.5,0.7,1.7,1,3.3,1c1.4,0,2.4-0.2,3-0.6c0.6-0.4,0.9-0.9,1.1-1.6c0.1-0.6,0.2-1.3,0.2-1.9c0-1.5-0.2-2.6-0.8-3.2
		C62.9,73.9,61.8,73.6,60,73.7L60,73.7z"/>
	<path d="M71.3,44c-1.1-1.8-2.6-3.3-4.6-4.3c-2-1-4.3-1.6-6.9-1.6c-1.7,0-3.1,0.2-4.4,0.6c-1.3,0.4-2.4,0.9-3.4,1.6
		c-0.9,0.6-1.7,1.3-2.4,2.1s-1.1,1.5-1.5,2.2c-0.4,0.7-0.7,1.3-0.8,1.9c-0.2,0.8-0.3,1.3-0.2,1.8c0,0.5,0.3,0.9,0.7,1.3
		c0.4,0.4,1,0.7,2,1c0.9,0.3,1.6,0.5,2.1,0.4c0.5-0.1,0.9-0.3,1.3-0.8c0.4-0.4,0.6-1,0.9-1.7c0.2-0.7,0.6-1.3,1.1-1.8
		c0.5-0.5,1.2-0.9,1.9-1.2c0.8-0.3,1.7-0.5,2.6-0.5c2.1,0,3.7,0.5,4.7,1.5c1.1,1,1.6,2.4,1.6,4.3c0,1.3-0.2,2.3-0.7,3
		s-1,1.4-1.7,1.8c-0.7,0.5-1.5,0.9-2.3,1.2c-0.8,0.4-1.6,0.7-2.3,1.1s-1.3,0.9-1.7,1.4c-0.4,0.6-0.7,1.4-0.7,2.3v4
		c0,0.6,0.1,1.2,0.2,1.7s0.4,0.9,0.9,1.2c0.5,0.3,1.2,0.4,2.3,0.4c1.1,0,2-0.1,2.5-0.4c0.5-0.3,0.8-0.6,0.9-1.1
		c0.1-0.5,0.2-1,0.2-1.6v-3.6c0.6-0.2,1.3-0.4,2-0.8c0.9-0.4,1.7-0.9,2.6-1.6c0.9-0.6,1.7-1.4,2.4-2.3c0.7-0.9,1.3-2,1.7-3.1
		c0.4-1.2,0.6-2.6,0.6-4.1C73,48,72.4,45.9,71.3,44L71.3,44z"/>
</g>
</svg>
