<?xml version="1.0" encoding="utf-8"?>
<!-- Generator: Adobe Illustrator 28.2.0, SVG Export Plug-In . SVG Version: 6.00 Build 0)  -->
<svg version="1.1" xmlns="http://www.w3.org/2000/svg" xmlns:xlink="http://www.w3.org/1999/xlink" x="0px" y="0px"
	 viewBox="0 0 40 40" style="enable-background:new 0 0 40 40;" xml:space="preserve">
<g id="BG">
</g>
<g id="help-browser">
	<g>
		<path d="M20,8.4c6.4,0,11.6,5.2,11.6,11.6S26.4,31.6,20,31.6S8.4,26.4,8.4,20S13.6,8.4,20,8.4 M20,5.9C12.2,5.9,5.9,12.2,5.9,20
			S12.2,34.1,20,34.1S34.1,27.8,34.1,20S27.8,5.9,20,5.9L20,5.9z"/>
		<path d="M20,24.6c-0.5,0-0.8,0.1-1,0.2s-0.3,0.3-0.3,0.5c0,0.2-0.1,0.4-0.1,0.6c0,0.5,0.1,0.8,0.3,1.1c0.2,0.2,0.5,0.3,1.1,0.3
			c0.5,0,0.8-0.1,1-0.2s0.3-0.3,0.3-0.5c0-0.2,0.1-0.4,0.1-0.6c0-0.5-0.1-0.8-0.3-1.1C21,24.7,20.6,24.6,20,24.6z"/>
		<path d="M23.7,14.7c-0.4-0.6-0.9-1.1-1.5-1.5c-0.7-0.4-1.4-0.5-2.3-0.5c-0.5,0-1,0.1-1.5,0.2c-0.4,0.1-0.8,0.3-1.1,0.5
			c-0.3,0.2-0.6,0.4-0.8,0.7c-0.2,0.2-0.4,0.5-0.5,0.7c-0.1,0.2-0.2,0.4-0.3,0.6c-0.1,0.2-0.1,0.5-0.1,0.6c0,0.2,0.1,0.3,0.2,0.4
			c0.1,0.1,0.4,0.2,0.7,0.3c0.3,0.1,0.5,0.2,0.7,0.1c0.2,0,0.3-0.1,0.4-0.3c0.1-0.1,0.2-0.3,0.3-0.6c0.1-0.2,0.2-0.4,0.4-0.6
			c0.2-0.2,0.4-0.3,0.6-0.4c0.3-0.1,0.6-0.2,0.9-0.2c0.7,0,1.2,0.2,1.6,0.5s0.5,0.8,0.5,1.5c0,0.4-0.1,0.8-0.2,1
			c-0.2,0.3-0.3,0.5-0.6,0.6c-0.2,0.2-0.5,0.3-0.8,0.4s-0.5,0.2-0.8,0.4s-0.4,0.3-0.6,0.5c-0.2,0.2-0.2,0.5-0.2,0.8v1.3
			c0,0.2,0,0.4,0.1,0.6s0.1,0.3,0.3,0.4c0.2,0.1,0.4,0.1,0.8,0.1c0.4,0,0.7,0,0.8-0.1c0.2-0.1,0.3-0.2,0.3-0.4s0.1-0.3,0.1-0.5v-1.2
			c0.2-0.1,0.4-0.1,0.7-0.3c0.3-0.1,0.6-0.3,0.9-0.5c0.3-0.2,0.5-0.5,0.8-0.8c0.2-0.3,0.4-0.6,0.6-1c0.1-0.4,0.2-0.8,0.2-1.4
			C24.3,16,24.1,15.3,23.7,14.7z"/>
	</g>
</g>
</svg>
