<?xml version="1.0" encoding="utf-8"?>
<!-- Generator: Adobe Illustrator 28.2.0, SVG Export Plug-In . SVG Version: 6.00 Build 0)  -->
<svg version="1.1" xmlns="http://www.w3.org/2000/svg" xmlns:xlink="http://www.w3.org/1999/xlink" x="0px" y="0px"
	 viewBox="0 0 40 40" style="enable-background:new 0 0 40 40;" xml:space="preserve">
<g id="BG">
</g>
<g id="internet-mail">
	<path d="M31.1,8.4H8.9c-2.1,0-3.7,1.7-3.7,3.7v15.8c0,2.1,1.7,3.7,3.7,3.7h22.1c2.1,0,3.7-1.7,3.7-3.7V12.1
		C34.8,10,33.1,8.4,31.1,8.4z M25.6,19.2l7-6.5v13.9L25.6,19.2z M31.1,10.6c0.1,0,0.1,0,0.2,0L19.9,21L8.8,10.6c0.1,0,0.1,0,0.2,0
		H31.1z M7.4,26.6V12.7l7,6.5L7.4,26.6z M8.9,29.4c-0.2,0-0.4,0-0.6-0.1l7.9-8.4l2.9,2.7c0.2,0.2,0.5,0.3,0.9,0.3
		c0.3,0,0.6-0.1,0.8-0.3l2.9-2.7l7.9,8.4c-0.2,0.1-0.4,0.1-0.6,0.1H8.9z"/>
</g>
</svg>
