<?xml version="1.0" encoding="utf-8"?>
<!-- Generator: Adobe Illustrator 28.2.0, SVG Export Plug-In . SVG Version: 6.00 Build 0)  -->
<svg version="1.1" xmlns="http://www.w3.org/2000/svg" xmlns:xlink="http://www.w3.org/1999/xlink" x="0px" y="0px"
	 viewBox="0 0 40 40" style="enable-background:new 0 0 40 40;" xml:space="preserve">
<g id="BG">
</g>
<g id="internet-group-chat">
	<path d="M20,9.3c6.7,0,12.1,4.3,12.1,9.5c0,5.3-5.4,9.5-12.1,9.5c-0.5,0-1,0-1.6-0.1l-6.1,3.5l2.3-3.4c0.2-0.3,0.6-0.6,0-1
		c-4-1.6-6.8-4.8-6.8-8.6C7.8,13.5,13.3,9.3,20,9.3 M20,6.8c-8.1,0-14.6,5.4-14.6,12c0,4,2.3,7.6,6.1,9.8l-1.2,1.7
		c-0.7,1-0.6,2.3,0.2,3.1c0.5,0.5,1.2,0.8,1.8,0.8c0.4,0,0.9-0.1,1.2-0.3l5.4-3.1c0.3,0,0.7,0,1,0c8.1,0,14.6-5.4,14.6-12
		S28,6.8,20,6.8L20,6.8z"/>
</g>
</svg>
