<?xml version="1.0" encoding="utf-8"?>
<!-- Generator: Adobe Illustrator 28.2.0, SVG Export Plug-In . SVG Version: 6.00 Build 0)  -->
<svg version="1.1" xmlns="http://www.w3.org/2000/svg" xmlns:xlink="http://www.w3.org/1999/xlink" x="0px" y="0px"
	 viewBox="0 0 40 40" style="enable-background:new 0 0 40 40;" xml:space="preserve">
<g id="BG">
</g>
<g id="internet-web-browser">
	<g>
		<path d="M20,8.4c6.4,0,11.6,5.2,11.6,11.6S26.4,31.6,20,31.6S8.4,26.4,8.4,20S13.6,8.4,20,8.4 M20,5.9C12.2,5.9,5.9,12.2,5.9,20
			S12.2,34.1,20,34.1S34.1,27.8,34.1,20S27.8,5.9,20,5.9L20,5.9z"/>
		<path d="M22.7,22.7C22.7,22.7,22.8,22.7,22.7,22.7c0.1-0.1,0.1-0.2,0.2-0.2c0,0,0-0.1,0.1-0.1l3.8-7.8c0.2-0.4,0.1-0.8-0.2-1.1
			c-0.3-0.3-0.8-0.4-1.1-0.2l-7.8,3.8c0,0,0,0-0.1,0c0,0-0.1,0-0.1,0.1c0,0-0.1,0.1-0.1,0.1c0,0-0.1,0.1-0.1,0.1c0,0,0,0.1-0.1,0.1
			c0,0,0,0.1-0.1,0.1l-3.8,7.8c-0.2,0.4-0.1,0.8,0.2,1.1c0.3,0.3,0.8,0.4,1.1,0.2l7.8-3.8c0,0,0,0,0.1,0
			C22.5,22.8,22.6,22.8,22.7,22.7C22.6,22.8,22.7,22.7,22.7,22.7z M16.4,23.6l1.9-3.9l1,1l1,1L16.4,23.6z"/>
	</g>
</g>
</svg>
