<?xml version="1.0" encoding="utf-8"?>
<!-- Generator: Adobe Illustrator 28.2.0, SVG Export Plug-In . SVG Version: 6.00 Build 0)  -->
<svg version="1.1" id="internet-group-chat" xmlns="http://www.w3.org/2000/svg" xmlns:xlink="http://www.w3.org/1999/xlink"
	 x="0px" y="0px" viewBox="0 0 120 120" style="enable-background:new 0 0 120 120;" xml:space="preserve">
<style type="text/css">
	.st0{fill:none;}
</style>
<rect id="BG" y="0" class="st0" width="120" height="120"/>
<path d="M59.8,27.8c20.1,0,36.3,12.8,36.3,28.6S79.9,85.1,59.8,85.1c-1.6,0-3.1-0.1-4.7-0.3L36.9,95.3l7-10.2
	c0.5-0.8,1.9-1.9-0.1-2.9c-12-4.7-20.3-14.4-20.3-25.6C23.5,40.7,39.8,27.8,59.8,27.8 M59.8,20.3C35.7,20.3,16,36.5,16,56.4
	c0,11.9,6.9,22.7,18.3,29.4l-3.6,5.2c-2,2.9-1.7,6.8,0.7,9.3c1.5,1.6,3.5,2.4,5.5,2.4c1.3,0,2.6-0.3,3.8-1l16.2-9.3
	c1,0.1,2,0.1,2.9,0.1c24.2,0,43.8-16.2,43.8-36.1S84.1,20.3,59.8,20.3L59.8,20.3z"/>
</svg>
