<?xml version="1.0" encoding="utf-8"?>
<!-- Generator: Adobe Illustrator 28.2.0, SVG Export Plug-In . SVG Version: 6.00 Build 0)  -->
<svg version="1.1" xmlns="http://www.w3.org/2000/svg" xmlns:xlink="http://www.w3.org/1999/xlink" x="0px" y="0px"
	 viewBox="0 0 40 40" style="enable-background:new 0 0 40 40;" xml:space="preserve">
<g id="BG">
</g>
<g id="internet-news-reader">
	<g>
		<path d="M29,15H16.5c-0.6,0-1-0.5-1-1v0c0-0.6,0.5-1,1-1H29c0.6,0,1,0.5,1,1v0C30.1,14.5,29.6,15,29,15z"/>
		<path d="M29,19.5H16.5c-0.6,0-1-0.5-1-1v0c0-0.6,0.5-1,1-1H29c0.6,0,1,0.5,1,1v0C30.1,19,29.6,19.5,29,19.5z"/>
		<path d="M29,28.7H16.5c-0.6,0-1.1-0.5-1.1-1.1V23c0-0.6,0.5-1.1,1.1-1.1H29c0.6,0,1.1,0.5,1.1,1.1v4.6
			C30.1,28.2,29.6,28.7,29,28.7z"/>
		<path d="M33.8,8c-0.5-0.5-1.3-1.1-2.8-1.1l-16.3,0c-0.1,0-1.4,0-2.5,1c-0.9,0.8-1.3,2-1.3,3.6V17H8.4c-1.4,0-2.2,0.5-2.6,1
			c-0.7,0.8-0.7,1.7-0.7,2v11.5l0,0.2c0.2,1,1.3,2.9,4,3v0h2.3h0.5h3.9l15.2,0c1.5-0.1,3.7-1.2,3.7-4l0-20
			C34.8,10.6,34.8,9.1,33.8,8z M7.6,31.4V20l0-0.1c0,0,0-0.2,0.1-0.3c0.1-0.1,0.3-0.2,0.7-0.2h2.5v11.8c-0.1,0.3-0.6,1-1.8,1
			C8,32.3,7.7,31.7,7.6,31.4z M32.3,30.7c0,1.3-0.9,1.5-1.3,1.6H13.2c0.1-0.2,0.1-0.3,0.2-0.4l0-20.4c0-0.6,0.1-1.5,0.6-1.9
			c0.3-0.2,0.6-0.2,0.6-0.2H31c0.5,0,0.8,0.1,1,0.3c0.3,0.3,0.3,0.8,0.3,1V30.7z"/>
	</g>
</g>
</svg>
