<?xml version="1.0" encoding="utf-8"?>
<!-- Generator: Adobe Illustrator 28.2.0, SVG Export Plug-In . SVG Version: 6.00 Build 0)  -->
<svg version="1.1" id="Layer_1" xmlns="http://www.w3.org/2000/svg" xmlns:xlink="http://www.w3.org/1999/xlink" x="0px" y="0px"
	 viewBox="0 0 120 120" style="enable-background:new 0 0 120 120;" xml:space="preserve">
<style type="text/css">
	.st0{fill:none;}
</style>
<rect id="BG" class="st0" width="120" height="120"/>
<path d="M62.6,71l8.6-7.9l23.3,24.7c-0.4,0.1-0.8,0.2-1.3,0.2H26.8c-0.5,0-0.9-0.1-1.3-0.2l23.2-24.6l8.4,7.8l0,0
	c0.8,0.7,1.8,1.1,2.8,1.1C60.8,72.1,61.8,71.7,62.6,71L62.6,71z M93.2,24.8H26.8c-6.4,0-11.6,5.2-11.6,11.6v47.4
	c0,6.4,5.2,11.5,11.6,11.5h66.4c6.4,0,11.5-5.2,11.5-11.5V36.3C104.8,30,99.6,24.8,93.2,24.8L93.2,24.8z M97.5,79.2L77.1,57.6
	l20.3-18.7V79.2z M92.9,32L59.8,62.5L27,32H92.9z M42.7,57.7L22.5,79.2V38.9L42.7,57.7z"/>
</svg>
