<?xml version="1.0" encoding="utf-8"?>
<!-- Generator: Adobe Illustrator 28.2.0, SVG Export Plug-In . SVG Version: 6.00 Build 0)  -->
<svg version="1.1" id="Layer_1" xmlns="http://www.w3.org/2000/svg" xmlns:xlink="http://www.w3.org/1999/xlink" x="0px" y="0px"
	 viewBox="0 0 120 120" style="enable-background:new 0 0 120 120;" xml:space="preserve">
<style type="text/css">
	.st0{fill:none;}
</style>
<rect id="BG" y="0" class="st0" width="120" height="120"/>
<g>
	<path d="M60,25.1c19.3,0,34.9,15.6,34.9,34.9S79.3,94.9,60,94.9S25.1,79.3,25.1,60S40.7,25.1,60,25.1z M60,17.6
		c-23.4,0-42.4,19-42.4,42.4s19,42.4,42.4,42.4s42.4-19,42.4-42.4S83.4,17.6,60,17.6z"/>
	<path d="M68.1,68.1c0,0,0.2-0.2,0.3-0.3c0.1-0.1,0.1-0.2,0.2-0.3c0.1-0.1,0.1-0.1,0.2-0.3L80,44c0.6-1.1,0.3-2.5-0.6-3.4
		c-0.9-0.9-2.3-1.1-3.4-0.6L52.7,51.3c0,0-0.1,0.1-0.2,0.1c-0.1,0.1-0.2,0.1-0.3,0.2c-0.1,0.1-0.2,0.2-0.2,0.2
		c-0.1,0.1-0.2,0.2-0.2,0.3s-0.1,0.2-0.2,0.3c-0.1,0.1-0.1,0.2-0.1,0.2L40,76c-0.6,1.1-0.3,2.5,0.6,3.4c0.9,0.9,2.3,1.1,3.4,0.6
		l23.3-11.3c0,0,0.1-0.1,0.2-0.1c0.1-0.1,0.2-0.2,0.4-0.2C68,68.3,68,68.2,68.1,68.1L68.1,68.1z M49.2,70.8l5.7-11.7l3,3l3,3
		L49.2,70.8L49.2,70.8z"/>
</g>
</svg>
