<?xml version="1.0" encoding="utf-8"?>
<!-- Generator: Adobe Illustrator 28.2.0, SVG Export Plug-In . SVG Version: 6.00 Build 0)  -->
<svg version="1.1" id="internet-news-reader" xmlns="http://www.w3.org/2000/svg" xmlns:xlink="http://www.w3.org/1999/xlink"
	 x="0px" y="0px" viewBox="0 0 120 120" style="enable-background:new 0 0 120 120;" xml:space="preserve">
<style type="text/css">
	.st0{fill:none;}
</style>
<rect id="BG" y="0" class="st0" width="120" height="120"/>
<g>
	<path d="M87.2,38.7H49.6c-1.7,0-3.1,1.4-3.1,3.1v0c0,1.7,1.4,3.1,3.1,3.1h37.6c1.7,0,3.1-1.4,3.1-3.1v0
		C90.2,40.1,88.9,38.7,87.2,38.7z"/>
	<path d="M87.2,52.3H49.6c-1.7,0-3.1,1.4-3.1,3.1v0c0,1.7,1.4,3.1,3.1,3.1h37.6c1.7,0,3.1-1.4,3.1-3.1v0
		C90.2,53.7,88.9,52.3,87.2,52.3z"/>
	<path d="M87.1,65.9H49.7c-1.7,0-3.2,1.4-3.2,3.1v13.8c0,1.7,1.4,3.2,3.2,3.2h37.4c1.7,0,3.2-1.4,3.2-3.2V69.1
		C90.2,67.4,88.8,65.9,87.1,65.9z"/>
	<path d="M101.4,24c-1.4-1.5-4-3.3-8.3-3.3H44.1c-0.5,0-4.3-0.1-7.4,2.9c-2.6,2.4-3.9,6.1-3.9,10.7v16.7h-7.6c-4.1,0-6.5,1.6-7.7,3
		c-2.1,2.3-2.1,5.2-2.1,6.1v34.4l0.1,0.7c0.6,3.1,3.8,8.8,11.9,8.9h6.8h59c4.5-0.2,11.1-3.5,11.1-12V32.2
		C104.2,31.7,104.5,27.3,101.4,24L101.4,24z M22.8,94.2V59.8c0,0,0-0.5,0.2-0.8c0.2-0.2,0.9-0.5,2.2-0.5h7.6V94
		c-0.4,0.9-1.7,2.9-5.2,2.9S23,95,22.8,94.2L22.8,94.2z M97,92.2c0,3.8-2.5,4.6-3.9,4.7H39.6c0.2-0.5,0.4-0.9,0.5-1.3l0.1-61.2
		c0-2,0.3-4.5,1.8-5.6c0.8-0.6,1.8-0.7,1.9-0.6H93c1.4,0,2.4,0.3,3,0.9c0.8,0.8,1,2.3,0.9,3L97,92.2L97,92.2z"/>
</g>
</svg>
