<?xml version="1.0" encoding="utf-8"?>
<!-- Generator: Adobe Illustrator 27.0.1, SVG Export Plug-In . SVG Version: 6.00 Build 0)  -->
<svg version="1.1" id="Layer_7" xmlns="http://www.w3.org/2000/svg" xmlns:xlink="http://www.w3.org/1999/xlink" x="0px" y="0px"
	 viewBox="0 0 1024 1024" style="enable-background:new 0 0 1024 1024;" xml:space="preserve">
<style type="text/css">
	.st0{fill:url(#SVGID_1_);}
	.st1{fill:#F7F7F7;}
	.st2{fill:#555753;}
	.st3{fill:#F9F9F9;}
	.st4{fill:#EF2929;}
	.st5{opacity:0.25;}
	.st6{fill:url(#SVGID_00000160188410684445857520000013824524930866817957_);}
	.st7{fill:url(#SVGID_00000160165696525121836710000003214116677088962989_);}
	.st8{fill:url(#SVGID_00000003827440810746560150000017528578234183737262_);}
	.st9{fill:#FBFBFB;}
</style>
<g>
	<linearGradient id="SVGID_1_" gradientUnits="userSpaceOnUse" x1="512.0497" y1="856.6489" x2="512.0429" y2="906.9453">
		<stop  offset="0" style="stop-color:#A9ADAB"/>
		<stop  offset="0.3581" style="stop-color:#A6AAA8"/>
		<stop  offset="0.6161" style="stop-color:#9DA19F"/>
		<stop  offset="0.8419" style="stop-color:#8E918F"/>
		<stop  offset="1" style="stop-color:#7F817F"/>
	</linearGradient>
	<path class="st0" d="M876.7,850.2H512.1H147.4c0,0-0.1,24.3,1.7,41.7c0.6,5.7,4.6,10,9.5,10.1c37.5,1,195.6,1,353.4,0.7
		c157.8,0.3,316,0.3,353.4-0.7c4.9-0.1,8.9-4.4,9.5-10.1C876.8,874.4,876.7,850.2,876.7,850.2z"/>
	<path class="st1" d="M153,349.4l-5.5,500.2c-0.1,5.5,4.3,9.9,9.8,10l709.4,2.4c5.5,0,9.9-4.4,9.9-9.8l-0.1-502.6
		c0-5.4-4.4-9.8-9.8-9.8l-703.8-0.1C157.4,339.7,153.1,344,153,349.4z"/>
	<g id="Layer_4">
		<g>
			<path class="st2" d="M389.1,562.8h30c18.9-0.3,33.6-5.3,44.5-14.9c10.8-9.6,16.1-22.7,16.2-39c0-36.9-18.4-55.3-55-55.3
				c-17.3,0-31,4.9-41.3,14.8c-10.3,9.8-15.5,22.9-15.4,39.2h-39.9c0-24.9,9.1-45.5,27.3-62.1c18.2-16.5,41.4-24.7,69.4-24.7
				c29.7,0,52.9,7.9,69.7,23.5c16.8,15.7,25.2,37.5,25.3,65.4c0,13.7-4.5,26.9-13.3,39.7s-20.9,22.4-36.1,28.7
				c17.3,5.5,30.6,14.6,40,27.2s14.2,28.2,14.1,46.4c0,28.2-9.2,50.6-27.6,67.1s-42.4,24.8-71.9,24.9c-29.5,0-53.5-8-71.9-23.9
				c-18.5-16-27.7-37.1-27.8-63.2h40.1c0,16.5,5.4,29.8,16.2,39.7s25.3,14.9,43.4,14.9c19.2,0,34-5,44.2-15.1
				c10.2-10,15.3-24.5,15.4-43.3c0-18.2-5.6-32.3-16.8-42.1c-11.2-9.8-27.4-14.8-48.5-15.1h-30L389.1,562.8z"/>
			<path class="st2" d="M683.9,739.3h-40.1V473.2l-80.5,29.6v-36.3l114.4-42.9h6.3L683.9,739.3z"/>
		</g>
		<g>
			<g>
				<g>
					<g>
						<path class="st3" d="M446.8,422.4c19.3,3.1,35.1,10.3,47.5,21.9c16.8,15.7,25.2,37.5,25.3,65.4c0,13.7-4.5,26.9-13.3,39.7
							s-20.9,22.4-36.1,28.7c17.3,5.5,30.6,14.6,40,27.2c9.4,12.6,14.2,28.2,14.1,46.4c0,28.2-9.2,50.6-27.6,67.1
							s-42.4,24.8-71.9,24.9c-7.8,0-15.2-0.6-22.2-1.7c-19.6-3.1-36.2-10.5-49.8-22.3c-18.5-16-27.7-37.1-27.8-63.2h40.1
							c0,16.5,5.4,29.8,16.2,39.7c8,7.3,18,12,30,13.9c4.2,0.7,8.7,1,13.3,1c19.2,0,34-5,44.2-15.1c10.2-10,15.3-24.5,15.4-43.3
							c0-18.2-5.6-32.3-16.8-42.1c-8.1-7.1-18.8-11.7-32.1-13.8c-5.1-0.8-10.5-1.3-16.4-1.3h-30v-32.6h30
							c18.9-0.3,33.6-5.3,44.5-14.9c10.8-9.6,16.1-22.7,16.2-39c0-31.8-13.7-49.9-41-54.2c-4.3-0.7-9-1-14-1
							c-17.3,0-31,4.9-41.3,14.8c-10.3,9.8-15.5,22.9-15.4,39.2H328c0-24.9,9.1-45.5,27.3-62.1c18.2-16.5,41.4-24.7,69.4-24.7
							C432.5,420.8,439.9,421.3,446.8,422.4 M447.3,419.5c-7.1-1.1-14.7-1.7-22.7-1.7c-28.7,0-52.7,8.6-71.4,25.5
							c-18.8,17-28.3,38.6-28.3,64.3c0,0.8,0.4,1.6,0.9,2.2c0.4,0.5,1,0.8,1.7,0.9c0.2,0,0.3,0,0.5,0.1h39.9c1.6,0,3-1.3,3-3
							c0-15.3,4.9-27.8,14.5-37c9.7-9.3,22.9-14,39.3-13.9c4.9,0,9.4,0.4,13.5,1c26,4.1,38.5,20.9,38.6,51.3
							c-0.1,15.7-5,27.7-15.1,36.8S437,559.7,419,560h-30c-1.6,0-3,1.3-3,3v32.6c0,0.8,0.4,1.6,0.9,2.2c0.4,0.5,1,0.8,1.7,0.9
							c0.2,0,0.3,0,0.5,0.1h30c5.7,0.1,11.1,0.5,15.9,1.3c12.6,2,23,6.4,30.6,13.1c10.5,9.2,15.8,22.5,15.8,39.9
							c0,17.9-4.8,31.8-14.4,41.3c-9.6,9.4-23.7,14.3-42.2,14.3c-4.6,0-8.9-0.3-12.9-0.9c-11.4-1.8-21-6.3-28.5-13.1
							c-10.3-9.4-15.2-21.6-15.2-37.5c0-0.8-0.4-1.6-0.9-2.2c-0.4-0.5-1-0.8-1.7-0.9c-0.2,0-0.3,0-0.5-0.1H325c-1.6,0-3,1.3-3,3
							c0,26.9,9.7,49,28.8,65.5c14,12,31.2,19.8,51.3,23c7.1,1.1,14.7,1.7,22.6,1.7c30.1,0,55-8.6,73.9-25.6
							c19-17,28.7-40.4,28.6-69.4c0-18.8-5-35.1-14.7-48.2c-8.4-11.4-20-20-34.5-25.7c12.6-6.4,22.9-15.4,30.6-26.6
							c9.2-13.2,13.8-27.2,13.9-41.4c0-28.7-8.8-51.4-26.2-67.6C483.7,430.2,467.1,422.6,447.3,419.5L447.3,419.5z"/>
					</g>
					<g>
						<path class="st3" d="M683.9,423.6v315.8h-40.1V473.3l-80.5,29.6v-36.3l114.4-42.9L683.9,423.6 M684.3,420.7
							c-0.2,0-0.3,0-0.5-0.1h-6.3c-0.4,0-0.7,0.1-1.1,0.2l-114.3,42.9c-1.2,0.4-2,1.5-2,2.8v36.3c0,1,0.5,1.9,1.3,2.4
							c0.4,0.3,0.8,0.4,1.2,0.5c0.5,0.1,1,0.1,1.5-0.2l76.4-28.1l-0.1,261.8c0,0.8,0.4,1.6,0.9,2.2c0.4,0.5,1,0.8,1.7,0.9
							c0.2,0,0.3,0,0.5,0.1h40.1c1.6,0,3-1.3,3-3V423.6c0-0.8-0.4-1.6-0.9-2.2C685.6,421.1,684.9,420.8,684.3,420.7L684.3,420.7z"/>
					</g>
				</g>
			</g>
		</g>
	</g>
	<g id="Layer_2_copy">
		<g>
			<g>
				<path class="st4" d="M182.4,119.9l659.1,0.1c17.7,0,32.1,14.4,32.1,32.1v187.7l-723.4-0.1V152
					C150.3,134.3,164.7,119.9,182.4,119.9z"/>
			</g>
		</g>
	</g>
	<g id="Layer_8">
		<g class="st5">
			
				<linearGradient id="SVGID_00000018196205948262753700000016304798740223116437_" gradientUnits="userSpaceOnUse" x1="442.5235" y1="966.8355" x2="442.5235" y2="1070.798" gradientTransform="matrix(1 1.346377e-04 1.346377e-04 -1 -24.0067 1249.5823)">
				<stop  offset="0" style="stop-color:#FFFFFF"/>
				<stop  offset="9.222896e-02" style="stop-color:#F9F9F9"/>
				<stop  offset="0.2176" style="stop-color:#E7E7E7"/>
				<stop  offset="0.3621" style="stop-color:#CBCBCB"/>
				<stop  offset="0.5209" style="stop-color:#A3A3A3"/>
				<stop  offset="0.6913" style="stop-color:#707070"/>
				<stop  offset="0.8688" style="stop-color:#323232"/>
				<stop  offset="1" style="stop-color:#000000"/>
			</linearGradient>
			<path style="fill:url(#SVGID_00000018196205948262753700000016304798740223116437_);" d="M451.1,175.7V251
				c0,10.1-3,18.2-8.8,24.3c-5.8,6-13.8,9.1-23.5,9.1c-10.4,0-18.4-2.8-24-8.2c-5.6-5.5-8.4-13.1-8.4-22.8h9.1
				c0,7.7,2,13.5,6.1,17.4c4,3.9,9.8,5.9,17.2,5.8c6.8,0,12.4-2.3,16.6-6.7c4.3-4.5,6.5-10.6,6.6-18.4v-75.8L451.1,175.7 M451.1,174
				H442c-0.9,0-1.6,0.7-1.6,1.6v75.8c-0.1,7.2-2.2,13.1-6.2,17.3s-9.1,6.2-15.5,6.3c-6.9,0-12.4-1.8-16.1-5.4
				c-3.8-3.5-5.6-9-5.6-16.3c0-0.9-0.7-1.6-1.6-1.6h-9.1c-0.9,0-1.6,0.7-1.6,1.6c0,10.2,3,18.3,8.8,24c5.9,5.7,14.3,8.6,25.1,8.6
				c10.3,0,18.6-3.2,24.8-9.5c6.1-6.3,9.3-14.8,9.2-25.4v-75.3C452.7,174.8,452,174,451.1,174L451.1,174z"/>
			
				<linearGradient id="SVGID_00000107555042328939498810000008107707690728829325_" gradientUnits="userSpaceOnUse" x1="527.3265" y1="964.5114" x2="527.3265" y2="1004.1025" gradientTransform="matrix(1 1.346377e-04 1.346377e-04 -1 -24.0067 1249.5823)">
				<stop  offset="0" style="stop-color:#FFFFFF"/>
				<stop  offset="0.1738" style="stop-color:#CCCBCB"/>
				<stop  offset="0.6174" style="stop-color:#B2B1B1;stop-opacity:0"/>
				<stop  offset="0.7099" style="stop-color:#929091;stop-opacity:0"/>
				<stop  offset="0.8713" style="stop-color:#5F5C5D;stop-opacity:0"/>
				<stop  offset="0.9103" style="stop-color:#464444;stop-opacity:0.1211"/>
				<stop  offset="0.9927" style="stop-color:#060606;stop-opacity:0.3774"/>
				<stop  offset="1" style="stop-color:#000000;stop-opacity:0.4"/>
			</linearGradient>
			<path style="fill:url(#SVGID_00000107555042328939498810000008107707690728829325_);" d="M507.7,175.7l40.6,107.1h-9.4
				l-11.1-30.1h-48.6l-11,30.1h-9.5l40.5-107.1L507.7,175.7 M481.9,245h43l-21.5-58.3L481.9,245 M507.7,174h-8.6
				c-0.6,0-1.3,0.4-1.5,1.1l-40.5,107.1c-0.2,0.5-0.1,1,0.2,1.5c0.3,0.5,0.8,0.7,1.4,0.7h9.5c0.6,0,1.3-0.4,1.5-1.1l10.6-29.1h46.4
				l10.7,29c0.2,0.6,0.8,1,1.5,1.1h9.4c0.5,0,1-0.2,1.3-0.7c0.3-0.4,0.4-1,0.2-1.5L509.2,175C509,174.5,508.4,174.1,507.7,174
				L507.7,174z M484.2,243.4l19.2-52l19.2,52.1L484.2,243.4L484.2,243.4z"/>
			
				<linearGradient id="SVGID_00000095328881004762594380000002870579559775800245_" gradientUnits="userSpaceOnUse" x1="621.6693" y1="968.7686" x2="621.6693" y2="1080.1732" gradientTransform="matrix(1 1.346377e-04 1.346377e-04 -1 -24.0067 1249.5823)">
				<stop  offset="0" style="stop-color:#FFFFFF"/>
				<stop  offset="1" style="stop-color:#000000"/>
			</linearGradient>
			<path style="fill:url(#SVGID_00000095328881004762594380000002870579559775800245_);" d="M637.7,175.7v107.1h-9.1L567,191.1v91.7
				h-9.1V175.7h9.1l61.7,91.8v-91.8H637.7 M637.7,174.1h-9c-0.9,0-1.6,0.7-1.6,1.6v86.5l-58.7-87.4c-0.3-0.5-0.8-0.7-1.4-0.7h-9.1
				c-0.9,0-1.6,0.7-1.6,1.6v107.1c0,0.9,0.7,1.6,1.6,1.6h9.1c0.9,0,1.6-0.7,1.6-1.6v-86.4l58.6,87.3c0.3,0.5,0.8,0.7,1.4,0.7h9.1
				c0.9,0,1.6-0.7,1.6-1.6l-0.1-107.1C639.3,174.8,638.6,174.1,637.7,174.1L637.7,174.1z"/>
		</g>
		<g>
			<path class="st9" d="M442,175.6h9.1v75.3c0,10.1-3,18.2-8.8,24.3c-5.8,6-13.8,9.1-23.5,9.1c-10.4,0-18.4-2.8-24-8.2
				s-8.4-13.1-8.4-22.8h9.1c0,7.7,2,13.5,6.1,17.4c4,3.9,9.8,5.9,17.2,5.8c6.8,0,12.4-2.3,16.6-6.7c4.3-4.5,6.5-10.6,6.6-18.4
				L442,175.6z"/>
			<path class="st9" d="M527.7,252.7h-48.6l-11,30.1h-9.5l40.5-107.1h8.6l40.4,107.2h-9.4L527.7,252.7z M481.9,245h43l-21.5-58.3
				L481.9,245z"/>
			<path class="st9" d="M637.7,282.8h-9.1L567,191.1v91.7h-9.1V175.7h9.1l61.7,91.8v-91.8h9V282.8z"/>
		</g>
	</g>
</g>
</svg>
