<?xml version="1.0" encoding="utf-8"?>
<!-- Generator: Adobe Illustrator 28.2.0, SVG Export Plug-In . SVG Version: 6.00 Build 0)  -->
<svg version="1.1" xmlns="http://www.w3.org/2000/svg" xmlns:xlink="http://www.w3.org/1999/xlink" x="0px" y="0px"
	 viewBox="0 0 40 40" style="enable-background:new 0 0 40 40;" xml:space="preserve">
<g id="BG">
</g>
<g id="office-calendar">
	<g>
		<g>
			<path d="M31.7,31.7H8.3V14.5H5.6v17.9c0,1.1,0.9,2,2,2h24.8c1.1,0,2-0.9,2-2V14.5h-2.7V31.7z"/>
		</g>
		<path d="M34.4,11.8V7.6c0-1.1-0.9-2-2-2H7.6c-1.1,0-2,0.9-2,2v4.1H34.4z"/>
		<path d="M18.1,17h-1.1c-0.4,0-0.7,0.3-0.7,0.7v1.1c0,0.4,0.3,0.7,0.7,0.7h1.1c0.4,0,0.7-0.3,0.7-0.7v-1.1
			C18.9,17.4,18.5,17,18.1,17z"/>
		<path d="M22.9,19.5c0.4,0,0.7-0.3,0.7-0.7v-1.1c0-0.4-0.3-0.7-0.7-0.7h-1.1c-0.4,0-0.7,0.3-0.7,0.7v1.1c0,0.4,0.3,0.7,0.7,0.7
			H22.9z"/>
		<path d="M27.7,17h-1.1c-0.4,0-0.7,0.3-0.7,0.7v1.1c0,0.4,0.3,0.7,0.7,0.7h1.1c0.4,0,0.7-0.3,0.7-0.7v-1.1
			C28.4,17.4,28.1,17,27.7,17z"/>
		<path d="M13.4,21.5h-1.1c-0.4,0-0.7,0.3-0.7,0.7v1.1c0,0.4,0.3,0.7,0.7,0.7h1.1c0.4,0,0.7-0.3,0.7-0.7v-1.1
			C14.1,21.8,13.8,21.5,13.4,21.5z"/>
		<path d="M18.1,21.5h-1.1c-0.4,0-0.7,0.3-0.7,0.7v1.1c0,0.4,0.3,0.7,0.7,0.7h1.1c0.4,0,0.7-0.3,0.7-0.7v-1.1
			C18.9,21.8,18.5,21.5,18.1,21.5z"/>
		<path d="M22.9,24c0.4,0,0.7-0.3,0.7-0.7v-1.1c0-0.4-0.3-0.7-0.7-0.7h-1.1c-0.4,0-0.7,0.3-0.7,0.7v1.1c0,0.4,0.3,0.7,0.7,0.7H22.9z
			"/>
		<path d="M27.7,21.5h-1.1c-0.4,0-0.7,0.3-0.7,0.7v1.1c0,0.4,0.3,0.7,0.7,0.7h1.1c0.4,0,0.7-0.3,0.7-0.7v-1.1
			C28.4,21.8,28.1,21.5,27.7,21.5z"/>
		<path d="M13.4,26h-1.1c-0.4,0-0.7,0.3-0.7,0.7v1.1c0,0.4,0.3,0.7,0.7,0.7h1.1c0.4,0,0.7-0.3,0.7-0.7v-1.1
			C14.1,26.3,13.8,26,13.4,26z"/>
		<path d="M18.1,26h-1.1c-0.4,0-0.7,0.3-0.7,0.7v1.1c0,0.4,0.3,0.7,0.7,0.7h1.1c0.4,0,0.7-0.3,0.7-0.7v-1.1
			C18.9,26.3,18.5,26,18.1,26z"/>
		<path d="M22.9,28.5c0.4,0,0.7-0.3,0.7-0.7v-1.1c0-0.4-0.3-0.7-0.7-0.7h-1.1c-0.4,0-0.7,0.3-0.7,0.7v1.1c0,0.4,0.3,0.7,0.7,0.7
			H22.9z"/>
	</g>
</g>
</svg>
