<?xml version="1.0" encoding="utf-8"?>
<!-- Generator: Adobe Illustrator 28.2.0, SVG Export Plug-In . SVG Version: 6.00 Build 0)  -->
<svg version="1.1" id="office-calendar" xmlns="http://www.w3.org/2000/svg" xmlns:xlink="http://www.w3.org/1999/xlink" x="0px"
	 y="0px" viewBox="0 0 120 120" style="enable-background:new 0 0 120 120;" xml:space="preserve">
<style type="text/css">
	.st0{fill:none;}
</style>
<rect id="BG" y="0" class="st0" width="120" height="120"/>
<g>
	<path d="M54.4,47.7h-3.2c-1.2,0-2.2,1-2.2,2.2v3.2c0,1.2,1,2.2,2.2,2.2h3.2c1.2,0,2.2-1,2.2-2.2v-3.2
		C56.6,48.7,55.6,47.7,54.4,47.7z"/>
	<path d="M65.6,47.7h3.2c1.2,0,2.2,1,2.2,2.2v3.2c0,1.2-1,2.2-2.2,2.2h-3.2c-1.2,0-2.2-1-2.2-2.2v-3.2
		C63.4,48.7,64.3,47.7,65.6,47.7z"/>
	<path d="M79.9,47.7H83c1.2,0,2.2,1,2.2,2.2v3.2c0,1.2-1,2.2-2.2,2.2h-3.2c-1.2,0-2.2-1-2.2-2.2v-3.2C77.7,48.7,78.7,47.7,79.9,47.7
		z"/>
	<path d="M36.9,61h3.2c1.2,0,2.2,1,2.2,2.2v3.2c0,1.2-1,2.2-2.2,2.2h-3.2c-1.2,0-2.2-1-2.2-2.2v-3.2C34.7,62,35.7,61,36.9,61z"/>
	<path d="M51.2,61h3.2c1.2,0,2.2,1,2.2,2.2v3.2c0,1.2-1,2.2-2.2,2.2h-3.2c-1.2,0-2.2-1-2.2-2.2v-3.2C49,62,50,61,51.2,61z"/>
	<path d="M68.7,61h-3.2c-1.2,0-2.2,1-2.2,2.2v3.2c0,1.2,1,2.2,2.2,2.2h3.2c1.2,0,2.2-1,2.2-2.2v-3.2C70.9,62,69.9,61,68.7,61z"/>
	<path d="M79.9,61H83c1.2,0,2.2,1,2.2,2.2v3.2c0,1.2-1,2.2-2.2,2.2h-3.2c-1.2,0-2.2-1-2.2-2.2v-3.2C77.7,62,78.7,61,79.9,61z"/>
	<path d="M36.9,74.5h3.2c1.2,0,2.2,1,2.2,2.2v3.2c0,1.2-1,2.2-2.2,2.2h-3.2c-1.2,0-2.2-1-2.2-2.2v-3.2
		C34.7,75.5,35.7,74.5,36.9,74.5z"/>
	<path d="M51.2,74.5h3.2c1.2,0,2.2,1,2.2,2.2v3.2c0,1.2-1,2.2-2.2,2.2h-3.2c-1.2,0-2.2-1-2.2-2.2v-3.2C49,75.5,50,74.5,51.2,74.5z"
		/>
	<path d="M68.7,74.5h-3.2c-1.2,0-2.2,1-2.2,2.2v3.2c0,1.2,1,2.2,2.2,2.2h3.2c1.2,0,2.2-1,2.2-2.2v-3.2
		C70.9,75.5,69.9,74.5,68.7,74.5z"/>
	<path d="M93.2,24.5H26.8c-6.5,0-11.8,5.3-11.8,11.8v47.4c0,6.5,5.3,11.8,11.8,11.8h66.4c6.5,0,11.8-5.3,11.8-11.8V36.3
		C105.1,29.8,99.7,24.5,93.2,24.5z M97.2,41.4v42.3c0,2.2-1.8,4-4,4H26.8c-2.2,0-4-1.8-4-4V41.4H97.2z"/>
</g>
</svg>
