<?xml version="1.0" encoding="utf-8"?>
<!-- Generator: Adobe Illustrator 28.2.0, SVG Export Plug-In . SVG Version: 6.00 Build 0)  -->
<svg version="1.1" xmlns="http://www.w3.org/2000/svg" xmlns:xlink="http://www.w3.org/1999/xlink" x="0px" y="0px"
	 viewBox="0 0 40 40" style="enable-background:new 0 0 40 40;" xml:space="preserve">
<g id="BG">
</g>
<g id="office-calendar_Remake">
	<g>
		<path d="M18.1,15.9h-1.1c-0.4,0-0.7,0.3-0.7,0.7v1.1c0,0.4,0.3,0.7,0.7,0.7h1.1c0.4,0,0.7-0.3,0.7-0.7v-1.1
			C18.9,16.2,18.5,15.9,18.1,15.9z"/>
		<path d="M22.9,18.4c0.4,0,0.7-0.3,0.7-0.7v-1.1c0-0.4-0.3-0.7-0.7-0.7h-1.1c-0.4,0-0.7,0.3-0.7,0.7v1.1c0,0.4,0.3,0.7,0.7,0.7
			H22.9z"/>
		<path d="M27.7,15.9h-1.1c-0.4,0-0.7,0.3-0.7,0.7v1.1c0,0.4,0.3,0.7,0.7,0.7h1.1c0.4,0,0.7-0.3,0.7-0.7v-1.1
			C28.4,16.2,28.1,15.9,27.7,15.9z"/>
		<path d="M13.4,20.3h-1.1c-0.4,0-0.7,0.3-0.7,0.7v1.1c0,0.4,0.3,0.7,0.7,0.7h1.1c0.4,0,0.7-0.3,0.7-0.7v-1.1
			C14.1,20.7,13.8,20.3,13.4,20.3z"/>
		<path d="M18.1,20.3h-1.1c-0.4,0-0.7,0.3-0.7,0.7v1.1c0,0.4,0.3,0.7,0.7,0.7h1.1c0.4,0,0.7-0.3,0.7-0.7v-1.1
			C18.9,20.7,18.5,20.3,18.1,20.3z"/>
		<path d="M22.9,22.9c0.4,0,0.7-0.3,0.7-0.7v-1.1c0-0.4-0.3-0.7-0.7-0.7h-1.1c-0.4,0-0.7,0.3-0.7,0.7v1.1c0,0.4,0.3,0.7,0.7,0.7
			H22.9z"/>
		<path d="M27.7,20.3h-1.1c-0.4,0-0.7,0.3-0.7,0.7v1.1c0,0.4,0.3,0.7,0.7,0.7h1.1c0.4,0,0.7-0.3,0.7-0.7v-1.1
			C28.4,20.7,28.1,20.3,27.7,20.3z"/>
		<path d="M13.4,24.8h-1.1c-0.4,0-0.7,0.3-0.7,0.7v1.1c0,0.4,0.3,0.7,0.7,0.7h1.1c0.4,0,0.7-0.3,0.7-0.7v-1.1
			C14.1,25.2,13.8,24.8,13.4,24.8z"/>
		<path d="M18.1,24.8h-1.1c-0.4,0-0.7,0.3-0.7,0.7v1.1c0,0.4,0.3,0.7,0.7,0.7h1.1c0.4,0,0.7-0.3,0.7-0.7v-1.1
			C18.9,25.2,18.5,24.8,18.1,24.8z"/>
		<path d="M22.9,27.4c0.4,0,0.7-0.3,0.7-0.7v-1.1c0-0.4-0.3-0.7-0.7-0.7h-1.1c-0.4,0-0.7,0.3-0.7,0.7v1.1c0,0.4,0.3,0.7,0.7,0.7
			H22.9z"/>
		<path d="M31.1,8.4H8.9c-2.1,0-3.7,1.7-3.7,3.7v15.8c0,2.1,1.7,3.7,3.7,3.7h22.1c2.1,0,3.7-1.7,3.7-3.7V12.1
			C34.8,10,33.1,8.4,31.1,8.4z M31.1,29.4H8.9c-0.8,0-1.5-0.7-1.5-1.5V13.6h25.2v14.3C32.6,28.8,31.9,29.4,31.1,29.4z"/>
	</g>
</g>
</svg>
