<?xml version="1.0" encoding="utf-8"?>
<!-- Generator: Adobe Illustrator 28.2.0, SVG Export Plug-In . SVG Version: 6.00 Build 0)  -->
<svg version="1.1" id="preferences-system-network-proxy"
	 xmlns="http://www.w3.org/2000/svg" xmlns:xlink="http://www.w3.org/1999/xlink" x="0px" y="0px" viewBox="0 0 120 120"
	 style="enable-background:new 0 0 120 120;" xml:space="preserve">
<style type="text/css">
	.st0{fill:none;}
</style>
<rect id="BG" class="st0" width="120" height="120"/>
<g>
	<path d="M80.9,36.3c-9.6,0-17.9,5.8-21.6,14.1H25.4c-0.8,0-1.5,0.3-2.1,0.9l-6.9,6.9c-0.5,0.5-0.9,1.3-0.9,2.1
		c0,0.8,0.3,1.5,0.9,2.1l11.4,11.4c1.1,1.1,3,1.1,4.1,0l6-6l8.9,8.9c0.6,0.6,1.3,0.9,2.1,0.9c0.7,0,1.5-0.3,2.1-0.9l7.1-7.1h1.3
		c3.7,8.3,11.9,14.1,21.6,14.1c13,0,23.6-10.6,23.6-23.6S93.9,36.3,80.9,36.3z M80.9,77.7c-8.6,0-15.7-6-17.4-14.1h-5.9c0,0,0,0,0,0
		h-0.8c-0.8,0-1.5,0.3-2.1,0.9l-5.9,5.9L40,61.5c-1.1-1.1-3-1.1-4.1,0l-6,6l-7.3-7.3l4-4h31h4.9h1c1.7-8.1,8.8-14.1,17.4-14.1
		c9.8,0,17.8,8,17.8,17.8C98.7,69.8,90.7,77.7,80.9,77.7z"/>
	<circle cx="87.4" cy="59.8" r="6"/>
</g>
</svg>
