<?xml version="1.0" encoding="utf-8"?>
<!-- Generator: Adobe Illustrator 28.2.0, SVG Export Plug-In . SVG Version: 6.00 Build 0)  -->
<svg version="1.1" id="preferences-system-network-proxy.filled"
	 xmlns="http://www.w3.org/2000/svg" xmlns:xlink="http://www.w3.org/1999/xlink" x="0px" y="0px" viewBox="0 0 120 120"
	 style="enable-background:new 0 0 120 120;" xml:space="preserve">
<style type="text/css">
	.st0{fill:none;}
</style>
<rect id="BG" class="st0" width="120" height="120"/>
<path d="M80.8,36.4c-9.6,0-17.9,5.8-21.6,14.1H25.4c-0.8,0-1.5,0.3-2.1,0.8l-6.9,6.9c-0.5,0.5-0.9,1.3-0.8,2.1
	c0,0.8,0.3,1.5,0.9,2.1l11.4,11.4c1.1,1.1,3,1.1,4.1,0l6-6l8.9,8.9c0.6,0.6,1.3,0.9,2.1,0.9s1.5-0.3,2.1-0.9l7.1-7.1h1.3
	c3.7,8.3,11.9,14,21.5,14c13,0,23.6-10.6,23.6-23.6S93.8,36.4,80.8,36.4z M87.4,65.8c-3.3,0-6-2.7-6-6s2.7-6,6-6s6,2.7,6,6
	C93.3,63.1,90.6,65.8,87.4,65.8z"/>
</svg>
