<?xml version="1.0" encoding="utf-8"?>
<!-- Generator: Adobe Illustrator 27.0.1, SVG Export Plug-In . SVG Version: 6.00 Build 0)  -->
<svg version="1.1" id="Layer_1" xmlns="http://www.w3.org/2000/svg" xmlns:xlink="http://www.w3.org/1999/xlink" x="0px" y="0px"
	 viewBox="0 0 1024 1024" style="enable-background:new 0 0 1024 1024;" xml:space="preserve">
<style type="text/css">
	.st0{fill:url(#SVGID_1_);}
	.st1{fill:url(#SVGID_00000103260193673355182480000004510325709470643338_);}
	.st2{fill:#FFFFFF;}
</style>
<linearGradient id="SVGID_1_" gradientUnits="userSpaceOnUse" x1="71.0199" y1="493.5" x2="124.7063" y2="493.5" gradientTransform="matrix(1 0 0 1 0 18)">
	<stop  offset="0" style="stop-color:#D5D9DC"/>
	<stop  offset="0.2189" style="stop-color:#F2F3F4"/>
	<stop  offset="0.4928" style="stop-color:#CBD0D4"/>
	<stop  offset="0.9993" style="stop-color:#B9C0C4"/>
</linearGradient>
<path class="st0" d="M95,118.9L95,118.9c14.9,0,27,12.1,27,26.9v731.3c0,14.9-12.1,26.9-26.9,26.9h0c-14.9,0-26.9-12.1-26.9-26.9
	V145.8C68.1,131,80.2,118.9,95,118.9z"/>
<linearGradient id="SVGID_00000068651127625838933180000002132681702197643185_" gradientUnits="userSpaceOnUse" x1="533.4917" y1="182.0329" x2="533.4917" y2="727.4683" gradientTransform="matrix(1 0 0 1 0 18)">
	<stop  offset="0" style="stop-color:#729FCF"/>
	<stop  offset="0.2868" style="stop-color:#5783B7"/>
	<stop  offset="0.7574" style="stop-color:#2F5A94"/>
	<stop  offset="1" style="stop-color:#204A87"/>
</linearGradient>
<path style="fill:url(#SVGID_00000068651127625838933180000002132681702197643185_);" d="M121.7,171.9l-0.1,563
	c0,0,90.2-61.6,276.2-10.9c175.7,47.9,386.8,132.1,524.5,12.7c14.8-12.8,23.1-31.5,23.1-51.1v-496c0-19.4-20.3-32.1-37.7-23.6
	c-65.8,32-211.6,82.7-389.8,19.4C273.8,98.7,121.7,171.9,121.7,171.9z"/>
<g>
	<g id="_x23_ffffffff_00000178897158421398227120000005163129262085290685_">
		<path class="st2" d="M412.6,277c16.2-13.7,38.7-19.4,59.5-16.2c23.4,3.1,43.6,16.3,61.5,30.7c25.9,22.8,47.1,55.1,51.8,89.8
			c-5.7-4.5-11.8-8.7-18-12.5c-5.5-20.8-16.9-40.8-31.8-56.3c-14.8-14.4-29.7-24.9-49.1-32.6c-18.7-4.7-36.1-5.5-54,3.3
			c-17.3,9-30.9,26-37.3,44.3c-5.2,17.3-6.7,31.9-4.5,49.8c3.6,16.6,12.1,32.5,24.2,44.5c-1.1,6.4-1.9,12.8-2,19.3
			c-15.9-12.8-30.1-30.3-35.7-50.3c-4.9-21-4.1-39.1,0.9-59.9C383.6,310.3,396,290.4,412.6,277z"/>
		<path class="st2" d="M540.3,286.1c21.8-0.7,40.7,3.1,61.1,10.4c19.7,7.6,38.8,19.3,53.9,34.1c17.3,16.9,28.2,39.4,29.8,63.6
			c0.4,24.5-4.7,45.5-15.8,67.3c-6.1,10.8-14,20.6-23.6,28.4c-0.1-6.7-0.8-13.3-2.1-19.9c16-16.6,25.2-40.1,25.8-63
			c0.7-21.3-6.6-43.5-20.7-59.7c-15.2-18.3-36.8-31.7-59.2-39.2c-11-3.2-21.8-6-33.4-6.1C551.2,296.5,545.9,291.1,540.3,286.1z"/>
		<path class="st2" d="M473.1,350.5c2.9-20.5,14.5-40.5,31.7-52.2c5.5,3.3,10.8,7.3,15.9,11.7c-14.6,7.3-24.7,21.9-29.6,37
			C484.9,347.4,478.9,348.6,473.1,350.5z"/>
		<path class="st2" d="M400.5,342.7c25.2-6.6,45.2-2.8,68.2,9.3c-5.6,2.2-10.9,5-15.8,8.4c-18.4-6.3-35.7-8.2-54.2-0.4
			C398.6,354.1,399.3,348.3,400.5,342.7z"/>
		<path class="st2" d="M476.1,360.6c19.4-6,37.8-3.4,56.9,1.9c29,9.9,56.2,29.4,74.9,53.8c13.3,18.2,23.7,37.6,26.9,60.3
			c2.2,25.4-1.5,46.8-13.7,69.1c-7.7,10.4-14.2,17-24.8,24.6c-0.2-6.6-0.9-13.4-2.1-20.1c15.5-11.9,23.9-32.5,25.5-51.5
			c2.1-24.7-6.1-49.6-20.4-69.6c-15.1-21.4-36.9-39.2-61.4-48.7c-18-6-35.5-9.4-54.2-3.8c-18,5.7-33.1,20.5-39.7,38.2
			c-5.4,17.4-6.3,31.9-3.8,50c4.1,18.3,12.9,33.6,23.8,48.5c-1.2,6.1-1.9,12.5-2.1,18.9c-19.5-19.8-34.6-45-38.5-72.8
			c-3.3-20.5,0.4-43.1,10.1-61.4C442.2,380.8,457.9,366.7,476.1,360.6z"/>
		<path class="st2" d="M589.7,384.9c22.6-4.1,46-0.9,68.3,3.5c1.2,5.7,1.8,11.5,1.8,17.4c-17.3-5.4-36.1-7.4-54.2-6.2
			C600.6,394.6,595.3,389.6,589.7,384.9z"/>
		<path class="st2" d="M326,444.3c5.4-27.7,18.3-54.8,37.2-75.8c0.1,6.4,0.8,12.6,2.1,18.6c-12.6,16.5-22,37.2-24.8,58
			c-1.6,19.1-1,39.8,12.3,55.2c15.6,19.1,40.3,26.9,63.3,32c15.6,2.4,30.1,3.2,45.9,1.8c0,5.5,0.3,11,1.1,16.5
			c-25.1,2.3-51.5-1.7-75.5-9.2c-20.4-6.2-42.2-16.4-54.1-35C321.6,487.6,322.9,465.4,326,444.3z"/>
		<path class="st2" d="M695.2,401.6c17.6,10.4,28.1,21.2,35.9,40.1c7.4,24.2,2.4,49.3-4.4,72.9c-6.7,20-17.1,40-31.5,55.7
			c-0.2-6.6-0.8-13.1-2.1-19.2c15.1-20,24.9-45.6,25.8-70.7c-0.6-22.5-6.2-44.6-25.8-58.2C694.3,415.2,695,408.4,695.2,401.6z"/>
		<path class="st2" d="M554.3,398.4c10.9,6.7,20.8,15.1,29.2,24.7c-2.1,9.1-6.6,19-12,26.6c-6.6-1.4-13.1-2.2-19.6-2.6
			c0.8-2,1.6-4,3-5.6c8-8.9,11.2-19.8,14.3-31c-13.9,7.7-23.9,21.6-28.7,36.5c-3.8,0.1-7.6,0.5-11.2,1.2c-1.9-1.4-3.7-2.7-5.6-4.1
			C529.1,426,537.6,408.7,554.3,398.4z"/>
		<path class="st2" d="M474.9,392.6c8-5.4,19.7-9,29.3-9c7.5,10.1,13.6,19.8,19.5,30.9c-3.3,5.6-6,11.7-7.9,18.3
			c-5.3-16.8-15-32.4-26.6-45.5c2.5,13.7,7.5,26.9,14.4,39c1.3,2.3,2.1,4.7,2.9,7.1c-6.4-3.4-13-6.3-19.5-8.3
			C481.9,414.2,478.1,404.1,474.9,392.6z"/>
		<path class="st2" d="M449.8,430.5c25.9-1.3,46.4,6.5,68.3,20.1c-5.6,1.7-10.9,4-15.9,6.8c-17.1-8.2-33.9-13.4-53.1-10.3
			c11.7,6.1,24.3,10.9,37.3,13.4c2.5,0.4,4.9,1.5,7.3,2.6c-4.6,3.5-8.6,7.6-12.3,12.1c-11-2.6-21.3-6.8-31.6-11.2
			C448.3,452.7,447.1,441.8,449.8,430.5z"/>
		<path class="st2" d="M530.5,458.8c26.9-5.3,53.5,2.6,78,13.1c1.6,11.5,2.7,22.6,0,34.1c-10,1.4-21.9,0.2-31.5-2.6
			c-3.6-6.5-7.8-12.8-12.2-18.9c5.1,0.2,10.3,2.6,15.5,3.7c8.8,2.4,19.9,2.8,28.9,0.8c-20.7-9.9-43.9-18.3-67.3-14.7
			c-19,2.5-37.6,14-46.1,31.6c-11.1,21.6-8.8,45-2.6,67.5c6.1,17.8,15.7,32.9,27.4,47.5c-5,1.3-10.4,2-15.9,2
			c-13.5-18.5-25.5-38.6-30.1-61.4c-4.4-25.2-3.7-50.8,10.8-73C496.7,472.2,511.7,464,530.5,458.8z"/>
		<path class="st2" d="M376,506.4c5.5-23,18-45.4,36.6-60.2c0.1,6.5,0.9,13,2,19.4c-13.2,12.8-21.3,31-24.6,48.8
			C385.1,512,380.4,509.4,376,506.4z"/>
		<path class="st2" d="M645.7,495.1c15.3,12.3,28,29,34.3,47.6c6.9,24.9,5.8,46.9-1.3,71.6c-7.2,21-20.3,41.2-39.3,53.4
			c-23.3,12.5-43.6,13.2-68.6,5.8c-11.1-4.7-20.5-9.8-30.6-16.3c5.6-1.6,10.9-3.8,15.8-6.6c20.8,10.2,43.1,16.8,65.7,7.6
			c20-7.6,34.8-27.2,41.8-46.8c6.5-21.7,8.8-44.9-0.4-66.3c-5.6-11.6-11.2-20.2-19.5-30.1C644.9,508.3,645.6,501.7,645.7,495.1z"/>
		<path class="st2" d="M537.7,486.3c5-1.4,10.3-2.1,15.8-2.3c15.3,19.1,26.7,41.9,31.1,66c2.9,22.5,2.6,46.4-9.8,66.4
			c-9.1,16.1-25.7,27.3-43.4,31.5c-24.7,5.5-49.3-1.1-72.3-9.8c-21.7-9-42.7-22.1-58.9-39.3c-13.3-15.7-21.3-30.7-25.9-50.8
			c5.8,1.9,11.8,3.6,18,5.2c5.5,20.2,20,37.8,36.3,50.3c17,13.6,38.3,23.6,59.7,27.8c19.3,4.3,41.7,2,57.9-10.1
			c18.9-13.6,23.9-37,24.4-58.8C569.4,534.3,556.2,507.1,537.7,486.3z"/>
		<path class="st2" d="M524.3,492c1.6-0.9,3.2-1.8,4.9-2.6c5.9,6.5,11.4,13.5,15.8,21.1c1.8,3.8,3.3,7.6,5.3,11.3
			c1.3,2.6,2.9,5.1,4,7.7c3.8,9.6,6.4,21.1,6.6,31.4C543.3,541.6,530.2,517.6,524.3,492z"/>
		<path class="st2" d="M512.3,502.2c1-1.8,2.6-3.1,4-4.5c1.9,6.9,4.4,13.8,7.3,20.7c-8.2,10.2-15,16.1-26.1,22.9
			c0.3-8.6,2-16.7,5-23.9c0.8-2,1.6-4,3-5.5C508.1,509,510.4,505.7,512.3,502.2z"/>
		<path class="st2" d="M497.5,543.5c19.3,11.7,40.2,21.3,63.4,19.6c0,5.8-0.6,11.5-1.8,16.8c-22-1.7-40.3-8.3-59.8-18.7
			C498,555.2,497.5,549.3,497.5,543.5z"/>
		<path class="st2" d="M596.4,572.4c20.2,10.3,41.5,15.5,63.3,6.1c0,5.9-0.6,11.9-1.8,17.6c-21.8,7.3-42.6,2.1-62.6-7.4
			C596,583.4,596.3,577.9,596.4,572.4z"/>
	</g>
</g>
</svg>
