<?xml version="1.0" encoding="utf-8"?>
<!-- Generator: Adobe Illustrator 28.2.0, SVG Export Plug-In . SVG Version: 6.00 Build 0)  -->
<svg version="1.1" id="preferences-desktop-locale" xmlns="http://www.w3.org/2000/svg" xmlns:xlink="http://www.w3.org/1999/xlink"
	 x="0px" y="0px" viewBox="0 0 120 120" style="enable-background:new 0 0 120 120;" xml:space="preserve">
<style type="text/css">
	.st0{fill:none;}
</style>
<rect id="BG" class="st0" width="120" height="120"/>
<path d="M91.7,23.6l-0.1-0.1h-0.1c-1.7-1-3.8-1.1-5.6-0.2c-4.6,2.2-14.1,5.4-25.7,1.3c-12.2-4.4-21.7-3.7-27.5-2.4
	c-4.1,0.9-7,4.6-7,8.8v63.7c0,2.2,1.8,4,4,4c2.2,0,4-1.8,4-4V71.4c0.1,0,0.2,0,0.3-0.1l0,0c2.9-0.9,7.8-1.5,15.1,0.5l1.4,0.4
	c1.2,0.3,2.4,0.7,3.6,1c6.8,2,14.4,4.2,21.5,4.2c6.5,0,11.7-1.8,15.9-5.5c2-1.7,3.1-4.2,3.1-6.8V28.6C94.5,26.6,93.4,24.7,91.7,23.6
	z M33.6,31c0-0.5,0.3-0.9,0.9-1.1c3.9-0.9,12.1-1.8,23.1,2.1c12.1,4.3,22.4,2.2,28.9-0.3l0,33.5c0,0.3-0.1,0.6-0.3,0.8
	c-3.2,2.8-7.6,3.9-13.4,3.4c-5.2-0.4-11-2.1-16.6-3.8l-0.1,0c-0.7-0.2-1.5-0.4-2.2-0.6l-0.1,0c-0.9-0.3-1.7-0.5-2.6-0.7l0,0
	c-6.3-1.7-12.2-2.1-17.4-1V31z"/>
</svg>
