<?xml version="1.0" encoding="utf-8"?>
<!-- Generator: Adobe Illustrator 28.2.0, SVG Export Plug-In . SVG Version: 6.00 Build 0)  -->
<svg version="1.1" xmlns="http://www.w3.org/2000/svg" xmlns:xlink="http://www.w3.org/1999/xlink" x="0px" y="0px"
	 viewBox="0 0 40 40" style="enable-background:new 0 0 40 40;" xml:space="preserve">
<g id="BG">
</g>
<g id="preferences-desktop-locale">
	<path d="M30.4,8.1c-0.5-0.3-1.2-0.4-1.7-0.1c-1.6,0.8-4.8,1.8-8.7,0.4c-4-1.4-7.2-1.2-9.1-0.8C9.7,7.9,8.8,9,8.8,10.4l0,3.6
		c0,0,0,0,0,0v17.6c0,0.6,0.5,1.1,1.1,1.1c0.6,0,1.1-0.5,1.1-1.1v-8c0.1,0,0.2,0,0.2,0c1-0.3,2.6-0.5,5.1,0.2
		c0.5,0.1,1.1,0.3,1.6,0.5c2.3,0.7,4.8,1.4,7.1,1.4c1.9,0,3.6-0.5,5.2-1.8c0.6-0.5,1-1.3,1-2.1V9.6C31.3,8.9,30.9,8.4,30.4,8.1z
		 M29,21.8c0,0.2-0.1,0.3-0.2,0.4c-2.5,2.2-6.4,1-10.2-0.1c-0.6-0.2-1.1-0.3-1.7-0.5c-1.4-0.4-2.7-0.5-3.7-0.5
		c-0.9,0-1.7,0.1-2.3,0.3l0-11c0-0.3,0.2-0.5,0.4-0.6c1.3-0.3,4.1-0.6,7.8,0.7c4.2,1.5,7.7,0.6,9.8-0.2V21.8z"/>
</g>
</svg>
