<?xml version="1.0" encoding="utf-8"?>
<!-- Generator: Adobe Illustrator 28.2.0, SVG Export Plug-In . SVG Version: 6.00 Build 0)  -->
<svg version="1.1" id="system-file-manager_x5F_alt"
	 xmlns="http://www.w3.org/2000/svg" xmlns:xlink="http://www.w3.org/1999/xlink" x="0px" y="0px" viewBox="0 0 120 120"
	 style="enable-background:new 0 0 120 120;" xml:space="preserve">
<style type="text/css">
	.st0{fill:none;}
</style>
<rect id="BG" class="st0" width="120" height="120"/>
<g>
	<path d="M81.3,19.1H38.8c-6.2,0-11.2,5-11.2,11.2v59.6c0,6.1,5,11.1,11.2,11.1h42.5c0.1,0,0.1,0,0.2,0c2.8,0,5.5-1.1,7.6-3.1
		c2.2-2.1,3.3-4.9,3.3-8V30.3C92.4,24.1,87.4,19.1,81.3,19.1z M35.7,64.7h48.7v25.2c0,1.7-1.4,3.1-3.1,3.1H38.8
		c-1.7,0-3.1-1.4-3.1-3.1V64.7z M38.8,27.2h42.5c1.7,0,3.1,1.4,3.1,3.1v25.1H35.7V30.3C35.7,28.6,37.1,27.2,38.8,27.2z"/>
	<path d="M63.9,46.2h-7.8c-2.5,0-4.5-2-4.5-4.5v0c0-2.5,2-4.5,4.5-4.5h7.8c2.5,0,4.5,2,4.5,4.5v0C68.4,44.2,66.4,46.2,63.9,46.2z"/>
	<path d="M63.9,82.8h-7.8c-2.5,0-4.5-2-4.5-4.5v0c0-2.5,2-4.5,4.5-4.5h7.8c2.5,0,4.5,2,4.5,4.5v0C68.4,80.8,66.4,82.8,63.9,82.8z"/>
</g>
</svg>
