<?xml version="1.0" encoding="utf-8"?>
<!-- Generator: Adobe Illustrator 28.2.0, SVG Export Plug-In . SVG Version: 6.00 Build 0)  -->
<svg version="1.1" id="system-file-manager_x5F_alt"
	 xmlns="http://www.w3.org/2000/svg" xmlns:xlink="http://www.w3.org/1999/xlink" x="0px" y="0px" viewBox="0 0 120 120"
	 style="enable-background:new 0 0 120 120;" xml:space="preserve">
<style type="text/css">
	.st0{fill:none;}
</style>
<rect id="BG" class="st0" width="120" height="120"/>
<g>
	<path d="M81.3,19.2H38.8c-6.1,0-11.1,5-11.1,11.1v59.6c0,6,5,11,11.1,11h42.5c0.1,0,0.1,0,0.2,0c2.8,0,5.5-1.1,7.5-3.1
		c2.1-2.1,3.3-4.9,3.3-7.9V30.3C92.3,24.2,87.4,19.2,81.3,19.2z M35.6,64.5h49v25.3c0,1.8-1.4,3.2-3.2,3.2H38.8
		c-1.8,0-3.2-1.4-3.2-3.2V64.5z M38.8,27h42.5c1.8,0,3.2,1.4,3.2,3.2v25.2h-49V30.3C35.6,28.5,37,27,38.8,27z"/>
	<path d="M63.9,46.2h-7.8c-2.5,0-4.5-2-4.5-4.5v0c0-2.5,2-4.5,4.5-4.5h7.8c2.5,0,4.5,2,4.5,4.5v0C68.4,44.2,66.4,46.2,63.9,46.2z"/>
	<path d="M63.9,82.8h-7.8c-2.5,0-4.5-2-4.5-4.5v0c0-2.5,2-4.5,4.5-4.5h7.8c2.5,0,4.5,2,4.5,4.5v0C68.4,80.8,66.4,82.8,63.9,82.8z"/>
</g>
</svg>
