<?xml version="1.0" encoding="utf-8"?>
<!-- Generator: Adobe Illustrator 28.2.0, SVG Export Plug-In . SVG Version: 6.00 Build 0)  -->
<svg version="1.1" id="system-software-update" xmlns="http://www.w3.org/2000/svg" xmlns:xlink="http://www.w3.org/1999/xlink"
	 x="0px" y="0px" viewBox="0 0 120 120" style="enable-background:new 0 0 120 120;" xml:space="preserve">
<style type="text/css">
	.st0{fill:none;}
</style>
<rect id="BG" class="st0" width="120" height="120"/>
<path d="M62.1,102h-4.1c-4.2,0-7.6-3.4-7.6-7.6v-5.8c-1.3-0.4-2.5-1-3.8-1.6l-4.1,4.1c-3,3-7.8,3-10.7,0l-2.9-2.9
	c-1.4-1.4-2.2-3.3-2.2-5.4s0.8-3.9,2.2-5.4l4.1-4.1c-0.6-1.2-1.1-2.5-1.6-3.8h-5.8c-4.2,0-7.6-3.4-7.6-7.6v-4.1
	c0-4.2,3.4-7.6,7.6-7.6h5.8c0.4-1.3,1-2.5,1.6-3.8l-4.1-4.1c-1.4-1.4-2.2-3.3-2.2-5.4c0-2,0.8-3.9,2.2-5.4l2.9-2.9c3-3,7.8-3,10.7,0
	l4.1,4.1c1.2-0.6,2.5-1.1,3.8-1.6v-5.8c0-4.2,3.4-7.6,7.6-7.6h4.1c4.2,0,7.6,3.4,7.6,7.6v5.8c1.3,0.4,2.5,1,3.8,1.6l4.1-4.1
	c1.4-1.4,3.3-2.2,5.4-2.2s3.9,0.8,5.4,2.2l2.9,2.9c3,3,3,7.8,0,10.7L87,46.6c0.6,1.2,1.1,2.5,1.6,3.8h5.8c4.2,0,7.6,3.4,7.6,7.6v4.1
	c0,4.2-3.4,7.6-7.6,7.6h-5.8c-0.4,1.3-1,2.5-1.6,3.8l4.1,4.1c3,3,3,7.8,0,10.7l-2.9,2.9c-3,3-7.8,3-10.7,0L73.4,87
	c-1.2,0.6-2.5,1.1-3.8,1.6v5.8C69.6,98.5,66.2,102,62.1,102z M45.5,78.3l2.4,1.5c2.1,1.3,4.4,2.3,6.8,2.8l2.7,0.6v11.2
	c0,0.3,0.3,0.6,0.6,0.6h4.1c0.3,0,0.6-0.3,0.6-0.6V83.2l2.7-0.6c2.4-0.6,4.7-1.5,6.8-2.8l2.4-1.5l7.9,7.9c0.2,0.2,0.6,0.2,0.8,0
	l2.9-2.9c0.2-0.2,0.2-0.6,0-0.8l-7.9-7.9l1.5-2.4c1.3-2.1,2.3-4.4,2.8-6.8l0.6-2.7h11.2c0.3,0,0.6-0.3,0.6-0.6v-4.1
	c0-0.3-0.3-0.6-0.6-0.6H83.2l-0.6-2.7c-0.6-2.4-1.5-4.7-2.8-6.8l-1.5-2.4l7.9-7.9c0.2-0.2,0.2-0.6,0-0.8l-2.9-2.9
	c-0.3-0.3-0.5-0.3-0.8,0l-7.9,7.9l-2.4-1.5c-2.1-1.3-4.4-2.3-6.8-2.8l-2.7-0.6V25.6c0-0.3-0.3-0.6-0.6-0.6h-4.1
	c-0.3,0-0.6,0.3-0.6,0.6v11.2l-2.7,0.6c-2.4,0.6-4.7,1.5-6.8,2.8l-2.4,1.5l-7.9-7.9c-0.2-0.2-0.6-0.2-0.8,0l-2.9,2.9
	c-0.1,0.1-0.2,0.3-0.2,0.4c0,0.1,0,0.3,0.2,0.4l7.9,7.9l-1.5,2.4c-1.3,2.1-2.3,4.4-2.8,6.8l-0.6,2.7H25.6c-0.3,0-0.6,0.3-0.6,0.6
	v4.1c0,0.3,0.3,0.6,0.6,0.6h11.2l0.6,2.7c0.6,2.4,1.5,4.7,2.8,6.8l1.5,2.4l-7.9,7.9c-0.1,0.1-0.2,0.3-0.2,0.4s0,0.3,0.2,0.4l2.9,2.9
	c0.2,0.2,0.6,0.2,0.8,0L45.5,78.3z M60,74.4c-3.8,0-7.4-1.5-10.2-4.2c-3.3-3.3-4.8-7.9-4-12.6c1-6,5.8-10.8,11.8-11.8
	c4.7-0.8,9.3,0.7,12.6,4c3.3,3.3,4.8,7.9,4,12.6c-1,6-5.8,10.8-11.8,11.8l0,0C61.6,74.4,60.8,74.4,60,74.4z M60,52.6
	c-0.4,0-0.9,0-1.3,0.1c-3.1,0.5-5.5,3-6,6c-0.4,2.4,0.4,4.8,2.1,6.5c1.7,1.7,4.1,2.5,6.5,2.1l0,0c3.1-0.5,5.5-3,6-6
	c0.4-2.4-0.4-4.8-2.1-6.5C63.8,53.3,62,52.6,60,52.6z"/>
</svg>
