<?xml version="1.0" encoding="utf-8"?>
<!-- Generator: Adobe Illustrator 28.2.0, SVG Export Plug-In . SVG Version: 6.00 Build 0)  -->
<svg version="1.1" id="system-software-update.filled"
	 xmlns="http://www.w3.org/2000/svg" xmlns:xlink="http://www.w3.org/1999/xlink" x="0px" y="0px" viewBox="0 0 120 120"
	 style="enable-background:new 0 0 120 120;" xml:space="preserve">
<style type="text/css">
	.st0{fill:none;}
</style>
<rect id="BG" class="st0" width="120" height="120"/>
<path d="M94.4,50.4h-5.8c-0.4-1.3-1-2.5-1.6-3.8l4.1-4.1c3-3,3-7.8,0-10.7l-2.9-2.9c-1.4-1.4-3.3-2.2-5.4-2.2s-3.9,0.8-5.4,2.2
	L73.4,33c-1.2-0.6-2.5-1.1-3.8-1.6v-5.8c0-4.2-3.4-7.6-7.6-7.6h-4.1c-4.2,0-7.6,3.4-7.6,7.6v5.8c-1.3,0.4-2.5,1-3.8,1.6l-4.1-4.1
	c-3-3-7.8-3-10.7,0l-2.9,2.9c-1.4,1.4-2.2,3.3-2.2,5.4c0,2,0.8,3.9,2.2,5.4l4.1,4.1c-0.6,1.2-1.1,2.5-1.6,3.8h-5.8
	c-4.2,0-7.6,3.4-7.6,7.6v4.1c0,4.2,3.4,7.6,7.6,7.6h5.8c0.4,1.3,1,2.5,1.6,3.8l-4.1,4.1c-1.4,1.4-2.2,3.3-2.2,5.4s0.8,3.9,2.2,5.4
	l2.9,2.9c3,3,7.8,3,10.7,0l4.1-4.1c1.2,0.6,2.5,1.1,3.8,1.6v5.8c0,4.2,3.4,7.6,7.6,7.6h4.1c4.2,0,7.6-3.4,7.6-7.6v-5.8
	c1.3-0.4,2.5-1,3.8-1.6l4.1,4.1c3,3,7.8,3,10.7,0l2.9-2.9c3-3,3-7.8,0-10.7L87,73.4c0.6-1.2,1.1-2.5,1.6-3.8h5.8
	c4.2,0,7.6-3.4,7.6-7.6v-4.1C102,53.8,98.5,50.4,94.4,50.4z M74.2,62.4c-1,6-5.8,10.8-11.8,11.8c-0.8,0.1-1.6,0.2-2.4,0.2
	c-3.8,0-7.4-1.5-10.2-4.2c-3.3-3.3-4.8-7.9-4-12.6c1-6,5.8-10.8,11.8-11.8c4.7-0.8,9.3,0.7,12.6,4C73.5,53.1,75,57.7,74.2,62.4z"/>
</svg>
