<?xml version="1.0" encoding="utf-8"?>
<!-- Generator: Adobe Illustrator 28.2.0, SVG Export Plug-In . SVG Version: 6.00 Build 0)  -->
<svg version="1.1" id="system-file-manager_x5F_alt"
	 xmlns="http://www.w3.org/2000/svg" xmlns:xlink="http://www.w3.org/1999/xlink" x="0px" y="0px" viewBox="0 0 120 120"
	 style="enable-background:new 0 0 120 120;" xml:space="preserve">
<style type="text/css">
	.st0{fill:none;}
</style>
<rect id="BG" class="st0" width="120" height="120"/>
<g>
	<path d="M84,14.9H36.6c-6.5,0-11.9,5.3-11.9,11.9v66.4c0,6.5,5.3,11.8,11.9,11.8H84c6.5,0.1,11.8-5.3,11.8-11.8V26.8
		C95.8,20.3,90.5,14.9,84,14.9z M36.6,22.8H38h17.6h9.3h17.6H84c2.2,0,4,1.8,4,4v28.5H32.6V26.8C32.6,24.6,34.4,22.8,36.6,22.8z
		 M84,97.2h-1.5H64.9h-9.3H38h-1.4c-2.2,0-4-1.8-4-4V64.6H88v28.6C88,95.4,86.2,97.2,84,97.2z"/>
	<path d="M64.6,44.6h-8.7c-2.8,0-5-2.2-5-5v0c0-2.8,2.2-5,5-5h8.7c2.8,0,5,2.2,5,5v0C69.6,42.3,67.4,44.6,64.6,44.6z"/>
	<path d="M64.6,85.3h-8.7c-2.8,0-5-2.2-5-5v0c0-2.8,2.2-5,5-5h8.7c2.8,0,5,2.2,5,5v0C69.6,83.1,67.4,85.3,64.6,85.3z"/>
</g>
</svg>
