<?xml version="1.0" encoding="utf-8"?>
<!-- Generator: Adobe Illustrator 28.2.0, SVG Export Plug-In . SVG Version: 6.00 Build 0)  -->
<svg version="1.1" xmlns="http://www.w3.org/2000/svg" xmlns:xlink="http://www.w3.org/1999/xlink" x="0px" y="0px"
	 viewBox="0 0 40 40" style="enable-background:new 0 0 40 40;" xml:space="preserve">
<g id="BG">
</g>
<g id="utilities-terminal">
	<g>
		<path d="M31.1,10.6c0.8,0,1.5,0.7,1.5,1.5v15.8c0,0.8-0.7,1.5-1.5,1.5H8.9c-0.8,0-1.5-0.7-1.5-1.5V12.1c0-0.8,0.7-1.5,1.5-1.5
			H31.1 M31.1,8.4H8.9c-2.1,0-3.7,1.7-3.7,3.7v15.8c0,2.1,1.7,3.7,3.7,3.7h22.1c2.1,0,3.7-1.7,3.7-3.7V12.1
			C34.8,10,33.1,8.4,31.1,8.4L31.1,8.4z"/>
		<path d="M11.2,19.6c-0.1,0.1-0.2,0.1-0.4,0.2c-0.1,0-0.2,0-0.4,0c-0.1-0.1-0.3-0.2-0.4-0.4c-0.1-0.2-0.2-0.4-0.2-0.5
			c0-0.1,0.1-0.2,0.1-0.3c0.1-0.1,0.2-0.2,0.3-0.2l3.3-2l-3.3-2c-0.1-0.1-0.2-0.2-0.3-0.2c-0.1-0.1-0.1-0.2-0.1-0.3s0.1-0.3,0.2-0.5
			c0.1-0.2,0.3-0.4,0.4-0.4c0.1-0.1,0.2-0.1,0.4,0c0.1,0,0.2,0.1,0.3,0.2l4.4,2.7c0.1,0,0.2,0.1,0.2,0.2c0.1,0.1,0.1,0.3,0.1,0.5
			c0,0.2,0,0.3-0.1,0.4s-0.2,0.2-0.3,0.3L11.2,19.6z"/>
		<path d="M16.2,20.3c-0.1,0-0.2,0-0.2,0c-0.1,0-0.1-0.1-0.2-0.2c0-0.1-0.1-0.3-0.1-0.5c0-0.2,0-0.4,0.1-0.5c0-0.1,0.1-0.2,0.2-0.2
			c0.1,0,0.2,0,0.2,0h5.5c0.1,0,0.2,0,0.2,0c0.1,0,0.1,0.1,0.2,0.2c0,0.1,0.1,0.3,0.1,0.5c0,0.2,0,0.4-0.1,0.5
			c0,0.1-0.1,0.2-0.2,0.2c-0.1,0-0.2,0-0.2,0H16.2z"/>
	</g>
</g>
</svg>
