<?xml version="1.0" encoding="utf-8"?>
<!-- Generator: Adobe Illustrator 28.2.0, SVG Export Plug-In . SVG Version: 6.00 Build 0)  -->
<svg version="1.1" id="utilities-terminal-filled" xmlns="http://www.w3.org/2000/svg" xmlns:xlink="http://www.w3.org/1999/xlink"
	 x="0px" y="0px" viewBox="0 0 120 120" style="enable-background:new 0 0 120 120;" xml:space="preserve">
<style type="text/css">
	.st0{fill:none;}
</style>
<rect id="BG" y="0" class="st0" width="120" height="120"/>
<path d="M93.2,25.1H26.8c-6.2,0-11.2,5-11.2,11.3v47.4c0,6.2,5,11.2,11.2,11.2h66.4c6.2,0,11.2-5,11.2-11.2V36.3
	C104.5,30.1,99.4,25.1,93.2,25.1L93.2,25.1z M33.5,58.7c-0.4,0.2-0.7,0.4-1.1,0.5c-0.4,0.1-0.7,0.1-1.1-0.1
	c-0.4-0.2-0.8-0.6-1.2-1.2s-0.6-1.2-0.6-1.6c0-0.4,0.1-0.8,0.4-1c0.3-0.2,0.6-0.5,0.9-0.7l10-6.1L31,42.4c-0.4-0.2-0.7-0.5-1-0.8
	c-0.3-0.3-0.4-0.6-0.4-1c0-0.4,0.2-0.9,0.5-1.6c0.4-0.7,0.8-1.1,1.2-1.3c0.4-0.2,0.8-0.2,1.1-0.1c0.4,0.1,0.7,0.3,1,0.5l13.3,8.2
	c0.2,0.1,0.5,0.3,0.8,0.6c0.3,0.3,0.4,0.8,0.4,1.4c0,0.5-0.1,0.9-0.4,1.3c-0.2,0.4-0.5,0.6-0.8,0.8L33.5,58.7L33.5,58.7z M66.3,60.1
	c-0.2,0.3-0.3,0.4-0.6,0.5c-0.2,0.1-0.5,0.1-0.7,0.1H48.7c-0.2,0-0.5,0-0.7-0.1c-0.2-0.1-0.4-0.2-0.6-0.5c-0.2-0.3-0.2-0.8-0.2-1.5
	s0.1-1.2,0.2-1.5c0.1-0.3,0.3-0.5,0.6-0.5c0.2-0.1,0.4-0.1,0.7-0.1h16.4c0.2,0,0.5,0,0.7,0.1c0.2,0.1,0.4,0.2,0.5,0.5
	c0.2,0.3,0.2,0.8,0.2,1.5C66.5,59.4,66.5,59.9,66.3,60.1L66.3,60.1z"/>
</svg>
