<?xml version="1.0" encoding="utf-8"?>
<!-- Generator: Adobe Illustrator 28.2.0, SVG Export Plug-In . SVG Version: 6.00 Build 0)  -->
<svg version="1.1" xmlns="http://www.w3.org/2000/svg" xmlns:xlink="http://www.w3.org/1999/xlink" x="0px" y="0px"
	 viewBox="0 0 40 40" style="enable-background:new 0 0 40 40;" xml:space="preserve">
<g id="BG">
</g>
<g id="Utilities-system-monitor">
	<path d="M31.1,8.4H8.9c-2.1,0-3.7,1.7-3.7,3.7v15.8c0,2.1,1.7,3.7,3.7,3.7h22.1c2.1,0,3.7-1.7,3.7-3.7V12.1
		C34.8,10,33.1,8.4,31.1,8.4z M32.6,27.9c0,0.8-0.7,1.5-1.5,1.5H8.9c-0.8,0-1.5-0.7-1.5-1.5v-6.7h4c0.5,0,0.9-0.3,1.1-0.8l0.8-2.4
		l1.9,8c0.1,0.5,0.6,0.8,1.1,0.9c0,0,0,0,0,0c0.5,0,0.9-0.3,1.1-0.8l1.9-6.4l1.5,3.4c0.1,0.3,0.5,0.6,0.8,0.7c0.4,0.1,0.7,0,1-0.3
		l2.8-2.7h7.3V27.9z M32.6,18.4h-7.7c-0.3,0-0.6,0.1-0.8,0.3l-1.9,1.9l-2.1-4.7c-0.2-0.4-0.6-0.7-1.1-0.7c-0.5,0-0.9,0.3-1,0.8
		l-1.6,5.4l-1.9-7.9c-0.1-0.5-0.5-0.8-1.1-0.9c-0.5,0-1,0.3-1.1,0.8L10.6,19H7.4v-6.8c0-0.8,0.7-1.5,1.5-1.5h22.1
		c0.8,0,1.5,0.7,1.5,1.5V18.4z"/>
</g>
</svg>
