<?xml version="1.0" encoding="utf-8"?>
<!-- Generator: Adobe Illustrator 28.2.0, SVG Export Plug-In . SVG Version: 6.00 Build 0)  -->
<svg version="1.1" id="utilities-terminal" xmlns="http://www.w3.org/2000/svg" xmlns:xlink="http://www.w3.org/1999/xlink" x="0px"
	 y="0px" viewBox="0 0 120 120" style="enable-background:new 0 0 120 120;" xml:space="preserve">
<style type="text/css">
	.st0{fill:none;}
</style>
<rect id="BG" y="0" class="st0" width="120" height="120"/>
<g>
	<path d="M93.2,24.5L93.2,24.5H26.8c-6.5,0-11.9,5.3-11.9,11.9v47.4c0,6.5,5.3,11.8,11.9,11.8h66.4c6.5,0,11.8-5.3,11.8-11.8V36.3
		C105.1,29.8,99.8,24.5,93.2,24.5z M97.2,83.8c0,2.2-1.8,4-4,4H26.8c-2.2,0-4-1.8-4-4V36.3c0-2.2,1.8-4,4-4h66.4c2.2,0,4,1.8,4,4
		V83.8z"/>
	<path d="M47,51c0.4-0.2,0.7-0.5,1-1c0.3-0.5,0.5-1,0.5-1.6c0-0.8-0.2-1.4-0.5-1.8c-0.3-0.3-0.6-0.6-0.9-0.7l-13.3-8.2
		c-0.4-0.2-0.7-0.4-1.2-0.6c-0.5-0.2-1-0.1-1.6,0.1c-0.5,0.2-0.9,0.7-1.4,1.5c-0.4,0.8-0.6,1.4-0.6,1.9c0,0.6,0.2,1,0.6,1.4
		c0.3,0.3,0.7,0.6,1.1,0.8l9.1,5.5l-9.1,5.6c-0.3,0.2-0.7,0.5-1,0.8c-0.4,0.4-0.6,0.9-0.6,1.4c0,0.6,0.2,1.2,0.7,2
		c0.4,0.7,0.9,1.2,1.5,1.5c0.3,0.1,0.6,0.2,0.8,0.2c0.2,0,0.5,0,0.7-0.1c0.3-0.1,0.7-0.3,1.1-0.5l0.3-0.2l0.3-0.2l0,0L47,51z"/>
	<path d="M66,56.1C65.7,56,65.4,56,65.1,56H48.7c-0.3,0-0.5,0-0.8,0.1c-0.4,0.1-0.7,0.4-1,0.9c-0.2,0.4-0.3,0.9-0.3,1.8
		c0,0.8,0.1,1.4,0.3,1.7c0.2,0.4,0.6,0.7,0.9,0.8c0.1,0,0.2,0,0.3,0.1v0.1h17c0.3,0,0.6,0,0.9-0.1l0,0c0.4-0.2,0.7-0.4,0.9-0.8
		c0.2-0.4,0.3-0.9,0.3-1.7c0-0.9-0.1-1.4-0.3-1.8C66.7,56.5,66.4,56.2,66,56.1z"/>
</g>
</svg>
