<?xml version="1.0" encoding="utf-8"?>
<!-- Generator: Adobe Illustrator 28.2.0, SVG Export Plug-In . SVG Version: 6.00 Build 0)  -->
<svg version="1.1" xmlns="http://www.w3.org/2000/svg" xmlns:xlink="http://www.w3.org/1999/xlink" x="0px" y="0px"
	 viewBox="0 0 40 40" style="enable-background:new 0 0 40 40;" xml:space="preserve">
<g id="BG">
</g>
<g id="Utilities-system-monitor_filled">
	<path d="M31.1,8.4H8.9c-2.1,0-3.7,1.7-3.7,3.7v15.8c0,2.1,1.7,3.7,3.7,3.7h22.1c2.1,0,3.7-1.7,3.7-3.7V12.1
		C34.8,10,33.1,8.4,31.1,8.4z M32.6,20.6h-7.3l-2.8,2.7c-0.3,0.3-0.6,0.4-1,0.3c-0.4-0.1-0.7-0.3-0.8-0.7l-1.5-3.4l-1.9,6.4
		c-0.1,0.5-0.6,0.8-1.1,0.8c0,0,0,0,0,0c-0.5,0-0.9-0.4-1.1-0.9l-1.9-8l-0.8,2.4c-0.1,0.5-0.6,0.8-1.1,0.8h-4V19h3.2l1.7-5.5
		c0.2-0.5,0.6-0.8,1.1-0.8c0.5,0,0.9,0.4,1.1,0.9l1.9,7.9l1.6-5.4c0.1-0.5,0.5-0.8,1-0.8c0.5,0,0.9,0.2,1.1,0.7l2.1,4.7l1.9-1.9
		c0.2-0.2,0.5-0.3,0.8-0.3h7.7V20.6z"/>
</g>
</svg>
