<?xml version="1.0" encoding="utf-8"?>
<!-- Generator: Adobe Illustrator 28.2.0, SVG Export Plug-In . SVG Version: 6.00 Build 0)  -->
<svg version="1.1" id="utilities-system-monitor" xmlns="http://www.w3.org/2000/svg" xmlns:xlink="http://www.w3.org/1999/xlink"
	 x="0px" y="0px" viewBox="0 0 120 120" style="enable-background:new 0 0 120 120;" xml:space="preserve">
<style type="text/css">
	.st0{fill:none;}
</style>
<rect y="0" class="st0" width="120" height="120"/>
<path d="M93.2,24.1H26.8c-6.7,0-12.2,5.5-12.2,12.2v47.4c0,6.7,5.5,12.1,12.2,12.1h66.4c6.7,0,12.1-5.5,12.1-12.1V36.3
	C105.3,29.6,99.9,24.1,93.2,24.1z M96.9,54.2H74.6c-1.1,0-2.2,0.4-3,1.2l-4.9,4.8L61,47.4c-0.7-1.6-2.4-2.7-4.2-2.5
	c-1.8,0.1-3.3,1.3-3.8,3l-3.8,12.8l-4.9-20.4c-0.5-1.8-2.1-3.2-4-3.3c-0.1,0-0.1,0-0.2,0c-1.8,0-3.5,1.2-4.1,3l-5,15.9h-8V36.3
	c0-2,1.7-3.7,3.7-3.7h66.4c2,0,3.7,1.7,3.7,3.7V54.2z M23.1,64.5h11.1c1.9,0,3.5-1.2,4.1-3l1.3-4.2l5,20.8c0.5,1.9,2.1,3.2,4,3.3
	c0,0,0.1,0,0.1,0c1.9,0,3.6-1.3,4.1-3l5-16.9l3.5,7.8c0.6,1.3,1.7,2.2,3.1,2.5c1.4,0.3,2.8-0.2,3.8-1.1l8-7.8h20.6v20.5
	c0,0.1,0,0.1,0,0.2v0.3c0,2-1.7,3.7-3.7,3.7H26.8c-2,0-3.7-1.7-3.7-3.7V64.5z"/>
</svg>
