<?xml version="1.0" encoding="utf-8"?>
<!-- Generator: Adobe Illustrator 28.2.0, SVG Export Plug-In . SVG Version: 6.00 Build 0)  -->
<svg version="1.1" id="audio-volume-muted.filled" xmlns="http://www.w3.org/2000/svg" xmlns:xlink="http://www.w3.org/1999/xlink"
	 x="0px" y="0px" viewBox="0 0 120 120" style="enable-background:new 0 0 120 120;" xml:space="preserve">
<style type="text/css">
	.st0{fill:none;}
</style>
<rect id="BG" class="st0" width="120" height="120"/>
<g>
	<path d="M50.1,44.2l26.4,26.4l0-0.1V37.3c0-4-3.2-7.2-7.2-7.2c-1.7,0-3.4,0.6-4.7,1.7L50.2,44.2L50.1,44.2L50.1,44.2L50.1,44.2z"/>
	<path d="M33.3,47.7L33.3,47.7c-0.7,1.1-1.1,2.3-1.1,3.7v17.3c0,4,3.2,7.2,7.2,7.2h11.2l14,12c1.3,1.1,3,1.7,4.7,1.7
		c1.6,0,3.1-0.6,4.4-1.5l0-0.1L33.3,47.7z"/>
	<path d="M88.7,91.1L86.9,93c-1.1,1.1-3,1.1-4.1,0l-58-58c-1.1-1.1-1.1-3,0-4.1l1.8-1.8c1.1-1.1,3-1.1,4.1,0l58,58
		C89.8,88.2,89.8,90,88.7,91.1z"/>
</g>
</svg>
