<?xml version="1.0" encoding="utf-8"?>
<!-- Generator: Adobe Illustrator 28.2.0, SVG Export Plug-In . SVG Version: 6.00 Build 0)  -->
<svg version="1.1" id="audio-volume-high" xmlns="http://www.w3.org/2000/svg" xmlns:xlink="http://www.w3.org/1999/xlink" x="0px"
	 y="0px" viewBox="0 0 120 120" style="enable-background:new 0 0 120 120;" xml:space="preserve">
<style type="text/css">
	.st0{fill:none;}
</style>
<rect id="BG" class="st0" width="120" height="120"/>
<g>
	<path d="M49.9,30.2c-1.7,0-3.4,0.6-4.7,1.7L30.8,44.3H20c-4,0-7.2,3.2-7.2,7.2v17.3c0,4,3.2,7.2,7.2,7.2h11.2l14,12
		c1.3,1.1,3,1.7,4.7,1.7c4,0,7.2-3.2,7.2-7.2V37.4C57.1,33.4,53.9,30.2,49.9,30.2z"/>
	<g>
		<path d="M100.5,60.8c0,9.4-3.4,18.1-9,24.8c-1.6,1.9-0.2,4.9,2.3,4.9l0,0c0.9,0,1.7-0.4,2.3-1c6.5-7.8,10.4-17.8,10.4-28.6
			c0-11.7-4.5-22.4-11.9-30.4c-0.6-0.6-1.4-0.9-2.2-0.9l0,0c-2.6,0-4,3.1-2.2,5C96.6,41.4,100.5,50.6,100.5,60.8z"/>
	</g>
	<g>
		<path d="M69.9,60.8c0,3-0.9,5.9-2.4,8.2c-1.3,2,0,4.6,2.4,4.6H70c1,0,1.9-0.5,2.5-1.3c2.2-3.3,3.4-7.2,3.4-11.5
			c0-5.1-1.8-9.7-4.8-13.3c-0.6-0.7-1.4-1.1-2.3-1.1h-0.2c-2.4,0-3.9,2.9-2.3,4.7C68.6,53.7,69.9,57.1,69.9,60.8z"/>
	</g>
	<g>
		<path d="M85.8,60.8c0,6.2-2.2,11.9-5.8,16.4c-1.6,1.9-0.2,4.8,2.3,4.8h0.1c0.9,0,1.7-0.4,2.2-1c4.5-5.5,7.2-12.5,7.2-20.2
			c0-8.5-3.3-16.2-8.7-21.9C82.6,38.3,81.8,38,81,38h-0.1c-2.6,0-3.9,3.1-2.1,5C83.2,47.7,85.8,53.9,85.8,60.8z"/>
	</g>
</g>
</svg>
