<?xml version="1.0" encoding="utf-8"?>
<!-- Generator: Adobe Illustrator 28.2.0, SVG Export Plug-In . SVG Version: 6.00 Build 0)  -->
<svg version="1.1" id="battery-caution.filled" xmlns="http://www.w3.org/2000/svg" xmlns:xlink="http://www.w3.org/1999/xlink"
	 x="0px" y="0px" viewBox="0 0 120 120" style="enable-background:new 0 0 120 120;" xml:space="preserve">
<style type="text/css">
	.st0{fill:none;}
</style>
<rect id="BG" class="st0" width="120" height="120"/>
<g>
	<path d="M53.7,70c-0.8,0-1.4,0.1-1.7,0.3s-0.5,0.5-0.6,0.9c-0.1,0.4-0.1,0.8-0.1,1.2c0,0.9,0.2,1.5,0.5,1.9c0.4,0.3,1,0.5,2,0.5
		c0.7,0,1.3-0.1,1.6-0.3c0.3-0.2,0.5-0.5,0.6-0.9c0.1-0.3,0.1-0.7,0.1-1.2c0-0.9-0.2-1.5-0.5-1.9C55.3,70.2,54.7,70,53.7,70z"/>
	<path d="M52.2,66.9c0.3,0.2,0.8,0.3,1.5,0.3s1.2-0.1,1.5-0.3s0.5-0.4,0.6-0.7c0.1-0.3,0.1-0.6,0.1-1V51.7c0-0.3,0-0.7-0.1-1
		c-0.1-0.3-0.3-0.5-0.6-0.7c-0.3-0.2-0.8-0.3-1.5-0.3s-1.2,0.1-1.5,0.3c-0.3,0.2-0.5,0.4-0.6,0.7c-0.1,0.3-0.1,0.6-0.1,1v13.5
		c0,0.4,0,0.7,0.1,1C51.7,66.5,51.9,66.7,52.2,66.9z"/>
	<path d="M94.9,32.1H12.5c-6.7,0-12.1,5.4-12.1,12.1V77c0.1,6.7,5.5,12,12.1,12h82.4c6.7,0,12.1-5.4,12.1-12.1V44.1
		C106.9,37.5,101.5,32.1,94.9,32.1z M72.4,78.4H53.8H35.2c-2,0-3.2-2.1-2.2-3.8l18.5-31.8c1-1.7,3.4-1.7,4.4,0l18.6,31.8
		C75.5,76.3,74.2,78.4,72.4,78.4z"/>
	<path d="M119.2,60.6c0-4.7-3.2-8.6-7.5-9.7v19.4C116,69.2,119.2,65.2,119.2,60.6z"/>
</g>
</svg>
