<?xml version="1.0" encoding="utf-8"?>
<!-- Generator: Adobe Illustrator 28.2.0, SVG Export Plug-In . SVG Version: 6.00 Build 0)  -->
<svg version="1.1" id="battery-caution" xmlns="http://www.w3.org/2000/svg" xmlns:xlink="http://www.w3.org/1999/xlink" x="0px"
	 y="0px" viewBox="0 0 120 120" style="enable-background:new 0 0 120 120;" xml:space="preserve">
<style type="text/css">
	.st0{fill:none;}
</style>
<rect id="BG" class="st0" width="120" height="120"/>
<g>
	<path d="M94.9,39.1c2.8,0,5.1,2.3,5.1,5.1V77c0,2.8-2.3,5.1-5.1,5.1H12.5c-2.8,0-5.1-2.3-5.1-5.1V44.1c0-2.8,2.3-5.1,5.1-5.1
		L94.9,39.1 M94.9,32.1H12.5c-6.7,0-12.1,5.4-12.1,12.1V77c0.1,6.7,5.5,12,12.1,12h82.4c6.7,0,12.1-5.4,12.1-12.1V44.1
		C106.9,37.5,101.5,32.1,94.9,32.1L94.9,32.1z"/>
	<path d="M119.2,60.6c0-4.7-3.2-8.6-7.5-9.7v19.4C116,69.2,119.2,65.2,119.2,60.6z"/>
	<path d="M74.5,74.6L55.9,42.8c-1-1.7-3.4-1.7-4.4,0L33,74.6c-1,1.7,0.2,3.8,2.2,3.8h18.6h18.6C74.2,78.4,75.5,76.3,74.5,74.6z
		 M51.5,51.7c0-0.4,0-0.7,0.1-1s0.3-0.5,0.6-0.7s0.8-0.3,1.5-0.3s1.2,0.1,1.5,0.3c0.3,0.2,0.5,0.4,0.6,0.7c0.1,0.3,0.1,0.7,0.1,1
		v13.5c0,0.4,0,0.7-0.1,1s-0.3,0.5-0.6,0.7s-0.8,0.3-1.5,0.3s-1.2-0.1-1.5-0.3c-0.3-0.2-0.5-0.4-0.6-0.7c-0.1-0.3-0.1-0.6-0.1-1
		V51.7z M56,73.6c-0.1,0.4-0.3,0.7-0.6,0.9c-0.3,0.2-0.9,0.3-1.6,0.3c-1,0-1.6-0.2-2-0.5c-0.3-0.4-0.5-1-0.5-1.9
		c0-0.4,0-0.8,0.1-1.2c0.1-0.4,0.3-0.7,0.6-0.9c0.3-0.2,0.9-0.3,1.7-0.3c1,0,1.6,0.2,1.9,0.5c0.3,0.4,0.5,1,0.5,1.9
		C56.1,72.9,56.1,73.3,56,73.6z"/>
</g>
</svg>
