<?xml version="1.0" encoding="utf-8"?>
<!-- Generator: Adobe Illustrator 28.2.0, SVG Export Plug-In . SVG Version: 6.00 Build 0)  -->
<svg version="1.1" id="Dialog-warning" xmlns="http://www.w3.org/2000/svg" xmlns:xlink="http://www.w3.org/1999/xlink" x="0px"
	 y="0px" viewBox="0 0 120 120" style="enable-background:new 0 0 120 120;" xml:space="preserve">
<style type="text/css">
	.st0{fill:none;}
</style>
<rect id="BG" class="st0" width="120" height="120"/>
<path d="M103.9,86.1L67.9,24.6c-1.7-2.9-4.6-4.6-7.9-4.6c0,0,0,0,0,0c-3.3,0-6.3,1.7-7.9,4.6L16.1,86.1c-1.7,2.9-1.7,6.3,0,9.2
	c1.7,2.9,4.6,4.6,8,4.6h71.9c3.3,0,6.3-1.7,8-4.6C105.6,92.4,105.6,89,103.9,86.1z M55.6,45.8c0-0.8,0.1-1.4,0.2-2
	c0.1-0.7,0.6-1.3,1.2-1.7c0.6-0.4,1.5-0.6,2.9-0.6h0.6c0.9,0.1,1.7,0.3,2.2,0.6c0.6,0.4,1,1,1.2,1.7c0.1,0.6,0.2,1.3,0.2,2v22.8
	c0,0.8-0.1,1.4-0.2,2c-0.2,0.7-0.6,1.3-1.3,1.7c-0.6,0.4-1.5,0.6-2.8,0.6c-1.3,0-2.2-0.2-2.8-0.6c-0.7-0.4-1.1-1-1.2-1.7
	c-0.1-0.6-0.2-1.3-0.2-2.1V45.8z M64.2,84.4c-0.2,0.8-0.7,1.4-1.4,1.8c-0.6,0.4-1.6,0.6-3,0.6c-1.4,0-2.4-0.2-3-0.6
	c-0.6-0.4-1-1-1.1-1.8c-0.2-0.7-0.3-1.4-0.3-2.2s0.1-1.5,0.3-2.2c0.2-0.8,0.6-1.4,1.3-1.8c0.6-0.4,1.6-0.6,3-0.6
	c1.4,0,2.4,0.2,3,0.6c0.7,0.4,1.1,1,1.3,1.8c0.1,0.7,0.2,1.4,0.2,2.2S64.4,83.7,64.2,84.4z"/>
</svg>
