<?xml version="1.0" encoding="utf-8"?>
<!-- Generator: Adobe Illustrator 28.2.0, SVG Export Plug-In . SVG Version: 6.00 Build 0)  -->
<svg version="1.1" id="Dialog-warning" xmlns="http://www.w3.org/2000/svg" xmlns:xlink="http://www.w3.org/1999/xlink" x="0px"
	 y="0px" viewBox="0 0 120 120" style="enable-background:new 0 0 120 120;" xml:space="preserve">
<style type="text/css">
	.st0{fill:none;}
</style>
<rect id="BG" class="st0" width="120" height="120"/>
<g>
	<path d="M56.8,86.2c0.6,0.4,1.6,0.6,3,0.6s2.4-0.2,3-0.6c0.7-0.4,1.2-1,1.4-1.8c0.2-0.7,0.3-1.4,0.3-2.2c0-0.8-0.1-1.5-0.2-2.2l0,0
		c-0.2-0.8-0.6-1.4-1.3-1.8c-0.6-0.4-1.6-0.6-3-0.6s-2.4,0.2-3,0.6c-0.7,0.4-1.1,1-1.3,1.8c-0.2,0.7-0.3,1.4-0.3,2.2
		c0,0.8,0.1,1.5,0.3,2.2C55.8,85.2,56.2,85.8,56.8,86.2z"/>
	<path d="M57,72.3c0.6,0.4,1.5,0.6,2.8,0.6s2.2-0.2,2.8-0.6c0.7-0.4,1.1-1,1.3-1.7c0.1-0.6,0.2-1.2,0.2-2V45.8c0-0.7-0.1-1.4-0.2-2
		c-0.2-0.7-0.6-1.3-1.2-1.7l0,0c-0.5-0.3-1.3-0.5-2.2-0.6l0,0h-0.6c-1.4,0-2.3,0.2-2.9,0.6c-0.6,0.4-1.1,1-1.2,1.7
		c-0.1,0.6-0.2,1.2-0.2,2v22.7c0,0.8,0.1,1.5,0.2,2.1C55.9,71.3,56.3,71.9,57,72.3z"/>
	<path d="M95.9,99.9H24.1c-3.3,0-6.3-1.7-8-4.6c-1.7-2.9-1.6-6.3,0-9.2l35.9-61.5c1.7-2.9,4.6-4.6,7.9-4.6c0,0,0,0,0,0
		c3.3,0,6.3,1.7,7.9,4.6l35.9,61.5c1.7,2.9,1.7,6.3,0,9.2C102.3,98.2,99.3,99.9,95.9,99.9z M60,28.7c-0.3,0-0.5,0.2-0.5,0.3
		L23.5,90.4c0,0.1-0.2,0.3,0,0.6c0.2,0.3,0.4,0.3,0.5,0.3h71.9c0.1,0,0.4,0,0.5-0.3s0-0.5,0-0.6L60.5,29
		C60.5,28.9,60.3,28.7,60,28.7L60,28.7z"/>
</g>
</svg>
