<?xml version="1.0" encoding="utf-8"?>
<!-- Generator: Adobe Illustrator 28.2.0, SVG Export Plug-In . SVG Version: 6.00 Build 0)  -->
<svg version="1.1" xmlns="http://www.w3.org/2000/svg" xmlns:xlink="http://www.w3.org/1999/xlink" x="0px" y="0px"
	 viewBox="0 0 40 40" style="enable-background:new 0 0 40 40;" xml:space="preserve">
<g id="BG">
</g>
<g id="dialog-information">
	<path d="M20,5.9C12.2,5.9,5.9,12.2,5.9,20S12.2,34.1,20,34.1c7.8,0,14.1-6.3,14.1-14.1S27.8,5.9,20,5.9z M21.2,26.1
		c0,0.2,0,0.4-0.1,0.6s-0.1,0.3-0.3,0.4c-0.2,0.1-0.5,0.2-0.9,0.2c-0.4,0-0.7-0.1-0.8-0.2c-0.2-0.1-0.3-0.3-0.3-0.5
		s-0.1-0.4-0.1-0.6v-7.6c0-0.2,0-0.4,0.1-0.6s0.2-0.3,0.3-0.4c0.2-0.1,0.5-0.2,0.8-0.2c0.4,0,0.7,0.1,0.8,0.2
		c0.2,0.1,0.3,0.3,0.3,0.5s0.1,0.4,0.1,0.7V26.1z M21.2,14.6c-0.1,0.2-0.2,0.4-0.3,0.5c-0.2,0.1-0.5,0.2-0.9,0.2
		c-0.4,0-0.7-0.1-0.9-0.2c-0.2-0.1-0.3-0.3-0.3-0.5c0-0.2-0.1-0.4-0.1-0.7s0-0.5,0.1-0.7c0.1-0.2,0.2-0.4,0.4-0.5
		c0.2-0.1,0.5-0.2,0.9-0.2c0.4,0,0.7,0.1,0.9,0.2s0.3,0.3,0.3,0.5c0.1,0.2,0.1,0.4,0.1,0.7C21.3,14.2,21.3,14.4,21.2,14.6z"/>
</g>
</svg>
