<?xml version="1.0" encoding="utf-8"?>
<!-- Generator: Adobe Illustrator 28.2.0, SVG Export Plug-In . SVG Version: 6.00 Build 0)  -->
<svg version="1.1" id="dialog-information" xmlns="http://www.w3.org/2000/svg" xmlns:xlink="http://www.w3.org/1999/xlink" x="0px"
	 y="0px" viewBox="0 0 120 120" style="enable-background:new 0 0 120 120;" xml:space="preserve">
<style type="text/css">
	.st0{fill:none;}
</style>
<rect id="BG" class="st0" width="120" height="120"/>
<g>
	<path d="M60,17.6c-23.4,0-42.4,19-42.4,42.4s19,42.4,42.4,42.4s42.4-19,42.4-42.4S83.4,17.6,60,17.6z M60,94.9
		c-19.3,0-34.9-15.6-34.9-34.9c0-19.3,15.6-34.9,34.9-34.9c19.3,0,34.9,15.6,34.9,34.9C94.9,79.3,79.3,94.9,60,94.9z"/>
	<path d="M63,37.9c-0.6-0.4-1.6-0.6-3-0.6c-1.4,0-2.4,0.2-3,0.6c-0.7,0.4-1.2,1-1.4,1.8c-0.2,0.7-0.3,1.4-0.3,2.2
		c0,0.8,0.1,1.5,0.2,2.2l0,0c0.2,0.8,0.6,1.4,1.3,1.8c0.6,0.4,1.6,0.6,3,0.6c1.4,0,2.4-0.2,3-0.6c0.7-0.4,1.1-1,1.3-1.8
		c0.2-0.7,0.3-1.4,0.3-2.2c0-0.8-0.1-1.5-0.3-2.2C64,38.9,63.6,38.3,63,37.9z"/>
	<path d="M62.8,51.8c-0.6-0.4-1.5-0.6-2.8-0.6c-1.3,0-2.2,0.2-2.8,0.6c-0.7,0.4-1.1,1-1.3,1.7c-0.1,0.6-0.2,1.2-0.2,2v22.8
		c0,0.7,0.1,1.4,0.2,2c0.2,0.7,0.6,1.3,1.2,1.7l0,0c0.5,0.3,1.3,0.5,2.2,0.6v0h0.6c1.4,0,2.3-0.2,2.9-0.6c0.6-0.4,1.1-1,1.2-1.7
		c0.1-0.6,0.2-1.2,0.2-2V55.6c0-0.8-0.1-1.5-0.2-2.1C63.9,52.8,63.5,52.2,62.8,51.8z"/>
</g>
</svg>
