<?xml version="1.0" encoding="utf-8"?>
<!-- Generator: Adobe Illustrator 28.2.0, SVG Export Plug-In . SVG Version: 6.00 Build 0)  -->
<svg version="1.1" id="dialog-information.filled" xmlns="http://www.w3.org/2000/svg" xmlns:xlink="http://www.w3.org/1999/xlink"
	 x="0px" y="0px" viewBox="0 0 120 120" style="enable-background:new 0 0 120 120;" xml:space="preserve">
<style type="text/css">
	.st0{fill:none;}
</style>
<rect id="BG" class="st0" width="120" height="120"/>
<path d="M60,17.6c-23.4,0-42.4,19-42.4,42.4s19,42.4,42.4,42.4s42.4-19,42.4-42.4S83.4,17.6,60,17.6z M59.3,82.6L59.3,82.6
	c-1-0.1-1.7-0.3-2.2-0.6l0,0c-0.6-0.5-1-1-1.2-1.7c-0.1-0.6-0.2-1.3-0.2-2V55.5c0-0.7,0.1-1.4,0.2-2c0.2-0.7,0.6-1.3,1.3-1.7
	c0.6-0.4,1.6-0.6,2.8-0.6c1.3,0,2.2,0.2,2.8,0.6c0.6,0.4,1.1,1,1.2,1.7c0.1,0.6,0.2,1.3,0.2,2.1v22.7c0,0.7-0.1,1.4-0.2,2
	c-0.2,0.7-0.6,1.3-1.2,1.7c-0.6,0.4-1.5,0.6-2.9,0.6H59.3z M63,45.8c-0.6,0.4-1.6,0.6-3,0.6c-1.4,0-2.4-0.2-3-0.6
	c-0.7-0.4-1.1-1.1-1.3-1.8l0,0c-0.2-0.6-0.2-1.3-0.2-2.2c0-0.8,0.1-1.5,0.3-2.2c0.2-0.8,0.7-1.4,1.4-1.8c0.6-0.4,1.6-0.6,3-0.6
	c1.4,0,2.3,0.2,3,0.6c0.6,0.4,1.1,1,1.3,1.8c0.2,0.7,0.3,1.5,0.3,2.2c0,0.8-0.1,1.5-0.3,2.2C64.1,44.8,63.6,45.4,63,45.8z"/>
</svg>
