<?xml version="1.0" encoding="utf-8"?>
<!-- Generator: Adobe Illustrator 28.2.0, SVG Export Plug-In . SVG Version: 6.00 Build 0)  -->
<svg version="1.1" xmlns="http://www.w3.org/2000/svg" xmlns:xlink="http://www.w3.org/1999/xlink" x="0px" y="0px"
	 viewBox="0 0 40 40" style="enable-background:new 0 0 40 40;" xml:space="preserve">
<g id="BG">
</g>
<g id="dialog-information">
	<g>
		<path d="M20,8.4c6.4,0,11.6,5.2,11.6,11.6S26.4,31.6,20,31.6S8.4,26.4,8.4,20S13.6,8.4,20,8.4 M20,5.9C12.2,5.9,5.9,12.2,5.9,20
			S12.2,34.1,20,34.1S34.1,27.8,34.1,20S27.8,5.9,20,5.9L20,5.9z"/>
		<path d="M20,15.3c-0.4,0-0.7-0.1-0.9-0.2c-0.2-0.1-0.3-0.3-0.3-0.5c0-0.2-0.1-0.4-0.1-0.7s0-0.5,0.1-0.7c0.1-0.2,0.2-0.4,0.4-0.5
			c0.2-0.1,0.5-0.2,0.9-0.2c0.4,0,0.7,0.1,0.9,0.2s0.3,0.3,0.3,0.5c0.1,0.2,0.1,0.4,0.1,0.7c0,0.2,0,0.5-0.1,0.7
			c-0.1,0.2-0.2,0.4-0.3,0.5C20.7,15.2,20.4,15.3,20,15.3z M20,27.3c-0.4,0-0.7-0.1-0.8-0.2c-0.2-0.1-0.3-0.3-0.3-0.5
			s-0.1-0.4-0.1-0.6v-7.6c0-0.2,0-0.4,0.1-0.6s0.2-0.3,0.3-0.4c0.2-0.1,0.5-0.2,0.8-0.2c0.4,0,0.7,0.1,0.8,0.2
			c0.2,0.1,0.3,0.3,0.3,0.5s0.1,0.4,0.1,0.7v7.6c0,0.2,0,0.4-0.1,0.6s-0.1,0.3-0.3,0.4C20.7,27.3,20.4,27.3,20,27.3z"/>
	</g>
</g>
</svg>
