<?xml version="1.0" encoding="utf-8"?>
<!-- Generator: Adobe Illustrator 28.2.0, SVG Export Plug-In . SVG Version: 6.00 Build 0)  -->
<svg version="1.1" id="network-wireless-disabled" xmlns="http://www.w3.org/2000/svg" xmlns:xlink="http://www.w3.org/1999/xlink"
	 x="0px" y="0px" viewBox="0 0 120 120" style="enable-background:new 0 0 120 120;" xml:space="preserve">
<style type="text/css">
	.st0{fill:none;}
	.st1{opacity:0.25;}
</style>
<rect id="BG" class="st0" width="120" height="120"/>
<g>
	<path class="st1" d="M61.3,71.1c-0.4,0-0.8,0-1.2,0c-4.6,0-9.1,1-13.1,2.7c-1.1,0.5-1.3,1.9-0.5,2.7l5.9,5.9l6.5,6.3
		c0.7,0.6,1.7,0.6,2.4,0l6.4-6.4l2.4-2.5L61.3,71.1z"/>
	<path class="st1" d="M29.7,39.5c-3.6,2.2-6.9,4.8-10,7.7c-0.7,0.6-0.7,1.7,0,2.4l4.7,4.7c0.7,0.7,1.7,0.6,2.4,0
		c3-2.9,6.5-5.4,10.2-7.5L29.7,39.5z"/>
	<path class="st1" d="M100.2,46.8c-10.5-9.9-24.5-16-40-16c-5.7,0-11.2,0.8-16.4,2.4l8.3,8.3c2.6-0.5,5.4-0.7,8.1-0.7
		c12.8,0,24.4,5,33.1,13.1c0.7,0.6,1.7,0.6,2.4,0l4.6-4.7C100.9,48.5,100.9,47.4,100.2,46.8z"/>
	<path class="st1" d="M76.7,66.2c0.6,0.4,1.2,0.8,1.7,1.3c0.7,0.5,1.6,0.5,2.2-0.2l4.7-4.8c0.7-0.7,0.6-1.9-0.1-2.5
		c-6.5-5.3-14.6-8.6-23.5-8.9L76.7,66.2z"/>
	<path class="st1" d="M44.6,54.3c-3.6,1.6-6.9,3.6-9.8,6.1c-0.8,0.6-0.8,1.8-0.1,2.5l4.7,4.7c0.6,0.6,1.6,0.7,2.2,0.1
		c3.1-2.6,6.8-4.5,10.8-5.6L44.6,54.3z"/>
	<path d="M89.1,86.9l-1.8,1.8c-1.1,1.1-3,1.1-4.1,0l-58-58c-1.1-1.1-1.1-3,0-4.1l1.8-1.8c1.1-1.1,3-1.1,4.1,0l58,58
		C90.2,83.9,90.2,85.7,89.1,86.9z"/>
</g>
</svg>
