<?xml version="1.0" encoding="utf-8"?>
<!-- Generator: Adobe Illustrator 28.2.0, SVG Export Plug-In . SVG Version: 6.00 Build 0)  -->
<svg version="1.1" id="network-wireless-signal-ok" xmlns="http://www.w3.org/2000/svg" xmlns:xlink="http://www.w3.org/1999/xlink"
	 x="0px" y="0px" viewBox="0 0 120 120" style="enable-background:new 0 0 120 120;" xml:space="preserve">
<style type="text/css">
	.st0{fill:none;}
	.st1{opacity:0.25;}
</style>
<rect id="BG" class="st0" width="120" height="120"/>
<g>
	<path d="M60.1,71c-4.6,0-9.1,1-13.1,2.7c-1.1,0.5-1.3,1.9-0.5,2.7l5.9,5.9l6.5,6.3c0.7,0.6,1.7,0.6,2.4,0l6.4-6.4l5.8-5.9
		c0.8-0.8,0.6-2.3-0.5-2.7C69,72,64.7,71,60.1,71z"/>
	<path class="st1" d="M34.7,62.9l4.7,4.7c0.6,0.6,1.6,0.7,2.2,0.1c5.1-4.2,11.6-6.7,18.6-6.7c6.9,0,13.2,2.4,18.2,6.3
		c0.7,0.5,1.6,0.5,2.2-0.2l4.7-4.8c0.7-0.7,0.6-1.9-0.1-2.5c-6.8-5.6-15.5-8.9-25-8.9c-9.7,0-18.6,3.5-25.5,9.4
		C34,61.1,34,62.2,34.7,62.9z"/>
	<path class="st1" d="M60.2,30.8c-15.7,0-30,6.3-40.5,16.4c-0.7,0.6-0.7,1.7,0,2.4l4.7,4.7c0.7,0.7,1.7,0.6,2.4,0
		c8.7-8.3,20.5-13.5,33.4-13.5c12.8,0,24.4,5,33.1,13.1c0.7,0.6,1.7,0.6,2.4,0l4.6-4.7c0.7-0.7,0.6-1.7,0-2.4
		C89.8,36.9,75.7,30.8,60.2,30.8z"/>
</g>
</svg>
