<?xml version="1.0" encoding="utf-8"?>
<!-- Generator: Adobe Illustrator 28.2.0, SVG Export Plug-In . SVG Version: 6.00 Build 0)  -->
<svg version="1.1" id="printer-error" xmlns="http://www.w3.org/2000/svg" xmlns:xlink="http://www.w3.org/1999/xlink" x="0px"
	 y="0px" viewBox="0 0 120 120" style="enable-background:new 0 0 120 120;" xml:space="preserve">
<style type="text/css">
	.st0{fill:none;}
</style>
<rect id="BG" class="st0" width="120" height="120"/>
<g>
	<path d="M94.6,96.7c-0.1,0.4-0.4,0.8-0.8,1.1c-0.4,0.3-1.1,0.4-2,0.4c-1.2,0-2-0.2-2.3-0.7s-0.6-1.2-0.6-2.3c0-0.5,0.1-0.9,0.2-1.4
		c0.1-0.5,0.4-0.8,0.8-1.1c0.4-0.3,1.1-0.4,2-0.4c1.2,0,2,0.2,2.4,0.7c0.4,0.5,0.6,1.2,0.6,2.3C94.8,95.8,94.8,96.2,94.6,96.7
		L94.6,96.7z M89.1,75.5c0-0.4,0-0.8,0.1-1.2c0.1-0.4,0.3-0.7,0.7-0.9c0.4-0.2,1-0.4,1.9-0.4s1.5,0.1,1.9,0.4
		c0.4,0.2,0.6,0.5,0.7,0.9s0.1,0.8,0.1,1.2v12.1c0,0.4,0,0.8-0.1,1.2s-0.3,0.7-0.7,0.9s-1,0.3-1.9,0.3c-0.9,0-1.5-0.1-1.9-0.3
		s-0.6-0.5-0.7-0.9s-0.1-0.8-0.1-1.2L89.1,75.5L89.1,75.5z M100.1,66H83.6L71.9,77.7v16.5l11.7,11.7h16.5l11.7-11.7V77.7L100.1,66z"
		/>
	<g>
		<ellipse transform="matrix(0.7071 -0.7071 0.7071 0.7071 -13.6072 75.3704)" cx="84.2" cy="54.1" rx="4.5" ry="4.5"/>
		<path d="M67.2,98.9l-2-2v-2.8v-2.6h-20c-0.7,0-1.3-0.5-1.3-1.3V72.6c0-0.7,0.5-1.3,1.3-1.3h23.6l7.6-7.6c-0.5-0.1-1.1-0.2-1.7-0.2
			H45.2c-5,0-9.2,4-9.2,9.2v17.8c0,5,4,9.2,9.2,9.2h22.6L67.2,98.9z"/>
		<path d="M30.3,83c-1,0-2-0.9-2-2V49.2c0-1,0.9-2,2-2h59.4c1,0,2,0.9,2,2v10.1h7.7v-10c0-5.3-4.4-9.7-9.7-9.7h-0.6V29.2
			c0-4.9-3.9-8.8-8.8-8.8H39.7c-4.9,0-8.8,3.9-8.8,8.8v10.3h-0.6c-5.4,0-9.8,4.4-9.8,9.8v31.8c0,5.4,4.4,9.8,9.8,9.8h3.1h0.6v-0.6
			v-6.7V83h-0.6H30.3z M38.8,29.2c0-0.5,0.4-1,1-1h40.6c0.5,0,1,0.4,1,1v10.3H38.8V29.2z"/>
	</g>
</g>
</svg>
