<?xml version="1.0" encoding="utf-8"?>
<!-- Generator: Adobe Illustrator 28.2.0, SVG Export Plug-In . SVG Version: 6.00 Build 0)  -->
<svg version="1.1" xmlns="http://www.w3.org/2000/svg" xmlns:xlink="http://www.w3.org/1999/xlink" x="0px" y="0px"
	 viewBox="0 0 40 40" style="enable-background:new 0 0 40 40;" xml:space="preserve">
<g id="BG">
</g>
<g id="printer-error">
	<g>
		<path d="M23.6,32.4c-0.1,0.3-0.4,0.4-0.7,0.4H11.2c-0.4,0-0.8-0.3-0.8-0.8V25c0-0.4,0.3-0.8,0.8-0.8h11.7c0.4,0,0.7,0.3,0.7,0.7
			l0.2-0.2l1.7-1.7c-0.6-0.8-1.6-1.3-2.7-1.3H11.2c-1.9,0-3.4,1.5-3.4,3.4v7.1c0,1.9,1.5,3.4,3.4,3.4h11.7c1,0,2-0.5,2.6-1.2
			l-1.6-1.6L23.6,32.4z"/>
		<circle cx="26.7" cy="17.7" r="1.5"/>
		<path d="M4.3,28.4V15.7c0-0.5,0.4-1,1-1h23.6c0.5,0,1,0.4,1,1v4.6h2.6v-4.6c0-2-1.6-3.6-3.6-3.6h-0.5V7.8c0-1.8-1.5-3.3-3.3-3.3H9
			C7.2,4.5,5.7,6,5.7,7.8v4.3H5.2c-2,0-3.7,1.6-3.7,3.7v12.6c0,2,1.6,3.7,3.7,3.7h1.2v-2.6H5.3C4.8,29.4,4.3,29,4.3,28.4z M8.4,7.8
			c0-0.3,0.3-0.6,0.6-0.6h16.2c0.3,0,0.6,0.3,0.6,0.6v4.3H8.4V7.8z"/>
		<path d="M34.5,22H29l-3.9,3.9v5.5l3.9,3.9h5.5l3.9-3.9v-5.5L34.5,22z M30.9,25.2c0-0.1,0-0.3,0-0.4s0.1-0.2,0.2-0.3
			s0.3-0.1,0.6-0.1s0.5,0,0.6,0.1s0.2,0.2,0.2,0.3c0,0.1,0,0.3,0,0.4v4c0,0.1,0,0.3,0,0.4c0,0.1-0.1,0.2-0.2,0.3S32.1,30,31.8,30
			c-0.3,0-0.5,0-0.6-0.1s-0.2-0.2-0.2-0.3s0-0.3,0-0.4V25.2z M32.7,32.3c0,0.1-0.1,0.3-0.3,0.4c-0.1,0.1-0.4,0.1-0.7,0.1
			c-0.4,0-0.7-0.1-0.8-0.2c-0.1-0.2-0.2-0.4-0.2-0.8c0-0.2,0-0.3,0-0.5c0-0.1,0.1-0.3,0.3-0.4c0.1-0.1,0.4-0.1,0.7-0.1
			c0.4,0,0.7,0.1,0.8,0.2c0.1,0.1,0.2,0.4,0.2,0.8C32.8,32,32.7,32.1,32.7,32.3z"/>
	</g>
</g>
</svg>
