<?xml version="1.0" encoding="utf-8"?>
<!-- Generator: Adobe Illustrator 28.2.0, SVG Export Plug-In . SVG Version: 6.00 Build 0)  -->
<svg version="1.1" id="software-update-available" xmlns="http://www.w3.org/2000/svg" xmlns:xlink="http://www.w3.org/1999/xlink"
	 x="0px" y="0px" viewBox="0 0 120 120" style="enable-background:new 0 0 120 120;" xml:space="preserve">
<style type="text/css">
	.st0{fill:none;}
</style>
<rect id="BG" class="st0" width="120" height="120"/>
<g>
	<path d="M91,66.2c-2.9,0-5.7-0.4-8.4-1.2l-0.1,0.3c-0.6,2.4-1.5,4.7-2.8,6.8l-1.5,2.4l7.9,7.9c0.2,0.2,0.2,0.6,0,0.8l-2.9,2.9
		c-0.2,0.2-0.6,0.2-0.8,0l-7.9-7.9l-2.4,1.5c-2.1,1.3-4.4,2.3-6.8,2.8l-2.7,0.6v11.2c0,0.3-0.3,0.6-0.6,0.6h-4.1
		c-0.3,0-0.6-0.3-0.6-0.6V83.2l-2.7-0.6c-2.4-0.6-4.7-1.5-6.8-2.8l-2.4-1.5l-7.9,7.9c-0.2,0.2-0.6,0.2-0.8,0l-2.9-2.9
		c-0.1-0.1-0.2-0.3-0.2-0.4s0-0.3,0.2-0.4l7.9-7.9l-1.5-2.4c-1.3-2.1-2.3-4.4-2.8-6.8l-0.6-2.7H25.6c-0.3,0-0.6-0.3-0.6-0.6v-4.1
		c0-0.3,0.3-0.6,0.6-0.6h11.2l0.6-2.7c0.6-2.4,1.5-4.7,2.8-6.8l1.5-2.4l-7.9-7.9c-0.1-0.1-0.2-0.3-0.2-0.4c0-0.1,0-0.3,0.2-0.4
		l2.9-2.9c0.2-0.2,0.6-0.2,0.8,0l7.9,7.9l2.4-1.5c2.1-1.3,4.4-2.3,6.8-2.8l2.7-0.6V25.6c0-0.3,0.3-0.6,0.6-0.6h4.1
		c0.3,0,0.6,0.3,0.6,0.6v0.8c0.9-2.5,2.1-4.9,3.6-7.1C65,18.5,63.6,18,62.1,18h-4.1c-4.2,0-7.6,3.4-7.6,7.6v5.8
		c-1.3,0.4-2.5,1-3.8,1.6l-4.1-4.1c-3-3-7.8-3-10.7,0l-2.9,2.9c-1.4,1.4-2.2,3.3-2.2,5.4c0,2,0.8,3.9,2.2,5.4l4.1,4.1
		c-0.6,1.2-1.1,2.5-1.6,3.8h-5.8c-4.2,0-7.6,3.4-7.6,7.6v4.1c0,4.2,3.4,7.6,7.6,7.6h5.8c0.4,1.3,1,2.5,1.6,3.8l-4.1,4.1
		c-1.4,1.4-2.2,3.3-2.2,5.4s0.8,3.9,2.2,5.4l2.9,2.9c3,3,7.8,3,10.7,0l4.1-4.1c1.2,0.6,2.5,1.1,3.8,1.6v5.8c0,4.2,3.4,7.6,7.6,7.6
		h4.1c4.2,0,7.6-3.4,7.6-7.6v-5.8c1.3-0.4,2.5-1,3.8-1.6l4.1,4.1c3,3,7.8,3,10.7,0l2.9-2.9c3-3,3-7.8,0-10.7L87,73.4
		c0.6-1.2,1.1-2.5,1.6-3.8h5.8c3.4,0,6.3-2.3,7.3-5.4C98.3,65.5,94.7,66.2,91,66.2z"/>
	<path d="M57.6,45.8c-6,1-10.8,5.8-11.8,11.8c-0.8,4.7,0.7,9.3,4,12.6c2.8,2.8,6.4,4.2,10.2,4.2c0.8,0,1.6-0.1,2.4-0.2
		c6-1,10.8-5.8,11.8-11.8c0.1-0.4,0.1-0.8,0.1-1.3c-5.5-3.6-9.7-9-11.8-15.4C61,45.5,59.3,45.5,57.6,45.8z M65.3,54.7
		c1.7,1.7,2.5,4.1,2.1,6.5c-0.5,3.1-3,5.5-6,6c-2.4,0.4-4.8-0.4-6.5-2.1c-1.7-1.7-2.5-4.1-2.1-6.5c0.5-3.1,3-5.5,6-6
		c0.4-0.1,0.9-0.1,1.3-0.1C62,52.6,63.8,53.3,65.3,54.7z"/>
	<path d="M91,13.2c-12.7,0-23,10.3-23,23s10.3,23,23,23s23-10.3,23-23S103.7,13.2,91,13.2z M90.6,48.5L90.6,48.5
		c-0.5-0.1-0.9-0.2-1.2-0.3l0,0c-0.3-0.3-0.5-0.5-0.7-0.9c-0.1-0.3-0.1-0.7-0.1-1.1V33.8c0-0.4,0.1-0.8,0.1-1.1
		c0.1-0.4,0.3-0.7,0.7-0.9c0.3-0.2,0.9-0.3,1.5-0.3c0.7,0,1.2,0.1,1.5,0.3c0.3,0.2,0.6,0.5,0.7,0.9c0.1,0.3,0.1,0.7,0.1,1.1v12.3
		c0,0.4-0.1,0.8-0.1,1.1c-0.1,0.4-0.3,0.7-0.7,0.9c-0.3,0.2-0.8,0.3-1.6,0.3H90.6z M92.6,28.5c-0.3,0.2-0.9,0.3-1.6,0.3
		s-1.3-0.1-1.6-0.3c-0.4-0.2-0.6-0.6-0.7-1l0,0c-0.1-0.3-0.1-0.7-0.1-1.2c0-0.4,0.1-0.8,0.2-1.2c0.1-0.4,0.4-0.8,0.8-1
		c0.3-0.2,0.9-0.3,1.6-0.3s1.2,0.1,1.6,0.3c0.3,0.2,0.6,0.5,0.7,1c0.1,0.4,0.2,0.8,0.2,1.2c0,0.4-0.1,0.8-0.2,1.2
		C93.2,28,93,28.3,92.6,28.5z"/>
</g>
</svg>
