<?xml version="1.0" encoding="utf-8"?>
<!-- Generator: Adobe Illustrator 28.2.0, SVG Export Plug-In . SVG Version: 6.00 Build 0)  -->
<svg version="1.1" id="software-update-available.filled"
	 xmlns="http://www.w3.org/2000/svg" xmlns:xlink="http://www.w3.org/1999/xlink" x="0px" y="0px" viewBox="0 0 120 120"
	 style="enable-background:new 0 0 120 120;" xml:space="preserve">
<style type="text/css">
	.st0{fill:none;}
</style>
<rect id="BG" class="st0" width="120" height="120"/>
<g>
	<path d="M91,66.4c-6.2,0-11.9-1.9-16.7-5.1c0,0.4-0.1,0.7-0.1,1.1c-1,6-5.8,10.8-11.8,11.8c-0.8,0.1-1.6,0.2-2.4,0.2
		c-3.8,0-7.4-1.5-10.2-4.2c-3.3-3.3-4.8-7.9-4-12.6c1-6,5.8-10.8,11.8-11.8c1.7-0.3,3.3-0.3,4.9,0c-1-3-1.5-6.1-1.5-9.4
		c0-6.3,2-12.2,5.3-17C65.1,18.5,63.6,18,62,18h-4.1c-4.2,0-7.6,3.4-7.6,7.6v5.8c-1.3,0.4-2.5,1-3.8,1.6l-4.1-4.1c-3-3-7.8-3-10.7,0
		l-2.9,2.9c-1.4,1.4-2.2,3.3-2.2,5.4c0,2,0.8,3.9,2.2,5.4l4.1,4.1c-0.6,1.2-1.1,2.5-1.6,3.8h-5.8c-4.2,0-7.6,3.4-7.6,7.6v4.1
		c0,4.2,3.4,7.6,7.6,7.6h5.8c0.4,1.3,1,2.5,1.6,3.8l-4.1,4.1c-1.4,1.4-2.2,3.3-2.2,5.4c0,2.1,0.8,3.9,2.2,5.4l2.9,2.9
		c3,3,7.8,3,10.7,0l4.1-4.1c1.2,0.6,2.5,1.1,3.8,1.6v5.8c0,4.2,3.4,7.6,7.6,7.6H62c4.2,0,7.6-3.4,7.6-7.6v-5.8
		c1.3-0.4,2.5-1,3.8-1.6l4.1,4.1c3,3,7.8,3,10.7,0l2.9-2.9c3-3,3-7.8,0-10.7L87,73.4c0.6-1.2,1.1-2.5,1.6-3.8h5.8
		c3.3,0,6.2-2.1,7.2-5.1C98.3,65.7,94.7,66.4,91,66.4z"/>
	<path d="M91,13.4c-12.7,0-23,10.3-23,23s10.3,23,23,23s23-10.3,23-23S103.7,13.4,91,13.4z M90.6,48.7L90.6,48.7
		c-0.5-0.1-0.9-0.2-1.2-0.3l0,0c-0.3-0.3-0.5-0.5-0.7-0.9c-0.1-0.3-0.1-0.7-0.1-1.1V34c0-0.4,0.1-0.8,0.1-1.1
		c0.1-0.4,0.3-0.7,0.7-0.9c0.3-0.2,0.9-0.3,1.5-0.3c0.7,0,1.2,0.1,1.5,0.3c0.3,0.2,0.6,0.5,0.7,0.9c0.1,0.3,0.1,0.7,0.1,1.1v12.3
		c0,0.4-0.1,0.8-0.1,1.1c-0.1,0.4-0.3,0.7-0.7,0.9c-0.3,0.2-0.8,0.3-1.6,0.3H90.6z M92.6,28.7C92.3,28.9,91.8,29,91,29
		c-0.8,0-1.3-0.1-1.6-0.3c-0.4-0.2-0.6-0.6-0.7-1l0,0c-0.1-0.3-0.1-0.7-0.1-1.2c0-0.4,0.1-0.8,0.2-1.2c0.1-0.4,0.4-0.8,0.8-1
		c0.3-0.2,0.9-0.3,1.6-0.3c0.8,0,1.2,0.1,1.6,0.3c0.3,0.2,0.6,0.5,0.7,1c0.1,0.4,0.2,0.8,0.2,1.2c0,0.4-0.1,0.8-0.2,1.2
		C93.2,28.2,93,28.5,92.6,28.7z"/>
</g>
</svg>
