<?xml version="1.0" encoding="utf-8"?>
<!-- Generator: Adobe Illustrator 28.2.0, SVG Export Plug-In . SVG Version: 6.00 Build 0)  -->
<svg version="1.1" id="software-update-urgent" xmlns="http://www.w3.org/2000/svg" xmlns:xlink="http://www.w3.org/1999/xlink"
	 x="0px" y="0px" viewBox="0 0 120 120" style="enable-background:new 0 0 120 120;" xml:space="preserve">
<style type="text/css">
	.st0{fill:none;}
</style>
<rect id="BG" class="st0" width="120" height="120"/>
<g>
	<path d="M57.6,45.8c-6,1-10.8,5.8-11.8,11.8c-0.8,4.7,0.7,9.3,4,12.6c2.8,2.7,6.4,4.2,10.2,4.2c0.8,0,1.6,0,2.4-0.2
		c4.9-0.8,8.9-4.1,10.8-8.5h-2.7c-1.7,0-3.3-0.3-4.8-1c-1.1,1.4-2.6,2.3-4.5,2.6c-2.4,0.4-4.8-0.4-6.5-2.1c-1.7-1.7-2.5-4.1-2.1-6.5
		c0.5-2.9,2.7-5.3,5.6-5.9c0.1-1.9,0.6-3.8,1.7-5.5l1-1.6C59.8,45.6,58.7,45.6,57.6,45.8z"/>
	<path d="M82.5,65.7c-0.5,2.3-1.5,4.5-2.7,6.5l-1.5,2.4l7.9,7.9c0.2,0.2,0.2,0.6,0,0.8l-2.9,2.9c-0.2,0.2-0.6,0.2-0.8,0l-7.9-7.9
		l-2.4,1.5c-2.1,1.3-4.4,2.2-6.8,2.8l-2.7,0.6v11.2c0,0.3-0.3,0.6-0.6,0.6H58c-0.3,0-0.6-0.3-0.6-0.6V83.2l-2.7-0.6
		c-2.4-0.5-4.7-1.5-6.8-2.8l-2.4-1.5l-8,7.8c-0.2,0.2-0.6,0.2-0.8,0l-2.9-2.9c-0.2-0.1-0.2-0.3-0.2-0.4c0-0.1,0.1-0.3,0.2-0.4
		l7.9-7.9l-1.5-2.4c-1.3-2.1-2.2-4.4-2.8-6.8l-0.6-2.7H25.6c-0.3,0-0.6-0.3-0.6-0.6v-4.1c0-0.3,0.3-0.6,0.6-0.6h11.3l0.6-2.7
		c0.5-2.4,1.5-4.7,2.8-6.8l1.5-2.4l-7.9-7.9c-0.2-0.1-0.2-0.3-0.2-0.4c0-0.1,0.1-0.3,0.2-0.4l2.9-2.9c0.2-0.2,0.6-0.2,0.8,0l7.9,7.9
		l2.4-1.5c2.1-1.3,4.4-2.2,6.8-2.8l2.7-0.6V25.6c0-0.3,0.3-0.6,0.6-0.6h4.1c0.3,0,0.6,0.3,0.6,0.6v11.3l2.7,0.6c0.1,0,0.2,0,0.3,0.1
		l4-6.9v-5.4c0-4.2-3.4-7.6-7.6-7.6H58c-4.2,0-7.6,3.4-7.6,7.6v5.8c-1.3,0.5-2.6,1-3.8,1.6l-4.1-4.1c-2.9-3-7.7-3-10.7,0l-2.9,2.9
		c-1.4,1.5-2.2,3.4-2.2,5.4c0,2.1,0.8,4,2.2,5.4l4.1,4.1c-0.6,1.3-1.2,2.5-1.6,3.8h-5.8c-4.2,0-7.6,3.4-7.6,7.6v4.1
		c0,4.2,3.4,7.6,7.6,7.6h5.8c0.5,1.3,1,2.6,1.6,3.8l-4.1,4.1c-1.4,1.5-2.2,3.3-2.2,5.4s0.8,4,2.2,5.4l2.9,2.9c2.9,3,7.7,3,10.7,0
		l4.1-4.1c1.3,0.6,2.5,1.2,3.8,1.6v5.8c0,4.2,3.4,7.6,7.6,7.6h4.1c4.1,0,7.5-3.5,7.5-7.6v-5.8c1.3-0.5,2.6-1,3.8-1.6l4.1,4.2
		c2.9,3,7.7,3,10.7,0l2.9-2.9c3-2.9,3-7.7,0-10.7L87,73.5c0.6-1.3,1.2-2.5,1.6-3.8h5.8c2.9,0,5.4-1.6,6.7-4H82.5z"/>
	<path d="M116,50.8l-20.5-35c-1-1.6-2.6-2.6-4.5-2.6l0,0c-1.9,0-3.6,1-4.5,2.6L66,50.8c-1,1.6-1,3.6,0,5.2c1,1.6,2.6,2.6,4.6,2.6
		h40.9c1.9,0,3.6-1,4.6-2.6C116.9,54.4,116.9,52.5,116,50.8z M88.5,27.9c0-0.5,0.1-0.8,0.1-1.1c0.1-0.4,0.3-0.7,0.7-1
		c0.3-0.2,0.9-0.3,1.6-0.3h0.3c0.5,0.1,1,0.2,1.3,0.3c0.3,0.2,0.6,0.6,0.7,1c0.1,0.3,0.1,0.7,0.1,1.1v13c0,0.5-0.1,0.8-0.1,1.1
		c-0.1,0.4-0.3,0.7-0.7,1c-0.3,0.2-0.9,0.3-1.6,0.3c-0.7,0-1.3-0.1-1.6-0.3c-0.4-0.2-0.6-0.6-0.7-1c-0.1-0.3-0.1-0.7-0.1-1.2V27.9z
		 M93.4,49.8c-0.1,0.5-0.4,0.8-0.8,1c-0.3,0.2-0.9,0.3-1.7,0.3s-1.4-0.1-1.7-0.3c-0.3-0.2-0.6-0.6-0.6-1c-0.1-0.4-0.2-0.8-0.2-1.3
		s0.1-0.9,0.2-1.3c0.1-0.5,0.3-0.8,0.7-1c0.3-0.2,0.9-0.3,1.7-0.3s1.4,0.1,1.7,0.3c0.4,0.2,0.6,0.6,0.7,1c0.1,0.4,0.1,0.8,0.1,1.3
		S93.5,49.4,93.4,49.8z"/>
</g>
</svg>
