<?xml version="1.0" encoding="utf-8"?>
<!-- Generator: Adobe Illustrator 28.2.0, SVG Export Plug-In . SVG Version: 6.00 Build 0)  -->
<svg version="1.1" id="software-update-urgent.filled"
	 xmlns="http://www.w3.org/2000/svg" xmlns:xlink="http://www.w3.org/1999/xlink" x="0px" y="0px" viewBox="0 0 120 120"
	 style="enable-background:new 0 0 120 120;" xml:space="preserve">
<style type="text/css">
	.st0{fill:none;}
</style>
<rect id="BG" class="st0" width="120" height="120"/>
<g>
	<path d="M73.2,65.7c-1.9,4.3-6,7.6-10.8,8.4c-0.8,0.1-1.6,0.2-2.4,0.2c-3.8,0-7.4-1.5-10.2-4.2c-3.3-3.3-4.8-7.9-4-12.6
		c1-6,5.8-10.8,11.8-11.8c1.1-0.2,2.3-0.2,3.4-0.2l8.6-14.7v-5.3c0-4.2-3.4-7.6-7.6-7.6H58c-4.2,0-7.6,3.4-7.6,7.6v5.8
		c-1.3,0.4-2.5,1-3.8,1.6l-4.1-4.1c-3-3-7.8-3-10.7,0l-2.9,2.9C27.5,33,26.7,35,26.7,37c0,2,0.8,3.9,2.2,5.4l4.1,4.1
		c-0.6,1.2-1.1,2.5-1.6,3.8h-5.8c-4.2,0-7.6,3.4-7.6,7.6V62c0,4.2,3.4,7.6,7.6,7.6h5.8c0.4,1.3,1,2.5,1.6,3.8l-4.1,4.1
		c-1.4,1.4-2.2,3.3-2.2,5.4c0,2.1,0.8,3.9,2.2,5.4l2.9,2.9c3,3,7.8,3,10.7,0l4.1-4.1c1.2,0.6,2.5,1.1,3.8,1.6v5.8
		c0,4.2,3.4,7.6,7.6,7.6H62c4.2,0,7.6-3.4,7.6-7.6v-5.8c1.3-0.4,2.5-1,3.8-1.6l4.1,4.1c3,3,7.8,3,10.7,0l2.9-2.9c3-3,3-7.8,0-10.7
		L87,73.2c0.6-1.2,1.1-2.5,1.6-3.8h5.8c2.8,0,5.3-1.5,6.6-3.8H73.2z"/>
	<path d="M116,50.8l-20.5-35c-1-1.6-2.6-2.6-4.5-2.6l0,0c-1.9,0-3.6,1-4.5,2.6L66,50.8c-1,1.6-1,3.6,0,5.2c1,1.6,2.6,2.6,4.6,2.6
		h40.9c1.9,0,3.6-1,4.6-2.6C116.9,54.4,116.9,52.5,116,50.8z M88.5,27.9c0-0.5,0.1-0.8,0.1-1.1c0.1-0.4,0.3-0.7,0.7-1
		c0.3-0.2,0.9-0.3,1.6-0.3h0.3c0.5,0.1,1,0.2,1.3,0.3c0.3,0.2,0.6,0.6,0.7,1c0.1,0.3,0.1,0.7,0.1,1.1v13c0,0.5-0.1,0.8-0.1,1.1
		c-0.1,0.4-0.3,0.7-0.7,1c-0.3,0.2-0.9,0.3-1.6,0.3c-0.7,0-1.3-0.1-1.6-0.3c-0.4-0.2-0.6-0.6-0.7-1c-0.1-0.3-0.1-0.7-0.1-1.2V27.9z
		 M93.4,49.8c-0.1,0.5-0.4,0.8-0.8,1c-0.3,0.2-0.9,0.3-1.7,0.3s-1.4-0.1-1.7-0.3c-0.3-0.2-0.6-0.6-0.6-1c-0.1-0.4-0.2-0.8-0.2-1.3
		s0.1-0.9,0.2-1.3c0.1-0.5,0.3-0.8,0.7-1c0.3-0.2,0.9-0.3,1.7-0.3s1.4,0.1,1.7,0.3c0.4,0.2,0.6,0.6,0.7,1c0.1,0.4,0.1,0.8,0.1,1.3
		S93.5,49.4,93.4,49.8z"/>
</g>
</svg>
