<?xml version="1.0" encoding="utf-8"?>
<!-- Generator: Adobe Illustrator 28.2.0, SVG Export Plug-In . SVG Version: 6.00 Build 0)  -->
<svg version="1.1" xmlns="http://www.w3.org/2000/svg" xmlns:xlink="http://www.w3.org/1999/xlink" x="0px" y="0px"
	 viewBox="0 0 40 40" style="enable-background:new 0 0 40 40;" xml:space="preserve">
<g id="BG">
</g>
<g id="weather-overcast">
	<path d="M29.1,29.4h-19c-1,0-1.9-0.3-2.7-1c0,0-0.1-0.1-0.1-0.1c0,0-0.1-0.1-0.1-0.1C7.2,28.2,7.1,28.1,7,28
		c-1.1-1.2-1.7-2.7-1.7-4.3c0-3.2,2.3-5.9,5.4-6.4c0.9-3.9,4.5-6.8,8.6-6.8c3.2,0,6.1,1.7,7.6,4.4c4.2-0.1,7.7,3.4,7.7,7.6
		c0,2.3-1,4.4-2.8,5.9c-0.1,0-0.1,0.1-0.2,0.1C30.9,29.1,30,29.4,29.1,29.4z M31.1,27.5L31.1,27.5L31.1,27.5z M8.8,26.6
		C8.8,26.7,8.9,26.7,8.8,26.6c0.3,0.3,0.7,0.5,1.3,0.5h19c0.6,0,1-0.3,1.3-0.5c0.1-0.1,0.1-0.1,0.2-0.1c1.2-1,1.8-2.5,1.8-4
		c0-2.9-2.4-5.3-5.3-5.3c-0.2,0-0.4,0-0.6,0c-0.5,0.1-0.9-0.2-1.2-0.6c-1.1-2.3-3.4-3.8-6-3.8c-3.3,0-6.1,2.4-6.5,5.7
		c-0.1,0.5-0.5,1-1.1,1c-2.3,0.1-4.1,1.9-4.1,4.2c0,1,0.4,2.1,1.1,2.8C8.7,26.6,8.8,26.6,8.8,26.6z"/>
</g>
</svg>
