<?xml version="1.0" encoding="utf-8"?>
<!-- Generator: Adobe Illustrator 28.2.0, SVG Export Plug-In . SVG Version: 6.00 Build 0)  -->
<svg version="1.1" id="weather-few-clouds-night.filled"
	 xmlns="http://www.w3.org/2000/svg" xmlns:xlink="http://www.w3.org/1999/xlink" x="0px" y="0px" viewBox="0 0 120 120"
	 style="enable-background:new 0 0 120 120;" xml:space="preserve">
<style type="text/css">
	.st0{fill:none;}
</style>
<rect id="BG_00000129917462170761608040000003804719951776918951_" class="st0" width="120" height="120"/>
<g>
	<path d="M66.2,53.9C62,47.1,54.6,42.8,46.6,42.8C36.1,42.8,27,50.1,24.5,60c-7.8,1.5-13.7,8.3-13.7,16.5c0,4.2,1.6,8.3,4.5,11.3
		c0.2,0.3,0.5,0.5,0.7,0.7c0,0.1,0.1,0.1,0.1,0.2c0.1,0.1,0.1,0.1,0.2,0.2c0.1,0,0.1,0.1,0.2,0.1c0.1,0,0.1,0.1,0.2,0.1
		c2,1.7,4.5,2.5,7,2.5h47.4h0.5c2.4,0,4.9-0.8,6.8-2.4c0.2-0.1,0.3-0.2,0.5-0.3c4.5-3.8,7.2-9.3,7.2-15.2
		C85.9,62.8,76.9,53.9,66.2,53.9z"/>
	<path d="M109,61.7c-0.4-0.8-1.3-1.3-2.1-1.3h-0.1l-0.7,0.1c-12.5,0-22.7-10.2-22.7-22.7c0-2.1,0.4-4.2,0.9-6.3
		c0.2-0.9,0-1.8-0.7-2.4c-0.7-0.6-1.6-0.8-2.5-0.5c-8.6,3.3-14.3,11.2-15,20.1c0.6,0.7,1.2,1.4,1.7,2.2c11.7,0.9,21,10.6,21,22.6
		c0,0.2,0,0.4,0,0.6c0.2,0,0.5,0,0.7,0c7.6,0,14.8-3.6,19.3-10C109.3,63.5,109.4,62.5,109,61.7z"/>
</g>
</svg>
