<?xml version="1.0" encoding="utf-8"?>
<!-- Generator: Adobe Illustrator 28.2.0, SVG Export Plug-In . SVG Version: 6.00 Build 0)  -->
<svg version="1.1" xmlns="http://www.w3.org/2000/svg" xmlns:xlink="http://www.w3.org/1999/xlink" x="0px" y="0px"
	 viewBox="0 0 40 40" style="enable-background:new 0 0 40 40;" xml:space="preserve">
<g id="Layer_1">
</g>
<g id="weather-clear-night">
	<path d="M20.9,30.7c-0.5,0-1,0-1.4-0.1C14.6,30,10.6,26,10,21.1c-0.6-5.1,2.2-9.9,7-11.8c0.4-0.2,0.9-0.1,1.2,0.2
		c0.3,0.3,0.4,0.7,0.3,1.1c-0.3,1-0.4,2-0.4,3c0,5.9,4.8,10.6,10.6,10.6l0.3,0c0,0,0,0,0,0c0.4,0,0.8,0.2,1,0.6
		c0.2,0.4,0.2,0.8-0.1,1.2C27.8,29,24.5,30.7,20.9,30.7z M15.8,12.5c-2.6,1.9-4,5-3.6,8.3c0.5,3.9,3.7,7.1,7.5,7.6
		c2.5,0.3,5-0.4,6.8-2c-6.1-1-10.8-6.3-10.8-12.7C15.7,13.3,15.8,12.9,15.8,12.5z"/>
</g>
</svg>
