<?xml version="1.0" encoding="utf-8"?>
<!-- Generator: Adobe Illustrator 28.2.0, SVG Export Plug-In . SVG Version: 6.00 Build 0)  -->
<svg version="1.1" id="weather-storm" xmlns="http://www.w3.org/2000/svg" xmlns:xlink="http://www.w3.org/1999/xlink" x="0px"
	 y="0px" viewBox="0 0 40 40" style="enable-background:new 0 0 40 40;" xml:space="preserve">
<style type="text/css">
	.st0{fill:none;}
</style>
<rect class="st0" width="40" height="40"/>
<g>
	<path d="M27,9.2c-1.6-2.7-4.6-4.4-7.7-4.4c-4.1,0-7.7,2.9-8.7,6.8c-3.1,0.6-5.4,3.3-5.4,6.5c0,1.7,0.6,3.3,1.8,4.5
		c0.1,0.1,0.2,0.2,0.3,0.3c0,0,0.2,0.2,0.3,0.2c0.8,0.7,1.8,1,2.8,1h18.8h0.2c0.6,0,1.1-0.1,1.7-0.3c0.6-0.2,1-0.6,1.2-0.7
		c0.1-0.1,0.1-0.1,0.1-0.1c1.5-1.6,2.4-3.8,2.4-6C34.8,12.7,31.3,9.2,27,9.2z"/>
	<path d="M11.5,31.2L11.5,31.2c-0.6,0-1-0.5-1-1V27c0-0.6,0.5-1,1-1l0,0c0.6,0,1,0.5,1,1v3.2C12.5,30.7,12,31.2,11.5,31.2z"/>
	<path d="M15.8,35L15.8,35c-0.6,0-1-0.5-1-1v-7c0-0.6,0.5-1,1-1l0,0c0.6,0,1,0.5,1,1v7C16.8,34.6,16.3,35,15.8,35z"/>
	<path d="M20.1,31.2L20.1,31.2c-0.6,0-1-0.5-1-1V27c0-0.6,0.5-1,1-1l0,0c0.6,0,1,0.5,1,1v3.2C21.1,30.7,20.6,31.2,20.1,31.2z"/>
	<path d="M28.7,31.2L28.7,31.2c-0.6,0-1-0.5-1-1V27c0-0.6,0.5-1,1-1l0,0c0.6,0,1,0.5,1,1v3.2C29.7,30.7,29.3,31.2,28.7,31.2z"/>
	<path d="M24.4,35L24.4,35c-0.6,0-1-0.5-1-1v-7c0-0.6,0.5-1,1-1l0,0c0.6,0,1,0.5,1,1v7C25.4,34.6,24.9,35,24.4,35z"/>
</g>
</svg>
