<?xml version="1.0" encoding="utf-8"?>
<!-- Generator: Adobe Illustrator 28.2.0, SVG Export Plug-In . SVG Version: 6.00 Build 0)  -->
<svg version="1.1" id="weather-storm" xmlns="http://www.w3.org/2000/svg" xmlns:xlink="http://www.w3.org/1999/xlink" x="0px"
	 y="0px" viewBox="0 0 40 40" style="enable-background:new 0 0 40 40;" xml:space="preserve">
<style type="text/css">
	.st0{fill:none;}
</style>
<rect class="st0" width="40" height="40"/>
<g>
	<path d="M27,9.2c-1.6-2.7-4.6-4.4-7.7-4.4c-4.1,0-7.7,2.9-8.7,6.8c-3.1,0.6-5.4,3.3-5.4,6.5c0,1.7,0.6,3.3,1.8,4.5
		c0.1,0.1,0.2,0.2,0.3,0.3c0,0,0.2,0.2,0.3,0.2c0.8,0.7,1.8,1,2.8,1h18.8h0.2c0.6,0,1.1-0.1,1.7-0.3c0.6-0.2,1-0.6,1.2-0.7
		c0.1-0.1,0.1-0.1,0.1-0.1c1.5-1.6,2.4-3.8,2.4-6C34.8,12.7,31.3,9.2,27,9.2z"/>
	<path d="M12.5,34.4L12.5,34.4c-0.5-0.3-0.6-0.9-0.4-1.4l3.5-6.1c0.3-0.5,0.9-0.6,1.4-0.4l0,0c0.5,0.3,0.6,0.9,0.4,1.4L13.8,34
		C13.5,34.6,12.9,34.6,12.5,34.4z"/>
	<path d="M6.7,34.4L6.7,34.4c-0.5-0.3-0.6-0.9-0.4-1.4L9.9,27c0.3-0.5,0.9-0.6,1.4-0.4l0,0c0.5,0.3,0.6,0.9,0.4,1.4L8.1,34
		C7.8,34.6,7.2,34.6,6.7,34.4z"/>
	<path d="M18.2,34.4L18.2,34.4c-0.5-0.3-0.6-0.9-0.4-1.4l3.5-6.1c0.3-0.5,0.9-0.6,1.4-0.4l0,0c0.5,0.3,0.6,0.9,0.4,1.4L19.6,34
		C19.3,34.6,18.6,34.6,18.2,34.4z"/>
	<path d="M23.9,34.4L23.9,34.4c-0.5-0.3-0.6-0.9-0.4-1.4l3.5-6.1c0.3-0.5,0.9-0.6,1.4-0.4l0,0c0.5,0.3,0.6,0.9,0.4,1.4L25.3,34
		C25,34.6,24.4,34.6,23.9,34.4z"/>
</g>
</svg>
