<?xml version="1.0" encoding="utf-8"?>
<!-- Generator: Adobe Illustrator 28.2.0, SVG Export Plug-In . SVG Version: 6.00 Build 0)  -->
<svg version="1.1" id="weather-few-clouds.filled" xmlns="http://www.w3.org/2000/svg" xmlns:xlink="http://www.w3.org/1999/xlink"
	 x="0px" y="0px" viewBox="0 0 120 120" style="enable-background:new 0 0 120 120;" xml:space="preserve">
<style type="text/css">
	.st0{fill:none;}
</style>
<rect id="BG_00000129917462170761608040000003804719951776918951_" class="st0" width="120" height="120"/>
<g>
	<path d="M57.7,43c0.6,0.6,1.3,0.8,2,0.8c0.8,0,1.5-0.3,2.1-0.8c0.6-0.6,0.8-1.3,0.8-2c0-0.8-0.3-1.5-0.8-2l-6.4-6.4
		c-0.6-0.5-1.3-0.8-2-0.8c-0.8,0-1.5,0.3-2,0.8c-1.1,1.1-1.1,2.9,0,4.1L57.7,43z"/>
	<path d="M76,37.1c1.6,0,2.9-1.3,2.9-2.9v-9.1c0-0.8-0.3-1.5-0.8-2c-0.6-0.5-1.3-0.8-2-0.8c-1.6,0-2.9,1.3-2.9,2.9v9.1
		C73.2,35.8,74.4,37.1,76,37.1z"/>
	<path d="M92.4,43.8c0.8,0,1.5-0.3,2-0.8l6.4-6.4c0.6-0.6,0.8-1.3,0.8-2c0-0.8-0.3-1.5-0.8-2c-0.6-0.5-1.3-0.8-2-0.8
		c-0.8,0-1.5,0.3-2,0.8l-6.4,6.4c-1.1,1.1-1.1,2.9,0,4.1C90.8,43.5,91.6,43.8,92.4,43.8z"/>
	<path d="M108.2,54.2h-9.1c-0.8,0-1.5,0.3-2,0.8s-0.8,1.3-0.8,2.1c0,1.6,1.3,2.9,2.9,2.9h9.1c1.6,0,2.9-1.3,2.9-2.9
		C111,55.5,109.8,54.2,108.2,54.2z"/>
	<path d="M94.5,71.4c-1.1-1.1-2.9-1.1-4.1,0c-0.6,0.6-0.8,1.3-0.8,2c0,0.8,0.3,1.5,0.8,2l6.4,6.4c0.6,0.5,1.3,0.8,2,0.8
		c0.8,0,1.5-0.3,2-0.8c0.5-0.6,0.8-1.3,0.8-2c0-0.8-0.3-1.5-0.8-2L94.5,71.4z"/>
	<path d="M92.1,57.2c0-8.8-7.2-16-16-16c-5.4,0-10.1,2.6-13,6.7c1,1,2,2.2,2.8,3.4c10.2,0.7,18.6,8.3,20.6,18.1
		C89.9,66.4,92.1,62.1,92.1,57.2z"/>
	<path d="M64.3,54.2c-4.1-6.8-11.5-11.1-19.6-11.1c-10.4,0-19.5,7.2-22.1,17.2c-7.8,1.5-13.7,8.3-13.7,16.5c0,4.2,1.6,8.3,4.5,11.3
		c0.2,0.3,0.5,0.5,0.7,0.7c0,0.1,0.1,0.1,0.1,0.2c0.1,0.1,0.1,0.1,0.2,0.2c0.1,0,0.1,0.1,0.2,0.1c0.1,0,0.1,0.1,0.2,0.1
		c2,1.7,4.5,2.5,7,2.5H69h0.5c2.4,0,4.9-0.8,6.8-2.4c0.2-0.1,0.3-0.2,0.5-0.3c4.5-3.8,7.2-9.3,7.2-15.2C84,63.1,75.1,54.2,64.3,54.2
		z"/>
</g>
</svg>
