<?xml version="1.0" encoding="utf-8"?>
<!-- Generator: Adobe Illustrator 28.2.0, SVG Export Plug-In . SVG Version: 6.00 Build 0)  -->
<svg version="1.1" id="weather-few-clouds-night.filled"
	 xmlns="http://www.w3.org/2000/svg" xmlns:xlink="http://www.w3.org/1999/xlink" x="0px" y="0px" viewBox="0 0 120 120"
	 style="enable-background:new 0 0 120 120;" xml:space="preserve">
<style type="text/css">
	.st0{fill:none;}
</style>
<rect id="BG_00000129917462170761608040000003804719951776918951_" class="st0" width="120" height="120"/>
<path d="M109.1,61.7c-0.5-0.9-1.5-1.5-2.6-1.5l-0.8,0.1c-12.2,0-22.2-9.9-22.2-22.2c0-1.9,0.3-3.9,0.9-6.1c0.3-1.1,0-2.2-0.9-2.9
	c-0.8-0.7-1.9-1-3-0.6C72,31.8,66.3,39.6,65.4,48.5c0.8,0.9,1.5,1.8,2.2,2.7c11.7,0.9,21,10.6,21,22.6c0,0.4,0,0.7,0,1.1
	c0.2,0,0.5,0,0.7,0c7.8,0,15.2-3.8,19.7-10.2C109.6,63.9,109.7,62.6,109.1,61.7z"/>
<path d="M65.9,54.2c-4.1-6.8-11.5-11.1-19.6-11.1c-10.4,0-19.5,7.2-22.1,17.2c-7.8,1.5-13.7,8.3-13.7,16.5C10.5,81,12.1,85,15,88
	c0.2,0.3,0.5,0.5,0.7,0.7c0,0.1,0.1,0.1,0.1,0.2c0.1,0.1,0.1,0.1,0.2,0.2c0.1,0,0.1,0.1,0.2,0.1c0.1,0,0.1,0.1,0.2,0.1
	c2,1.7,4.5,2.5,7,2.5h47.4h0.5c2.4,0,4.9-0.8,6.8-2.4c0.2-0.1,0.3-0.2,0.5-0.3c4.5-3.8,7.2-9.3,7.2-15.2
	C85.6,63,76.7,54.2,65.9,54.2z"/>
</svg>
