<?xml version="1.0" encoding="utf-8"?>
<!-- Generator: Adobe Illustrator 28.2.0, SVG Export Plug-In . SVG Version: 6.00 Build 0)  -->
<svg version="1.1" id="weather-clear-night" xmlns="http://www.w3.org/2000/svg" xmlns:xlink="http://www.w3.org/1999/xlink"
	 x="0px" y="0px" viewBox="0 0 120 120" style="enable-background:new 0 0 120 120;" xml:space="preserve">
<style type="text/css">
	.st0{fill:none;}
</style>
<rect id="BG" class="st0" width="120" height="120"/>
<path d="M62.7,92.1c-1.4,0-2.9-0.1-4.3-0.3C43.7,90,31.8,78,29.9,63.3c-2-15.2,6.7-29.7,20.9-35.2c1.2-0.4,2.5-0.2,3.5,0.7
	c1,0.9,1.3,2.2,1,3.4C54.5,35.1,54,38.1,54,41c0,17.6,14.3,31.9,31.9,31.9l1-0.1c0,0,0.1,0,0.1,0c1.2,0,2.4,0.7,3,1.8
	c0.6,1.1,0.5,2.5-0.2,3.5C83.5,87,73.4,92.1,62.7,92.1L62.7,92.1z M47.4,37.5c-7.8,5.5-12.1,15.1-10.8,25
	c1.5,11.6,11,21.2,22.7,22.7c7.5,1,14.9-1.3,20.5-6C61.4,76.2,47.3,60.2,47.3,41C47.3,39.8,47.3,38.7,47.4,37.5L47.4,37.5z"/>
</svg>
