<?xml version="1.0" encoding="utf-8"?>
<!-- Generator: Adobe Illustrator 28.2.0, SVG Export Plug-In . SVG Version: 6.00 Build 0)  -->
<svg version="1.1" id="weather-storm" xmlns="http://www.w3.org/2000/svg" xmlns:xlink="http://www.w3.org/1999/xlink" x="0px"
	 y="0px" viewBox="0 0 40 40" style="enable-background:new 0 0 40 40;" xml:space="preserve">
<style type="text/css">
	.st0{fill:none;}
</style>
<rect class="st0" width="40" height="40"/>
<g>
	<path d="M27,9.2c-1.6-2.7-4.6-4.4-7.7-4.4c-4.1,0-7.7,2.9-8.7,6.8c-3.1,0.6-5.4,3.3-5.4,6.5c0,1.7,0.6,3.3,1.8,4.5
		c0.1,0.1,0.2,0.2,0.3,0.3c0,0,0.2,0.2,0.3,0.2c0.8,0.7,1.8,1,2.8,1h18.8h0.2c0.6,0,1.1-0.1,1.7-0.3c0.6-0.2,1-0.6,1.2-0.7
		c0.1-0.1,0.1-0.1,0.1-0.1c1.5-1.6,2.4-3.8,2.4-6C34.8,12.7,31.3,9.2,27,9.2z"/>
	<path d="M22.9,29.1h-2.3c-0.2,0-0.3-0.2-0.2-0.3l1.2-2.5c0.1-0.1,0-0.3-0.2-0.3h-3c-0.2,0-0.3,0-0.3,0.1l-2,4.4
		c-0.1,0.1,0,0.3,0.2,0.3h1.9c0.1,0,0.2,0.1,0.2,0.3l-1,3.6c-0.1,0.2,0.2,0.4,0.4,0.2l5.2-5.4C23.1,29.4,23,29.1,22.9,29.1z"/>
</g>
</svg>
