<?xml version="1.0" encoding="utf-8"?>
<!-- Generator: Adobe Illustrator 28.2.0, SVG Export Plug-In . SVG Version: 6.00 Build 0)  -->
<svg version="1.1" id="weather-storm" xmlns="http://www.w3.org/2000/svg" xmlns:xlink="http://www.w3.org/1999/xlink" x="0px"
	 y="0px" viewBox="0 0 40 40" style="enable-background:new 0 0 40 40;" xml:space="preserve">
<style type="text/css">
	.st0{fill:none;}
</style>
<rect class="st0" width="40" height="40"/>
<g>
	<path d="M27,9.2c-1.6-2.7-4.6-4.4-7.7-4.4c-4.1,0-7.7,2.9-8.7,6.8c-3.1,0.6-5.4,3.3-5.4,6.5c0,1.7,0.6,3.3,1.8,4.5l0,0
		c0.1,0.1,0.2,0.2,0.3,0.3c0,0,0,0,0,0.1c0,0,0,0,0.1,0.1l0,0c0,0,0,0,0.1,0c0,0,0,0,0.1,0l0,0c0.8,0.7,1.8,1,2.8,1h18.8v0h0.2
		c1,0,1.9-0.3,2.7-1l0,0c0.1,0,0.1-0.1,0.2-0.1l0,0c0,0,0,0,0,0c0,0,0,0,0,0c1.8-1.5,2.8-3.7,2.8-6C34.8,12.7,31.3,9.2,27,9.2z"/>
	<path d="M21.3,28.5l-0.6-0.4l0.6-0.4c0.2-0.1,0.3-0.4,0.2-0.7c-0.1-0.2-0.4-0.3-0.7-0.2l-0.6,0.4v-0.7c0-0.3-0.2-0.5-0.5-0.5
		c-0.3,0-0.5,0.2-0.5,0.5v0.7l-0.6-0.4c-0.2-0.1-0.5-0.1-0.7,0.2c-0.1,0.2-0.1,0.5,0.2,0.7l0.6,0.4L18,28.5
		c-0.2,0.1-0.3,0.4-0.2,0.7c0.1,0.2,0.4,0.3,0.7,0.2l0.6-0.4v0.7c0,0.3,0.2,0.5,0.5,0.5c0.3,0,0.5-0.2,0.5-0.5v-0.7l0.6,0.4
		c0.2,0.1,0.5,0.1,0.7-0.2C21.6,28.9,21.5,28.6,21.3,28.5z"/>
	<path d="M27.6,28.5l-0.6-0.4l0.6-0.4c0.2-0.1,0.3-0.4,0.2-0.7c-0.1-0.2-0.4-0.3-0.7-0.2l-0.6,0.4v-0.7c0-0.3-0.2-0.5-0.5-0.5
		c-0.3,0-0.5,0.2-0.5,0.5v0.7l-0.6-0.4c-0.2-0.1-0.5-0.1-0.7,0.2c-0.1,0.2-0.1,0.5,0.2,0.7l0.6,0.4l-0.6,0.4
		c-0.2,0.1-0.3,0.4-0.2,0.7c0.1,0.2,0.4,0.3,0.7,0.2l0.6-0.4v0.7c0,0.3,0.2,0.5,0.5,0.5c0.3,0,0.5-0.2,0.5-0.5v-0.7l0.6,0.4
		c0.2,0.1,0.5,0.1,0.7-0.2C27.9,28.9,27.8,28.6,27.6,28.5z"/>
	<path d="M14.9,28.5l-0.6-0.4l0.6-0.4c0.2-0.1,0.3-0.4,0.2-0.7c-0.1-0.2-0.4-0.3-0.7-0.2l-0.6,0.4v-0.7c0-0.3-0.2-0.5-0.5-0.5
		c-0.3,0-0.5,0.2-0.5,0.5v0.7l-0.6-0.4c-0.2-0.1-0.5-0.1-0.7,0.2c-0.1,0.2-0.1,0.5,0.2,0.7l0.6,0.4l-0.6,0.4
		c-0.2,0.1-0.3,0.4-0.2,0.7c0.1,0.2,0.4,0.3,0.7,0.2l0.6-0.4v0.7c0,0.3,0.2,0.5,0.5,0.5c0.3,0,0.5-0.2,0.5-0.5v-0.7l0.6,0.4
		c0.2,0.1,0.5,0.1,0.7-0.2C15.2,28.9,15.2,28.6,14.9,28.5z"/>
	<path d="M18.1,33.3l-0.6-0.4l0.6-0.4c0.2-0.1,0.3-0.4,0.2-0.7c-0.1-0.2-0.4-0.3-0.7-0.2L16.9,32v-0.7c0-0.3-0.2-0.5-0.5-0.5
		c-0.3,0-0.5,0.2-0.5,0.5V32l-0.6-0.4c-0.2-0.1-0.5-0.1-0.7,0.2c-0.1,0.2-0.1,0.5,0.2,0.7l0.6,0.4l-0.6,0.4
		c-0.2,0.1-0.3,0.4-0.2,0.7c0.1,0.2,0.4,0.3,0.7,0.2l0.6-0.4v0.7c0,0.3,0.2,0.5,0.5,0.5c0.3,0,0.5-0.2,0.5-0.5v-0.7l0.6,0.4
		c0.2,0.1,0.5,0.1,0.7-0.2C18.4,33.7,18.3,33.4,18.1,33.3z"/>
	<path d="M24.4,33.3l-0.6-0.4l0.6-0.4c0.2-0.1,0.3-0.4,0.2-0.7c-0.1-0.2-0.4-0.3-0.7-0.2L23.3,32v-0.7c0-0.3-0.2-0.5-0.5-0.5
		c-0.3,0-0.5,0.2-0.5,0.5V32l-0.6-0.4c-0.2-0.1-0.5-0.1-0.7,0.2c-0.1,0.2-0.1,0.5,0.2,0.7l0.6,0.4l-0.6,0.4
		c-0.2,0.1-0.3,0.4-0.2,0.7c0.1,0.2,0.4,0.3,0.7,0.2l0.6-0.4v0.7c0,0.3,0.2,0.5,0.5,0.5c0.3,0,0.5-0.2,0.5-0.5v-0.7l0.6,0.4
		c0.2,0.1,0.5,0.1,0.7-0.2C24.7,33.7,24.7,33.4,24.4,33.3z"/>
	<path d="M11.7,33.3l-0.6-0.4l0.6-0.4c0.2-0.1,0.3-0.4,0.2-0.7c-0.1-0.2-0.4-0.3-0.7-0.2L10.6,32v-0.7c0-0.3-0.2-0.5-0.5-0.5
		c-0.3,0-0.5,0.2-0.5,0.5V32l-0.6-0.4c-0.2-0.1-0.5-0.1-0.7,0.2c-0.1,0.2-0.1,0.5,0.2,0.7l0.6,0.4l-0.6,0.4
		c-0.2,0.1-0.3,0.4-0.2,0.7c0.1,0.2,0.4,0.3,0.7,0.2l0.6-0.4v0.7c0,0.3,0.2,0.5,0.5,0.5c0.3,0,0.5-0.2,0.5-0.5v-0.7l0.6,0.4
		c0.2,0.1,0.5,0.1,0.7-0.2C12.1,33.7,12,33.4,11.7,33.3z"/>
</g>
</svg>
