<?xml version="1.0" encoding="utf-8"?>
<!-- Generator: Adobe Illustrator 28.2.0, SVG Export Plug-In . SVG Version: 6.00 Build 0)  -->
<svg version="1.1" id="weather-overcast" xmlns="http://www.w3.org/2000/svg" xmlns:xlink="http://www.w3.org/1999/xlink" x="0px"
	 y="0px" viewBox="0 0 120 120" style="enable-background:new 0 0 120 120;" xml:space="preserve">
<style type="text/css">
	.st0{fill:none;}
</style>
<rect id="BG" class="st0" width="120" height="120"/>
<path d="M81.2,44.3c-4.9-8.1-13.7-13.2-23.3-13.2c-12.4,0-23.2,8.6-26.2,20.4c-9.3,1.8-16.3,9.8-16.3,19.6c0,5,1.9,9.8,5.3,13.4l0,0
	c0,0,0,0,0,0c0.2,0.3,0.6,0.6,0.8,0.8c0,0.1,0.1,0.1,0.1,0.2c0.1,0.1,0.1,0.1,0.2,0.2l0,0c0.1,0,0.1,0.1,0.2,0.1
	c0.1,0,0.1,0.1,0.2,0.1l0,0c2.4,2,5.3,3,8.3,3h56.3v0h0.6c2.9,0,5.8-1,8.1-2.9l0,0c0.2-0.1,0.4-0.2,0.6-0.4l0,0c0,0,0,0,0,0
	c0,0,0,0,0,0c5.4-4.5,8.5-11,8.5-18C104.6,54.8,94,44.3,81.2,44.3z M21.1,84.1L21.1,84.1L21.1,84.1L21.1,84.1z M91.4,79.2
	c-0.2,0.1-0.4,0.3-0.6,0.4l0,0l0,0c-0.7,0.6-1.8,1.3-3.4,1.3H30.5c-1.5,0-2.7-0.7-3.4-1.3l-0.1-0.1l0,0c0,0,0,0,0,0c0,0,0,0,0,0
	c0,0,0,0,0,0l0,0c-0.1-0.1-0.2-0.2-0.4-0.4l-0.5,0.4l0,0l0.5-0.4l0,0l0,0c-2.1-2.2-3.2-5.1-3.2-8.1c0-6.6,5.2-11.9,11.7-12v0
	c1.9,0,3.6-1.5,3.8-3.4l0,0c1.3-9.5,9.4-16.6,19-16.6c7.4,0,14.2,4.4,17.3,11.1l0,0c0.7,1.6,2.3,2.5,4,2.3l0,0
	c0.6-0.1,1.2-0.1,1.8-0.1c8.5,0,15.4,6.9,15.4,15.4C96.6,72.1,94.7,76.2,91.4,79.2z"/>
</svg>
