<?xml version="1.0" encoding="utf-8"?>
<!-- Generator: Adobe Illustrator 28.2.0, SVG Export Plug-In . SVG Version: 6.00 Build 0)  -->
<svg version="1.1" id="weather-clear.filled" xmlns="http://www.w3.org/2000/svg" xmlns:xlink="http://www.w3.org/1999/xlink"
	 x="0px" y="0px" viewBox="0 0 120 120" style="enable-background:new 0 0 120 120;" xml:space="preserve">
<style type="text/css">
	.st0{fill:none;}
</style>
<rect id="BG" class="st0" width="120" height="120"/>
<g>
	<path d="M36.1,60c0-0.9-0.4-1.8-1-2.4c-0.7-0.6-1.5-1-2.4-1c0,0,0,0,0,0l-10.8,0c-1.9,0-3.4,1.6-3.4,3.5v0c0,0.9,0.4,1.8,1,2.4
		c0.7,0.6,1.5,1,2.4,1c0,0,0,0,0,0l10.8,0C34.6,63.4,36.1,61.9,36.1,60z"/>
	<path d="M38.2,43.1c0.7,0.7,1.5,1,2.4,1c0.9,0,1.8-0.3,2.5-1c0.7-0.7,1-1.5,1-2.4c0-0.9-0.4-1.8-1-2.4l-7.6-7.6
		c-0.7-0.6-1.5-1-2.4-1c0,0,0,0,0,0c-0.9,0-1.8,0.4-2.4,1l0.2,0.2l-0.2-0.2c-1.3,1.3-1.3,3.5,0,4.9L38.2,43.1z"/>
	<path d="M59.9,36.1C59.9,36.1,59.9,36.1,59.9,36.1c1.9,0,3.5-1.6,3.4-3.5l0-10.8c0-0.9-0.4-1.8-1-2.4c-0.7-0.6-1.5-1-2.4-1
		c0,0,0,0,0,0h0c-1.9,0-3.4,1.6-3.4,3.5l0,10.8C56.5,34.5,58,36.1,59.9,36.1z"/>
	<path d="M79.3,44C79.3,44,79.3,44,79.3,44c0.9,0,1.8-0.4,2.4-1l7.6-7.6c0.7-0.7,1-1.5,1-2.4c0-0.9-0.4-1.8-1-2.4l-0.2,0.2l0.2-0.2
		c-0.7-0.6-1.5-1-2.4-1c0,0,0,0,0,0c-0.9,0-1.8,0.4-2.4,1l-7.6,7.6c-1.3,1.3-1.3,3.5,0,4.9C77.5,43.7,78.4,44,79.3,44z"/>
	<path d="M98.1,56.4C98.1,56.4,98.1,56.4,98.1,56.4l-10.8,0c-0.9,0-1.8,0.4-2.4,1s-1,1.5-1,2.5c0,1.9,1.6,3.4,3.5,3.4c0,0,0,0,0,0
		l10.8,0c1.9,0,3.4-1.6,3.4-3.5v0C101.5,58,100,56.4,98.1,56.4z"/>
	<path d="M81.8,76.8c-1.3-1.3-3.5-1.3-4.9,0c-0.7,0.7-1,1.5-1,2.4s0.4,1.8,1,2.4l7.6,7.6c0.7,0.6,1.5,1,2.4,1c0,0,0,0,0,0
		c0.9,0,1.8-0.4,2.4-1l0,0c0.6-0.7,1-1.5,1-2.4c0-0.9-0.4-1.8-1-2.4L81.8,76.8z"/>
	<path d="M62.5,84.8c-0.7-0.6-1.5-1-2.5-1c0,0,0,0,0,0c-1.9,0-3.4,1.6-3.4,3.5l0,10.8c0,0.9,0.4,1.8,1,2.4c0.7,0.6,1.5,1,2.4,1
		c0,0,0,0,0,0l0-0.3h0l0,0.3c0.9,0,1.8-0.4,2.4-1c0.7-0.7,1-1.5,1-2.4l0-10.8C63.5,86.3,63.2,85.5,62.5,84.8z"/>
	<path d="M40.7,75.8C40.7,75.8,40.7,75.8,40.7,75.8c-0.9,0-1.8,0.4-2.4,1l-7.6,7.6c-0.7,0.7-1,1.5-1,2.4c0,0.9,0.4,1.8,1,2.4l0,0
		c0.7,0.6,1.5,1,2.4,1c0,0,0,0,0,0c0.9,0,1.8-0.4,2.4-1l7.6-7.6c1.3-1.3,1.3-3.5,0-4.9C42.5,76.2,41.6,75.8,40.7,75.8z"/>
	<path d="M60,41c-10.5,0-19,8.5-19,19s8.5,19,19,19c10.5,0,19-8.5,19-19S70.5,41,60,41z"/>
</g>
</svg>
