<?xml version="1.0" encoding="utf-8"?>
<!-- Generator: Adobe Illustrator 28.2.0, SVG Export Plug-In . SVG Version: 6.00 Build 0)  -->
<svg version="1.1" id="weather-severe-alert" xmlns="http://www.w3.org/2000/svg" xmlns:xlink="http://www.w3.org/1999/xlink"
	 x="0px" y="0px" viewBox="0 0 120 120" style="enable-background:new 0 0 120 120;" xml:space="preserve">
<style type="text/css">
	.st0{fill:none;}
</style>
<rect id="BG" class="st0" width="120" height="120"/>
<g>
	<path d="M81.2,35.8c-4.9-8.1-13.7-13.2-23.3-13.2c-12.4,0-23.2,8.6-26.2,20.4c-9.3,1.8-16.3,9.8-16.3,19.6c0,5,1.9,9.8,5.3,13.4
		c0.2,0.3,0.6,0.6,0.8,0.8c0,0.1,0.1,0.1,0.1,0.2c0.1,0.1,0.1,0.1,0.2,0.2c0.1,0,0.1,0.1,0.2,0.1s0.1,0.1,0.2,0.1c2.4,2,5.3,3,8.3,3
		h8.6l4.7-8H30.5c-1.5,0-2.7-0.7-3.4-1.3L27,71c-0.1-0.1-0.2-0.2-0.4-0.4c-2.1-2.2-3.2-5.1-3.2-8.1c0-6.6,5.2-11.9,11.7-12
		c1.9,0,3.6-1.5,3.8-3.4c1.3-9.5,9.4-16.6,19-16.6c7.4,0,14.2,4.4,17.3,11.1c0.7,1.6,2.3,2.5,4,2.3c0.6-0.1,1.2-0.1,1.8-0.1
		c8.5,0,15.4,6.9,15.4,15.4c0.2,4.4-1.7,8.5-5,11.5c-0.2,0.1-0.4,0.3-0.6,0.4c-0.7,0.6-1.8,1.3-3.4,1.3H76.1l4.7,8h6h0.6
		c2.9,0,5.8-1,8.1-2.9c0.2-0.1,0.4-0.2,0.6-0.4c5.4-4.5,8.5-11,8.5-18C104.6,46.3,94,35.8,81.2,35.8z"/>
	<path d="M80.7,93.6L62.1,61.8c-1-1.7-3.4-1.7-4.4,0L39.2,93.6c-1,1.7,0.2,3.8,2.2,3.8h18.6h18.6C80.4,97.4,81.7,95.3,80.7,93.6z
		 M57.7,70.7c0-0.4,0-0.7,0.1-1c0.1-0.3,0.3-0.5,0.6-0.7c0.3-0.2,0.8-0.3,1.5-0.3c0.7,0,1.2,0.1,1.5,0.3c0.3,0.2,0.5,0.4,0.6,0.7
		c0.1,0.3,0.1,0.7,0.1,1v13.5c0,0.4,0,0.7-0.1,1c-0.1,0.3-0.3,0.5-0.6,0.7c-0.3,0.2-0.8,0.3-1.5,0.3c-0.7,0-1.2-0.1-1.5-0.3
		c-0.3-0.2-0.5-0.4-0.6-0.7c-0.1-0.3-0.1-0.6-0.1-1V70.7z M62.2,92.6c-0.1,0.4-0.3,0.7-0.6,0.9c-0.3,0.2-0.9,0.3-1.6,0.3
		c-1,0-1.6-0.2-2-0.5c-0.3-0.4-0.5-1-0.5-1.9c0-0.4,0-0.8,0.1-1.2c0.1-0.4,0.3-0.7,0.6-0.9c0.3-0.2,0.9-0.3,1.7-0.3
		c1,0,1.6,0.2,1.9,0.5c0.3,0.4,0.5,1,0.5,1.9C62.3,91.9,62.3,92.3,62.2,92.6z"/>
</g>
</svg>
