<?xml version="1.0" encoding="utf-8"?>
<!-- Generator: Adobe Illustrator 28.2.0, SVG Export Plug-In . SVG Version: 6.00 Build 0)  -->
<svg version="1.1" id="weather-overcast.filled" xmlns="http://www.w3.org/2000/svg" xmlns:xlink="http://www.w3.org/1999/xlink"
	 x="0px" y="0px" viewBox="0 0 120 120" style="enable-background:new 0 0 120 120;" xml:space="preserve">
<style type="text/css">
	.st0{fill:none;}
</style>
<rect id="BG" class="st0" width="120" height="120"/>
<path d="M81.2,44.3C76.3,36.2,67.5,31,57.9,31c-12.4,0-23.2,8.6-26.2,20.4c-9.3,1.8-16.3,9.8-16.3,19.6c0,5,1.9,9.8,5.3,13.4l0,0
	c0,0,0,0,0,0c0.2,0.3,0.6,0.6,0.8,0.8c0,0.1,0.1,0.1,0.1,0.2c0.1,0.1,0.1,0.1,0.2,0.2l0,0c0.1,0,0.1,0.1,0.2,0.1
	c0.1,0,0.1,0.1,0.2,0.1l0,0c2.4,2,5.3,3,8.3,3h56.3v0h0.6c2.9,0,5.8-1,8.1-2.9l0,0c0.2-0.1,0.4-0.2,0.6-0.4l0,0c0,0,0,0,0,0
	c0,0,0,0,0,0c5.4-4.5,8.5-11,8.5-18C104.6,54.8,94,44.3,81.2,44.3z M21.1,84.1L21.1,84.1L21.1,84.1L21.1,84.1z"/>
</svg>
