<?xml version="1.0" encoding="utf-8"?>
<!-- Generator: Adobe Illustrator 28.2.0, SVG Export Plug-In . SVG Version: 6.00 Build 0)  -->
<svg version="1.1" id="Layer_1" xmlns="http://www.w3.org/2000/svg" xmlns:xlink="http://www.w3.org/1999/xlink" x="0px" y="0px"
	 viewBox="0 0 40 40" style="enable-background:new 0 0 40 40;" xml:space="preserve">
<g id="BG">
</g>
<g>
	<path d="M11.8,20c0-0.5-0.4-1-1-1H7.2c-0.6,0-1,0.5-1,1c0,0.6,0.5,1,1,1h3.6C11.4,21,11.8,20.5,11.8,20z"/>
	<path d="M12.9,14.2c0.3,0.4,0.9,0.4,1.3,0c0.4-0.4,0.4-1,0-1.3l-2.5-2.5c-0.3-0.4-0.9-0.4-1.3,0c-0.4,0.3-0.4,0.9,0,1.3L12.9,14.2z
		"/>
	<path d="M20,11.8c0.5,0,0.9-0.4,1-1V7.2c0-0.6-0.5-1-1-1c-0.6,0-1,0.5-1,1v3.6C19,11.4,19.5,11.8,20,11.8z"/>
	<path d="M27.1,14.2l2.5-2.5c0.4-0.3,0.4-0.9,0-1.3c-0.3-0.4-0.9-0.4-1.3,0l-2.5,2.5c-0.4,0.3-0.4,0.9,0,1.3
		C26.1,14.6,26.7,14.6,27.1,14.2z"/>
	<path d="M32.8,19h-3.6c-0.6,0-1,0.5-1,1s0.4,0.9,1,1h3.6c0.6,0,1-0.5,1-1C33.8,19.4,33.3,19,32.8,19z"/>
	<path d="M27.1,25.7c-0.3-0.4-0.9-0.4-1.3,0c-0.4,0.4-0.4,1,0,1.3l2.5,2.5c0.3,0.4,0.9,0.4,1.3,0c0.4-0.3,0.4-0.9,0-1.3L27.1,25.7z"
		/>
	<path d="M20,28.1c-0.5,0-0.9,0.5-1,1v3.6c0,0.6,0.5,1,1,1c0.6,0,1-0.5,1-1v-3.6C21,28.5,20.5,28.1,20,28.1z"/>
	<path d="M12.9,25.8l-2.5,2.5c-0.4,0.3-0.4,0.9,0,1.3c0.3,0.4,0.9,0.4,1.3,0l2.5-2.5c0.4-0.3,0.4-0.9,0-1.3
		C13.9,25.4,13.3,25.4,12.9,25.8z"/>
	<circle cx="20" cy="20" r="6.1"/>
</g>
</svg>
