<?xml version="1.0" encoding="utf-8"?>
<!-- Generator: Adobe Illustrator 28.2.0, SVG Export Plug-In . SVG Version: 6.00 Build 0)  -->
<svg version="1.1" xmlns="http://www.w3.org/2000/svg" xmlns:xlink="http://www.w3.org/1999/xlink" x="0px" y="0px"
	 viewBox="0 0 40 40" style="enable-background:new 0 0 40 40;" xml:space="preserve">
<g id="Layer_1">
</g>
<g id="weather-clear-night.filled">
	<path d="M30,24.9c-0.2-0.4-0.6-0.6-1-0.6c0,0,0,0,0,0l-0.3,0c-5.9,0-10.6-4.8-10.6-10.6c0-1,0.1-2,0.4-3c0.1-0.4,0-0.9-0.3-1.1
		c-0.3-0.3-0.8-0.4-1.2-0.2c-4.8,1.8-7.6,6.7-7,11.8c0.6,4.9,4.6,8.9,9.5,9.5c0.5,0.1,1,0.1,1.4,0.1c3.6,0,6.9-1.7,9-4.7
		C30.2,25.7,30.2,25.3,30,24.9z"/>
</g>
</svg>
