<?xml version="1.0" encoding="utf-8"?>
<!-- Generator: Adobe Illustrator 28.2.0, SVG Export Plug-In . SVG Version: 6.00 Build 0)  -->
<svg version="1.1" id="weather-clear-night.filled" xmlns="http://www.w3.org/2000/svg" xmlns:xlink="http://www.w3.org/1999/xlink"
	 x="0px" y="0px" viewBox="0 0 120 120" style="enable-background:new 0 0 120 120;" xml:space="preserve">
<style type="text/css">
	.st0{fill:none;}
</style>
<rect id="BG" class="st0" width="120" height="120"/>
<path d="M90,74.6c-0.6-1.1-1.7-1.8-3-1.8c0,0-0.1,0-0.1,0l-1,0.1C68.3,72.9,54,58.6,54,41c0-2.9,0.4-5.9,1.3-8.8
	c0.4-1.2,0-2.5-1-3.4c-1-0.9-2.3-1.1-3.5-0.7c-14.2,5.5-22.9,20-20.9,35.2C31.8,78,43.7,90,58.4,91.9c1.4,0.2,2.9,0.3,4.3,0.3l0,0
	c10.7,0,20.8-5.1,27.1-14C90.5,77.1,90.6,75.8,90,74.6z"/>
</svg>
