<?xml version="1.0" encoding="utf-8"?>
<!-- Generator: Adobe Illustrator 28.2.0, SVG Export Plug-In . SVG Version: 6.00 Build 0)  -->
<svg version="1.1" xmlns="http://www.w3.org/2000/svg" xmlns:xlink="http://www.w3.org/1999/xlink" x="0px" y="0px"
	 viewBox="0 0 40 40" style="enable-background:new 0 0 40 40;" xml:space="preserve">
<g id="BG">
</g>
<g id="weather-clear">
	<g>
		<g>
			<g>
				<path d="M11.8,20L11.8,20c0,0.5-0.4,1-1,1l-3.6,0c-0.5,0-1-0.4-1-1v0c0-0.5,0.4-1,1-1l3.6,0C11.4,19,11.8,19.5,11.8,20z"/>
			</g>
			<g>
				<path d="M14.2,14.2L14.2,14.2c-0.4,0.4-1,0.4-1.3,0l-2.5-2.5c-0.4-0.4-0.4-1,0-1.3l0,0c0.4-0.4,1-0.4,1.3,0l2.5,2.5
					C14.6,13.2,14.6,13.8,14.2,14.2z"/>
			</g>
			<g>
				<path d="M20,11.8L20,11.8c-0.5,0-1-0.4-1-1l0-3.6c0-0.5,0.4-1,1-1h0c0.5,0,1,0.4,1,1l0,3.6C20.9,11.4,20.5,11.8,20,11.8z"/>
			</g>
			<g>
				<path d="M25.8,14.2L25.8,14.2c-0.4-0.4-0.4-1,0-1.3l2.5-2.5c0.4-0.4,1-0.4,1.3,0l0,0c0.4,0.4,0.4,1,0,1.3l-2.5,2.5
					C26.7,14.6,26.1,14.6,25.8,14.2z"/>
			</g>
			<g>
				<path d="M28.2,20L28.2,20c0-0.5,0.4-1,1-1l3.6,0c0.5,0,1,0.4,1,1v0c0,0.5-0.4,1-1,1l-3.6,0C28.6,20.9,28.2,20.5,28.2,20z"/>
			</g>
			<g>
				<path d="M25.8,25.7L25.8,25.7c0.4-0.4,1-0.4,1.3,0l2.5,2.5c0.4,0.4,0.4,1,0,1.3v0c-0.4,0.4-1,0.4-1.3,0l-2.5-2.5
					C25.4,26.7,25.4,26.1,25.8,25.7z"/>
			</g>
			<g>
				<path d="M20,28.1L20,28.1c0.5,0,1,0.4,1,1l0,3.6c0,0.5-0.4,1-1,1h0c-0.5,0-1-0.4-1-1l0-3.6C19.1,28.6,19.5,28.1,20,28.1z"/>
			</g>
			<g>
				<path d="M14.2,25.8L14.2,25.8c0.4,0.4,0.4,1,0,1.3l-2.5,2.5c-0.4,0.4-1,0.4-1.3,0h0c-0.4-0.4-0.4-1,0-1.3l2.5-2.5
					C13.3,25.4,13.9,25.4,14.2,25.8z"/>
			</g>
			<path d="M20,26.1c-3.4,0-6.1-2.8-6.1-6.1c0-3.4,2.8-6.1,6.1-6.1s6.1,2.8,6.1,6.1C26.1,23.4,23.4,26.1,20,26.1z M20,15.8
				c-2.3,0-4.1,1.9-4.1,4.1s1.9,4.1,4.1,4.1c2.3,0,4.1-1.9,4.1-4.1S22.3,15.8,20,15.8z"/>
		</g>
	</g>
</g>
</svg>
