<?xml version="1.0" encoding="utf-8"?>
<!-- Generator: Adobe Illustrator 28.2.0, SVG Export Plug-In . SVG Version: 6.00 Build 0)  -->
<svg version="1.1" id="weather-storm" xmlns="http://www.w3.org/2000/svg" xmlns:xlink="http://www.w3.org/1999/xlink" x="0px"
	 y="0px" viewBox="0 0 40 40" style="enable-background:new 0 0 40 40;" xml:space="preserve">
<style type="text/css">
	.st0{fill:none;}
	.st1{opacity:0.94;enable-background:new    ;}
</style>
<rect class="st0" width="40" height="40"/>
<g>
	<path class="st1" d="M26.4,11.7L26.4,11.7L26.4,11.7L26.4,11.7z M30.6,21L30.6,21L30.6,21L30.6,21z M10.7,11.8L10.7,11.8L10.7,11.8
		L10.7,11.8L10.7,11.8z M7.5,22.9L7.5,22.9L7.5,22.9L7.5,22.9z M31.7,23L31.7,23L31.7,23L31.7,23z M31.9,22.9L31.9,22.9L31.9,22.9
		L31.9,22.9z M34.8,17c0-4.3-3.5-7.8-7.8-7.8c-1.6-2.7-4.6-4.4-7.7-4.4c-4.1,0-7.7,2.9-8.7,6.8c-3.1,0.6-5.4,3.3-5.4,6.5
		c0,1.7,0.6,3.3,1.8,4.5c0.1,0.1,0.2,0.2,0.3,0.3c0,0,0.2,0.2,0.3,0.2c0.8,0.7,1.8,1,2.8,1h18.8h0.2c0.6,0,1.1-0.1,1.7-0.3
		c0.6-0.2,1-0.6,1.2-0.7c0,0,0,0,0,0c0.1-0.1,0.1-0.1,0.1-0.1C33.9,21.4,34.8,19.2,34.8,17z M29.1,21.4h-19c-0.2,0-0.5,0-0.7-0.1
		c0,0,0,0,0,0c-0.1,0-0.2-0.1-0.2-0.1c0,0-0.3-0.2-0.3-0.2c0,0,0,0,0,0c-0.7-0.7-1.1-1.7-1.1-2.7c0-2.2,1.7-4,3.9-4
		c0.6,0,1.2-0.5,1.3-1.1c0.4-3.2,3.1-5.5,6.3-5.5c2.5,0,4.7,1.5,5.8,3.7c0.2,0.5,0.8,0.8,1.3,0.8c0.2,0,0.4,0,0.6,0
		c2.8,0,5.1,2.3,5.1,5.1c0,1.5-0.6,2.9-1.7,3.9C30.1,21.3,29.6,21.4,29.1,21.4z"/>
	<path d="M21.3,28.5l-0.6-0.4l0.6-0.4c0.2-0.1,0.3-0.4,0.2-0.7c-0.1-0.2-0.4-0.3-0.7-0.2l-0.6,0.4v-0.7c0-0.3-0.2-0.5-0.5-0.5
		s-0.5,0.2-0.5,0.5v0.7l-0.6-0.4c-0.2-0.1-0.5-0.1-0.7,0.2c-0.1,0.2-0.1,0.5,0.2,0.7l0.6,0.4L18,28.5c-0.2,0.1-0.3,0.4-0.2,0.7
		c0.1,0.2,0.4,0.3,0.7,0.2l0.6-0.4v0.7c0,0.3,0.2,0.5,0.5,0.5s0.5-0.2,0.5-0.5V29l0.6,0.4c0.2,0.1,0.5,0.1,0.7-0.2
		C21.6,28.9,21.5,28.6,21.3,28.5z"/>
	<path d="M27.6,28.5L27,28.1l0.6-0.4c0.2-0.1,0.3-0.4,0.2-0.7c-0.1-0.2-0.4-0.3-0.7-0.2l-0.6,0.4v-0.7c0-0.3-0.2-0.5-0.5-0.5
		s-0.5,0.2-0.5,0.5v0.7l-0.6-0.4c-0.2-0.1-0.5-0.1-0.7,0.2c-0.1,0.2-0.1,0.5,0.2,0.7l0.6,0.4l-0.6,0.4c-0.2,0.1-0.3,0.4-0.2,0.7
		c0.1,0.2,0.4,0.3,0.7,0.2l0.6-0.4v0.7c0,0.3,0.2,0.5,0.5,0.5s0.5-0.2,0.5-0.5V29l0.6,0.4c0.2,0.1,0.5,0.1,0.7-0.2
		C27.9,28.9,27.8,28.6,27.6,28.5z"/>
	<path d="M14.9,28.5l-0.6-0.4l0.6-0.4c0.2-0.1,0.3-0.4,0.2-0.7c-0.1-0.2-0.4-0.3-0.7-0.2l-0.6,0.4v-0.7c0-0.3-0.2-0.5-0.5-0.5
		s-0.5,0.2-0.5,0.5v0.7l-0.6-0.4c-0.2-0.1-0.5-0.1-0.7,0.2c-0.1,0.2-0.1,0.5,0.2,0.7l0.6,0.4l-0.6,0.4c-0.2,0.1-0.3,0.4-0.2,0.7
		c0.1,0.2,0.4,0.3,0.7,0.2l0.6-0.4v0.7c0,0.3,0.2,0.5,0.5,0.5s0.5-0.2,0.5-0.5V29l0.6,0.4c0.2,0.1,0.5,0.1,0.7-0.2
		C15.2,28.9,15.2,28.6,14.9,28.5z"/>
	<path d="M18.1,33.3l-0.6-0.4l0.6-0.4c0.2-0.1,0.3-0.4,0.2-0.7c-0.1-0.2-0.4-0.3-0.7-0.2L16.9,32v-0.7c0-0.3-0.2-0.5-0.5-0.5
		s-0.5,0.2-0.5,0.5V32l-0.6-0.4c-0.2-0.1-0.5-0.1-0.7,0.2c-0.1,0.2-0.1,0.5,0.2,0.7l0.6,0.4l-0.6,0.4c-0.2,0.1-0.3,0.4-0.2,0.7
		c0.1,0.2,0.4,0.3,0.7,0.2l0.6-0.4v0.7c0,0.3,0.2,0.5,0.5,0.5s0.5-0.2,0.5-0.5v-0.7l0.6,0.4c0.2,0.1,0.5,0.1,0.7-0.2
		C18.4,33.7,18.3,33.4,18.1,33.3z"/>
	<path d="M24.4,33.3l-0.6-0.4l0.6-0.4c0.2-0.1,0.3-0.4,0.2-0.7c-0.1-0.2-0.4-0.3-0.7-0.2L23.3,32v-0.7c0-0.3-0.2-0.5-0.5-0.5
		s-0.5,0.2-0.5,0.5V32l-0.6-0.4c-0.2-0.1-0.5-0.1-0.7,0.2c-0.1,0.2-0.1,0.5,0.2,0.7l0.6,0.4l-0.6,0.4C21,33.4,20.9,33.7,21,34
		c0.1,0.2,0.4,0.3,0.7,0.2l0.6-0.4v0.7c0,0.3,0.2,0.5,0.5,0.5s0.5-0.2,0.5-0.5v-0.7l0.6,0.4c0.2,0.1,0.5,0.1,0.7-0.2
		C24.7,33.7,24.7,33.4,24.4,33.3z"/>
	<path d="M11.7,33.3l-0.6-0.4l0.6-0.4c0.2-0.1,0.3-0.4,0.2-0.7c-0.1-0.2-0.4-0.3-0.7-0.2L10.6,32v-0.7c0-0.3-0.2-0.5-0.5-0.5
		S9.6,31,9.6,31.3V32L9,31.6c-0.2-0.1-0.5-0.1-0.7,0.2c-0.1,0.2-0.1,0.5,0.2,0.7l0.6,0.4l-0.6,0.4c-0.2,0.1-0.3,0.4-0.2,0.7
		c0.1,0.2,0.4,0.3,0.7,0.2l0.6-0.4v0.7c0,0.3,0.2,0.5,0.5,0.5s0.5-0.2,0.5-0.5v-0.7l0.6,0.4c0.2,0.1,0.5,0.1,0.7-0.2
		C12.1,33.7,12,33.4,11.7,33.3z"/>
</g>
</svg>
