<?xml version="1.0" encoding="utf-8"?>
<!-- Generator: Adobe Illustrator 28.2.0, SVG Export Plug-In . SVG Version: 6.00 Build 0)  -->
<svg version="1.1" id="weather-few-clouds-night" xmlns="http://www.w3.org/2000/svg" xmlns:xlink="http://www.w3.org/1999/xlink"
	 x="0px" y="0px" viewBox="0 0 120 120" style="enable-background:new 0 0 120 120;" xml:space="preserve">
<style type="text/css">
	.st0{fill:none;}
</style>
<rect id="BG_00000129917462170761608040000003804719951776918951_" class="st0" width="120" height="120"/>
<path d="M109,61.7c-0.4-0.8-1.3-1.3-2.1-1.3h-0.1l-0.7,0.1c-12.5,0-22.7-10.2-22.7-22.7c0-2.1,0.4-4.2,0.9-6.3
	c0.2-0.9,0-1.8-0.7-2.4c-0.7-0.6-1.6-0.8-2.5-0.5c-10.1,3.9-16.3,14.2-14.9,25c0,0.1,0,0.2,0,0.3l0,0c0,0-0.1,0-0.1,0
	c-1-1.7-2.3-3.3-3.7-4.6c-0.4-0.3-0.7-0.7-1.1-1c-0.7-0.6-1.5-1.2-2.3-1.8c-0.8-0.5-1.7-1-2.5-1.4c-0.4-0.2-0.9-0.4-1.3-0.6
	c-0.9-0.4-1.8-0.7-2.8-0.9c-1.9-0.5-3.9-0.8-5.9-0.8c-1.3,0-2.6,0.1-3.8,0.3c-3.8,0.7-7.2,2.2-10.2,4.5c-0.5,0.4-1,0.8-1.4,1.2
	c-3.2,2.9-5.5,6.8-6.6,11.1c-2.9,0.6-5.6,1.9-7.8,3.7c-3.6,3.1-5.9,7.6-5.9,12.8c0,4.2,1.6,8.3,4.5,11.3c0.2,0.3,0.5,0.5,0.7,0.7
	c0,0.1,0.1,0.1,0.1,0.2c0.1,0.1,0.1,0.1,0.2,0.2c0,0,0.1,0,0.1,0c0,0,0,0,0.1,0c0.1,0,0.1,0.1,0.2,0.1c2,1.7,4.5,2.5,7,2.5h47.4h0.5
	c2.1,0,4.3-0.6,6.1-1.9c0.3-0.2,0.5-0.4,0.7-0.6c0.2-0.1,0.3-0.2,0.5-0.3c0.3-0.2,0.6-0.5,0.8-0.7c0.1-0.1,0.2-0.2,0.3-0.3
	c0.2-0.2,0.3-0.3,0.5-0.5c0.1-0.1,0.3-0.3,0.4-0.4c0.1-0.1,0.2-0.2,0.3-0.4c0.2-0.2,0.3-0.4,0.4-0.5c0.1-0.1,0.2-0.2,0.2-0.3
	c0.2-0.2,0.3-0.4,0.5-0.6c0.1-0.1,0.1-0.2,0.2-0.2c0.2-0.2,0.3-0.5,0.5-0.7c0-0.1,0.1-0.1,0.1-0.2c0.2-0.3,0.3-0.5,0.5-0.8
	c0,0,0.1-0.1,0.1-0.1c0.2-0.3,0.3-0.6,0.4-0.9c0,0,0-0.1,0-0.1c0.1-0.3,0.3-0.6,0.4-0.9c0,0,0,0,0,0c0.1-0.3,0.3-0.6,0.4-1
	c0,0,0,0,0,0c0.7-2,1.1-4.1,1.1-6.3c0.2,0,0.4,0.1,0.6,0.1c1,0.1,2.1,0.2,3.1,0.2c7.6,0,14.8-3.6,19.3-10
	C109.3,63.5,109.4,62.5,109,61.7z M74.8,83.3c-0.2,0.1-0.3,0.3-0.5,0.3c-0.1,0.1-0.3,0.3-0.5,0.4c-0.6,0.4-1.3,0.7-2.4,0.7H23.5
	c-0.9,0-1.8-0.3-2.3-0.7c-0.2-0.1-0.4-0.3-0.5-0.4l0,0l0,0c-0.1-0.1-0.2-0.2-0.3-0.3c-0.7-0.8-1.3-1.6-1.7-2.6
	c-0.2-0.5-0.4-1-0.6-1.5c-0.3-0.9-0.4-1.8-0.4-2.8c0-1,0.2-2,0.4-3c0.2-0.6,0.4-1.2,0.7-1.8c0.3-0.6,0.7-1.1,1.1-1.6
	c0.8-1,1.8-1.8,2.9-2.5c0.3-0.2,0.6-0.3,0.9-0.4c1.2-0.5,2.5-0.8,3.8-0.8c0.2,0,0.4,0,0.6-0.1c1.3-0.3,2.5-1.4,2.6-2.8
	c0.5-3.5,2.1-6.6,4.4-9c3-3.1,7.1-5,11.6-5c5.2,0,10.1,2.6,13.1,6.8c0.6,0.8,1.1,1.7,1.5,2.6c0.5,1.2,1.6,1.9,2.8,2
	c0.2,0,0.4,0,0.5,0c0.5-0.1,1-0.1,1.5-0.1c0.4,0,0.8,0,1.2,0.1c0.4,0,0.8,0.1,1.2,0.2c5.3,1,9.5,5.3,10.4,10.6
	c0.1,0.3,0.1,0.7,0.1,1c0,0.4,0.1,0.7,0.1,1.1C79.1,77.3,77.5,80.8,74.8,83.3z M87.1,69.2c-0.6-0.1-1.2-0.2-1.9-0.3h0
	c-1.7-6.9-7.2-12.4-14-14.3l0,0c-0.1-0.5-0.2-1-0.3-1.5c-0.9-7,2.1-13.9,7.7-17.8c-0.1,0.9-0.1,1.6-0.1,2.5c0,13.6,10,25,23.1,27.2
	C97.7,68.3,92.5,70,87.1,69.2z"/>
</svg>
