<?xml version="1.0" encoding="utf-8"?>
<!-- Generator: Adobe Illustrator 28.2.0, SVG Export Plug-In . SVG Version: 6.00 Build 0)  -->
<svg version="1.1" id="weather-storm" xmlns="http://www.w3.org/2000/svg" xmlns:xlink="http://www.w3.org/1999/xlink" x="0px"
	 y="0px" viewBox="0 0 40 40" style="enable-background:new 0 0 40 40;" xml:space="preserve">
<style type="text/css">
	.st0{fill:none;}
	.st1{opacity:0.94;}
</style>
<rect class="st0" width="40" height="40"/>
<g>
	<path class="st1" d="M34.8,17c0-4.3-3.5-7.8-7.8-7.8c-1.6-2.7-4.6-4.4-7.7-4.4c-4.1,0-7.7,2.9-8.7,6.8c-3.1,0.6-5.4,3.3-5.4,6.5
		c0,1.7,0.6,3.3,1.8,4.5l0,0c0.1,0.1,0.2,0.2,0.3,0.3c0,0,0,0,0,0.1c0,0,0,0,0.1,0.1l0,0c0,0,0,0,0.1,0c0,0,0,0,0.1,0l0,0
		c0.8,0.7,1.8,1,2.8,1h18.8v0h0.2c1,0,1.9-0.3,2.7-1l0,0c0.1,0,0.1-0.1,0.2-0.1l0,0c0,0,0,0,0,0c0,0,0,0,0,0l0,0
		C33.8,21.5,34.8,19.3,34.8,17z M8.7,21l0.1-0.1c-0.7-0.7-1.1-1.7-1.1-2.7c0-2.2,1.7-4,3.9-4v0c0.6,0,1.2-0.5,1.3-1.1l0,0
		c0.4-3.2,3.1-5.5,6.3-5.5c2.5,0,4.7,1.5,5.8,3.7l0,0c0.2,0.5,0.8,0.8,1.3,0.8l0,0c0.2,0,0.4,0,0.6,0c2.8,0,5.1,2.3,5.1,5.1
		c0,1.5-0.6,2.9-1.7,3.9c-0.1,0-0.1,0.1-0.2,0.1l0.1,0.2h0l0,0L30.2,21l0,0c-0.2,0.2-0.6,0.4-1.1,0.4h-19c-0.5,0-0.9-0.2-1.1-0.4
		l0,0l0,0c0,0,0,0,0,0c0,0,0,0,0,0c0,0,0,0,0,0c0,0,0,0,0,0l0,0l0,0c0,0-0.1-0.1-0.1-0.1l0,0l0,0L8.7,21L8.7,21z M26.4,11.7
		L26.4,11.7L26.4,11.7L26.4,11.7z M30.6,21L30.6,21L30.6,21L30.6,21z M10.7,11.8L10.7,11.8L10.7,11.8L10.7,11.8L10.7,11.8z
		 M7.5,22.9L7.5,22.9L7.5,22.9L7.5,22.9z M31.7,23L31.7,23L31.7,23L31.7,23z M31.9,22.9L31.9,22.9L31.9,22.9L31.9,22.9z"/>
	<path d="M18.1,26.1l-2,4.4c-0.1,0.1,0,0.3,0.2,0.3h1.9c0.1,0,0.2,0.1,0.2,0.3l-1,3.6c-0.1,0.2,0.2,0.4,0.4,0.2l5.2-5.4
		c0.1-0.1,0-0.4-0.1-0.4h-2.3c-0.2,0-0.3-0.2-0.2-0.3l1.2-2.5c0.1-0.1,0-0.3-0.2-0.3h-3C18.2,26,18.1,26,18.1,26.1L18.1,26.1z"/>
</g>
</svg>
