<?xml version="1.0" encoding="utf-8"?>
<!-- Generator: Adobe Illustrator 28.2.0, SVG Export Plug-In . SVG Version: 6.00 Build 0)  -->
<svg version="1.1" xmlns="http://www.w3.org/2000/svg" xmlns:xlink="http://www.w3.org/1999/xlink" x="0px" y="0px"
	 viewBox="0 0 40 40" style="enable-background:new 0 0 40 40;" xml:space="preserve">
<g id="BG">
</g>
<g id="weather-overcast">
	<path d="M26.9,14.9c-1.6-2.7-4.5-4.4-7.6-4.4c-4.1,0-7.6,2.8-8.6,6.8c-3.1,0.5-5.4,3.2-5.4,6.4c0,1.6,0.6,3.2,1.7,4.3
		c0.1,0.1,0.2,0.2,0.2,0.3c0,0,0.1,0.1,0.1,0.1c0,0,0.1,0.1,0.1,0.1c0.8,0.6,1.7,1,2.7,1h19c0.9,0,1.8-0.3,2.6-0.9
		c0.1,0,0.1-0.1,0.2-0.1c1.8-1.4,2.8-3.6,2.8-5.9C34.6,18.3,31.1,14.9,26.9,14.9z"/>
</g>
</svg>
