<?xml version="1.0" encoding="utf-8"?>
<!-- Generator: Adobe Illustrator 28.2.0, SVG Export Plug-In . SVG Version: 6.00 Build 0)  -->
<svg version="1.1" id="battery" xmlns="http://www.w3.org/2000/svg" xmlns:xlink="http://www.w3.org/1999/xlink" x="0px" y="0px"
	 viewBox="0 0 120 120" style="enable-background:new 0 0 120 120;" xml:space="preserve">
<style type="text/css">
	.st0{fill:none;}
</style>
<rect id="BG" class="st0" width="120" height="120"/>
<g>
	<path d="M94.9,39.1c2.8,0,5.1,2.3,5.1,5.1V77c0,2.8-2.3,5.1-5.1,5.1H12.5c-2.8,0-5.1-2.3-5.1-5.1V44.1c0-2.8,2.3-5.1,5.1-5.1H94.9
		 M94.9,32.1H12.5c-6.7,0-12.1,5.4-12.1,12.1V77C0.5,83.7,5.9,89,12.5,89h82.4c6.7,0,12.1-5.4,12.1-12.1V44.1
		C106.9,37.5,101.5,32.1,94.9,32.1L94.9,32.1z"/>
	<g>
		<path d="M92.5,78.3H14.9c-2.1,0-3.8-1.7-3.8-3.8v-28c0-2.1,1.7-3.8,3.8-3.8h77.5c2.1,0,3.8,1.7,3.8,3.8v28
			C96.2,76.6,94.5,78.3,92.5,78.3z"/>
	</g>
	<path d="M119.2,60.6c0-4.7-3.2-8.6-7.5-9.7v19.4C116,69.2,119.2,65.2,119.2,60.6z"/>
</g>
</svg>
