<?xml version="1.0" encoding="utf-8"?>
<!-- Generator: Adobe Illustrator 28.2.0, SVG Export Plug-In . SVG Version: 6.00 Build 0)  -->
<svg version="1.1" id="battery" xmlns="http://www.w3.org/2000/svg" xmlns:xlink="http://www.w3.org/1999/xlink" x="0px" y="0px"
	 viewBox="0 0 120 120" style="enable-background:new 0 0 120 120;" xml:space="preserve">
<style type="text/css">
	.st0{fill:none;}
</style>
<rect id="BG" class="st0" width="120" height="120"/>
<g>
	<path d="M94.9,39.1c2.8,0,5.1,2.3,5.1,5.1V77c0,2.8-2.3,5.1-5.1,5.1H12.5c-2.8,0-5.1-2.3-5.1-5.1V44.1c0-2.8,2.3-5.1,5.1-5.1
		L94.9,39.1 M94.9,32.1H12.5c-6.7,0-12.1,5.4-12.1,12.1V77c0.1,6.7,5.5,12,12.1,12h82.4c6.7,0,12.1-5.4,12.1-12.1V44.1
		C106.9,37.5,101.5,32.1,94.9,32.1L94.9,32.1z"/>
	<g>
		<path d="M91,77.3H16.4c-2,0-3.7-1.6-3.7-3.6V47.4c0-2,1.6-3.6,3.7-3.6h74.5c2,0,3.7,1.6,3.7,3.6v26.3C94.5,75.7,92.9,77.3,91,77.3
			z"/>
	</g>
	<path d="M119.2,60.6c0-4.7-3.2-8.6-7.5-9.7v19.4C116,69.2,119.2,65.2,119.2,60.6z"/>
</g>
</svg>
