<?xml version="1.0" encoding="utf-8"?>
<!-- Generator: Adobe Illustrator 28.2.0, SVG Export Plug-In . SVG Version: 6.00 Build 0)  -->
<svg version="1.1" id="drive-optical" xmlns="http://www.w3.org/2000/svg" xmlns:xlink="http://www.w3.org/1999/xlink" x="0px"
	 y="0px" viewBox="0 0 120 120" style="enable-background:new 0 0 120 120;" xml:space="preserve">
<style type="text/css">
	.st0{fill:none;}
</style>
<rect id="BG" x="0" y="0" class="st0" width="120" height="120"/>
<g>
	<path d="M85.8,78H34.5c-1.6,0-3-1.3-3-3v0c0-1.6,1.3-3,3-3h51.3c1.6,0,3,1.3,3,3v0C88.8,76.7,87.5,78,85.8,78z"/>
	<g>
		<path d="M78.1,27.5H41.8c-3.4,0-6.5,1.9-7.9,4.8l-16.3,33C15.9,68,15,71.2,15,74.6c0,9.9,8,17.9,17.9,17.9h54.2
			c9.9,0,17.9-8,17.9-17.9c0-3.4-1-6.5-2.6-9.3l-16.3-33C84.6,29.4,81.5,27.5,78.1,27.5L78.1,27.5z M28.5,57.2l11-22.2
			c0.4-0.8,1.3-1.4,2.4-1.4h36.3c1,0,2,0.5,2.4,1.4l11,22.2c0,0,0,0,0,0c0,0,0,0,0,0c0,0,0,0,0,0c-1.4-0.4-2.9-0.6-4.4-0.6H32.9
			C31.4,56.7,29.9,56.9,28.5,57.2L28.5,57.2z M32.9,84.3c-5.4,0-9.7-4.4-9.7-9.7c0-5.4,4.4-9.7,9.7-9.7h54.2c5.4,0,9.7,4.4,9.7,9.7
			c0,5.4-4.4,9.7-9.7,9.7H32.9L32.9,84.3z"/>
	</g>
</g>
</svg>
