<?xml version="1.0" encoding="utf-8"?>
<!-- Generator: Adobe Illustrator 28.2.0, SVG Export Plug-In . SVG Version: 6.00 Build 0)  -->
<svg version="1.1" id="drive-optical.filled" xmlns="http://www.w3.org/2000/svg" xmlns:xlink="http://www.w3.org/1999/xlink"
	 x="0px" y="0px" viewBox="0 0 120 120" style="enable-background:new 0 0 120 120;" xml:space="preserve">
<style type="text/css">
	.st0{fill:none;}
</style>
<rect id="BG" x="0" y="0" class="st0" width="120" height="120"/>
<g>
	<path d="M88.4,56.7H31.5c-9.1,0-16.6,7.4-16.6,16.6v2.7c0,9.1,7.4,16.6,16.6,16.6h56.9c9.1,0,16.6-7.4,16.6-16.6v-2.7
		C105,64.1,97.6,56.7,88.4,56.7z M85.8,78H34.5c-1.6,0-3-1.3-3-3s1.3-3,3-3h51.3c1.6,0,3,1.3,3,3S87.5,78,85.8,78z"/>
	<path d="M88.4,50.7c2.6,0,5,0.4,7.3,1.2l-9.7-19.6c-1.4-2.9-4.6-4.8-7.9-4.8H41.8c-3.4,0-6.5,1.9-7.9,4.8l-9.7,19.6
		c2.3-0.8,4.8-1.2,7.3-1.2H88.4z"/>
</g>
</svg>
