<?xml version="1.0" encoding="utf-8"?>
<!-- Generator: Adobe Illustrator 28.2.0, SVG Export Plug-In . SVG Version: 6.00 Build 0)  -->
<svg version="1.1" id="drive-harddisk.filled" xmlns="http://www.w3.org/2000/svg" xmlns:xlink="http://www.w3.org/1999/xlink"
	 x="0px" y="0px" viewBox="0 0 120 120" style="enable-background:new 0 0 120 120;" xml:space="preserve">
<style type="text/css">
	.st0{fill:none;}
</style>
<rect id="BG" class="st0" width="120" height="120"/>
<g>
	<path d="M88.4,50.7c2.6,0,5,0.4,7.3,1.2L86,32.3c-1.4-2.9-4.6-4.8-7.9-4.8H41.8c-3.4,0-6.5,1.9-7.9,4.8l-9.7,19.6
		c2.3-0.8,4.8-1.2,7.3-1.2H88.4z"/>
	<path d="M88.4,56.7H31.5c-9.1,0-16.6,7.4-16.6,16.6V76c0,9.1,7.4,16.6,16.6,16.6h56.9c9.1,0,16.6-7.4,16.6-16.6v-2.7
		C105,64.1,97.6,56.7,88.4,56.7z M69.6,78.8c0,1.7-1.3,3-3,3s-3-1.3-3-3v-8c0-1.7,1.3-3,3-3s3,1.3,3,3V78.8z M78.7,78.8
		c0,1.7-1.3,3-3,3s-3-1.3-3-3v-8c0-1.7,1.3-3,3-3s3,1.3,3,3V78.8z M87.9,78.8c0,1.7-1.3,3-3,3s-3-1.3-3-3v-8c0-1.7,1.3-3,3-3
		s3,1.3,3,3V78.8z"/>
</g>
</svg>
