<?xml version="1.0" encoding="utf-8"?>
<!-- Generator: Adobe Illustrator 28.2.0, SVG Export Plug-In . SVG Version: 6.00 Build 0)  -->
<svg version="1.1" id="input-keyboard.filled" xmlns="http://www.w3.org/2000/svg" xmlns:xlink="http://www.w3.org/1999/xlink"
	 x="0px" y="0px" viewBox="0 0 120 120" style="enable-background:new 0 0 120 120;" xml:space="preserve">
<style type="text/css">
	.st0{fill:none;}
</style>
<rect id="BG" class="st0" width="120" height="120"/>
<path d="M95,30.7H25c-4.8,0-8.7,3.9-8.7,8.7v41.1c0,4.8,3.9,8.7,8.7,8.7H95c4.8,0,8.7-3.9,8.7-8.7V39.4
	C103.8,34.6,99.9,30.7,95,30.7z M56.3,44.9c0-1.2,0.9-2.2,2.2-2.2h3.2c1.2,0,2.2,1,2.2,2.2v3.2c0,1.2-1,2.2-2.2,2.2h-3.2
	c-1.2,0-2.2-1-2.2-2.2V44.9z M56.2,58.3c0-1.2,1-2.2,2.2-2.2h3.2c1.2,0,2.2,1,2.2,2.2v3.2c0,1.2-1,2.2-2.2,2.2h-3.2
	c-1.2,0-2.2-1-2.2-2.2V58.3z M41.8,44.9c0-1.2,1-2.2,2.2-2.2h3.2c1.2,0,2.2,1,2.2,2.2v3.2c0,1.2-1,2.2-2.2,2.2H44
	c-1.2,0-2.2-1-2.2-2.2V44.9z M35,75.1c0,1.2-1,2.2-2.2,2.2h-3.2c-1.2,0-2.2-1-2.2-2.2v-3.2c0-1.2,1-2.2,2.2-2.2h3.2
	c1.2,0,2.2,1,2.2,2.2V75.1z M35,61.5c0,1.2-1,2.2-2.2,2.2h-3.2c-1.2,0-2.2-1-2.2-2.2v-3.2c0-1.2,1-2.2,2.2-2.2h3.2
	c1.2,0,2.2,1,2.2,2.2V61.5z M35,48.1c0,1.2-1,2.2-2.2,2.2h-3.2c-1.2,0-2.2-1-2.2-2.2v-3.2c0-1.2,1-2.2,2.2-2.2h3.2
	c1.2,0,2.2,1,2.2,2.2V48.1z M41.8,58.3c0-1.2,1-2.2,2.2-2.2h3.2c1.2,0,2.2,1,2.2,2.2v3.2c0,1.2-1,2.2-2.2,2.2H44
	c-1.2,0-2.2-1-2.2-2.2V58.3z M78.2,75.1c0,1.2-1,2.2-2.2,2.2h-0.9h-2.4H61.6h-3.2H47.2H44c-1.2,0-2.2-1-2.2-2.2v-3.2
	c0-1.2,1-2.2,2.2-2.2h3.2h11.2h3.2h11.2h2.4H76c1.2,0,2.2,1,2.2,2.2V75.1z M78.2,61.5c0,1.2-1,2.2-2.2,2.2h-3.2
	c-1.2,0-2.2-1-2.2-2.2v-3.2c0.1-1.2,1.1-2.2,2.3-2.2H76c1.2,0,2.2,1,2.2,2.2V61.5z M78.2,48.1c0,1.2-1,2.2-2.2,2.2h-3.2
	c-1.2,0-2.2-1-2.2-2.2v-3.2c0.1-1.2,1.1-2.2,2.3-2.2H76c1.2,0,2.2,1,2.2,2.2V48.1z M92.7,75.1c0,1.2-1,2.2-2.2,2.2h-3.2
	c-1.2,0-2.2-1-2.2-2.2v-3.2c0-1.2,1-2.2,2.2-2.2h3.2c1.2,0,2.2,1,2.2,2.2V75.1z M92.7,61.5c0,1.2-1,2.2-2.2,2.2h-3.2
	c-1.2,0-2.2-1-2.2-2.2v-3.2c0.1-1.2,1.1-2.2,2.3-2.2h3.1c1.2,0,2.2,1,2.2,2.2V61.5z M92.7,48.1c0,1.2-1,2.2-2.2,2.2h-3.2
	c-1.2,0-2.2-1-2.2-2.2v-3.2c0.1-1.2,1.1-2.2,2.3-2.2h3.1c1.2,0,2.2,1,2.2,2.2V48.1z"/>
</svg>
