<?xml version="1.0" encoding="utf-8"?>
<!-- Generator: Adobe Illustrator 28.2.0, SVG Export Plug-In . SVG Version: 6.00 Build 0)  -->
<svg version="1.1" id="input-keyboard" xmlns="http://www.w3.org/2000/svg" xmlns:xlink="http://www.w3.org/1999/xlink" x="0px"
	 y="0px" viewBox="0 0 120 120" style="enable-background:new 0 0 120 120;" xml:space="preserve">
<style type="text/css">
	.st0{fill:none;}
</style>
<rect id="BG" class="st0" width="120" height="120"/>
<g>
	<path d="M47.2,42.7H44c-1.2,0-2.2,1-2.2,2.2v3.2c0,1.2,1,2.2,2.2,2.2h3.2c1.2,0,2.2-1,2.2-2.2v-3.2C49.4,43.7,48.4,42.7,47.2,42.7z
		"/>
	<path d="M32.8,42.7h-3.2c-1.2,0-2.2,1-2.2,2.2v3.2c0,1.2,1,2.2,2.2,2.2h3.2c1.2,0,2.2-1,2.2-2.2v-3.2C35,43.7,34,42.7,32.8,42.7z"
		/>
	<path d="M58.5,42.7h3.2c1.2,0,2.2,1,2.2,2.2v3.2c0,1.2-1,2.2-2.2,2.2h-3.2c-1.2,0-2.2-1-2.2-2.2v-3.2
		C56.3,43.7,57.2,42.7,58.5,42.7z"/>
	<path d="M72.9,42.7H76c1.2,0,2.2,1,2.2,2.2v3.2c0,1.2-1,2.2-2.2,2.2h-3.2c-1.2,0-2.2-1-2.2-2.2v-3.2C70.7,43.7,71.7,42.7,72.9,42.7
		z"/>
	<path d="M87.3,42.7h3.1c1.2,0,2.2,1,2.2,2.2v3.2c0,1.2-1,2.2-2.2,2.2h-3.2c-1.2,0-2.2-1-2.2-2.2v-3.2
		C85.1,43.7,86.1,42.7,87.3,42.7z"/>
	<path d="M29.6,56.1h3.2c1.2,0,2.2,1,2.2,2.2v3.2c0,1.2-1,2.2-2.2,2.2h-3.2c-1.2,0-2.2-1-2.2-2.2v-3.2
		C27.3,57.1,28.4,56.1,29.6,56.1z"/>
	<path d="M44,56.1h3.2c1.2,0,2.2,1,2.2,2.2v3.2c0,1.2-1,2.2-2.2,2.2H44c-1.2,0-2.2-1-2.2-2.2v-3.2C41.8,57.1,42.8,56.1,44,56.1z"/>
	<path d="M61.6,56.1h-3.2c-1.2,0-2.2,1-2.2,2.2v3.2c0,1.2,1,2.2,2.2,2.2h3.2c1.2,0,2.2-1,2.2-2.2v-3.2
		C63.8,57.1,62.8,56.1,61.6,56.1z"/>
	<path d="M72.9,56.1H76c1.2,0,2.2,1,2.2,2.2v3.2c0,1.2-1,2.2-2.2,2.2h-3.2c-1.2,0-2.2-1-2.2-2.2v-3.2C70.7,57.1,71.7,56.1,72.9,56.1
		z"/>
	<path d="M87.3,56.1h3.1c1.2,0,2.2,1,2.2,2.2v3.2c0,1.2-1,2.2-2.2,2.2h-3.2c-1.2,0-2.2-1-2.2-2.2v-3.2
		C85.1,57.1,86.1,56.1,87.3,56.1z"/>
	<path d="M29.6,69.7h3.2c1.2,0,2.2,1,2.2,2.2v3.2c0,1.2-1,2.2-2.2,2.2h-3.2c-1.2,0-2.2-1-2.2-2.2v-3.2
		C27.3,70.7,28.4,69.7,29.6,69.7z"/>
	<path d="M90.4,69.7h-3.2c-1.2,0-2.2,1-2.2,2.2v3.2c0,1.2,1,2.2,2.2,2.2h3.2c1.2,0,2.2-1,2.2-2.2v-3.2
		C92.7,70.7,91.6,69.7,90.4,69.7z"/>
	<path d="M76,69.7h-0.9h-2.4H61.6h-3.2H47.2H44c-1.2,0-2.2,1-2.2,2.2v3.2c0,1.2,1,2.2,2.2,2.2h3.2h11.2h3.2h11.2h2.4H76
		c1.2,0,2.2-1,2.2-2.2v-3.2C78.2,70.7,77.2,69.7,76,69.7z"/>
	<path d="M95,89.3H25c-4.8,0-8.7-3.9-8.7-8.7V39.4c0-4.8,3.9-8.7,8.7-8.7H95c4.8,0,8.7,3.9,8.7,8.7v41.1
		C103.8,85.4,99.9,89.3,95,89.3z M25,37.1c-1.3,0-2.3,1-2.3,2.3v41.1c0,1.3,1,2.3,2.3,2.3H95c1.3,0,2.3-1,2.3-2.3V39.4
		c0-1.3-1-2.3-2.3-2.3H25z"/>
</g>
</svg>
