<?xml version="1.0" encoding="utf-8"?>
<!-- Generator: Adobe Illustrator 28.2.0, SVG Export Plug-In . SVG Version: 6.00 Build 0)  -->
<svg version="1.1" id="input-mouse" xmlns="http://www.w3.org/2000/svg" xmlns:xlink="http://www.w3.org/1999/xlink" x="0px"
	 y="0px" viewBox="0 0 120 120" style="enable-background:new 0 0 120 120;" xml:space="preserve">
<style type="text/css">
	.st0{fill:none;}
</style>
<rect id="BG" class="st0" width="120" height="120"/>
<path d="M66.3,17.1H53.7c-12.6,0-22.8,10.2-22.8,22.8v40.3c0,12.6,10.2,22.8,22.8,22.8h12.6c12.6,0,22.8-10.2,22.8-22.8V39.9
	C89.1,27.3,78.9,17.1,66.3,17.1z M82.3,39.9v2.3H63V23.8h3.3C75.1,23.8,82.3,31,82.3,39.9z M53.7,23.8H57v18.3H37.7v-2.3
	C37.7,31,44.9,23.8,53.7,23.8z M66.3,96.2H53.7c-8.9,0-16-7.2-16-16.1v-32h44.7v32C82.3,89,75.1,96.2,66.3,96.2z"/>
</svg>
