<?xml version="1.0" encoding="utf-8"?>
<!-- Generator: Adobe Illustrator 28.2.0, SVG Export Plug-In . SVG Version: 6.00 Build 0)  -->
<svg version="1.1" id="media-optical" xmlns="http://www.w3.org/2000/svg" xmlns:xlink="http://www.w3.org/1999/xlink" x="0px"
	 y="0px" viewBox="0 0 120 120" style="enable-background:new 0 0 120 120;" xml:space="preserve">
<style type="text/css">
	.st0{fill:none;}
</style>
<rect id="BG" class="st0" width="120" height="120"/>
<g>
	<path d="M60,17.6c-23.4,0-42.4,19-42.4,42.4s19,42.4,42.4,42.4s42.4-19,42.4-42.4S83.4,17.6,60,17.6z M32,80.9
		c-1-1.4-1.9-2.8-2.8-4.3l16.1-7.3L32,80.9z M50.7,71.4c0.5,0.4,1,0.8,1.5,1.1l-7.7,18.9c-3.4-1.7-6.6-3.9-9.3-6.6L50.7,71.4z
		 M49.7,60c0-5.7,4.6-10.3,10.3-10.3S70.3,54.3,70.3,60S65.7,70.3,60,70.3S49.7,65.7,49.7,60z M69.3,48.6c-0.5-0.4-1-0.8-1.5-1.1
		l7.7-18.9c3.4,1.7,6.6,3.9,9.3,6.6L69.3,48.6z M88,39.1c1,1.4,1.9,2.8,2.8,4.3l-16.1,7.3L88,39.1z M60,25.1c3.8,0,7.4,0.6,10.8,1.7
		l-7.7,18.8c-1-0.2-2.1-0.3-3.1-0.3c-8.1,0-14.7,6.6-14.7,14.7c0,1.3,0.2,2.5,0.5,3.7l-18.5,8.4c-1.4-3.8-2.1-7.8-2.1-12.1
		C25.1,40.7,40.7,25.1,60,25.1z M60,94.9c-3.8,0-7.4-0.6-10.8-1.7l7.7-18.8c1,0.2,2.1,0.3,3.1,0.3c8.1,0,14.7-6.6,14.7-14.7
		c0-1.3-0.2-2.5-0.5-3.7l18.5-8.4c1.4,3.8,2.1,7.8,2.1,12.1C94.9,79.3,79.3,94.9,60,94.9z"/>
	<path d="M68,60c0-4.4-3.6-8-8-8s-8,3.6-8,8s3.6,8,8,8S68,64.4,68,60z M56.1,60c0-2.1,1.7-3.9,3.9-3.9c2.1,0,3.9,1.7,3.9,3.9
		c0,2.1-1.7,3.9-3.9,3.9C57.9,63.9,56.1,62.1,56.1,60z"/>
</g>
</svg>
