<?xml version="1.0" encoding="utf-8"?>
<!-- Generator: Adobe Illustrator 28.2.0, SVG Export Plug-In . SVG Version: 6.00 Build 0)  -->
<svg version="1.1" id="media-optical.filled" xmlns="http://www.w3.org/2000/svg" xmlns:xlink="http://www.w3.org/1999/xlink"
	 x="0px" y="0px" viewBox="0 0 120 120" style="enable-background:new 0 0 120 120;" xml:space="preserve">
<style type="text/css">
	.st0{fill:none;}
</style>
<rect id="BG" class="st0" width="120" height="120"/>
<g>
	<path d="M60,49.7c-5.7,0-10.3,4.6-10.3,10.3S54.3,70.3,60,70.3S70.3,65.7,70.3,60S65.7,49.7,60,49.7z M60,68c-4.4,0-8-3.6-8-8
		s3.6-8,8-8s8,3.6,8,8S64.4,68,60,68z"/>
	<path d="M24.7,73.2l19.2-8.7l0,0l0,0l1.9-0.8c-0.3-1.2-0.5-2.4-0.5-3.7c0-8.1,6.6-14.7,14.7-14.7c1.1,0,2.1,0.1,3.1,0.3l5.4-13.3
		l0,0l0,0l3.3-8.1l0,0l1.8-4.4c-4.3-1.5-8.9-2.3-13.6-2.3c-23.4,0-42.4,19-42.4,42.4c0,5.3,1,10.4,2.8,15.2L24.7,73.2L24.7,73.2z"/>
	<path d="M82.8,52.4L82.8,52.4l-8.6,3.9c0.3,1.2,0.5,2.4,0.5,3.7c0,8.1-6.6,14.7-14.7,14.7c-1.1,0-2.1-0.1-3.1-0.3l-8.7,21.4l0,0
		l-1.8,4.4c4.3,1.5,8.9,2.3,13.6,2.3c23.4,0,42.4-19,42.4-42.4c0-5.3-1-10.4-2.8-15.1L82.8,52.4z"/>
	<path d="M49.4,79.4l2.8-7c-0.5-0.3-1.1-0.7-1.5-1.1l-9.3,8.1L29.7,89.6c3.5,3.6,7.6,6.5,12.1,8.7L49.4,79.4L49.4,79.4z"/>
	<path d="M37.8,75.9l7.6-6.6l-14.3,6.4l0,0l0,0l-4.4,2l0,0l-4.3,1.9c1.1,2.2,2.5,4.2,3.9,6.1L37.8,75.9L37.8,75.9z"/>
	<path d="M74.6,50.7l8.2-3.7l0,0l14.7-6.7c-1.1-2.1-2.4-4.2-3.9-6.1L78.9,46.9L74.6,50.7z"/>
	<path d="M76.5,26.1l-8.7,21.5c0.5,0.3,1.1,0.7,1.5,1.1l10.5-9.1l0,0l0,0l7-6.1l0,0l3.5-3.1c-3.5-3.6-7.6-6.5-12.1-8.7L76.5,26.1
		L76.5,26.1z"/>
	<circle cx="60" cy="60" r="3.9"/>
</g>
</svg>
