<?xml version="1.0" encoding="utf-8"?>
<!-- Generator: Adobe Illustrator 28.2.0, SVG Export Plug-In . SVG Version: 6.00 Build 0)  -->
<svg version="1.1" id="network-wired" xmlns="http://www.w3.org/2000/svg" xmlns:xlink="http://www.w3.org/1999/xlink" x="0px"
	 y="0px" viewBox="0 0 120 120" style="enable-background:new 0 0 120 120;" xml:space="preserve">
<style type="text/css">
	.st0{fill:none;}
</style>
<rect id="BG" class="st0" width="120" height="120"/>
<g>
	<path d="M37.2,50.8L37.2,50.8c-1.9,0-3.5-1.6-3.5-3.5v-11c0-1.9,1.6-3.5,3.5-3.5h0c1.9,0,3.5,1.6,3.5,3.5v11
		C40.7,49.2,39.2,50.8,37.2,50.8z"/>
	<path d="M52.4,50.8L52.4,50.8c-1.9,0-3.5-1.6-3.5-3.5v-11c0-1.9,1.6-3.5,3.5-3.5h0c1.9,0,3.5,1.6,3.5,3.5v11
		C55.9,49.2,54.3,50.8,52.4,50.8z"/>
	<path d="M67.6,50.8L67.6,50.8c-1.9,0-3.5-1.6-3.5-3.5v-11c0-1.9,1.6-3.5,3.5-3.5h0c1.9,0,3.5,1.6,3.5,3.5v11
		C71.1,49.2,69.5,50.8,67.6,50.8z"/>
	<path d="M82.8,50.8L82.8,50.8c-1.9,0-3.5-1.6-3.5-3.5v-11c0-1.9,1.6-3.5,3.5-3.5h0c1.9,0,3.5,1.6,3.5,3.5v11
		C86.3,49.2,84.7,50.8,82.8,50.8z"/>
	<path d="M96.1,33.3c-1.9,0.1-3.3,1.8-3.3,3.7c0,5.5,0,21.1,0,23.2c0,0.2,0,0.3-0.1,0.4c-0.8,2.1-3.4,7.2-10.3,8.2
		c-3.3,0.5-5.9,3-6.6,6.4c-1.1,4.8-5.4,6.3-7.1,6.8c-0.1,0-0.2,0-0.3,0h-0.5H52.1h-0.5c-0.1,0-0.2,0-0.3,0c-1.8-0.4-6-2-7.1-6.8
		c-0.8-3.3-3.4-5.8-6.6-6.4c-6.8-1.1-9.5-6.1-10.3-8.2c-0.1-0.1-0.1-0.3-0.1-0.5l0-23.2c0-1.9-1.4-3.6-3.3-3.7
		c-2-0.1-3.7,1.5-3.7,3.5v23.4c0,1,0.2,2,0.5,3c1,2.5,5,10.9,15.7,12.6c0.5,0.1,0.8,0.6,0.9,1c2,8.9,9.9,11.4,12.3,12
		c0.6,0.2,1.3,0.2,1.9,0.2h0.5h15.8h0.5c0.7,0,1.3-0.1,1.9-0.2c2.4-0.6,10.3-3.2,12.3-12c0.1-0.4,0.4-0.9,0.9-1
		c10.7-1.7,14.7-10.1,15.7-12.6c0.4-0.9,0.5-1.9,0.5-3V36.8C99.8,34.8,98.1,33.2,96.1,33.3z"/>
</g>
</svg>
