<?xml version="1.0" encoding="utf-8"?>
<!-- Generator: Adobe Illustrator 28.2.0, SVG Export Plug-In . SVG Version: 6.00 Build 0)  -->
<svg version="1.1" id="video-display.filled" xmlns="http://www.w3.org/2000/svg" xmlns:xlink="http://www.w3.org/1999/xlink"
	 x="0px" y="0px" viewBox="0 0 120 120" style="enable-background:new 0 0 120 120;" xml:space="preserve">
<style type="text/css">
	.st0{fill:none;}
</style>
<rect id="BG" class="st0" width="120" height="120"/>
<path d="M96.1,23.4H23.9c-4.9,0-8.9,4-8.9,8.9v41.5c0,4.9,4,8.9,8.9,8.9h24.3v7.2h-1.3c-1.8,0-3.3,1.5-3.3,3.3v0.2
	c0,1.8,1.5,3.3,3.3,3.3h26.3c1.8,0,3.3-1.5,3.3-3.3v-0.2c0-1.8-1.5-3.3-3.3-3.3h-1.3v-7.2h24.3c4.9,0,8.9-4,8.9-8.9V32.3
	C105,27.4,101,23.4,96.1,23.4z"/>
</svg>
