<?xml version="1.0" encoding="utf-8"?>
<!-- Generator: Adobe Illustrator 28.2.0, SVG Export Plug-In . SVG Version: 6.00 Build 0)  -->
<svg version="1.1" id="folder" xmlns="http://www.w3.org/2000/svg" xmlns:xlink="http://www.w3.org/1999/xlink" x="0px" y="0px"
	 viewBox="0 0 120 120" style="enable-background:new 0 0 120 120;" xml:space="preserve">
<style type="text/css">
	.st0{fill:none;}
</style>
<rect id="BG" class="st0" width="120" height="120"/>
<path d="M96,92.5H65.8c-0.6-1.2-1.6-2.1-2.8-2.8V83h26.8c4.6,0,8.3-3.7,8.3-8.3v-39c0-4.6-3.8-8.3-8.3-8.3H56.6
	c-0.9,0-1.7-0.7-1.7-1.7v-0.7c0-4.5-3.7-8.3-8.3-8.3H29.2c-4.6,0-8.3,3.7-8.3,8.3v49.6c0,4.5,3.7,8.3,8.3,8.3H56v6.7
	c-1.2,0.6-2.1,1.6-2.8,2.8H23c-1.9,0-3.5,1.6-3.5,3.5c0,1.9,1.6,3.5,3.5,3.5h30.2c1.2,2.2,3.6,3.7,6.3,3.7s5-1.5,6.3-3.7H96
	c1.9,0,3.5-1.6,3.5-3.5C99.5,94.1,97.9,92.5,96,92.5z M29.2,76.3c-0.9,0-1.7-0.7-1.7-1.7l0.1-29.5v-6.5v-1V25.2c0-1,0.8-1.7,1.6-1.7
	h17.4c0.9,0,1.7,0.7,1.7,1.7v0.7c0,4.5,3.7,8.3,8.3,8.3h33.2c0.9,0,1.6,0.7,1.6,1.6v1.8v1v34.8l-0.1,1.3c0,0.9-0.8,1.6-1.6,1.6H63
	h-7H29.2z"/>
</svg>
