<?xml version="1.0" encoding="utf-8"?>
<!-- Generator: Adobe Illustrator 26.5.0, SVG Export Plug-In . SVG Version: 6.00 Build 0)  -->
<svg version="1.1" id="Layer_2_copy" xmlns="http://www.w3.org/2000/svg" xmlns:xlink="http://www.w3.org/1999/xlink" x="0px"
	 y="0px" viewBox="0 0 1024 1024" style="enable-background:new 0 0 1024 1024;" xml:space="preserve">
<style type="text/css">
	.st0{fill:url(#SVGID_1_);}
	.st1{fill:url(#SVGID_00000059269346204942046890000010054664678496726431_);}
	.st2{opacity:0.15;fill:#FFFFFF;enable-background:new    ;}
	.st3{display:none;fill:none;stroke:#204A87;stroke-miterlimit:10;}
</style>
<g>
	<g>
		<g>
			
				<linearGradient id="SVGID_1_" gradientUnits="userSpaceOnUse" x1="512" y1="306.5099" x2="512" y2="541.3094" gradientTransform="matrix(1 0 0 1 0 -198)">
				<stop  offset="6.870289e-04" style="stop-color:#72CAF6"/>
				<stop  offset="1" style="stop-color:#729FCF"/>
			</linearGradient>
			<path class="st0" d="M948.7,233.6c0-28.5-23.3-51.8-51.8-51.8H399c-15.5,0-28.1-12.6-28.1-28.1l0,0c0-28.5-23.3-51.8-51.8-51.8
				h-192c-28.5,0-51.8,23.3-51.8,51.8v79.9v42c0-24,19.6-43.6,43.6-43.6h785.8c24,0,43.6,19.6,43.6,43.6v117.8
				c0.3-2.1,0.4-4.3,0.4-6.5V233.6z"/>
		</g>
		
			<linearGradient id="SVGID_00000120517319607471345630000012167046496913413250_" gradientUnits="userSpaceOnUse" x1="511.8" y1="438.55" x2="511.8" y2="1104.5762" gradientTransform="matrix(1 0 0 1 0 -198)">
			<stop  offset="6.870289e-04" style="stop-color:#72CAF6"/>
			<stop  offset="1" style="stop-color:#729FCF"/>
		</linearGradient>
		<path style="fill:url(#SVGID_00000120517319607471345630000012167046496913413250_);" d="M910,922.2H113.6
			c-21.1,0-38.3-17.2-38.3-38.3V275.5c0-24,19.6-43.6,43.6-43.6h785.8c24,0,43.6,19.6,43.6,43.6v608.3
			C948.3,904.8,931,922.2,910,922.2z"/>
		<path class="st2" d="M904.7,224.6H118.9c-24,0-43.6,19.6-43.6,43.6v7.4c0-24,19.6-43.6,43.6-43.6h785.8c24,0,43.6,19.6,43.6,43.6
			v-7.4C948.3,244.2,928.7,224.6,904.7,224.6z"/>
	</g>
	<path class="st3" d="M896.9,181.8H399c-15.5,0-28.1-12.6-28.1-28.1c0-28.5-23.3-51.8-51.8-51.8h-192c-28.5,0-51.8,23.3-51.8,51.8
		v79.9v34.6v7.4l0,0v608.3c0,21.1,17.2,38.3,38.3,38.3H910c21,0,38.3-17.3,38.3-38.4V393.4c0.3-2.1,0.4-4.3,0.4-6.5V233.6
		C948.7,205.1,925.4,181.8,896.9,181.8z"/>
</g>
</svg>
