<?xml version="1.0" encoding="utf-8"?>
<!-- Generator: Adobe Illustrator 28.2.0, SVG Export Plug-In . SVG Version: 6.00 Build 0)  -->
<svg version="1.1" id="folder" xmlns="http://www.w3.org/2000/svg" xmlns:xlink="http://www.w3.org/1999/xlink" x="0px" y="0px"
	 viewBox="0 0 120 120" style="enable-background:new 0 0 120 120;" xml:space="preserve">
<style type="text/css">
	.st0{fill:none;}
</style>
<rect id="BG" class="st0" width="120" height="120"/>
<g>
	<path d="M95.3,33.8H56.6c-1,0-2-0.8-2-2V31c0-5.3-4.3-9.7-9.7-9.7H24.7c-5.3,0-9.7,4.3-9.7,9.7v58.1c0,5.3,4.3,9.7,9.7,9.7h70.6
		c5.3,0,9.7-4.3,9.7-9.7V43.5C105,38.1,100.6,33.8,95.3,33.8z M22.8,54.4v-7.6v-1.2V31.1c0-1.2,0.9-2,1.9-2H45c1,0,2,0.8,2,2v0.8
		c0,5.3,4.3,9.7,9.7,9.7h38.7c1,0,1.9,0.8,1.9,1.9v2.1v1.2v40.7L97.2,89c0,1.1-0.9,1.9-1.9,1.9H24.7c-1,0-2-0.8-2-2"/>
	<path d="M80.5,82.6l-9.4-9.4c4.7-7,3.8-16.6-2.2-22.6c-7-7-18.3-7-25.2,0c-3.4,3.4-5.2,7.9-5.2,12.6c0,4.8,1.9,9.3,5.2,12.6
		c6,6,15.6,6.9,22.6,2.2l9.4,9.4c0.7,0.7,1.6,1.1,2.5,1.1c0.8,0,1.7-0.3,2.3-0.9l0.1-0.1C81.9,86.1,81.8,84,80.5,82.6z M64.7,71.6
		c-4.6,4.6-12.1,4.6-16.7,0c-2.2-2.2-3.5-5.2-3.5-8.4c0-3.1,1.2-6.1,3.5-8.4c4.6-4.6,12.1-4.6,16.7,0C69.3,59.6,69.3,67,64.7,71.6z"
		/>
</g>
</svg>
