<?xml version="1.0" encoding="utf-8"?>
<!-- Generator: Adobe Illustrator 28.2.0, SVG Export Plug-In . SVG Version: 6.00 Build 0)  -->
<svg version="1.1" id="folder" xmlns="http://www.w3.org/2000/svg" xmlns:xlink="http://www.w3.org/1999/xlink" x="0px" y="0px"
	 viewBox="0 0 120 120" style="enable-background:new 0 0 120 120;" xml:space="preserve">
<style type="text/css">
	.st0{fill:none;}
</style>
<rect id="BG" class="st0" width="120" height="120"/>
<g>
	<path d="M48,54.9c-2.2,2.2-3.5,5.2-3.5,8.4c0,3.1,1.2,6.1,3.5,8.4c4.6,4.6,12.1,4.6,16.7,0c4.6-4.6,4.6-12.1,0-16.7
		C60.1,50.3,52.6,50.3,48,54.9z"/>
	<path d="M95.3,33.8H56.6c-1,0-2-0.8-2-2V31c0-5.3-4.3-9.7-9.7-9.7H24.7c-5.3,0-9.7,4.3-9.7,9.7v58.1c0,5.3,4.3,9.7,9.7,9.7h70.6
		c5.3,0,9.7-4.3,9.7-9.7V43.5C105,38.1,100.6,33.8,95.3,33.8z M80.7,87.6L80.7,87.6c-0.7,0.7-1.6,1-2.4,1c-0.9,0-1.8-0.4-2.5-1.1
		l-9.4-9.4c-7,4.7-16.6,3.8-22.6-2.2c-3.4-3.4-5.2-7.9-5.2-12.6c0-4.8,1.9-9.3,5.2-12.6c7-7,18.3-7,25.2,0c6,6,6.9,15.6,2.2,22.6
		l9.4,9.4C81.8,84,81.9,86.1,80.7,87.6z"/>
</g>
</svg>
