<?xml version="1.0" encoding="utf-8"?>
<!-- Generator: Adobe Illustrator 28.2.0, SVG Export Plug-In . SVG Version: 6.00 Build 0)  -->
<svg version="1.1" id="folder" xmlns="http://www.w3.org/2000/svg" xmlns:xlink="http://www.w3.org/1999/xlink" x="0px" y="0px"
	 viewBox="0 0 120 120" style="enable-background:new 0 0 120 120;" xml:space="preserve">
<style type="text/css">
	.st0{fill:none;}
</style>
<rect id="BG" class="st0" width="120" height="120"/>
<path d="M95.3,33.8H56.6c-1,0-2-0.8-2-2V31c0-5.3-4.3-9.7-9.7-9.7H24.7c-5.3,0-9.7,4.3-9.7,9.7v58.1c0,5.3,4.3,9.7,9.7,9.7h70.6
	c5.3,0,9.7-4.3,9.7-9.7V43.5C105,38.1,100.6,33.8,95.3,33.8z M24.7,29.1H45c1,0,2,0.8,2,2v0.8c0,5.3,4.3,9.7,9.7,9.7h38.7
	c1,0,1.9,0.8,1.9,1.9v3.3H22.8V31.1C22.8,29.9,23.7,29.1,24.7,29.1z M95.3,90.9H24.7c-1,0-2-0.8-2-2V54.4h74.5v34.6
	C97.2,90.1,96.3,90.9,95.3,90.9z"/>
</svg>
