<?xml version="1.0" encoding="utf-8"?>
<!-- Generator: Adobe Illustrator 28.2.0, SVG Export Plug-In . SVG Version: 6.00 Build 0)  -->
<svg version="1.1" xmlns="http://www.w3.org/2000/svg" xmlns:xlink="http://www.w3.org/1999/xlink" x="0px" y="0px"
	 viewBox="0 0 40 40" style="enable-background:new 0 0 40 40;" xml:space="preserve">
<g id="BG">
</g>
<g id="network-server">
	<g>
		<path d="M31.1,8.4H8.9c-2.1,0-3.7,1.7-3.7,3.7v15.8c0,2.1,1.7,3.7,3.7,3.7h22.1c2.1,0,3.7-1.7,3.7-3.7V12.1
			C34.8,10,33.1,8.4,31.1,8.4z M8.9,10.6h22.1c0.8,0,1.5,0.7,1.5,1.5v6.6H7.4v-6.6C7.4,11.3,8.1,10.6,8.9,10.6z M31.1,29.4H8.9
			c-0.8,0-1.5-0.7-1.5-1.5v-6.6h25.2v6.6C32.6,28.8,31.9,29.4,31.1,29.4z"/>
		<circle cx="11.1" cy="14.6" r="1.9"/>
		<circle cx="11.1" cy="25.4" r="1.9"/>
	</g>
</g>
</svg>
