<?xml version="1.0" encoding="utf-8"?>
<!-- Generator: Adobe Illustrator 28.2.0, SVG Export Plug-In . SVG Version: 6.00 Build 0)  -->
<svg version="1.1" id="network-server" xmlns="http://www.w3.org/2000/svg" xmlns:xlink="http://www.w3.org/1999/xlink" x="0px"
	 y="0px" viewBox="0 0 120 120" style="enable-background:new 0 0 120 120;" xml:space="preserve">
<style type="text/css">
	.st0{fill:none;}
</style>
<rect id="BG" class="st0" width="120" height="120"/>
<g>
	<path d="M93.2,24.5H26.8c-6.5,0-11.9,5.3-11.9,11.8v47.4c0,6.5,5.3,11.9,11.9,11.9h66.4c6.5,0,11.8-5.3,11.8-11.9V36.3
		C105.1,29.8,99.7,24.5,93.2,24.5z M97.2,64.7v19c0,2.2-1.8,4-4,4H26.8c-2.2,0-4-1.8-4-4v-19H97.2z M97.2,36.3v19.1H22.8V36.3
		c0-2.2,1.8-4,4-4h66.4C95.4,32.3,97.2,34.1,97.2,36.3z"/>
	<path d="M33.2,37.8c-3.4,0-6.1,2.8-6.1,6.1s2.8,6.1,6.1,6.1s6.1-2.8,6.1-6.1S36.6,37.8,33.2,37.8z"/>
	<path d="M33.2,82.3c3.4,0,6.1-2.8,6.1-6.1c0-3.4-2.8-6.2-6.1-6.2S27,72.8,27,76.2C27,79.6,29.8,82.3,33.2,82.3z"/>
</g>
</svg>
