<?xml version="1.0" encoding="utf-8"?>
<!-- Generator: Adobe Illustrator 28.2.0, SVG Export Plug-In . SVG Version: 6.00 Build 0)  -->
<svg version="1.1" id="folder" xmlns="http://www.w3.org/2000/svg" xmlns:xlink="http://www.w3.org/1999/xlink" x="0px" y="0px"
	 viewBox="0 0 120 120" style="enable-background:new 0 0 120 120;" xml:space="preserve">
<style type="text/css">
	.st0{fill:none;}
</style>
<rect id="BG" class="st0" width="120" height="120"/>
<path d="M96,92.5H65.8c-0.6-1.2-1.6-2.1-2.8-2.8v-3.4v-3.1v-0.5h21.7c4.4,0,7.9-3.5,7.9-7.9V24.6c0-4.4-3.5-7.9-7.9-7.9H34.3
	c-4.4,0-7.9,3.5-7.9,7.9v50.4c0,4.4,3.5,7.9,7.9,7.9H56v0.5v3.1v3.4c-1.2,0.6-2.1,1.6-2.8,2.8H23c-1.9,0-3.5,1.6-3.5,3.5
	c0,1.9,1.6,3.5,3.5,3.5h30.2c1.2,2.2,3.6,3.7,6.3,3.7s5-1.5,6.3-3.7H96c1.9,0,3.5-1.6,3.5-3.5C99.5,94.1,97.9,92.5,96,92.5z
	 M32.8,74.9V24.6c0-0.8,0.7-1.5,1.5-1.5h50.4c0.8,0,1.5,0.7,1.5,1.5v50.4c0,0.8-0.7,1.5-1.5,1.5H34.3C33.5,76.4,32.8,75.7,32.8,74.9
	z"/>
</svg>
