<?xml version="1.0" encoding="utf-8"?>
<!-- Generator: Adobe Illustrator 28.2.0, SVG Export Plug-In . SVG Version: 6.00 Build 0)  -->
<svg version="1.1" xmlns="http://www.w3.org/2000/svg" xmlns:xlink="http://www.w3.org/1999/xlink" x="0px" y="0px"
	 viewBox="0 0 40 40" style="enable-background:new 0 0 40 40;" xml:space="preserve">
<g id="BG">
</g>
<g id="network-server">
	<g>
		<circle cx="11.1" cy="14.6" r="1.9"/>
		<circle cx="11.1" cy="25.4" r="1.9"/>
		<path d="M31,7.6H9c-2.5,0-4.6,2-4.6,4.6v15.7c0,2.5,2,4.6,4.6,4.6h22c2.5,0,4.6-2,4.6-4.6V12.2C35.6,9.7,33.5,7.6,31,7.6z
			 M32.6,12.1v6.6H7.4v-6.6c0-0.8,0.7-1.5,1.5-1.5h22.1C31.9,10.6,32.6,11.3,32.6,12.1z M7.4,27.9v-6.6h25.2v6.6
			c0,0.8-0.7,1.5-1.5,1.5H8.9C8.1,29.4,7.4,28.8,7.4,27.9z"/>
	</g>
</g>
</svg>
