<?xml version="1.0" encoding="utf-8"?>
<!-- Generator: Adobe Illustrator 28.2.0, SVG Export Plug-In . SVG Version: 6.00 Build 0)  -->
<svg version="1.1" xmlns="http://www.w3.org/2000/svg" xmlns:xlink="http://www.w3.org/1999/xlink" x="0px" y="0px"
	 viewBox="0 0 40 40" style="enable-background:new 0 0 40 40;" xml:space="preserve">
<g id="BG">
</g>
<g id="start-here">
	<path d="M29,15.4c0,0,0.1-0.1,0.1-0.1l2-2.3c0.3-0.4,0.3-0.9,0-1.3l-2-2.1c0,0,0,0,0,0l0,0v0c-0.2-0.2-0.6-0.4-1-0.4h-6.7V7.8
		c0-0.7-0.6-1.4-1.4-1.4s-1.4,0.6-1.4,1.4v1.3h-8.5c-0.8,0-1.4,0.6-1.4,1.4v3.9c0,0.8,0.6,1.4,1.4,1.4h8.5v2.5h-7.7
		c-0.4,0-0.7,0.1-1,0.4v0l0,0c0,0,0,0,0,0l-2,2.1c-0.3,0.4-0.4,0.9,0,1.3l2,2.3c0,0,0.1,0.1,0.1,0.1l0,0v0c0.2,0.2,0.6,0.4,1,0.4
		h7.7v7.4c0,0.7,0.6,1.3,1.4,1.3s1.4-0.6,1.4-1.3V25h7.6c0.8,0,1.4-0.6,1.4-1.4v-3.9c0-0.8-0.6-1.4-1.4-1.4h-7.6v-2.5H28
		C28.4,15.8,28.7,15.7,29,15.4L29,15.4L29,15.4z M28.3,20.3V23h-17L10,21.6l1.2-1.2H28.3z M27.7,13.8h-17v-2.7h17.1l1.2,1.2
		L27.7,13.8z"/>
</g>
</svg>
