<?xml version="1.0" encoding="UTF-8"?>
<svg xmlns="http://www.w3.org/2000/svg" version="1.1" viewBox="0 0 120 120">
  <defs>
    <style>
      .cls-1 {
        fill: none;
      }
    </style>
  </defs>
  <!-- Generator: Adobe Illustrator 28.7.1, SVG Export Plug-In . SVG Version: 1.2.0 Build 142)  -->
  <g>
    <g id="Layer_1">
      <g id="start-here_x5F_alt">
        <rect id="BG" class="cls-1" width="120" height="120"/>
        <g>
          <path d="M60,25.1c19.3,0,34.9,15.6,34.9,34.9s-15.6,34.9-34.9,34.9-34.9-15.6-34.9-34.9,15.6-34.9,34.9-34.9ZM60,17.6c-23.4,0-42.4,19-42.4,42.4s19,42.4,42.4,42.4,42.4-19,42.4-42.4-19-42.4-42.4-42.4Z"/>
          <path d="M55,39.6c-.8-.8-1.7-1.1-2.7-1.1s-1.9.4-2.7,1.1-1.1,1.7-1.1,2.7.4,2,1.1,2.7l15,15-14.8,15c-.7.7-1.1,1.7-1.1,2.6s.4,1.9,1,2.6c.7.8,1.6,1.3,2.8,1.3s2-.4,2.7-1.1l17.6-17.7c.7-.7,1.2-1.6,1.2-2.6s-.4-2-1.2-2.6l-17.8-17.9Z"/>
        </g>
      </g>
    </g>
  </g>
</svg>