<?xml version="1.0" encoding="UTF-8"?>
<svg xmlns="http://www.w3.org/2000/svg" version="1.1" viewBox="0 0 120 120">
  <defs>
    <style>
      .cls-1 {
        fill: none;
      }
    </style>
  </defs>
  <!-- Generator: Adobe Illustrator 28.7.1, SVG Export Plug-In . SVG Version: 1.2.0 Build 142)  -->
  <g>
    <g id="Layer_1">
      <g id="start-here_x5F_alt.filled">
        <rect id="BG" class="cls-1" width="120" height="120"/>
        <path d="M60,17.6c-23.4,0-42.4,19-42.4,42.4s19,42.4,42.4,42.4,42.4-19,42.4-42.4-19-42.4-42.4-42.4ZM55.1,80.3c-.7.7-1.6,1.1-2.7,1.1s-2.1-.4-2.8-1.3c-.7-.7-1.1-1.6-1-2.6,0-1,.4-1.9,1.1-2.6l14.8-15-15-15c-.7-.7-1.1-1.7-1.1-2.7s.4-1.9,1.1-2.7,1.7-1.1,2.7-1.1,1.9.4,2.7,1.1l17.7,17.7c.7.7,1.2,1.6,1.2,2.6s-.4,2-1.2,2.6"/>
      </g>
    </g>
  </g>
</svg>