<?xml version="1.0" encoding="utf-8"?>
<!-- Generator: Adobe Illustrator 26.4.1, SVG Export Plug-In . SVG Version: 6.00 Build 0)  -->
<svg version="1.1" id="Layer_2_copy" xmlns="http://www.w3.org/2000/svg" xmlns:xlink="http://www.w3.org/1999/xlink" x="0px"
	 y="0px" viewBox="0 0 1024 1024" style="enable-background:new 0 0 1024 1024;" xml:space="preserve">
<style type="text/css">
	.st0{display:none;fill:none;stroke:#204A87;stroke-miterlimit:10;}
	.st1{fill:url(#SVGID_1_);}
	.st2{fill:url(#SVGID_00000011709526507496308620000006967887262492345005_);}
	.st3{opacity:0.15;fill:#FFFFFF;enable-background:new    ;}
	.st4{fill:url(#SVGID_00000062889997707511570040000014524138815806840194_);}
	.st5{fill:url(#SVGID_00000080188640149138327120000018042172483519717529_);}
	.st6{fill:url(#SVGID_00000095319792163538188730000003257407689607131046_);}
	.st7{fill:url(#SVGID_00000001650893073749037480000010034152814343335301_);}
</style>
<g>
	<path class="st0" d="M896.9,181.8H399c-15.5,0-28.1-12.6-28.1-28.1c0-28.5-23.3-51.8-51.8-51.8h-192c-28.5,0-51.8,23.3-51.8,51.8
		v79.9v34.6v7.4l0,0v608.3c0,21.1,17.2,38.3,38.3,38.3H910c21,0,38.3-17.3,38.3-38.4V393.4c0.3-2.1,0.4-4.3,0.4-6.5V233.6
		C948.7,205.1,925.4,181.8,896.9,181.8z"/>
	
		<linearGradient id="SVGID_1_" gradientUnits="userSpaceOnUse" x1="512" y1="719.4901" x2="512" y2="484.6906" gradientTransform="matrix(1 0 0 -1 0 828)">
		<stop  offset="6.870289e-04" style="stop-color:#72CAF6"/>
		<stop  offset="1" style="stop-color:#729FCF"/>
	</linearGradient>
	<path class="st1" d="M948.7,233.6c0-28.5-23.3-51.8-51.8-51.8H399c-15.5,0-28.1-12.6-28.1-28.1l0,0c0-28.5-23.3-51.8-51.8-51.8
		h-192c-28.5,0-51.8,23.3-51.8,51.8v79.9v42c0-24,19.6-43.6,43.6-43.6h785.8c24,0,43.6,19.6,43.6,43.6v117.8
		c0.3-2.1,0.4-4.3,0.4-6.5V233.6z"/>
	
		<linearGradient id="SVGID_00000049924832862254661190000012745032492056361391_" gradientUnits="userSpaceOnUse" x1="511.8" y1="587.45" x2="511.8" y2="-78.5762" gradientTransform="matrix(1 0 0 -1 0 828)">
		<stop  offset="6.870289e-04" style="stop-color:#72CAF6"/>
		<stop  offset="1" style="stop-color:#729FCF"/>
	</linearGradient>
	<path style="fill:url(#SVGID_00000049924832862254661190000012745032492056361391_);" d="M910,922.2H113.6
		c-21.1,0-38.3-17.2-38.3-38.3V275.5c0-24,19.6-43.6,43.6-43.6h785.8c24,0,43.6,19.6,43.6,43.6v608.3
		C948.3,904.8,931,922.2,910,922.2z"/>
	<path class="st3" d="M904.7,224.6H118.9c-24,0-43.6,19.6-43.6,43.6v7.4c0-24,19.6-43.6,43.6-43.6h785.8c24,0,43.6,19.6,43.6,43.6
		v-7.4C948.3,244.2,928.7,224.6,904.7,224.6z"/>
</g>
<g>
	<g>
		
			<linearGradient id="SVGID_00000083078805035298646290000005659791502790777783_" gradientUnits="userSpaceOnUse" x1="512" y1="459.8301" x2="512" y2="750.5559">
			<stop  offset="0" style="stop-color:#62A3DF"/>
			<stop  offset="1" style="stop-color:#5A8BC8"/>
		</linearGradient>
		<path style="fill:url(#SVGID_00000083078805035298646290000005659791502790777783_);" d="M645,447.6H379
			c-20,0-36.2,16.2-36.2,36.2v219.7c0,20,16.2,36.2,36.2,36.2h266c20,0,36.2-16.2,36.2-36.2V483.8
			C681.2,463.8,664.9,447.6,645,447.6z M379,476.7h266c3.9,0,7.1,3.2,7.1,7.1v20.7H371.9v-20.7C371.9,479.9,375.1,476.7,379,476.7z
			 M645,710.6H379c-3.9,0-7.1-3.2-7.1-7.1V533.6h280.2v169.9C652.1,707.4,648.9,710.6,645,710.6z"/>
		
			<linearGradient id="SVGID_00000035525801240824045010000012814559900795952305_" gradientUnits="userSpaceOnUse" x1="511.9988" y1="459.8301" x2="511.9988" y2="750.5559">
			<stop  offset="0" style="stop-color:#62A3DF"/>
			<stop  offset="1" style="stop-color:#5A8BC8"/>
		</linearGradient>
		<path style="fill:url(#SVGID_00000035525801240824045010000012814559900795952305_);" d="M595.4,656.9H428.6
			c-8,0-14.6,6.5-14.6,14.6c0,8,6.5,14.6,14.6,14.6h166.8c8,0,14.6-6.5,14.6-14.6C610,663.4,603.5,656.9,595.4,656.9z"/>
	</g>
	
		<linearGradient id="SVGID_00000027597858524313315960000014704815759511263166_" gradientUnits="userSpaceOnUse" x1="410.3033" y1="459.8301" x2="410.3033" y2="750.5559">
		<stop  offset="0" style="stop-color:#62A3DF"/>
		<stop  offset="1" style="stop-color:#5A8BC8"/>
	</linearGradient>
	<path style="fill:url(#SVGID_00000027597858524313315960000014704815759511263166_);" d="M422.9,579.1h-25.2c-1.1,0-2-0.9-2-2
		v-25.2c0-1.1,0.9-2,2-2h25.2c1.1,0,2,0.9,2,2v25.2C424.9,578.2,424,579.1,422.9,579.1z"/>
	
		<linearGradient id="SVGID_00000023996372967292994030000003924297899794159798_" gradientUnits="userSpaceOnUse" x1="410.3033" y1="459.8301" x2="410.3033" y2="750.5559">
		<stop  offset="0" style="stop-color:#62A3DF"/>
		<stop  offset="1" style="stop-color:#5A8BC8"/>
	</linearGradient>
	<path style="fill:url(#SVGID_00000023996372967292994030000003924297899794159798_);" d="M422.9,620.4h-25.2c-1.1,0-2-0.9-2-2
		v-25.2c0-1.1,0.9-2,2-2h25.2c1.1,0,2,0.9,2,2v25.2C424.9,619.5,424,620.4,422.9,620.4z"/>
</g>
</svg>
