<?xml version="1.0" encoding="utf-8"?>
<!-- Generator: Adobe Illustrator 28.2.0, SVG Export Plug-In . SVG Version: 6.00 Build 0)  -->
<svg version="1.1" id="user-trash-full.filled" xmlns="http://www.w3.org/2000/svg" xmlns:xlink="http://www.w3.org/1999/xlink"
	 x="0px" y="0px" viewBox="0 0 120 120" style="enable-background:new 0 0 120 120;" xml:space="preserve">
<style type="text/css">
	.st0{fill:none;}
</style>
<rect id="BG" class="st0" width="120" height="120"/>
<g>
	<path d="M46.4,23.1l0.1-0.7c-1.2,0.2-2.3,0.4-3.4,0.6c0.4-0.1,0.8-0.1,1.2-0.1C45,22.9,45.7,22.9,46.4,23.1L46.4,23.1z"/>
	<path d="M68,29.1c1.8-3.3,5.3-5.5,9.3-5.5c1.1,0,2.1,0.2,3.1,0.5l3.7-4L69.3,15l-5.3,9.8l4-0.5V29.1z"/>
	<path d="M60.9,25.2l1-1.9l-11.7-7.2l-1.3,7.9c1.2,0.6,2.3,1.4,3.2,2.4L60.9,25.2L60.9,25.2z"/>
	<path d="M86.4,42.8c-6.5,2.7-16.1,4.3-26.4,4.3c-10.3,0-19.9-1.6-26.4-4.3c-0.4-0.1-1.3-0.5-2.4-1l1.5,11.9l3.8,30.2
		c0,0,1.5,11.4,9.9,13.5c6.6,1.6,11.2,1.8,12.9,1.8c0.5,0,0.7,0,0.7,0s0.2,0,0.7,0c1.6,0,6.2-0.2,12.9-1.8
		c8.4-2.1,9.9-13.5,9.9-13.5l5.2-42L86.4,42.8L86.4,42.8z"/>
	<path d="M30.2,33.6c2.5,1.8,5.8,3,5.8,3c5.5,2.3,14.2,3.8,24,3.8c9.8,0,18.5-1.5,24-3.8l5.7-2.1v-0.1l0.2-1.3c0,0,0.1-1.4,0.1-1.4
		c0.1-0.3,0.1-0.5,0.1-0.8c0-0.6-0.2-1.2-0.6-1.8c0,0,0,0,0,0c-1-1.6-3.1-3-6.2-4.2L83,25.3c1.8,1.1,3.1,2.7,4,4.6l-2.6,0.8
		c-1.3-2.6-4-4.5-7.1-4.5c-4.4,0-7.9,3.6-7.9,7.9c0,0.1,0,0.3,0,0.4c-1.3,0.1-2.6,0.3-4,0.4v-7.5l-17.8,2.1v4.6
		c-0.9-0.2-1.8-0.3-2.7-0.5v-6.5l3.6-0.4c-1.2-0.8-2.7-1.2-4.2-1.2c-3.5,0-6.5,2.4-7.5,5.6c-0.1-0.1-0.3-0.1-0.4-0.2h-2.3
		c0.8-3.2,3.1-5.9,6.1-7.2C34,25.5,30,28.1,30,30.9c0,0.3,0.1,0.5,0.1,0.8c0-0.1,0.1,1.3,0.1,1.3L30.2,33.6z"/>
</g>
</svg>
