<?xml version="1.0" encoding="utf-8"?>
<!-- Generator: Adobe Illustrator 28.2.0, SVG Export Plug-In . SVG Version: 6.00 Build 0)  -->
<svg version="1.1" id="user-trash" xmlns="http://www.w3.org/2000/svg" xmlns:xlink="http://www.w3.org/1999/xlink" x="0px" y="0px"
	 viewBox="0 0 120 120" style="enable-background:new 0 0 120 120;" xml:space="preserve">
<style type="text/css">
	.st0{fill:none;}
</style>
<rect id="BG" class="st0" width="120" height="120"/>
<path d="M89.9,31.3c0.1-0.3,0.1-0.5,0.1-0.8c0-5.3-13.4-9.6-30-9.6s-30,4.3-30,9.6c0,0.3,0.1,0.5,0.1,0.8c0-0.1-0.1-0.1-0.1-0.1
	l6.5,52.3c0,0,1.5,11.4,9.9,13.5c6.6,1.6,11.2,1.8,12.9,1.8c0.5,0,0.7,0,0.7,0s0.2,0,0.7,0c1.6,0,6.2-0.2,12.9-1.8
	c8.4-2.1,9.9-13.5,9.9-13.5L90,31.2C90,31.2,89.9,31.3,89.9,31.3L89.9,31.3z M60,26.4c12.2,0,20.4,2.4,23.5,4.2
	c-3.2,1.8-11.4,4.2-23.5,4.2s-20.4-2.4-23.5-4.2C39.6,28.8,47.8,26.4,60,26.4z M78.1,82.8c0,0-1.2,7.8-5.9,9
	c-6.2,1.6-10.4,1.7-11.6,1.7c-0.2,0-0.4,0-0.4,0H60h-0.3c-0.1,0-0.2,0-0.4,0c-1.1,0-5.3-0.1-11.6-1.7c-4.6-1.2-5.9-8.9-5.9-8.9
	l-5.8-46.5c5.5,2.3,14.2,3.8,23.9,3.8s18.4-1.5,23.9-3.8L78.1,82.8L78.1,82.8z"/>
</svg>
