<?xml version="1.0" encoding="utf-8"?>
<!-- Generator: Adobe Illustrator 28.2.0, SVG Export Plug-In . SVG Version: 6.00 Build 0)  -->
<svg version="1.1" id="user-trash.filled" xmlns="http://www.w3.org/2000/svg" xmlns:xlink="http://www.w3.org/1999/xlink" x="0px"
	 y="0px" viewBox="0 0 120 120" style="enable-background:new 0 0 120 120;" xml:space="preserve">
<style type="text/css">
	.st0{fill:none;}
</style>
<rect id="BG" class="st0" width="120" height="120"/>
<g>
	<path d="M60,40.1c9.8,0,18.4-1.5,23.9-3.8l5.7-2.1l0.4-3c0,0-0.1,0.1-0.1,0.1c0.1-0.3,0.1-0.5,0.1-0.8c0-5.3-13.4-9.6-30-9.6
		s-30,4.3-30,9.6c0,0.3,0.1,0.5,0.1,0.8c0-0.1-0.1-0.1-0.1-0.1l0.3,2.1c2.5,1.8,5.8,3,5.8,3C41.6,38.6,50.2,40.1,60,40.1z M60,26.4
		c12.2,0,20.4,2.4,23.5,4.2c-3.2,1.8-11.4,4.2-23.5,4.2s-20.4-2.4-23.5-4.2C39.6,28.8,47.8,26.4,60,26.4z"/>
	<path d="M86.3,42.5c-6.5,2.7-16.1,4.3-26.4,4.3c-10.3,0-19.9-1.6-26.4-4.3c-0.4-0.1-1.3-0.5-2.4-1l5.2,42.1c0,0,1.5,11.4,9.9,13.5
		c6.6,1.6,11.2,1.8,12.9,1.8c0.5,0,0.7,0,0.7,0s0.2,0,0.7,0c1.6,0,6.2-0.2,12.9-1.8c8.4-2.1,9.9-13.5,9.9-13.5l5.2-41.9L86.3,42.5
		L86.3,42.5z"/>
</g>
</svg>
