<?xml version="1.0" encoding="utf-8"?>
<!-- Generator: Adobe Illustrator 28.2.0, SVG Export Plug-In . SVG Version: 6.00 Build 0)  -->
<svg version="1.1" xmlns="http://www.w3.org/2000/svg" xmlns:xlink="http://www.w3.org/1999/xlink" x="0px" y="0px"
	 viewBox="0 0 40 40" style="enable-background:new 0 0 40 40;" xml:space="preserve">
<g id="BG">
</g>
<g id="user-trash">
	<g>
		<path d="M20,12.5c3.7,0,7-0.6,9-1.4l2.2-0.8l0.1-1.1c0,0,0,0,0,0c0-0.1,0-0.2,0-0.3c0-2-5.1-3.6-11.3-3.6S8.7,6.9,8.7,8.9
			c0,0.1,0,0.2,0,0.3c0,0,0,0,0,0l0.1,0.8c0.9,0.7,2.2,1.1,2.2,1.1C13,11.9,16.3,12.5,20,12.5z M20,7.3c4.6,0,7.7,0.9,8.9,1.6
			c-1.2,0.7-4.3,1.6-8.9,1.6c-4.6,0-7.7-0.9-8.9-1.6C12.3,8.2,15.4,7.3,20,7.3z"/>
		<path d="M29.9,13.4c-2.5,1-6.1,1.6-9.9,1.6c-3.9,0-7.5-0.6-10-1.6c-0.1-0.1-0.5-0.2-0.9-0.4l2,15.9c0,0,0.6,4.3,3.8,5.1
			c2.5,0.6,4.2,0.7,4.9,0.7c0.2,0,0.3,0,0.3,0s0.1,0,0.3,0c0.6,0,2.4-0.1,4.9-0.7c3.2-0.8,3.8-5.1,3.8-5.1l2-15.8L29.9,13.4z"/>
	</g>
</g>
</svg>
