<?xml version="1.0" encoding="utf-8"?>
<!-- Generator: Adobe Illustrator 28.2.0, SVG Export Plug-In . SVG Version: 6.00 Build 0)  -->
<svg version="1.1" xmlns="http://www.w3.org/2000/svg" xmlns:xlink="http://www.w3.org/1999/xlink" x="0px" y="0px"
	 viewBox="0 0 40 40" style="enable-background:new 0 0 40 40;" xml:space="preserve">
<g id="BG">
</g>
<g id="desktop-action">
	<g>
		<g>
			<path d="M32.3,6.4H7.7c-1.8,0-3.4,1.5-3.4,3.4v20.4c0,1.8,1.5,3.4,3.4,3.4h24.6c1.8,0,3.4-1.5,3.4-3.4V9.8
				C35.7,7.9,34.2,6.4,32.3,6.4z M7.7,9.1h24.6c0.4,0,0.7,0.3,0.7,0.7v1.9H7V9.8C7,9.4,7.3,9.1,7.7,9.1z M32.3,30.8H7.7
				c-0.4,0-0.7-0.3-0.7-0.7V14.4h26v15.7C33,30.5,32.7,30.8,32.3,30.8z"/>
			<path d="M27.7,25.8H12.3c-0.8,0-1.3,0.6-1.3,1.3s0.6,1.3,1.3,1.3h15.5c0.8,0,1.3-0.6,1.3-1.3C29.1,26.4,28.5,25.8,27.7,25.8z"/>
		</g>
		<path d="M11,18.6h-0.9c-0.5,0-0.9-0.4-0.9-0.9v-0.9c0-0.5,0.4-0.9,0.9-0.9H11c0.5,0,0.9,0.4,0.9,0.9v0.9
			C11.9,18.2,11.5,18.6,11,18.6z"/>
		<path d="M11,22.5h-0.9c-0.5,0-0.9-0.4-0.9-0.9v-0.9c0-0.5,0.4-0.9,0.9-0.9H11c0.5,0,0.9,0.4,0.9,0.9v0.9
			C11.9,22,11.5,22.5,11,22.5z"/>
	</g>
</g>
</svg>
