<?xml version="1.0" encoding="utf-8"?>
<!-- Generator: Adobe Illustrator 28.2.0, SVG Export Plug-In . SVG Version: 6.00 Build 0)  -->
<svg version="1.1" xmlns="http://www.w3.org/2000/svg" xmlns:xlink="http://www.w3.org/1999/xlink" x="0px" y="0px"
	 viewBox="0 0 40 40" style="enable-background:new 0 0 40 40;" xml:space="preserve">
<g id="BG">
</g>
<g id="user-trash">
	<g>
		<path d="M31.3,9.2c0-0.1,0-0.2,0-0.3c0-2-5.1-3.6-11.3-3.6S8.7,6.9,8.7,8.9c0,0.1,0,0.2,0,0.3c0,0,0,0,0,0l2.5,19.7
			c0,0,0.6,4.3,3.8,5.1c2.5,0.6,4.2,0.7,4.9,0.7c0.2,0,0.3,0,0.3,0s0.1,0,0.3,0c0.6,0,2.4-0.1,4.9-0.7c3.2-0.8,3.8-5.1,3.8-5.1
			L31.3,9.2C31.3,9.2,31.3,9.2,31.3,9.2z M20,7.3c4.6,0,7.7,0.9,8.9,1.6c-1.2,0.7-4.3,1.6-8.9,1.6c-4.6,0-7.7-0.9-8.9-1.6
			C12.3,8.2,15.4,7.3,20,7.3z M26.8,28.6c0,0-0.5,2.9-2.2,3.4c-2.3,0.6-3.9,0.6-4.4,0.6c-0.1,0-0.1,0-0.1,0l-0.1,0l-0.1,0
			c0,0-0.1,0-0.2,0c-0.4,0-2,0-4.4-0.6c-1.8-0.4-2.2-3.3-2.2-3.4L11,11.1c2.1,0.9,5.3,1.4,9,1.4s7-0.6,9-1.4L26.8,28.6z"/>
	</g>
</g>
</svg>
