<?xml version="1.0" encoding="utf-8"?>
<!-- Generator: Adobe Illustrator 28.2.0, SVG Export Plug-In . SVG Version: 6.00 Build 0)  -->
<svg version="1.1" xmlns="http://www.w3.org/2000/svg" xmlns:xlink="http://www.w3.org/1999/xlink" x="0px" y="0px"
	 viewBox="0 0 40 40" style="enable-background:new 0 0 40 40;" xml:space="preserve">
<g id="BG">
</g>
<g id="user-trash-full_x5F_alt">
	<g>
		<path d="M14.9,6l0-0.3c-0.4,0.1-0.9,0.2-1.3,0.2c0.2,0,0.3,0,0.5,0C14.4,5.9,14.6,5.9,14.9,6z"/>
		<path d="M23,8.2c0.7-1.2,2-2.1,3.5-2.1c0.4,0,0.8,0.1,1.2,0.2l1.4-1.5l-5.6-1.9l-2,3.7L23,6.4V8.2z"/>
		<path d="M20.3,6.8l0.4-0.7l-4.4-2.7l-0.5,3c0.5,0.2,0.9,0.5,1.2,0.9L20.3,6.8z"/>
		<path d="M29.9,13.4c-2.5,1-6.1,1.6-9.9,1.6c-3.9,0-7.5-0.6-10-1.6c-0.1-0.1-0.5-0.2-0.9-0.4l0.6,4.5l1.4,11.4c0,0,0.6,4.3,3.8,5.1
			c2.5,0.6,4.2,0.7,4.9,0.7c0.2,0,0.3,0,0.3,0s0.1,0,0.3,0c0.6,0,2.4-0.1,4.9-0.7c3.2-0.8,3.8-5.1,3.8-5.1l2-15.8L29.9,13.4z"/>
		<path d="M8.7,9.7l0,0.3c0.9,0.7,2.2,1.1,2.2,1.1c2.1,0.9,5.3,1.4,9,1.4s7-0.6,9-1.4l2.2-0.8l0-0.1l0.1-0.5l0,0l0.1-0.6
			c0,0,0,0,0,0c0-0.1,0-0.2,0-0.3c0-0.2-0.1-0.5-0.2-0.7c0,0,0,0,0,0l0,0c-0.4-0.6-1.2-1.1-2.3-1.6l-0.1,0.1c0.7,0.4,1.2,1,1.5,1.7
			l-1,0.3c-0.5-1-1.5-1.7-2.7-1.7c-1.6,0-3,1.3-3,3c0,0.1,0,0.1,0,0.2c-0.5,0.1-1,0.1-1.5,0.1V7.6l-6.7,0.8v1.7
			c-0.4-0.1-0.7-0.1-1-0.2V7.5l1.4-0.2c-0.5-0.3-1-0.5-1.6-0.5c-1.3,0-2.5,0.9-2.8,2.1c0,0-0.1,0-0.1-0.1h-0.9
			c0.3-1.2,1.2-2.2,2.3-2.7c-2.4,0.7-3.9,1.6-3.9,2.7c0,0.1,0,0.2,0,0.3c0,0,0,0,0,0L8.7,9.7z"/>
	</g>
</g>
</svg>
