<?xml version="1.0" encoding="utf-8"?>
<!-- Generator: Adobe Illustrator 28.2.0, SVG Export Plug-In . SVG Version: 6.00 Build 0)  -->
<svg version="1.1" id="user-desktop" xmlns="http://www.w3.org/2000/svg" xmlns:xlink="http://www.w3.org/1999/xlink" x="0px"
	 y="0px" viewBox="0 0 120 120" style="enable-background:new 0 0 120 120;" xml:space="preserve">
<style type="text/css">
	.st0{fill:none;}
</style>
<rect id="BG" class="st0" width="120" height="120"/>
<g>
	<path d="M93.2,24.5L93.2,24.5H26.8c-6.5,0-11.9,5.3-11.9,11.8v47.4c0,6.5,5.3,11.9,11.9,11.9h66.4c6.5,0,11.8-5.3,11.8-11.9V36.3
		C105.1,29.8,99.8,24.5,93.2,24.5z M97.2,83.8c0,2.2-1.8,4-4,4H26.8c-2.2,0-4-1.8-4-4V36.3c0-2.2,1.8-4,4-4h66.4c2.2,0,4,1.8,4,4
		V83.8z"/>
	<path d="M82.6,75H36.2c-2.3,0-4,1.7-4,4s1.7,4,4,4h46.4c2.3,0,4-1.7,4-4S84.9,75,82.6,75z"/>
	<path d="M89.4,39h-2.7c-1.5,0-2.7,1.2-2.7,2.7v2.7c0,1.5,1.2,2.7,2.7,2.7h2.7c1.5,0,2.7-1.2,2.7-2.7v-2.7
		C92.1,40.2,90.9,39,89.4,39z"/>
	<path d="M89.4,50.5h-2.7c-1.5,0-2.7,1.2-2.7,2.7v2.7c0,1.5,1.2,2.7,2.7,2.7h2.7c1.5,0,2.7-1.2,2.7-2.7v-2.7
		C92.1,51.7,90.9,50.5,89.4,50.5z"/>
</g>
</svg>
