<?xml version="1.0" encoding="utf-8"?>
<!-- Generator: Adobe Illustrator 28.2.0, SVG Export Plug-In . SVG Version: 6.00 Build 0)  -->
<svg version="1.1" xmlns="http://www.w3.org/2000/svg" xmlns:xlink="http://www.w3.org/1999/xlink" x="0px" y="0px"
	 viewBox="0 0 40 40" style="enable-background:new 0 0 40 40;" xml:space="preserve">
<g id="BG">
</g>
<g id="user-trash_copy">
	<g>
		<path d="M14.9,6l0-0.3c-0.4,0.1-0.9,0.2-1.3,0.2c0.2,0,0.3,0,0.5,0C14.4,5.9,14.6,5.9,14.9,6z"/>
		<path d="M23,8.2c0.7-1.2,2-2.1,3.5-2.1c0.4,0,0.8,0.1,1.2,0.2l1.4-1.5l-5.6-1.9l-2,3.7L23,6.4V8.2z"/>
		<path d="M20.3,6.8l0.4-0.7l-4.4-2.7l-0.5,3c0.5,0.2,0.9,0.5,1.2,0.9L20.3,6.8z"/>
		<path d="M31.3,9.2c0-0.1,0-0.2,0-0.3c0-0.2-0.1-0.5-0.2-0.7c0,0,0,0,0,0l0,0c-0.4-0.6-1.2-1.1-2.3-1.6l-0.1,0.1
			c0.7,0.4,1.2,1,1.5,1.7l-1,0.3c-0.5-1-1.5-1.7-2.7-1.7c-1.6,0-3,1.3-3,3c0,0.1,0,0.1,0,0.2c-0.5,0.1-1,0.1-1.5,0.1V7.6l-6.7,0.8
			v1.7c-0.4-0.1-0.7-0.1-1-0.2V7.5l1.4-0.2c-0.5-0.3-1-0.5-1.6-0.5c-1.3,0-2.5,0.9-2.8,2.1c0,0-0.1,0-0.1-0.1h-0.9
			c0.3-1.2,1.2-2.2,2.3-2.7c-2.4,0.7-3.9,1.6-3.9,2.7c0,0.1,0,0.2,0,0.3c0,0,0,0,0,0l1,8.4l0,0l1.4,11.4c0,0,0.6,4.3,3.8,5.1
			c2.5,0.6,4.2,0.7,4.9,0.7c0.2,0,0.3,0,0.3,0s0.1,0,0.3,0c0.6,0,2.4-0.1,4.9-0.7c3.2-0.8,3.8-5.1,3.8-5.1L31.3,9.2
			C31.3,9.2,31.3,9.2,31.3,9.2z M26.8,28.6c0,0-0.5,2.9-2.2,3.4c-2.3,0.6-3.9,0.6-4.4,0.6c-0.1,0-0.1,0-0.1,0l-0.1,0l-0.1,0
			c0,0-0.1,0-0.2,0c-0.4,0-2,0-4.4-0.6c-1.8-0.4-2.2-3.3-2.2-3.4l-1.4-11.2h0L11,11.1c2.1,0.9,5.3,1.4,9,1.4c1.1,0,2.2-0.1,3.2-0.2
			c0,0,0,0,0,0l0,0c2.3-0.2,4.4-0.7,5.8-1.3l-0.7,5.7l0,0L26.8,28.6z"/>
	</g>
</g>
</svg>
